<svg width="12" height="12" viewBox="0 0 12 12" fill="none" xmlns="http://www.w3.org/2000/svg">
<path d="M10.7954 4.31982C10.8007 5.0271 10.5434 5.7112 10.0735 6.23982L6.23349 10.3745C6.17215 10.4424 6.08496 10.4811 5.99349 10.4811C5.90202 10.4811 5.81483 10.4424 5.75349 10.3745L1.91349 6.23982C1.44494 5.71067 1.18913 5.02662 1.19543 4.31982C1.19 3.61254 1.44727 2.92837 1.91736 2.39982L1.97589 2.33453C2.42562 1.81923 3.07471 1.52144 3.75858 1.51663C4.44162 1.52078 5.09017 1.81709 5.54041 2.33071L5.99543 2.83375L6.45045 2.32978C6.89831 1.81268 7.54866 1.51556 8.23263 1.51556C8.91666 1.51556 9.56702 1.81268 10.0148 2.32978L10.0733 2.39413V2.39407C10.5443 2.92436 10.8016 3.61068 10.7953 4.3199L10.7954 4.31982Z" fill="url(#paint0_linear_1265_1997)"/>
<path d="M8.74924 5.03827C8.75224 5.444 8.60469 5.83643 8.33511 6.13967L6.13231 8.51151C6.09712 8.55046 6.04711 8.57267 5.99464 8.57267C5.94216 8.57267 5.89215 8.55046 5.85696 8.51151L3.65417 6.13967C3.38539 5.83613 3.23864 5.44372 3.24225 5.03827C3.23914 4.63255 3.38672 4.24007 3.65639 3.93688L3.68996 3.89942C3.94794 3.60382 4.3203 3.433 4.71259 3.43024C5.10441 3.43262 5.47645 3.6026 5.73473 3.89723L5.99575 4.18579L6.25677 3.8967C6.51368 3.60007 6.88675 3.42963 7.2791 3.42963C7.67149 3.42963 8.04457 3.60007 8.30143 3.8967L8.33501 3.93361V3.93357C8.60518 4.23778 8.75275 4.63148 8.74914 5.03832L8.74924 5.03827Z" fill="#C36609"/>
<defs>
<linearGradient id="paint0_linear_1265_1997" x1="5.99541" y1="1.51556" x2="5.99541" y2="10.4811" gradientUnits="userSpaceOnUse">
<stop stop-color="#FBED9C"/>
<stop offset="1" stop-color="#AC701E"/>
</linearGradient>
</defs>
</svg>
