<svg width="12" height="12" viewBox="0 0 12 12" fill="none" xmlns="http://www.w3.org/2000/svg">
<g opacity="0.5">
<path d="M10.7954 4.31988C10.8007 5.02716 10.5434 5.71126 10.0735 6.23988L6.23349 10.3746C6.17215 10.4425 6.08496 10.4812 5.99349 10.4812C5.90202 10.4812 5.81483 10.4425 5.75349 10.3746L1.91349 6.23988C1.44494 5.71073 1.18913 5.02668 1.19543 4.31988C1.19 3.6126 1.44727 2.92843 1.91736 2.39988L1.97589 2.33459C2.42562 1.81929 3.07471 1.52151 3.75858 1.51669C4.44162 1.52084 5.09017 1.81715 5.54041 2.33077L5.99543 2.83381L6.45045 2.32984C6.89831 1.81275 7.54866 1.51562 8.23263 1.51562C8.91666 1.51562 9.56702 1.81275 10.0148 2.32984L10.0733 2.39419V2.39413C10.5443 2.92443 10.8016 3.61074 10.7953 4.31996L10.7954 4.31988Z" fill="#7754FF"/>
<path d="M8.74924 5.03833C8.75224 5.44406 8.60469 5.83649 8.33511 6.13973L6.13231 8.51157C6.09712 8.55052 6.04711 8.57273 5.99464 8.57273C5.94216 8.57273 5.89215 8.55052 5.85696 8.51157L3.65417 6.13973C3.38539 5.83619 3.23864 5.44379 3.24225 5.03833C3.23914 4.63261 3.38672 4.24014 3.65639 3.93694L3.68996 3.89948C3.94794 3.60389 4.3203 3.43306 4.71259 3.4303C5.10441 3.43268 5.47645 3.60266 5.73473 3.89729L5.99575 4.18586L6.25677 3.89676C6.51368 3.60013 6.88675 3.42969 7.2791 3.42969C7.67149 3.42969 8.04457 3.60013 8.30143 3.89676L8.33501 3.93367V3.93364C8.60518 4.23784 8.75275 4.63154 8.74914 5.03838L8.74924 5.03833Z" fill="#5421FD"/>
</g>
</svg>
