<svg width="24" height="24" viewBox="0 0 24 24" fill="none" xmlns="http://www.w3.org/2000/svg">
<g clip-path="url(#clip0_1196_2132)">
<path d="M12 4C7.59 4 4 7.59 4 12C4 16.41 7.59 20 12 20C16.41 20 20 16.41 20 12C20 7.59 16.41 4 12 4Z" fill="#7782AA"/>
<path d="M11.1664 5.99171C11.4313 5.73069 11.7514 5.59998 12.1274 5.59998C12.4965 5.59998 12.8118 5.72911 13.0738 5.98659C13.3353 6.24447 13.4663 6.56092 13.4663 6.93593C13.4663 7.31095 13.3353 7.63056 13.0738 7.89493C12.8118 8.15949 12.4963 8.29177 12.1274 8.29177C11.7516 8.29177 11.4313 8.15792 11.1664 7.89002C10.9013 7.62231 10.7687 7.30427 10.7687 6.93595C10.7687 6.56741 10.9013 6.25316 11.1664 5.99171Z" fill="#262237"/>
<path d="M9.60001 18.4H14.4L14.4 18.0926C13.8353 17.9808 13.2707 17.4917 13.2707 16.6253V9.59998H12.9301L9.60002 9.83674V10.2289C10.1647 10.3484 10.5527 10.5126 10.7337 10.722C10.9149 10.9312 11.0118 11.3008 11.0118 11.8308V16.446C11.0118 16.9989 10.8696 17.3836 10.6984 17.5998C10.5273 17.8166 10.1647 17.981 9.60001 18.0926V18.4Z" fill="#262237"/>
<path d="M12 2C6.48 2 2 6.48 2 12C2 17.52 6.48 22 12 22C17.52 22 22 17.52 22 12C22 6.48 17.52 2 12 2ZM12 20C7.59 20 4 16.41 4 12C4 7.59 7.59 4 12 4C16.41 4 20 7.59 20 12C20 16.41 16.41 20 12 20Z" fill="#7782AA"/>
</g>
<defs>
<clipPath id="clip0_1196_2132">
<rect width="24" height="24" fill="white"/>
</clipPath>
</defs>
</svg>
