<svg width="16" height="16" viewBox="0 0 16 16" fill="none" xmlns="http://www.w3.org/2000/svg">
<g clip-path="url(#clip0_23495_85158)">
<path d="M7.99997 16C3.58883 16 0 12.4115 0 7.99997C0 3.58846 3.58883 0 7.99997 0C12.4111 0 15.9999 3.58883 15.9999 7.99997C15.9999 12.4111 12.4115 16 7.99997 16ZM7.99997 1.28943C4.29972 1.28943 1.28943 4.29972 1.28943 7.99997C1.28943 11.7002 4.29972 14.7105 7.99997 14.7105C11.7002 14.7105 14.7105 11.7002 14.7105 7.99997C14.7105 4.29972 11.7005 1.28943 7.99997 1.28943Z" fill="#7782AA"/>
<path d="M5.55213 5.28731C5.68912 4.93574 5.88005 4.63193 6.12533 4.37452C6.37144 4.1159 6.66822 3.91542 7.01568 3.7718C7.36268 3.6265 7.75081 3.55469 8.18038 3.55469C8.73449 3.55469 9.19687 3.63062 9.56799 3.7834C9.93864 3.93572 10.2371 4.12544 10.4638 4.35125C10.6899 4.5779 10.8523 4.82195 10.9498 5.08264C11.0469 5.34455 11.0959 5.58906 11.0959 5.81487C11.0959 6.18888 11.0469 6.49765 10.9498 6.73964C10.8523 6.98163 10.7311 7.18836 10.5866 7.36014C10.4418 7.532 10.2824 7.67852 10.1064 7.79933C9.93124 7.92051 9.76518 8.04132 9.60912 8.1625C9.45306 8.28331 9.3144 8.42151 9.19359 8.57757C9.07241 8.73325 8.99602 8.92869 8.96534 9.16244V9.60743H7.38473V9.08025C7.40801 8.74485 7.47272 8.46425 7.57773 8.23805C7.68319 8.01186 7.80598 7.81841 7.94632 7.65822C8.08704 7.4988 8.23524 7.35976 8.39169 7.2427C8.54737 7.12525 8.69137 7.00818 8.82462 6.89234C8.95664 6.77444 9.06454 6.64623 9.14673 6.50551C9.22847 6.36562 9.26548 6.18881 9.25754 5.97833C9.25754 5.61928 9.16993 5.35409 8.99395 5.18261C8.81881 5.01037 8.57476 4.92482 8.26218 4.92482C8.05171 4.92482 7.87039 4.9655 7.71799 5.04731C7.56559 5.12911 7.44113 5.23908 7.34321 5.37561C7.24569 5.51259 7.17342 5.67277 7.12694 5.85547C7.08001 6.03976 7.05681 6.23566 7.05681 6.44736H5.33594C5.34334 6.02488 5.41515 5.63927 5.55213 5.28731ZM9.05875 10.3101V12.1123H7.22035V10.3101H9.05875Z" fill="#7782AA"/>
</g>
<defs>
<clipPath id="clip0_23495_85158">
<rect width="16" height="16" fill="white"/>
</clipPath>
</defs>
</svg>
