<svg width="44" height="44" viewBox="0 0 44 44" fill="none" xmlns="http://www.w3.org/2000/svg">
<circle cx="22" cy="22" r="22" fill="#F9BC01"/>
<path fill-rule="evenodd" clip-rule="evenodd" d="M16 26.5C13.2386 26.5 11.5 24.7614 11.5 22C11.5 19.2427 14.5 18 16.5 18C16.5 15.5 19 13.5 22 13.5C25 13.5 27.5 15.5 27.5 18C29.5 18 32.5 19.2427 32.5 22C32.5 24.7614 30.7614 26.5 28 26.5H25V21H19V26.5H16ZM23.1857 14.5358C22.9293 14.4332 22.6383 14.5579 22.5358 14.8143C22.4332 15.0707 22.5579 15.3617 22.8143 15.4642L22.9472 15.5174C24.267 16.0453 25.2309 17.2041 25.5097 18.5981C25.5639 18.8688 25.8273 19.0444 26.0981 18.9903C26.3689 18.9361 26.5445 18.6727 26.4903 18.4019C26.1453 16.6766 24.9522 15.2423 23.3186 14.5889L23.1857 14.5358Z" fill="white"/>
<path d="M23.5 23H20.5V27.5H19.5L22.0259 31.5L24.5 27.5H23.5V23Z" fill="white"/>
</svg>
