<?xml version="1.0" standalone="no"?><!DOCTYPE svg PUBLIC "-//W3C//DTD SVG 1.1//EN" "http://www.w3.org/Graphics/SVG/1.1/DTD/svg11.dtd"><svg t="1711198521076" class="icon" viewBox="0 0 1024 1024" version="1.1" xmlns="http://www.w3.org/2000/svg" p-id="13554" xmlns:xlink="http://www.w3.org/1999/xlink" width="200" height="200"><path d="M922.414347 541.92659c-22.816658-4.136204-44.669362 11.131525-48.744167 33.961486C848.775186 715.222471 744.263901 828.403207 607.404883 864.238366c-194.136535 50.939159-393.551284-65.632813-444.484304-259.810281-50.891064-194.2184 65.701374-393.634172 259.899308-444.532399 94.063329-24.65554 192.099133-11.213389 276.05629 37.879726 83.957157 49.079812 143.771451 127.915321 168.428014 221.97865 5.873778 22.433942 28.806069 35.855626 51.288107 29.981848 22.441105-5.879917 35.868929-28.840862 29.981848-51.288107-30.345122-115.771747-103.963817-212.796524-207.284997-273.212522-103.334483-60.402695-224.009913-76.983325-339.774497-46.611597C162.504094 141.264351 19.012006 386.695133 81.650625 625.733321 134.37443 826.783313 316.408323 960.216301 515.146667 960.216301c37.503149 0 75.616188-4.752234 113.550149-14.700817 168.420851-44.101427 297.04737-183.387727 327.679018-354.844727C960.457802 567.827493 945.251472 546.008558 922.414347 541.92659z" fill="#15d8c1" p-id="13555"></path><path d="M764.584716 512.088004c0-23.199375-18.803251-42.009789-42.009789-42.009789l-285.425681-0.01228 120.806413-120.806413c16.409738-16.403598 16.409738-43.001373 0-59.403948-16.396435-16.409738-43.007513-16.409738-59.403948 0L306.45974 481.948567c-0.153496 0.148379-0.334621 0.245593-0.485047 0.397043-10.261715 10.261715-14.100136 24.515347-11.520381 37.767162 1.534959 7.953136 5.380544 15.547091 11.540847 21.705348 0.080841 0.081864 0.180102 0.13303 0.261966 0.214894l192.294584 192.266955c8.204869 8.197706 18.953677 12.301164 29.702486 12.301164 10.748808 0 21.503756-4.102435 29.708626-12.307304 16.403598-16.403598 16.403598-43.007513-0.007163-59.411111L437.143105 554.085514l285.432845 0.01228C745.775324 554.097794 764.584716 535.287379 764.584716 512.088004z" fill="#15d8c1" p-id="13556"></path></svg>