<svg width="32" height="32" viewBox="0 0 32 32" fill="none" xmlns="http://www.w3.org/2000/svg">
<circle opacity="0.5" cx="16" cy="16.0002" r="14.6667" fill="black"/>
<path d="M14.3858 18.275C14.4429 18.275 14.4874 18.275 14.5318 18.275C16.057 18.275 17.5822 18.2752 19.1075 18.275C19.3336 18.2749 19.481 18.1795 19.5173 18.0087C19.5244 17.9746 19.5238 17.9388 19.5238 17.9039C19.5241 16.6554 19.5241 15.4071 19.524 14.1587C19.5239 13.9219 19.3847 13.7959 19.1236 13.7959C17.5915 13.7958 16.0593 13.7958 14.5271 13.7958C14.4858 13.7958 14.4443 13.7958 14.3858 13.7958C14.3858 13.7553 14.3858 13.7188 14.3858 13.6822C14.3858 12.5711 14.3859 11.46 14.3856 10.3488C14.3856 10.1959 14.3065 10.074 14.1725 10.0272C14.0182 9.97345 13.8814 9.99823 13.7651 10.1114C13.6984 10.1763 13.6259 10.2359 13.5574 10.299C12.6937 11.0928 11.8301 11.887 10.9666 12.6808C9.85754 13.7002 8.74836 14.7192 7.63927 15.7385C7.45462 15.908 7.45361 16.0869 7.63607 16.2546C9.2233 17.714 10.8104 19.1735 12.3981 20.6324C12.8496 21.0473 13.3036 21.4597 13.7547 21.8749C13.8708 21.9819 14.0003 22.0288 14.1589 21.9734C14.313 21.9195 14.3856 21.8078 14.3856 21.632C14.3858 20.5561 14.3858 19.4801 14.3858 18.4042C14.3858 18.3662 14.3858 18.3282 14.3858 18.275ZM17.2369 10.0626C17.2369 10.4851 17.2369 10.8988 17.2369 11.3241C17.2819 11.3241 17.3223 11.3241 17.3628 11.3241C18.524 11.3241 19.6853 11.324 20.8466 11.3242C21.5824 11.3243 22.1243 11.8244 22.1243 12.5036C22.1244 14.8535 22.1198 17.2034 22.1274 19.5532C22.1295 20.1749 21.616 20.6228 21.1412 20.7046C21.0363 20.7225 20.9279 20.7306 20.8211 20.7308C19.6703 20.7327 18.5194 20.732 17.3685 20.732C17.3276 20.732 17.2867 20.732 17.239 20.732C17.239 21.1532 17.239 21.5667 17.239 21.9863C17.2554 21.9893 17.2745 21.9961 17.2936 21.9961C18.5173 21.9961 19.7411 22.0076 20.9645 21.9912C22.1601 21.9754 23.2189 21.1396 23.4471 20.0579C23.4793 19.9055 23.4951 19.7477 23.4953 19.5924C23.4982 17.2169 23.505 14.8415 23.4937 12.4661C23.4889 11.4739 22.9537 10.7616 22.019 10.2987C21.6893 10.1353 21.325 10.0615 20.9496 10.0607C19.7364 10.0577 18.5231 10.0595 17.3099 10.0596C17.2894 10.0596 17.2689 10.0613 17.2369 10.0626Z" fill="white"/>
</svg>
