<svg width="30" height="30" viewBox="0 0 30 30" fill="none" xmlns="http://www.w3.org/2000/svg">
<rect width="30" height="30" rx="4" fill="#23262F"/>
<path d="M5.65209 15.1139C4.9025 15.5071 4.93356 16.0832 5.71945 16.3942L8.04793 17.3154C8.83448 17.6278 10.0246 17.4573 10.6913 16.9371L20.8028 8.96293C21.4675 8.44007 21.5388 8.51722 20.9615 9.13529L12.9682 17.6913C12.3889 18.3074 12.56 19.0642 13.349 19.3693L13.6219 19.4755C14.411 19.7806 15.6971 20.2931 16.481 20.6119L19.0634 21.6634C19.8479 21.9821 20.6863 21.6063 20.9092 20.79L24.8452 6.32279C25.0674 5.50648 24.6359 5.15989 23.8862 5.55243L5.65209 15.1139Z" fill="#7782AA"/>
<path d="M12.0416 24.5862C11.9957 24.7241 13.6341 22.2136 13.6341 22.2136C14.0974 21.5061 13.8343 20.6619 13.0517 20.3418L11.2648 19.6103C10.4821 19.2902 10.107 19.666 10.431 20.4481C10.431 20.4482 12.0889 24.4444 12.0416 24.5863L12.0416 24.5862Z" fill="#7782AA"/>
</svg>
