<svg width="24" height="24" viewBox="0 0 24 24" fill="none" xmlns="http://www.w3.org/2000/svg">
<path d="M4.28796 19.7599C4.28796 20.4677 4.86705 21.0468 5.57483 21.0468H9.43542V11.7986H4.28796V19.7599Z" fill="#01983A"/>
<path d="M19.7132 6.83567H17.71C18.0574 6.411 18.2462 5.8791 18.2462 5.32146C18.2462 4.01315 17.1824 2.94934 15.874 2.94934C14.5529 2.94934 13.3904 3.69143 12.511 5.09411C12.3052 5.42012 12.1421 5.74183 12.0092 6.03352C11.8762 5.74183 11.7132 5.42012 11.5073 5.09411C10.6279 3.69143 9.46118 2.94934 8.14429 2.94934C6.83598 2.94934 5.77218 4.01315 5.77218 5.32146C5.77218 5.88339 5.96092 6.411 6.30837 6.83567H4.27942C3.57164 6.83567 2.99255 7.41475 2.99255 8.12253V10.945H21.0001V8.12253C21.0001 7.41047 20.421 6.83567 19.7132 6.83567ZM15.874 3.80296C16.6976 3.80296 17.3883 4.49787 17.3883 5.31717C17.3883 6.1665 16.732 6.83138 15.8955 6.83138H12.6011C12.9829 5.8362 13.9909 3.80296 15.874 3.80296ZM6.6258 5.31717C6.6258 4.49358 7.3207 3.80296 8.14001 3.80296C10.0231 3.80296 11.0269 5.8362 11.4086 6.83567H8.11427C7.2821 6.83567 6.6258 6.1665 6.6258 5.31717Z" fill="#01983A"/>
<path d="M13.725 11.7986H10.2933V21.0468H13.725V11.7986Z" fill="#01983A"/>
<path d="M14.5829 21.0468H18.4435C19.1512 21.0468 19.7303 20.4677 19.7303 19.7599V11.7986H14.5829V21.0468Z" fill="#01983A"/>
</svg>
