<svg width="24" height="24" viewBox="0 0 24 24" fill="none" xmlns="http://www.w3.org/2000/svg">
<path d="M19.2325 5.59966C19.0378 5.40608 18.7235 5.40564 18.5283 5.59867L17.9325 6.18785C14.7811 9.34602 12.3677 11.9854 9.4417 14.9743C9.2587 15.1613 8.96229 15.175 8.76253 15.0061L5.7405 12.4504L5.10209 11.9097C4.89092 11.7309 4.57465 11.7576 4.39643 11.9693L3.32133 13.2464C3.14376 13.4573 3.17047 13.7722 3.38104 13.9502L4.01092 14.4827L8.34594 18.1509L8.93476 18.6481C9.13241 18.815 9.42475 18.8036 9.60878 18.6218L10.1591 18.0781C13.7435 14.486 16.3001 11.6114 19.8294 8.07434L20.4166 7.48052C20.6104 7.28457 20.6091 6.96875 20.4137 6.77441L19.2325 5.59966Z" fill="#01983A"/>
</svg>
