<svg width="14" height="14" viewBox="0 0 14 14" fill="none" xmlns="http://www.w3.org/2000/svg">
<path fill-rule="evenodd" clip-rule="evenodd" d="M1.53276 6.08861C1.49723 6.33824 1.47884 6.59341 1.47884 6.85287C1.47884 8.27561 2.03163 9.56929 2.93415 10.5308C3.59519 8.02818 5.1916 5.88026 7.34872 4.45296C7.11774 4.22068 6.87589 4.00047 6.62396 3.79322C6.09345 4.09887 5.49647 4.29808 4.86379 4.3646C4.71314 4.38043 4.56117 4.38869 4.40827 4.38926C3.23912 4.51374 2.19505 5.14119 1.53276 6.08861ZM1.75497 5.14762C2.56544 4.37886 3.65254 3.92287 4.82141 3.91864C5.32574 3.86507 5.80489 3.71766 6.23946 3.49298C5.56357 2.99227 4.82288 2.58172 4.03003 2.2785C2.97112 2.93357 2.15663 3.94607 1.75497 5.14762ZM8.04655 1.61066C7.66294 1.52375 7.26374 1.47787 6.85384 1.47787C6.02458 1.47787 5.23921 1.66565 4.53787 2.00103C5.29648 2.32581 6.00576 2.74547 6.65506 3.24546C7.25146 2.84 7.73625 2.27722 8.04655 1.61066ZM8.48452 1.72967C8.16027 2.45879 7.64977 3.07997 7.01756 3.53819C7.26719 3.74943 7.50695 3.97298 7.73625 4.20798C8.61208 3.67938 9.57167 3.26612 10.5919 2.99059C10.0032 2.42061 9.28442 1.98406 8.48452 1.72967ZM6.5948 12.2217C6.87741 11.685 7.07782 10.4647 7.07782 9.09244V8.60039C7.09109 7.45173 7.61282 6.42525 8.42855 5.73566C8.1911 5.40169 7.93525 5.08345 7.66231 4.78292C5.49061 6.19652 3.90237 8.36607 3.30582 10.8906C4.19198 11.6699 5.33677 12.1621 6.5948 12.2217ZM7.08482 12.223C8.34102 12.1699 9.48566 11.6856 10.3746 10.9144C10.1816 9.14867 9.58667 7.50519 8.68174 6.10862C7.97345 6.72452 7.52571 7.63223 7.52571 8.64455V9.09244C7.52571 10.3809 7.3589 11.542 7.08482 12.223ZM12.0558 5.49465C11.6857 5.35706 11.2908 5.28516 10.8851 5.28516C10.2034 5.28516 9.56911 5.48823 9.03944 5.83709C9.93371 7.20811 10.5397 8.80764 10.7778 10.5262C11.6778 9.56521 12.2288 8.27337 12.2288 6.85287C12.2288 6.38365 12.1687 5.92849 12.0558 5.49465ZM11.8904 4.97141C11.6688 4.37855 11.3455 3.83529 10.9418 3.36285C9.90685 3.61777 8.93419 4.01939 8.04901 4.5429C8.31082 4.8358 8.55721 5.14432 8.78709 5.46696C9.38862 5.06897 10.1098 4.83726 10.8851 4.83726C11.229 4.83726 11.5664 4.88294 11.8904 4.97141ZM6.85384 13.1237C3.39055 13.1237 0.583008 10.3161 0.583008 6.85287C0.583008 3.38958 3.39055 0.582031 6.85384 0.582031C10.3171 0.582031 13.1247 3.38958 13.1247 6.85287C13.1247 10.3161 10.3171 13.1237 6.85384 13.1237Z" fill="#7782AA"/>
</svg>
