<svg width="24" height="24" viewBox="0 0 24 24" fill="none" xmlns="http://www.w3.org/2000/svg">
<path d="M14.3316 9.10231C16.9303 9.15427 19.5219 9.43428 22.0718 9.93582C21.5028 7.164 19.7987 4.66409 17.2604 3.15616C16.3558 4.25378 15.6198 5.4826 15.0678 6.81157C14.7567 7.56114 14.5102 8.32696 14.3315 9.10231L14.3316 9.10231Z" fill="#7782AA"/>
<path d="M16.8331 21.0538C18.8612 19.9741 20.5405 18.213 21.4884 15.9309C22.1082 14.4388 22.3495 12.8797 22.2556 11.3675C19.5639 10.8043 16.8211 10.504 14.0763 10.4657C13.5834 14.177 14.5405 17.9833 16.8332 21.054L16.8331 21.0538Z" fill="#7782AA"/>
<path d="M12.7032 10.467C11.8799 10.4807 11.0602 10.5173 10.2389 10.5771C10.2351 10.6632 10.2335 10.7501 10.2296 10.8361C10.0844 14.1262 9.36709 17.3486 8.09276 20.4166C7.96583 20.7222 7.832 21.0252 7.6947 21.3238C7.81275 21.3781 7.93409 21.4311 8.05411 21.481C10.5447 22.5155 13.2132 22.4956 15.5604 21.6254C13.2211 18.3599 12.2292 14.3691 12.7034 10.4669L12.7032 10.467Z" fill="#7782AA"/>
<path d="M8.85862 10.7079C6.44859 10.9625 4.05812 11.4193 1.7153 12.0735C1.74835 15.5093 3.51046 18.7901 6.49191 20.6758C6.60915 20.4192 6.72173 20.1607 6.83082 19.8981C8.04963 16.9637 8.72826 13.8473 8.85864 10.7079L8.85862 10.7079Z" fill="#7782AA"/>
<path d="M7.94085 2.54587C5.56566 3.56626 3.57039 5.47455 2.50287 8.04468C2.15021 8.89374 1.91982 9.7617 1.80587 10.6303C4.12762 10.007 6.49406 9.5697 8.87878 9.32546C8.8575 7.04402 8.54599 4.76424 7.94102 2.54565L7.94085 2.54587Z" fill="#7782AA"/>
<path d="M9.23513 2.09607C9.87976 4.42391 10.2227 6.80705 10.2547 9.20992C10.7665 9.17289 11.2799 9.14471 11.792 9.12639C12.1724 9.11177 12.5532 9.10268 12.9342 9.09913C13.1356 8.14738 13.4249 7.20819 13.8057 6.29125C14.37 4.93276 15.1124 3.66951 16.0139 2.52804L15.9439 2.49883C13.7318 1.58 11.3791 1.49225 9.23496 2.0963L9.23513 2.09607Z" fill="#7782AA"/>
</svg>
