<svg width="62" height="22" viewBox="0 0 62 22" fill="none" xmlns="http://www.w3.org/2000/svg">
<path d="M25.5112 20.9316C25.408 20.9316 25.309 20.8906 25.236 20.8175C25.1631 20.7445 25.1221 20.6454 25.1221 20.542V7.92603C25.1234 6.70854 25.6071 5.54131 26.4669 4.68036C27.3267 3.81941 28.4925 3.33503 29.7086 3.33349L33.4306 3.33933C34.6435 3.34328 35.8056 3.82796 36.6625 4.68738C37.5195 5.5468 38.0016 6.71101 38.0035 7.92538V10.6109C38.0021 11.8283 37.5185 12.9955 36.6586 13.8563C35.7988 14.7172 34.633 15.2014 33.417 15.2028H28.1579C28.0547 15.2028 27.9557 15.1618 27.8828 15.0887C27.8098 15.0156 27.7688 14.9165 27.7688 14.8132C27.7688 14.7099 27.8098 14.6108 27.8828 14.5377C27.9557 14.4647 28.0547 14.4236 28.1579 14.4236H33.4157C34.4255 14.4224 35.3935 14.0204 36.1077 13.3057C36.8218 12.5909 37.2237 11.6219 37.2253 10.6109V7.92538C37.2237 6.91703 36.8235 5.95032 36.112 5.23658C35.4006 4.52284 34.4358 4.12015 33.4287 4.11655L29.7086 4.11071C28.6983 4.11191 27.7298 4.51429 27.0155 5.22956C26.3012 5.94482 25.8994 6.91457 25.8984 7.92603V20.5427C25.8982 20.6456 25.8574 20.7442 25.7849 20.8171C25.7123 20.8899 25.614 20.9311 25.5112 20.9316ZM41.9914 15.2593C41.8882 15.2593 41.7892 15.2182 41.7163 15.1452C41.6433 15.0721 41.6023 14.973 41.6023 14.8697V5.44568C41.602 5.09132 41.4612 4.75157 41.211 4.50094C40.9608 4.25031 40.6215 4.10927 40.2676 4.10876H38.6521C38.5489 4.10876 38.4499 4.06771 38.3769 3.99465C38.3039 3.92159 38.2629 3.8225 38.2629 3.71917C38.2629 3.61585 38.3039 3.51676 38.3769 3.4437C38.4499 3.37063 38.5489 3.32959 38.6521 3.32959H40.2663C40.826 3.33011 41.3627 3.55294 41.7584 3.94919C42.1542 4.34543 42.3768 4.88271 42.3773 5.44308V14.871C42.377 14.9735 42.3363 15.0718 42.264 15.1445C42.1918 15.2172 42.0938 15.2584 41.9914 15.2593Z" fill="#AAA9AD"/>
<path d="M41.6461 2.2603L40.9145 1.52723C40.8713 1.484 40.8371 1.43268 40.8137 1.37619C40.7904 1.31971 40.7783 1.25917 40.7783 1.19803C40.7783 1.13689 40.7904 1.07635 40.8137 1.01987C40.8371 0.963385 40.8713 0.912064 40.9145 0.868833L41.6461 0.136416C41.7334 0.0490668 41.8518 0 41.9752 0C42.0987 0 42.217 0.0490668 42.3044 0.136416L43.0359 0.868833C43.0791 0.912064 43.1134 0.963385 43.1367 1.01987C43.1601 1.07635 43.1721 1.13689 43.1721 1.19803C43.1721 1.25917 43.1601 1.31971 43.1367 1.37619C43.1134 1.43268 43.0791 1.484 43.0359 1.52723L42.3044 2.2603C42.217 2.34765 42.0987 2.39671 41.9752 2.39671C41.8518 2.39671 41.7334 2.34765 41.6461 2.2603Z" fill="#42FFFF"/>
<path d="M46.689 15.177H45.0883C44.9851 15.177 44.8862 15.136 44.8132 15.0629C44.7402 14.9898 44.6992 14.8907 44.6992 14.7874C44.6992 14.6841 44.7402 14.585 44.8132 14.5119C44.8862 14.4389 44.9851 14.3978 45.0883 14.3978H46.689C47.0459 14.3988 47.3994 14.3289 47.7292 14.1921C48.0589 14.0553 48.3583 13.8545 48.61 13.6011L52.354 9.85269C52.5054 9.70116 52.685 9.58096 52.8828 9.49896C53.0805 9.41695 53.2924 9.37474 53.5065 9.37474C53.7205 9.37474 53.9325 9.41695 54.1302 9.49896C54.3279 9.58096 54.5076 9.70116 54.659 9.85269L58.3894 13.5875C58.6413 13.8416 58.9411 14.043 59.2715 14.1801C59.6018 14.3172 59.956 14.3873 60.3136 14.3861H61.6107C61.7139 14.3861 61.8129 14.4272 61.8859 14.5002C61.9589 14.5733 61.9999 14.6724 61.9999 14.7757C61.9999 14.879 61.9589 14.9781 61.8859 15.0512C61.8129 15.1243 61.7139 15.1653 61.6107 15.1653H60.3136C59.8548 15.1665 59.4002 15.0766 58.9763 14.9007C58.5524 14.7248 58.1675 14.4665 57.844 14.1407L54.1103 10.4026C54.031 10.3232 53.9369 10.2602 53.8333 10.2172C53.7297 10.1742 53.6186 10.1521 53.5065 10.1521C53.3943 10.1521 53.2833 10.1742 53.1797 10.2172C53.0761 10.2602 52.982 10.3232 52.9027 10.4026L49.1586 14.153C48.835 14.4787 48.4501 14.7369 48.0262 14.9126C47.6023 15.0884 47.1478 15.1782 46.689 15.177ZM53.5039 9.12416C53.2897 9.12455 53.0776 9.08246 52.8798 9.00032C52.682 8.91819 52.5024 8.79763 52.3514 8.64563L48.6074 4.89718C48.3557 4.64481 48.0566 4.44483 47.7273 4.30876C47.3981 4.17269 47.0452 4.10323 46.689 4.10438H45.0883C44.9851 4.10438 44.8862 4.06333 44.8132 3.99027C44.7402 3.91721 44.6992 3.81812 44.6992 3.7148C44.6992 3.61147 44.7402 3.51238 44.8132 3.43932C44.8862 3.36626 44.9851 3.32521 45.0883 3.32521H46.689C47.1477 3.32379 47.6022 3.41344 48.0261 3.58898C48.45 3.76451 48.8349 4.02245 49.1586 4.34787L52.9027 8.09631C52.982 8.17575 53.0761 8.23876 53.1797 8.28175C53.2833 8.32475 53.3943 8.34688 53.5065 8.34688C53.6186 8.34688 53.7297 8.32475 53.8333 8.28175C53.9369 8.23876 54.031 8.17575 54.1103 8.09631L57.8407 4.3641C58.1645 4.03753 58.5498 3.77861 58.9743 3.60239C59.3988 3.42616 59.8541 3.33614 60.3136 3.33755H61.6107C61.7139 3.33755 61.8129 3.37859 61.8859 3.45165C61.9589 3.52472 61.9999 3.62381 61.9999 3.72713C61.9999 3.83046 61.9589 3.92955 61.8859 4.00261C61.8129 4.07567 61.7139 4.11672 61.6107 4.11672H60.3136C59.9568 4.11565 59.6032 4.18545 59.2735 4.3221C58.9438 4.45874 58.6444 4.6595 58.3926 4.91277L54.6622 8.64757C54.5103 8.79993 54.3297 8.92053 54.1309 9.00235C53.932 9.08417 53.7189 9.12558 53.5039 9.12416Z" fill="#AAA9AD"/>
<path d="M15.9689 17.1833C15.5737 17.1843 15.1822 17.1069 14.8171 16.9556C14.452 16.8042 14.1204 16.582 13.8416 16.3016L10.7701 13.2265C10.6615 13.1225 10.517 13.0645 10.3667 13.0645C10.2164 13.0645 10.0719 13.1225 9.96332 13.2265L6.88077 16.3113C6.60196 16.5917 6.27041 16.814 5.90529 16.9653C5.54017 17.1167 5.14871 17.1941 4.75354 17.1931H4.15039L8.04167 21.0889C8.62534 21.6724 9.41642 22.0001 10.2412 22.0001C11.066 22.0001 11.8571 21.6724 12.4408 21.0889L16.3418 17.1833H15.9689Z" fill="#42FFFF"/>
<path d="M4.75288 6.30716C5.14807 6.30601 5.53957 6.38336 5.90471 6.53471C6.26985 6.68606 6.60138 6.90842 6.88011 7.18891L9.96265 10.2731C10.0698 10.38 10.2148 10.44 10.366 10.44C10.5173 10.44 10.6623 10.38 10.7694 10.2731L13.841 7.198C14.1197 6.91751 14.4512 6.69515 14.8164 6.5438C15.1815 6.39245 15.573 6.3151 15.9682 6.31624H16.3379L12.4369 2.41067C11.8532 1.82722 11.0621 1.49951 10.2373 1.49951C9.41252 1.49951 8.62143 1.82722 8.03777 2.41067L4.14648 6.30651L4.75288 6.30716Z" fill="#42FFFF"/>
<path d="M19.5646 9.54791L17.2071 7.18768C17.154 7.20978 17.0972 7.22147 17.0398 7.22209H15.9684C15.4093 7.22264 14.8732 7.44436 14.4767 7.83893L11.4058 10.914C11.1292 11.1906 10.7543 11.3459 10.3633 11.3459C9.97237 11.3459 9.59741 11.1906 9.32077 10.914L6.23823 7.8279C5.84262 7.43393 5.3078 7.21205 4.74981 7.2104H3.4365C3.38226 7.2095 3.32864 7.19872 3.27826 7.17859L0.910415 9.54791C0.327447 10.1323 0 10.9244 0 11.7504C0 12.5763 0.327447 13.3684 0.910415 13.9528L3.27696 16.3221C3.32729 16.3017 3.38092 16.2907 3.43521 16.2897H4.75306C5.31096 16.2882 5.8458 16.0666 6.24147 15.6728L9.32401 12.5867C9.88111 12.0296 10.852 12.0289 11.4091 12.5867L14.48 15.6618C14.8762 16.0568 15.4124 16.2788 15.9716 16.2793H17.043C17.1006 16.2797 17.1576 16.2912 17.211 16.313L19.5678 13.9534C20.1508 13.3691 20.4782 12.5769 20.4782 11.751C20.4782 10.9251 20.1508 10.1329 19.5678 9.54855L19.5646 9.54791Z" fill="#42FFFF"/>
<path d="M28.7111 19.4708C28.5164 19.4794 28.3231 19.5087 28.1346 19.5585V20.3279C28.279 20.3784 28.4311 20.4036 28.584 20.4026C28.9686 20.4026 29.1515 20.2727 29.1515 19.9331C29.1515 19.6137 29.0017 19.4708 28.7111 19.4708ZM28.0049 20.8993V19.378H28.1106L28.1216 19.4429C28.318 19.3904 28.5192 19.3579 28.7222 19.3462C28.863 19.3364 29.0027 19.3769 29.1165 19.4604C29.2462 19.5682 29.2903 19.7422 29.2903 19.9318C29.2903 20.1214 29.2254 20.3175 29.0439 20.4214C28.9051 20.49 28.7517 20.5238 28.597 20.5201C28.4403 20.5194 28.2845 20.4958 28.1346 20.45V20.8973L28.0049 20.8993Z" fill="#AAA9AD"/>
<path d="M30.2574 19.4662C29.8722 19.4662 29.7003 19.5869 29.7003 19.9265C29.7003 20.2551 29.8696 20.4025 30.2574 20.4025C30.6452 20.4025 30.8119 20.2836 30.8119 19.944C30.8119 19.6155 30.6426 19.4662 30.2574 19.4662ZM30.7523 20.4018C30.6225 20.494 30.4533 20.5206 30.2574 20.5206C30.0616 20.5206 29.8851 20.4921 29.76 20.4018C29.6186 20.3025 29.5615 20.1421 29.5615 19.935C29.5615 19.7278 29.6186 19.5668 29.76 19.4649C29.8851 19.3746 30.057 19.3467 30.2574 19.3467C30.4578 19.3467 30.6245 19.3746 30.7523 19.4649C30.8956 19.5668 30.9507 19.7317 30.9507 19.9324C30.9507 20.133 30.893 20.3025 30.7523 20.4018Z" fill="#AAA9AD"/>
<path d="M32.5752 20.4908L32.1465 19.5675H32.1374L31.7146 20.4908H31.5985L31.1406 19.3779H31.2833L31.664 20.3123H31.6731L32.0869 19.3779H32.2055L32.6303 20.3123H32.6394L33.011 19.3779H33.1498L32.692 20.4908H32.5752Z" fill="#AAA9AD"/>
<path d="M33.9829 19.4634C33.6262 19.4634 33.5056 19.6225 33.4835 19.853H34.4823C34.4719 19.5997 34.3415 19.4634 33.9829 19.4634ZM33.979 20.5211C33.765 20.5211 33.6262 20.4906 33.5166 20.3977C33.3869 20.2854 33.3428 20.1224 33.3428 19.9354C33.3428 19.7484 33.4018 19.5673 33.5497 19.4595C33.679 19.3782 33.8304 19.339 33.9829 19.3472C34.1386 19.3376 34.2936 19.3752 34.4278 19.4549C34.588 19.5627 34.6224 19.7523 34.6224 19.9679H33.4757C33.4803 20.1971 33.5548 20.4003 33.9861 20.4003C34.1792 20.3956 34.3715 20.3739 34.5607 20.3354V20.4523C34.3685 20.4918 34.1732 20.5146 33.9771 20.5205L33.979 20.5211Z" fill="#AAA9AD"/>
<path d="M34.9883 20.4909V19.378H35.0941L35.1052 19.4429C35.3409 19.3832 35.4512 19.3462 35.6577 19.3462H35.6733V19.4696H35.6428C35.4688 19.4696 35.3629 19.4936 35.1181 19.5572V20.4896L34.9883 20.4909Z" fill="#AAA9AD"/>
<path d="M36.4272 19.4634C36.0705 19.4634 35.9499 19.6225 35.9278 19.853H36.9266C36.9162 19.5997 36.7859 19.4634 36.4272 19.4634ZM36.4227 20.5211C36.2093 20.5211 36.0705 20.4906 35.9609 20.3977C35.8312 20.2854 35.7871 20.1224 35.7871 19.9354C35.7871 19.7484 35.8461 19.5673 35.994 19.4595C36.1234 19.3782 36.2747 19.339 36.4272 19.3472C36.583 19.3376 36.738 19.3752 36.8721 19.4549C37.0323 19.5627 37.0667 19.7523 37.0667 19.9679H35.9233C35.9278 20.1971 36.0024 20.4003 36.4337 20.4003C36.6268 20.3956 36.8191 20.3739 37.0083 20.3354V20.4523C36.8161 20.4918 36.6208 20.5146 36.4246 20.5205L36.4227 20.5211Z" fill="#AAA9AD"/>
<path d="M38.4861 19.5411C38.3419 19.4907 38.1901 19.4654 38.0373 19.4664C37.6521 19.4664 37.4698 19.5963 37.4698 19.9359C37.4698 20.2573 37.619 20.3982 37.9096 20.3982C38.1042 20.3895 38.2974 20.3607 38.4861 20.3125V19.5411ZM38.5108 20.4911L38.4997 20.4261C38.3031 20.4784 38.1017 20.5108 37.8985 20.5229C37.7578 20.5337 37.618 20.4931 37.5049 20.4086C37.3752 20.3002 37.3311 20.1261 37.3311 19.9372C37.3311 19.7385 37.3959 19.5515 37.5775 19.4496C37.7164 19.3792 37.8707 19.3446 38.0263 19.3489C38.1821 19.3508 38.3369 19.3744 38.4861 19.419V18.9087H38.6158V20.4911H38.5108Z" fill="#AAA9AD"/>
<path d="M40.5204 19.471C40.3254 19.4795 40.1319 19.5089 39.9432 19.5586V20.3255C40.0872 20.3778 40.2394 20.4039 40.3926 20.4027C40.7779 20.4027 40.9601 20.2729 40.9601 19.9333C40.9601 19.6138 40.8109 19.471 40.5204 19.471ZM40.8524 20.4229C40.7137 20.4915 40.5603 20.5253 40.4056 20.5216C40.2364 20.5205 40.0684 20.4922 39.9082 20.4378L39.9017 20.4911H39.8135V18.9087H39.9432V19.4398C40.1357 19.3905 40.3324 19.3596 40.5308 19.3476C40.6716 19.3378 40.8113 19.3783 40.9251 19.4619C41.0548 19.5697 41.0989 19.7437 41.0989 19.9333C41.0989 20.1229 41.034 20.319 40.8524 20.4229Z" fill="#AAA9AD"/>
<path d="M41.2723 20.9212V20.8004C41.3372 20.8069 41.3956 20.8114 41.4371 20.8114C41.5979 20.8114 41.6965 20.7647 41.7853 20.5816L41.8269 20.4939L41.2432 19.381H41.393L41.8963 20.3368H41.9053L42.3781 19.3765H42.5253L41.8963 20.627C41.7815 20.8543 41.6582 20.929 41.4312 20.929C41.3777 20.9284 41.3242 20.9247 41.2711 20.9179L41.2723 20.9212Z" fill="#AAA9AD"/>
<path d="M44.3118 19.8556H43.8805V20.2452H44.3138C44.6115 20.2452 44.7237 20.212 44.7237 20.0504C44.7237 19.8764 44.5693 19.8556 44.3118 19.8556ZM44.2308 19.2231H43.8805V19.6225H44.2346C44.5278 19.6225 44.6445 19.5874 44.6445 19.4218C44.6445 19.2459 44.4967 19.227 44.2327 19.227L44.2308 19.2231ZM44.9001 20.3848C44.7412 20.486 44.5498 20.4906 44.1996 20.4906H43.5439V18.981H44.1867C44.4882 18.981 44.6731 18.9855 44.8268 19.0784C44.8779 19.1088 44.9195 19.153 44.9468 19.2059C44.9741 19.2588 44.986 19.3183 44.9811 19.3777C44.9811 19.5361 44.9163 19.642 44.7431 19.7127V19.7212C44.9377 19.7653 45.0622 19.8647 45.0622 20.0783C45.0671 20.1393 45.0546 20.2004 45.0263 20.2547C44.9979 20.3089 44.9548 20.354 44.902 20.3848H44.9001Z" fill="#AAA9AD"/>
<path d="M46.3791 20.0233C46.2493 20.0122 46.1196 20.0057 45.9783 20.0057C45.7513 20.0057 45.6721 20.0518 45.6721 20.1557C45.6721 20.2596 45.737 20.3057 45.9121 20.3057C46.0696 20.3002 46.226 20.2784 46.3791 20.2408V20.0246V20.0233ZM46.4439 20.4908L46.4355 20.4258C46.2387 20.4808 46.0364 20.5133 45.8323 20.5226C45.7144 20.5308 45.5968 20.5022 45.4957 20.4408C45.4523 20.4042 45.4185 20.3575 45.3975 20.3047C45.3765 20.2519 45.3688 20.1947 45.3753 20.1383C45.3817 20.0818 45.402 20.0278 45.4343 19.9811C45.4666 19.9344 45.51 19.8965 45.5606 19.8707C45.6773 19.8155 45.8336 19.8109 45.977 19.8109C46.093 19.8109 46.2493 19.8174 46.3797 19.8265V19.8064C46.3797 19.6324 46.2649 19.5752 45.9523 19.5752C45.8317 19.5752 45.6838 19.5817 45.5431 19.5947V19.3701C45.6994 19.3571 45.8751 19.3486 46.0204 19.3486C46.215 19.3486 46.4147 19.3636 46.5392 19.4519C46.6638 19.5402 46.691 19.6681 46.691 19.833V20.4921L46.4439 20.4908Z" fill="#AAA9AD"/>
<path d="M48.1402 20.4909V19.876C48.1402 19.6734 48.0364 19.6007 47.8516 19.6007C47.6981 19.6075 47.5459 19.631 47.3976 19.6708V20.4909H47.0869V19.378H47.3431L47.3535 19.4481C47.5472 19.3917 47.7467 19.3579 47.9482 19.3474C48.0849 19.3365 48.2207 19.3773 48.3289 19.4617C48.4171 19.5409 48.4502 19.6513 48.4502 19.8098V20.4909H48.1402Z" fill="#AAA9AD"/>
<path d="M49.3255 20.5213C49.1822 20.5213 49.0259 20.5018 48.9118 20.4044C48.7749 20.2947 48.7354 20.1207 48.7354 19.933C48.7354 19.757 48.7924 19.5648 48.9623 19.4571C49.1005 19.3668 49.2723 19.3467 49.4507 19.3467C49.5804 19.3467 49.7036 19.3558 49.8398 19.3688V19.6071C49.7276 19.596 49.5934 19.5869 49.4857 19.5869C49.1906 19.5869 49.0518 19.6798 49.0518 19.9356C49.0518 20.1758 49.1556 20.2791 49.3975 20.2791C49.5545 20.2739 49.7108 20.2548 49.8645 20.2219V20.4512C49.6866 20.4919 49.5053 20.5154 49.3229 20.5213H49.3255Z" fill="#AAA9AD"/>
<path d="M50.7804 19.5806C50.4853 19.5806 50.3556 19.6734 50.3556 19.9267C50.3556 20.1799 50.4853 20.2883 50.7804 20.2883C51.0754 20.2883 51.2006 20.1974 51.2006 19.9442C51.2006 19.691 51.0754 19.5806 50.7804 19.5806ZM51.3154 20.402C51.1792 20.4948 51.0009 20.5188 50.7829 20.5188C50.565 20.5188 50.3821 20.4922 50.2479 20.402C50.0942 20.3007 50.0391 20.1331 50.0391 19.9332C50.0391 19.7332 50.0942 19.5624 50.2479 19.4611C50.3821 19.3709 50.5605 19.3442 50.7829 19.3442C51.0054 19.3442 51.1792 19.3709 51.3154 19.4611C51.4698 19.5624 51.5223 19.7325 51.5223 19.9306C51.5223 20.1286 51.4672 20.3007 51.3154 20.402Z" fill="#AAA9AD"/>
<path d="M53.3141 20.5214C53.1266 20.5214 52.9249 20.4908 52.7725 20.3649C52.5922 20.2149 52.5371 19.9837 52.5371 19.735C52.5371 19.5123 52.6071 19.2481 52.8426 19.0935C53.0255 18.9747 53.2525 18.9507 53.4814 18.9507C53.6487 18.9507 53.8199 18.9617 54.0074 18.9767V19.2481C53.8465 19.2344 53.6487 19.2234 53.4944 19.2234C53.065 19.2234 52.8828 19.387 52.8828 19.735C52.8828 20.0831 53.0521 20.2486 53.3692 20.2486C53.5954 20.2406 53.8202 20.2101 54.0404 20.1577V20.4266C53.802 20.482 53.5587 20.5138 53.3141 20.5214Z" fill="#AAA9AD"/>
<path d="M54.9527 19.5454C54.6933 19.5454 54.596 19.6382 54.5759 19.8051H55.3243C55.3159 19.6246 55.2102 19.5454 54.9527 19.5454ZM54.906 20.5193C54.7238 20.5193 54.5584 20.4972 54.4352 20.396C54.312 20.2947 54.2568 20.1206 54.2568 19.9311C54.2568 19.7616 54.312 19.572 54.4663 19.4616C54.6025 19.3649 54.7763 19.3447 54.9527 19.3447C55.111 19.3447 55.2984 19.3623 55.4346 19.4571C55.6129 19.583 55.6292 19.7772 55.6292 20.0064H54.574C54.5805 20.1758 54.6706 20.2862 54.9832 20.2862C55.1818 20.282 55.3797 20.2627 55.5753 20.2284V20.4466C55.3546 20.4889 55.1307 20.5133 54.906 20.5193Z" fill="#AAA9AD"/>
<path d="M57.0116 20.4909V19.876C57.0116 19.6734 56.9078 19.6007 56.723 19.6007C56.5695 19.6075 56.4173 19.631 56.269 19.6708V20.4909H55.959V19.378H56.2119L56.2229 19.4481C56.4164 19.3916 56.6158 19.3579 56.817 19.3475C56.9537 19.3365 57.0896 19.3772 57.1977 19.4617C57.2859 19.541 57.319 19.6513 57.319 19.8098V20.4909H57.0116Z" fill="#AAA9AD"/>
<path d="M58.2028 20.5214C58.053 20.5214 57.9168 20.4799 57.8422 20.363C57.781 20.2618 57.7525 20.1441 57.7605 20.026V19.6092H57.5361V19.378H57.7605L57.7936 19.041H58.0686V19.378H58.5064V19.6092H58.0686V19.9663C58.0643 20.0382 58.0749 20.1103 58.0997 20.178C58.1328 20.2526 58.2048 20.2812 58.3021 20.2812C58.3764 20.2798 58.4506 20.2726 58.5239 20.2598V20.4818C58.4183 20.505 58.3109 20.5183 58.2028 20.5214Z" fill="#AAA9AD"/>
<path d="M58.8086 20.4912V19.3783H59.0618L59.0735 19.4484C59.2512 19.3883 59.4367 19.3544 59.6241 19.3477C59.6373 19.347 59.6505 19.347 59.6637 19.3477V19.612C59.6287 19.612 59.5865 19.612 59.5559 19.612C59.4087 19.6126 59.2621 19.6318 59.1196 19.6692V20.4912H58.8086Z" fill="#AAA9AD"/>
<path d="M60.7912 20.0233C60.6615 20.0122 60.5317 20.0057 60.3904 20.0057C60.1634 20.0057 60.0842 20.0518 60.0842 20.1557C60.0842 20.2596 60.1491 20.3057 60.3242 20.3057C60.4817 20.3002 60.6382 20.2784 60.7912 20.2408V20.0246V20.0233ZM60.856 20.4908L60.8476 20.4258C60.6508 20.4808 60.4485 20.5133 60.2444 20.5226C60.1265 20.5308 60.0089 20.5022 59.9078 20.4408C59.8644 20.4042 59.8306 20.3575 59.8096 20.3047C59.7886 20.2519 59.7809 20.1947 59.7874 20.1383C59.7938 20.0818 59.8141 20.0278 59.8464 19.9811C59.8788 19.9344 59.9221 19.8965 59.9727 19.8707C60.0894 19.8155 60.2457 19.8109 60.3891 19.8109C60.5052 19.8109 60.6615 19.8174 60.7918 19.8265V19.8064C60.7918 19.6324 60.677 19.5752 60.3644 19.5752C60.2438 19.5752 60.0959 19.5817 59.9552 19.5947V19.3701C60.1115 19.3571 60.2872 19.3486 60.4325 19.3486C60.6271 19.3486 60.8268 19.3636 60.9514 19.4519C61.0759 19.5402 61.1031 19.6681 61.1031 19.833V20.4921L60.856 20.4908Z" fill="#AAA9AD"/>
<path d="M61.5 18.9087H61.811V20.4911H61.5V18.9087Z" fill="#AAA9AD"/>
</svg>
