<svg width="20" height="20" viewBox="0 0 20 20" fill="none" xmlns="http://www.w3.org/2000/svg">
<g id="icon_public_97">
<g id="Group 772544990">
<path id="Rectangle 2385 (Stroke)" fill-rule="evenodd" clip-rule="evenodd" d="M12.5631 1.49997C12.7792 1.27018 13.1406 1.25907 13.3704 1.47516L17.0786 4.96218C17.4921 5.35106 17.7088 5.90443 17.6593 6.47027L16.699 17.446C16.6079 18.4876 15.6709 19.2268 14.64 19.1366C14.3258 19.1091 14.0934 18.8321 14.1209 18.5179C14.1483 18.2037 14.4254 17.9712 14.7396 17.9987C15.1751 18.0368 15.5278 17.7271 15.5611 17.3464L16.5213 6.37071C16.5397 6.16107 16.4603 5.94873 16.296 5.79431L12.5879 2.30729C12.3581 2.09121 12.347 1.72976 12.5631 1.49997Z" fill="#7782AA"/>
<path id="Subtract" fill-rule="evenodd" clip-rule="evenodd" d="M4.01407 4.57521C4.08454 4.17553 4.34579 3.83144 4.72528 3.63849L9.5965 1.16168C10.1931 0.858349 10.9477 0.991408 11.4045 1.48048L15.1349 5.47398C15.4255 5.78509 15.5533 6.19778 15.4828 6.59746L13.4879 17.9109C13.3587 18.6439 12.6121 19.125 11.8203 18.9854L3.21876 17.4687C2.42701 17.3291 1.88995 16.6217 2.0192 15.8887L4.01407 4.57521ZM11.2282 5.57749C11.0886 6.36924 10.3335 6.89791 9.54179 6.7583C8.75004 6.61869 8.22137 5.86368 8.36098 5.07193C8.50058 4.28017 9.2556 3.75151 10.0473 3.89111C10.8391 4.03072 11.3678 4.78574 11.2282 5.57749ZM7.93653 14.7351L7.82692 15.3567L8.26254 15.4335L8.37204 14.8125C8.74538 14.8606 9.07966 14.8546 9.37489 14.7943C9.72705 14.7232 10.0135 14.5792 10.2343 14.3625C10.4551 14.1458 10.5979 13.8588 10.6628 13.5014C10.6975 13.2939 10.6976 13.0967 10.663 12.9099C10.6302 12.7233 10.5579 12.5481 10.4462 12.3842C10.3349 12.2185 10.1812 12.0645 9.9854 11.9222C9.78956 11.78 9.54674 11.6504 9.25694 11.5336L8.97069 11.4174L9.13813 10.4678C9.26434 10.513 9.3602 10.5751 9.42572 10.6541C9.52688 10.7742 9.56893 10.924 9.55187 11.1036L10.965 11.3527C11.026 10.9965 10.9922 10.6701 10.8637 10.3736C10.7373 10.0756 10.5269 9.82485 10.2323 9.62136C9.98875 9.45315 9.69585 9.32802 9.35358 9.24594L9.46153 8.6337L9.02592 8.55689L8.91805 9.16863C8.56997 9.12816 8.24676 9.14392 7.9484 9.21591C7.59166 9.30273 7.29649 9.45974 7.06289 9.68695C6.83137 9.9127 6.68605 10.1984 6.62693 10.544C6.55023 10.9687 6.62829 11.3284 6.86114 11.6233C7.09606 11.9167 7.44514 12.1581 7.90837 12.3475L8.32742 12.5183L8.15136 13.5167C8.04911 13.4845 7.95879 13.4428 7.88039 13.3915C7.75612 13.3093 7.66679 13.205 7.6124 13.0786C7.55801 12.9521 7.54106 12.8049 7.56156 12.6369L6.15909 12.3896C6.08061 12.845 6.11213 13.2358 6.25362 13.562C6.3972 13.8868 6.63197 14.15 6.95792 14.3517C7.23301 14.5213 7.55922 14.6491 7.93653 14.7351ZM8.5878 13.5889C8.64889 13.5897 8.70532 13.5855 8.7571 13.5762C8.87021 13.556 8.96031 13.5162 9.02738 13.4568C9.09445 13.3974 9.13668 13.3236 9.15406 13.2354C9.16697 13.1519 9.15232 13.0744 9.11012 13.0031C9.07001 12.9303 8.99501 12.8586 8.88511 12.7881C8.84392 12.7609 8.79677 12.7332 8.74365 12.705L8.5878 13.5889ZM8.55374 11.2347L8.70298 10.3884C8.64081 10.387 8.58438 10.3912 8.5337 10.4009C8.43183 10.4195 8.35241 10.4557 8.29544 10.5096C8.23847 10.5634 8.20208 10.63 8.18626 10.7094C8.17116 10.7743 8.17221 10.8356 8.18941 10.8935C8.20868 10.9498 8.24468 11.0045 8.29739 11.0576C8.35042 11.109 8.42089 11.1598 8.50881 11.21C8.52329 11.2182 8.53827 11.2265 8.55374 11.2347Z" fill="#7782AA"/>
</g>
</g>
</svg>
