<svg width="24" height="24" viewBox="0 0 24 24" fill="none" xmlns="http://www.w3.org/2000/svg">
<g id="icon_public_86">
<g id="Group 772544321">
<circle id="Ellipse 33" cx="12" cy="12" r="12" fill="#4D7EEE"/>
<g id="S/.">
<path d="M10.6988 9.6876C10.6619 9.33143 10.5062 9.05411 10.2317 8.85563C9.95991 8.65715 9.60627 8.55791 9.17083 8.55791C8.8647 8.55791 8.60211 8.60549 8.38307 8.70065C8.16403 8.79581 7.99645 8.92496 7.88033 9.08809C7.76421 9.25122 7.70483 9.43747 7.70219 9.64682C7.70219 9.82083 7.74046 9.97172 7.81699 10.0995C7.89616 10.2273 8.00305 10.3361 8.13764 10.4258C8.27223 10.5128 8.42134 10.5862 8.58496 10.646C8.74858 10.7058 8.91352 10.7561 9.07978 10.7969L9.83983 10.9927C10.146 11.0661 10.4402 11.1653 10.7226 11.2904C11.0076 11.4154 11.2623 11.5731 11.4866 11.7635C11.7136 11.9538 11.893 12.1835 12.025 12.4527C12.1569 12.7219 12.2229 13.0372 12.2229 13.3989C12.2229 13.8883 12.1015 14.3192 11.8587 14.6917C11.6159 15.0614 11.2649 15.351 10.8057 15.5604C10.3492 15.767 9.79629 15.8703 9.14708 15.8703C8.51634 15.8703 7.96874 15.7697 7.50426 15.5685C7.04243 15.3673 6.68088 15.0737 6.41961 14.6876C6.16098 14.3015 6.02111 13.8312 6 13.2765H7.44488C7.466 13.5674 7.55309 13.8094 7.70615 14.0024C7.85922 14.1955 8.05847 14.3396 8.3039 14.4347C8.55197 14.5299 8.82907 14.5775 9.1352 14.5775C9.45453 14.5775 9.73427 14.5285 9.97442 14.4307C10.2172 14.3301 10.4072 14.1914 10.5445 14.0147C10.6817 13.8352 10.7516 13.6259 10.7543 13.3866C10.7516 13.1691 10.6896 12.9897 10.5682 12.8483C10.4468 12.7042 10.2766 12.5846 10.0576 12.4894C9.84115 12.3915 9.5878 12.3045 9.2975 12.2284L8.37515 11.9837C7.70747 11.807 7.17966 11.5392 6.79172 11.1803C6.40642 10.8187 6.21376 10.3388 6.21376 9.74062C6.21376 9.2485 6.34308 8.81756 6.60171 8.4478C6.86297 8.07803 7.21793 7.79119 7.66657 7.58728C8.11521 7.38064 8.62322 7.27732 9.19062 7.27732C9.76594 7.27732 10.27 7.38064 10.7028 7.58728C11.1382 7.79119 11.48 8.07531 11.7281 8.43964C11.9761 8.80125 12.1041 9.21724 12.1121 9.6876H10.6988Z" fill="white"/>
<path d="M16.7782 7L14.1656 17H12.9107L15.5234 7H16.7782Z" fill="white"/>
<path d="M18.1291 15.8336C17.889 15.8336 17.6831 15.7466 17.5116 15.5726C17.34 15.3986 17.2556 15.1865 17.2582 14.9364C17.2556 14.6917 17.34 14.4823 17.5116 14.3083C17.6831 14.1343 17.889 14.0473 18.1291 14.0473C18.3613 14.0473 18.5632 14.1343 18.7348 14.3083C18.909 14.4823 18.9974 14.6917 19 14.9364C18.9974 15.1022 18.9551 15.2531 18.8733 15.3891C18.7942 15.525 18.6886 15.6338 18.5566 15.7153C18.4273 15.7942 18.2848 15.8336 18.1291 15.8336Z" fill="white"/>
</g>
</g>
</g>
</svg>
