<svg width="14" height="14" viewBox="0 0 14 14" fill="none" xmlns="http://www.w3.org/2000/svg">
<path d="M3.86924 10.9032L10.8881 3.88445C11.5708 4.71818 11.9636 5.75148 12.0072 6.8282L4.67816 11.4385C4.39107 11.2879 4.12004 11.1086 3.86924 10.9032Z" fill="#7782AA"/>
<path d="M2.61643 9.38919L7.24493 2.04198C8.32099 2.0903 9.35209 2.48738 10.1826 3.17326L3.15166 10.192C2.94838 9.94187 2.76918 9.6731 2.61643 9.38919Z" fill="#7782AA"/>
<path d="M11.0636 9.95076C11.4473 9.41893 11.7224 8.81668 11.8734 8.17854L11.8916 8.08731L5.8642 11.8886C6.50238 12.0396 7.16402 12.0635 7.81141 11.9587C8.45879 11.854 9.07923 11.6227 9.63721 11.2782C10.1952 10.9337 10.6799 10.4826 11.0636 9.95076Z" fill="#7782AA"/>
<path fill-rule="evenodd" clip-rule="evenodd" d="M2.56476 11.6361C3.76237 12.7814 5.35664 13.419 7.01377 13.4153C7.35808 13.414 7.70179 13.3855 8.04166 13.3302C9.67678 13.0611 11.1444 12.1698 12.1373 10.8431C13.13 9.51627 13.5711 7.85687 13.368 6.21222C13.1648 4.56759 12.3333 3.0653 11.0476 2.01993C9.76175 0.974548 8.12139 0.467142 6.46994 0.60395C4.81846 0.740758 3.28396 1.51117 2.18772 2.75388C1.09147 3.99658 0.518507 5.61521 0.588787 7.27086C0.659067 8.92648 1.36714 10.4907 2.56476 11.6361ZM6.10145 1.32405C6.4033 1.27696 6.70826 1.25256 7.01377 1.25107H7.01986C8.39266 1.25386 9.71978 1.74486 10.7638 2.63626C11.8079 3.52767 12.5008 4.76137 12.7188 6.11678C12.8397 6.86439 12.8105 7.62855 12.633 8.36473C12.4555 9.10092 12.1332 9.79434 11.6849 10.4047C11.2432 11.0219 10.6836 11.5456 10.0385 11.9454C9.39335 12.3452 8.67542 12.6133 7.9261 12.7341C7.17215 12.8649 6.39979 12.8446 5.65377 12.6744C4.90776 12.5043 4.20297 12.1876 3.58032 11.7429C2.95767 11.2982 2.42957 10.7342 2.02665 10.0836C1.62373 9.43312 1.35404 8.70911 1.23321 7.95352C1.11238 7.19793 1.14283 6.42588 1.32279 5.68217C1.50275 4.93845 1.82864 4.23789 2.28154 3.62114C2.73444 3.0044 3.30533 2.48375 3.96107 2.08942C4.61681 1.69509 5.34435 1.43493 6.10145 1.32405Z" fill="#7782AA"/>
</svg>
