<svg width="24" height="24" viewBox="0 0 24 24" fill="none" xmlns="http://www.w3.org/2000/svg">
<path d="M3.2969 7.57765H9.86226C9.93166 6.80301 10.1451 6.0479 10.4908 5.35101H3.29691C2.68202 5.35101 2.18359 5.84941 2.18359 6.46433C2.18359 7.07925 2.68198 7.57765 3.2969 7.57765Z" fill="#7782AA"/>
<path d="M3.29673 14.3911H13.4924C13.7404 14.3918 13.9814 14.3091 14.1771 14.1567C13.039 13.7839 12.0318 13.0926 11.2745 12.1646H3.29691C2.68202 12.1646 2.18359 12.6633 2.18359 13.2779C2.18359 13.8928 2.68199 14.3912 3.29691 14.3912L3.29673 14.3911Z" fill="#7782AA"/>
<path d="M3.29683 10.9824H10.5047C10.1646 10.3068 9.95014 9.57544 9.87167 8.82311C9.86958 8.80149 9.86749 8.78021 9.86539 8.75859V8.7558H3.29691C2.68202 8.7558 2.18359 9.2542 2.18359 9.86912C2.18359 10.484 2.68192 10.9824 3.29683 10.9824Z" fill="#7782AA"/>
<path d="M14.6062 16.2397C14.6059 15.8696 14.3059 15.5697 13.9362 15.5693H2.85394C2.48389 15.5697 2.18394 15.8696 2.18359 16.2397V17.1259C2.18394 17.496 2.48389 17.7956 2.85394 17.7959H13.9362C14.3059 17.7956 14.6059 17.496 14.6062 17.1259V16.2397Z" fill="#7782AA"/>
<path d="M14.4217 19.6365C14.4214 19.2664 14.1214 18.9668 13.7514 18.9661H2.67C2.3003 18.9668 2.00035 19.2664 2 19.6365V20.5231V20.5227C2.00035 20.8928 2.3003 21.1927 2.67 21.1931H13.7523C14.1223 21.1927 14.4223 20.8928 14.4226 20.5227L14.4217 19.6365Z" fill="#7782AA"/>
<path d="M15.1306 13.1958C15.2 13.2098 15.2697 13.222 15.3398 13.2335C15.3691 13.238 15.3984 13.2422 15.4277 13.2464C15.4842 13.2544 15.5407 13.2621 15.5976 13.268C15.6464 13.2732 15.6959 13.2771 15.7454 13.2809C15.7869 13.2844 15.8281 13.2882 15.87 13.2907C15.9641 13.2956 16.0583 13.2987 16.1532 13.2987V13.2984C17.519 13.2987 18.8286 12.7564 19.7947 11.7909C20.7605 10.8252 21.3032 9.51553 21.3032 8.14971C21.3036 6.78425 20.7609 5.47423 19.7954 4.5085C18.8297 3.54277 17.5201 3 16.1542 3C14.7888 3 13.4788 3.54235 12.5134 4.50814C11.5477 5.47387 11.0049 6.78353 11.0049 8.149C11.0049 8.23061 11.0073 8.31187 11.0112 8.39314C11.0122 8.41407 11.0136 8.43465 11.0146 8.45522C11.0185 8.5194 11.023 8.58323 11.0293 8.64705C11.031 8.66414 11.0328 8.68088 11.0345 8.69797C11.1524 9.78057 11.6093 10.798 12.3403 11.6047C13.0714 12.4114 14.0389 12.9667 15.1044 13.1903L15.1306 13.1958ZM13.9461 9.73389C13.9461 9.41022 14.2084 9.14794 14.532 9.14794C14.8557 9.14794 15.118 9.41022 15.118 9.73389C15.1187 10.301 15.5752 10.7625 16.1424 10.7691C16.1462 10.7691 16.15 10.7684 16.1535 10.7684C16.1574 10.7684 16.1612 10.7684 16.1647 10.7691H16.165C16.7367 10.7659 17.1977 10.3 17.1946 9.72835C17.1915 9.15636 16.7255 8.69566 16.1539 8.69878C15.435 8.69913 14.7612 8.35001 14.3472 7.76234C13.9336 7.17466 13.8321 6.42233 14.0748 5.74571C14.3176 5.06943 14.8749 4.55355 15.568 4.36319V3.97849V3.97884C15.568 3.65517 15.8303 3.39289 16.1539 3.39289C16.4776 3.39289 16.7399 3.65517 16.7399 3.97884V4.36354V4.36319C17.2055 4.49224 17.616 4.76987 17.9086 5.15422C18.2013 5.53857 18.3603 6.00803 18.361 6.49111C18.361 6.81478 18.0987 7.07706 17.7751 7.07706C17.4514 7.07706 17.1891 6.81478 17.1891 6.49111C17.1891 6.07258 16.937 5.6952 16.5502 5.53476C16.163 5.37467 15.718 5.46326 15.4218 5.75937C15.1257 6.05548 15.0371 6.50052 15.1976 6.88733C15.3577 7.27412 15.735 7.52629 16.1539 7.52629C16.8724 7.52594 17.5466 7.87542 17.9602 8.46273C18.3739 9.05041 18.4757 9.8031 18.2326 10.4794C17.9899 11.1556 17.4329 11.6715 16.7398 11.8619V12.3202C16.7398 12.6438 16.4775 12.9061 16.1539 12.9061C15.8302 12.9061 15.5679 12.6438 15.5679 12.3202V11.8619C15.1023 11.7328 14.6915 11.4552 14.3988 11.0709C14.1058 10.6865 13.9468 10.217 13.9461 9.73389Z" fill="#7782AA"/>
</svg>
