<svg width="24" height="24" viewBox="0 0 24 24" fill="none" xmlns="http://www.w3.org/2000/svg">
<path fill-rule="evenodd" clip-rule="evenodd" d="M5.1725 2L8.43734 12.6367H8.56266L11.8341 2H15L13.4455 6.67373C12.527 7.11064 11.7737 7.7282 11.2165 8.53288L11.2139 8.53672C10.6351 9.38105 10.3618 10.3552 10.3665 11.4185C10.3633 12.3535 10.5771 13.2029 11.0339 13.9243L10.3435 16H6.66312L2 2H5.1725ZM12.0387 9.10214C12.2931 8.73468 12.6001 8.4121 12.9597 8.13438L12.9596 8.13457C13.2462 7.91313 13.5663 7.72022 13.9198 7.55582C14.7165 7.18527 15.6218 7 16.6358 7C17.6679 7 18.5687 7.18527 19.3383 7.55582C20.1123 7.92637 20.7144 8.4418 21.1444 9.10214C21.5745 9.76247 21.7963 10.5273 21.8099 11.3967H18.992C18.9377 10.8219 18.7045 10.3753 18.2926 10.057C17.8807 9.73872 17.3216 9.57957 16.6154 9.57957C16.1356 9.57957 15.7305 9.65083 15.4 9.79335C15.0695 9.93112 14.816 10.1235 14.6395 10.3705C14.4675 10.6176 14.3815 10.8979 14.3815 11.2114C14.3724 11.4727 14.4245 11.7007 14.5377 11.8955C14.6553 12.0903 14.816 12.2589 15.0198 12.4014C15.2235 12.5392 15.4588 12.6603 15.7259 12.7648C15.993 12.8646 16.2782 12.9501 16.5815 13.0214L17.8309 13.3349C18.4375 13.4774 18.9942 13.6675 19.5012 13.905C20.0082 14.1425 20.4473 14.4347 20.8185 14.7815C21.1897 15.1283 21.4772 15.5368 21.6809 16.0071C21.8891 16.4774 21.9955 17.0166 22 17.6247C21.9955 18.5178 21.7782 19.2922 21.3481 19.9477C20.9226 20.5986 20.307 21.1045 19.5012 21.4656C18.7 21.8219 17.7335 22 16.6019 22C15.4792 22 14.5014 21.8195 13.6685 21.4584C12.8401 21.0974 12.1928 20.5629 11.7265 19.8551C11.2648 19.1425 11.0226 18.2613 11 17.2114H13.8451C13.8767 17.7007 14.0103 18.1093 14.2457 18.4371C14.4856 18.7601 14.8047 19.0047 15.2031 19.171C15.606 19.3325 16.0609 19.4133 16.5679 19.4133C17.0658 19.4133 17.4981 19.3373 17.8648 19.1853C18.236 19.0333 18.5235 18.8219 18.7272 18.5511C18.9309 18.2803 19.0327 17.9691 19.0327 17.6176C19.0327 17.2898 18.9399 17.0143 18.7543 16.791C18.5733 16.5677 18.3062 16.3777 17.9531 16.2209C17.6045 16.0641 17.1767 15.9216 16.6698 15.7933L15.1556 15.3943C13.9831 15.095 13.0574 14.6271 12.3784 13.9905C11.9496 13.5885 11.6571 13.0984 11.5009 12.5202L11.5008 12.5205C11.4096 12.183 11.3648 11.8156 11.3665 11.4181C11.362 10.5344 11.586 9.76247 12.0387 9.10214Z" fill="#7782AA"/>
</svg>
