<svg width="24" height="24" viewBox="0 0 24 24" fill="none" xmlns="http://www.w3.org/2000/svg">
<circle cx="6" cy="12" r="5" fill="#7782AA"/>
<path fill-rule="evenodd" clip-rule="evenodd" d="M22 4C22 5.65685 20.6569 7 19 7C18.286 7 17.6303 6.75057 17.1152 6.33409L11.564 9.75023C11.3101 9.12304 10.9533 8.54855 10.5145 8.04771L16.0665 4.63107C16.0229 4.4276 16 4.21648 16 4C16 2.34315 17.3432 1 19 1C20.6569 1 22 2.34315 22 4ZM10.5145 15.9523L16.0665 19.3689C16.0229 19.5724 16 19.7835 16 20C16 21.6569 17.3432 23 19 23C20.6569 23 22 21.6569 22 20C22 18.3431 20.6569 17 19 17C18.286 17 17.6303 17.2494 17.1152 17.6659L11.564 14.2498C11.3101 14.877 10.9533 15.4515 10.5145 15.9523Z" fill="#7782AA"/>
</svg>
