<svg width="24" height="24" viewBox="0 0 24 24" fill="none" xmlns="http://www.w3.org/2000/svg">
<path d="M11.2197 22.0021C10.7846 21.9278 10.3383 21.8879 9.9088 21.7793C7.44328 21.151 5.64713 19.6486 4.65981 17.2666C3.53861 14.5533 3.85656 11.9428 5.53557 9.53793C6.18263 8.60683 7.02492 7.88709 8.00667 7.33871C8.14054 7.26445 8.17401 7.19019 8.14612 7.04167C7.62736 4.47115 7.11417 3.81044 6.60099 1.24563C6.58983 1.18279 6.58425 1.11996 6.5731 1.01714C6.66792 1.07997 6.73486 1.12567 6.79622 1.17137C8.29673 2.2567 9.79724 3.33632 11.2922 4.42165C11.4372 4.53018 11.532 4.51876 11.6715 4.41594C13.1608 3.33061 14.6558 2.2567 16.1507 1.17708C16.2176 1.13138 16.279 1.08568 16.4073 1C15.8048 3.66763 15.2191 4.36262 14.639 6.95599C15.0741 7.21304 15.5204 7.44153 15.922 7.72715C17.813 9.06953 18.9453 10.9089 19.2186 13.2566C19.5031 15.7415 18.7668 17.9007 17.0655 19.6886C15.8885 20.9282 14.4382 21.6651 12.7592 21.9164C12.5361 21.9507 12.313 21.9792 12.0898 22.0078C11.8054 22.0021 11.5097 22.0021 11.2197 22.0021ZM11.6492 8.53829C8.59795 8.56114 6.12685 11.1088 6.14358 14.2106C6.1659 17.3238 8.65931 19.8543 11.6771 19.8257C14.745 19.7915 17.1938 17.2609 17.1659 14.1477C17.138 11.0403 14.6558 8.51544 11.6492 8.53829Z" fill="#7782AA"/>
<path d="M10.1977 14.7119C9.42796 14.1407 8.67492 13.5809 7.92188 13.0211C7.92188 13.0097 7.92188 12.9925 7.92188 12.9811C7.98323 12.9811 8.04459 12.9811 8.10595 12.9811C8.93151 12.9811 9.75707 12.9754 10.5826 12.9868C10.7109 12.9868 10.7611 12.9411 10.8002 12.8211C11.0512 12.0157 11.3078 11.216 11.5644 10.4163C11.5811 10.3592 11.6034 10.302 11.6369 10.1992C11.6704 10.2906 11.6927 10.342 11.715 10.3991C11.9716 11.2046 12.2337 12.0157 12.4848 12.8269C12.5238 12.9468 12.574 12.9925 12.7023 12.9925C13.5223 12.9868 14.3423 12.9868 15.1567 12.9868C15.2236 12.9868 15.285 12.9868 15.3519 12.9868C15.3575 12.9982 15.3631 13.0154 15.3631 13.0268C14.61 13.5866 13.857 14.1464 13.0872 14.7233C13.3773 15.6373 13.6673 16.557 13.9685 17.5223C13.8737 17.4595 13.8179 17.4252 13.7677 17.3852C13.0984 16.8883 12.429 16.397 11.7652 15.8943C11.6704 15.8201 11.609 15.8201 11.5086 15.8943C10.8448 16.397 10.1754 16.8883 9.50605 17.3852C9.45585 17.4252 9.40007 17.4595 9.30524 17.5223C9.61762 16.5513 9.90768 15.6373 10.1977 14.7119Z" fill="#7782AA"/>
</svg>
