<svg width="22" height="13" viewBox="0 0 22 13" fill="none" xmlns="http://www.w3.org/2000/svg">
<path d="M10.9992 6C5.58836 6 1.2908 1.82539 1.11175 1.64768C0.954387 1.4928 0.962758 1.24933 1.13072 1.10408C1.2985 0.958815 1.56227 0.966543 1.71962 1.12159C1.76166 1.1628 5.95452 5.23075 10.999 5.23075C16.0435 5.23075 20.2365 1.16278 20.2784 1.12159C20.3539 1.04707 20.4585 1.00346 20.569 1.0002C20.6795 0.996934 20.7868 1.03437 20.8673 1.10408C21.0353 1.24934 21.0437 1.49281 20.8863 1.64768C20.7072 1.82539 16.4098 6 10.9988 6L10.9992 6Z" fill="#7782AA" stroke="#7782AA" stroke-width="0.5"/>
<path d="M10.999 11.9996C10.7919 11.9996 10.624 11.8132 10.624 11.5833V8.25231C10.624 8.02238 10.7919 7.83594 10.999 7.83594C11.2061 7.83594 11.374 8.02238 11.374 8.25231V11.5833C11.374 11.6937 11.3345 11.7996 11.2641 11.8777C11.1938 11.9558 11.0984 11.9996 10.999 11.9996Z" fill="#7782AA" stroke="#7782AA" stroke-width="0.5"/>
<path d="M16.6244 10.3312C16.5129 10.3313 16.4071 10.2765 16.3357 10.1813L14.4608 7.68313C14.3282 7.50617 14.35 7.24352 14.5092 7.09631C14.6686 6.94928 14.9051 6.97326 15.0375 7.15003L16.9123 9.64824C17.0054 9.77241 17.0255 9.94509 16.9639 10.0914C16.9021 10.2377 16.7699 10.3312 16.6244 10.3312Z" fill="#7782AA" stroke="#7782AA" stroke-width="0.5"/>
<path d="M5.37383 10.3312C5.22836 10.3312 5.09611 10.2377 5.03435 10.0914C4.97274 9.94512 4.99283 9.77244 5.0859 9.64827L6.96074 7.15006C7.02436 7.0653 7.11575 7.01177 7.21485 7.00173C7.31395 6.99169 7.41255 7.02571 7.48905 7.09634C7.64824 7.24356 7.67 7.50621 7.53742 7.68316L5.66258 10.1814C5.5911 10.2765 5.48531 10.3314 5.37383 10.3312Z" fill="#7782AA" stroke="#7782AA" stroke-width="0.5"/>
</svg>
