<svg width="14" height="14" viewBox="0 0 14 14" fill="none" xmlns="http://www.w3.org/2000/svg">
<path d="M1.20719 10.6919L1.25931 4.43356L2.70268 4.44535L3.09645 8.08662H3.10369L3.55827 4.45276L5.00018 4.46608L4.9481 10.7244L4.0172 10.717L4.05484 6.24677L3.46996 10.7141L2.68675 10.7067L2.17571 6.22906L2.13662 10.7008L1.20719 10.6919ZM5.45045 10.7304L5.50399 4.47047L6.94449 4.48379L7.33972 8.12505H7.34693L7.80295 4.49119L9.24487 4.50446L9.19133 10.7644L8.2619 10.7555L8.29955 6.2852L7.71176 10.751L6.92856 10.7436L6.41749 6.26749L6.37989 10.7378L5.45045 10.7304ZM9.32306 10.7644L10.4798 4.51482L11.7349 4.52666L12.7874 10.7969L11.6987 10.7865L11.5974 10.0668L10.5276 10.0579L10.4132 10.7732L9.32306 10.7644ZM11.3832 8.53879L11.0965 6.41378H11.0878L10.7664 8.53144L11.3832 8.53879ZM1.16699 1.16797H12.8337V2.04297H1.16699V1.16797ZM1.16699 12.543H12.8337V13.418H1.16699V12.543Z" fill="#7782AA"/>
</svg>
