<svg width="20" height="20" viewBox="0 0 20 20" fill="none" xmlns="http://www.w3.org/2000/svg">
<path d="M17.0567 4.80028C17.0567 4.48031 16.8007 4.20831 16.4647 4.17628C15.4248 4.04827 14.4488 3.82428 13.5367 3.50428C12.4967 3.12025 11.4408 2.65617 10.3687 2.09625C10.1447 1.96824 9.92073 1.96824 9.69673 2.09625C8.65668 2.6562 7.60065 3.12025 6.54473 3.47225C5.58468 3.79223 4.59273 4.03231 3.61673 4.14425C3.29676 4.17629 3.04073 4.4322 3.00871 4.76825C2.91272 8.62426 3.84073 11.8243 5.74476 14.3043C6.78471 15.6482 8.11273 16.7523 9.68076 17.5843C9.77675 17.6643 9.92072 17.6802 10.0328 17.6802C10.1448 17.6802 10.2568 17.6482 10.4007 17.6002C11.9368 16.7682 13.2647 15.6642 14.3207 14.3202C16.2246 11.8562 17.1527 8.65628 17.0567 4.80028Z" fill="#12FF76"/>
<path d="M13.5371 7.16106C13.298 6.93102 12.9201 6.93036 12.6802 7.15955L9.48151 10.2156C9.17595 10.5075 8.69496 10.508 8.38884 10.2167L7.72185 9.58186C7.48309 9.35462 7.10795 9.35499 6.86963 9.58268C6.61507 9.82589 6.61507 10.2324 6.86963 10.4756L8.38879 11.927C8.69478 12.2194 9.17658 12.2194 9.48256 11.927L13.5355 8.05479C13.7901 7.81154 13.7908 7.40521 13.5371 7.16106Z" fill="#1D2027"/>
</svg>
