<svg width="24" height="24" viewBox="0 0 24 24" fill="none" xmlns="http://www.w3.org/2000/svg">
<path d="M20.9935 3.99686L18.9639 18.7292L19.3932 4.60742C19.4062 4.15443 19.1785 3.85243 18.9118 3.67517C18.7037 3.5373 18.4565 3.47821 18.2093 3.47821L4.94507 3.46508L5.12722 1.77126C5.19227 1.27887 5.64113 0.937476 6.12902 1.00969L20.2389 2.98582C20.7203 3.05147 21.0585 3.50447 20.9935 3.99686Z" fill="#7782AA"/>
<path d="M18.1247 3.89182H3.89772C3.40332 3.89182 3 4.29886 3 4.79781V22.0971C3 22.5961 3.40332 23.0031 3.89772 23.0031H18.1312C18.6256 23.0031 19.0289 22.5961 19.0289 22.0971V4.79781C19.0224 4.29886 18.6191 3.89182 18.1247 3.89182ZM11.008 19.0312C7.95049 19.0312 5.47199 16.5298 5.47199 13.4442C5.47199 10.3585 7.95049 7.8572 11.008 7.8572C14.0654 7.8572 16.5439 10.3585 16.5439 13.4442C16.5439 16.5298 14.0654 19.0312 11.008 19.0312Z" fill="#7782AA"/>
<path d="M11.047 10.2732L11.8536 12.7745H14.4622L12.348 14.3239L13.1547 16.8318L11.047 15.2824L8.93276 16.8318L9.73941 14.3239L7.63171 12.7745H10.2403L11.047 10.2732Z" fill="#7782AA"/>
</svg>
