<svg width="24" height="24" viewBox="0 0 24 24" fill="none" xmlns="http://www.w3.org/2000/svg">
<path d="M8.12505 3.92287C9.53521 3.40404 10.7456 2.76633 12 2C13.2548 2.76633 14.4652 3.40401 15.8749 3.92287C17.3037 4.44894 18.6548 4.75184 20.1736 4.96598C21.4334 8.38482 21.248 12.0128 19.6506 15.3207C18.1271 18.4757 15.5827 20.7718 12 22C8.41731 20.7719 5.87376 18.476 4.34943 15.3207C2.75187 12.0126 2.56649 8.38457 3.82691 4.96598C5.34502 4.75183 6.69682 4.44894 8.12478 3.92287H8.12505ZM12.5383 11.5476H19.7488C20.0839 9.59275 19.9546 7.60396 19.3567 5.82573C17.9946 5.61201 16.7022 5.27034 15.4712 4.81723C14.4516 4.44151 13.4755 3.99008 12.5385 3.47122L12.5383 11.5476ZM11.4619 12.5173H4.45587C4.66463 13.343 4.95686 14.1549 5.33364 14.9343C6.53011 17.4121 8.5772 19.5565 11.4619 20.7529V12.5171L11.4619 12.5173Z" fill="#7782AA"/>
</svg>
