<svg width="20" height="16" viewBox="0 0 20 16" fill="none" xmlns="http://www.w3.org/2000/svg">
<g clip-path="url(#clip0_1493_32635)">
<path fill-rule="evenodd" clip-rule="evenodd" d="M5.75684 5.10676e-06H19.7542C19.821 0.00041474 19.8849 0.0260624 19.9322 0.0713928C19.9794 0.116723 20.0061 0.178087 20.0065 0.242193V3.15782C20.0049 3.2214 19.9777 3.28191 19.9307 3.32674C19.8837 3.37157 19.8205 3.39725 19.7542 3.39844H5.75684C5.69063 3.39763 5.62736 3.37202 5.58054 3.32707C5.53371 3.28212 5.50703 3.22138 5.50619 3.15782V0.242193C5.50598 0.210462 5.5123 0.179004 5.5248 0.149629C5.5373 0.120255 5.55573 0.0935439 5.57903 0.0710341C5.60232 0.0485242 5.63003 0.03066 5.66054 0.0184699C5.69106 0.00627978 5.72379 4.43777e-06 5.75684 5.10676e-06ZM5.75684 12.6016H19.7542C19.8207 12.602 19.8844 12.6274 19.9316 12.6724C19.9788 12.7174 20.0057 12.7784 20.0065 12.8422V15.7594C20.0049 15.823 19.9777 15.8835 19.9307 15.9283C19.8837 15.9731 19.8205 15.9988 19.7542 16H5.75684C5.69063 15.9992 5.62736 15.9736 5.58054 15.9286C5.53371 15.8837 5.50703 15.8229 5.50619 15.7594V12.8422C5.50619 12.7784 5.5326 12.7172 5.5796 12.672C5.62661 12.6269 5.69036 12.6016 5.75684 12.6016ZM0.252284 12.6016H2.85645C2.92295 12.602 2.98663 12.6274 3.0338 12.6724C3.08097 12.7174 3.10788 12.7784 3.10873 12.8422V15.7594C3.10706 15.823 3.0799 15.8835 3.0329 15.9283C2.9859 15.9731 2.92269 15.9988 2.85645 16H0.252284C0.185786 15.9996 0.122108 15.9742 0.0749339 15.9292C0.0277601 15.8842 0.000856539 15.8232 5.31954e-06 15.7594V12.8422C4.62268e-06 12.8105 0.00654144 12.779 0.0192395 12.7497C0.0319375 12.7204 0.0505461 12.6939 0.0739938 12.6715C0.0974416 12.6491 0.125266 12.6314 0.155864 12.6194C0.186463 12.6074 0.219231 12.6014 0.252284 12.6016ZM5.75684 9.7H19.7542C19.821 9.6996 19.8849 9.67395 19.9322 9.62862C19.9794 9.58329 20.0061 9.52192 20.0065 9.45782V6.54219C20.0053 6.47834 19.9783 6.41743 19.9312 6.37227C19.8842 6.32711 19.8208 6.30121 19.7542 6.3H5.75684C5.69048 6.30122 5.62721 6.32717 5.58043 6.37237C5.53365 6.41757 5.50702 6.47848 5.50619 6.54219V9.45782C5.50619 9.52178 5.53255 9.58315 5.57951 9.62852C5.62647 9.67389 5.69022 9.69959 5.75684 9.7ZM0.252284 9.7H2.85645C2.92323 9.6996 2.98715 9.67395 3.03437 9.62862C3.08159 9.58329 3.1083 9.52192 3.10873 9.45782V6.54219C3.10748 6.47834 3.0805 6.41743 3.03345 6.37227C2.98641 6.32711 2.92297 6.30121 2.85645 6.3H0.252284C0.185638 6.30081 0.121959 6.32659 0.074829 6.37184C0.0276992 6.41708 0.000849044 6.47821 5.31954e-06 6.54219V9.45782C5.31954e-06 9.52205 0.0265846 9.58365 0.073896 9.62907C0.121207 9.67449 0.185376 9.7 0.252284 9.7ZM0.252284 5.10676e-06H2.85645C2.92323 0.00041474 2.98715 0.0260624 3.03437 0.0713928C3.08159 0.116723 3.1083 0.178087 3.10873 0.242193V3.15782C3.10706 3.2214 3.0799 3.28191 3.0329 3.32674C2.9859 3.37157 2.92269 3.39725 2.85645 3.39844H0.252284C0.185786 3.39804 0.122108 3.37261 0.0749339 3.32761C0.0277601 3.28262 0.000856539 3.22165 5.31954e-06 3.15782V0.242193C-0.000210909 0.21033 0.00616685 0.178744 0.0187685 0.149266C0.0313701 0.119789 0.0499446 0.0930081 0.073414 0.0704774C0.0968834 0.0479468 0.12478 0.0301153 0.155486 0.0180177C0.186191 0.00592017 0.219094 -0.000202473 0.252284 5.10676e-06Z" fill="#7782AA"/>
</g>
<defs>
<clipPath id="clip0_1493_32635">
<rect width="20" height="16" fill="white"/>
</clipPath>
</defs>
</svg>
