<svg width="24" height="24" viewBox="0 0 24 24" fill="none" xmlns="http://www.w3.org/2000/svg">
<path d="M20.1598 6.1381V2.59027C20.1598 1.69165 19.4031 0.959991 18.4763 0.959991H5.52593C4.59655 0.959991 3.83984 1.69165 3.83984 2.59027V6.1381C3.83984 6.21176 3.86778 6.28541 3.91602 6.34188L6.5061 9.31518C4.86826 10.7613 3.83984 12.8409 3.83984 15.1488C3.83984 19.4995 7.49896 23.04 11.9986 23.04C16.4982 23.04 20.1573 19.4995 20.1573 15.1488C20.1573 12.8409 19.1289 10.7638 17.4911 9.32009L20.0811 6.34434C20.1319 6.28541 20.1598 6.21421 20.1598 6.1381ZM11.4475 2.57554C11.4475 2.28091 11.6939 2.0403 12.0011 2.0403C12.1535 2.0403 12.2906 2.09922 12.3922 2.19743C12.4912 2.29319 12.5547 2.42823 12.5547 2.57554V7.68736C12.5547 7.98199 12.3084 8.2226 12.0011 8.2226C11.6964 8.2226 11.4475 7.98444 11.4475 7.68736V2.57554ZM7.37961 2.55099C7.37961 2.26864 7.61576 2.0403 7.90778 2.0403H7.95603C8.24805 2.0403 8.4842 2.26864 8.4842 2.55099V6.9115C8.4842 7.19385 8.24805 7.42219 7.95603 7.42219H7.90778C7.61576 7.42219 7.37961 7.19385 7.37961 6.9115V2.55099ZM16.3458 14.621L14.5302 16.3323L14.9594 18.7482C14.9899 18.9275 14.9162 19.1091 14.7639 19.2147C14.6775 19.2761 14.576 19.3056 14.4744 19.3056C14.3957 19.3056 14.3169 19.2884 14.2458 19.2516L12.0037 18.1099L9.75638 19.2516C9.59133 19.335 9.38819 19.3228 9.23583 19.2147C9.08347 19.1067 9.00729 18.9275 9.0403 18.7482L9.46944 16.3323L7.65385 14.6234C7.51927 14.4957 7.47102 14.3067 7.52943 14.1348C7.58783 13.963 7.74273 13.8353 7.9281 13.8107L10.4369 13.4572L11.5593 11.2597C11.6431 11.0977 11.8157 10.9946 12.0011 10.9946C12.189 10.9946 12.3617 11.0977 12.4429 11.2597L13.5653 13.4572L16.0741 13.8107C16.2595 13.8377 16.4144 13.963 16.4728 14.1348C16.5287 14.3042 16.4804 14.4957 16.3458 14.621ZM16.6175 6.9115C16.6175 7.19385 16.3814 7.42219 16.0894 7.42219H16.0411C15.7491 7.42219 15.5129 7.19385 15.5129 6.9115V2.55099C15.5129 2.26864 15.7491 2.0403 16.0411 2.0403H16.0894C16.3814 2.0403 16.6175 2.26864 16.6175 2.55099V6.9115Z" fill="#7782AA"/>
</svg>
