<svg width="20" height="20" viewBox="0 0 20 20" fill="none" xmlns="http://www.w3.org/2000/svg">
<path d="M17.6754 14.8253L10.9784 3.67317C10.4388 2.7766 9.56185 2.77462 9.0222 3.67317L2.3252 14.8253C1.60106 16.0293 2.12712 17 3.49764 17H16.5041C17.8722 17 18.3976 16.0272 17.6754 14.8253ZM10.0004 15.0828C9.65703 15.0828 9.37938 14.797 9.37938 14.4437C9.37938 14.0903 9.65703 13.8046 10.0004 13.8046C10.3437 13.8046 10.6214 14.0903 10.6214 14.4437C10.6214 14.797 10.3437 15.0828 10.0004 15.0828ZM10.6214 11.8892C10.6214 12.2369 10.3437 12.5264 10.0004 12.5264C9.65509 12.5264 9.37938 12.2407 9.37938 11.8892V8.05074C9.37938 7.7031 9.65703 7.41352 10.0004 7.41352C10.3457 7.41352 10.6214 7.69925 10.6214 8.05074V11.8892Z" fill="#D99504"/>
</svg>
