<svg width="24" height="24" viewBox="0 0 24 24" fill="none" xmlns="http://www.w3.org/2000/svg">
<g id="icon_public_87">
<g id="Group 772544322">
<circle id="Ellipse 33" cx="12" cy="12" r="12" fill="#18B68F"/>
<path id="$" d="M11.6336 19V6H12.4682V19H11.6336ZM14.0407 10.159C13.9932 9.7155 13.793 9.37018 13.4402 9.12305C13.0908 8.87591 12.6361 8.75234 12.0763 8.75234C11.6828 8.75234 11.3452 8.81159 11.0636 8.93008C10.782 9.04857 10.5666 9.20937 10.4173 9.4125C10.268 9.61563 10.1917 9.84753 10.1883 10.1082C10.1883 10.3249 10.2375 10.5128 10.3359 10.6719C10.4377 10.831 10.5751 10.9664 10.7481 11.0781C10.9211 11.1865 11.1128 11.2779 11.3232 11.3523C11.5335 11.4268 11.7455 11.4895 11.9593 11.5402L12.9364 11.784C13.3299 11.8754 13.7082 11.999 14.0712 12.1547C14.4377 12.3104 14.7651 12.5068 15.0534 12.7437C15.3452 12.9807 15.5759 13.2668 15.7455 13.602C15.9152 13.9371 16 14.3298 16 14.7801C16 15.3895 15.8439 15.926 15.5318 16.3898C15.2197 16.8503 14.7684 17.2108 14.1781 17.4715C13.5912 17.7288 12.8804 17.8574 12.0458 17.8574C11.2349 17.8574 10.531 17.7322 9.93384 17.4816C9.34012 17.2311 8.87532 16.8655 8.53944 16.3848C8.20696 15.904 8.02714 15.3184 8 14.6277H9.85751C9.88465 14.99 9.99661 15.2913 10.1934 15.5316C10.3902 15.772 10.6463 15.9514 10.9618 16.0699C11.2807 16.1884 11.637 16.2477 12.0305 16.2477C12.4411 16.2477 12.8007 16.1867 13.1094 16.0648C13.4215 15.9396 13.6658 15.7669 13.8422 15.5469C14.0187 15.3234 14.1086 15.0628 14.112 14.7648C14.1086 14.494 14.0288 14.2706 13.8728 14.0945C13.7167 13.9151 13.4979 13.7661 13.2163 13.6477C12.9381 13.5258 12.6124 13.4174 12.2392 13.3227L11.0534 13.018C10.1951 12.7979 9.51654 12.4645 9.01781 12.0176C8.52248 11.5673 8.27481 10.9698 8.27481 10.225C8.27481 9.61224 8.44105 9.07565 8.77354 8.61523C9.10941 8.15482 9.56573 7.79766 10.1425 7.54375C10.7193 7.28646 11.3723 7.15781 12.1018 7.15781C12.8414 7.15781 13.4894 7.28646 14.0458 7.54375C14.6056 7.79766 15.045 8.15143 15.3639 8.60508C15.6828 9.05534 15.8473 9.57331 15.8575 10.159H14.0407Z" fill="white"/>
</g>
</g>
</svg>
