<svg width="24" height="24" viewBox="0 0 24 24" fill="none" xmlns="http://www.w3.org/2000/svg">
<g clip-path="url(#clip0_1639_32955)">
<path d="M18.478 5.53438C17.9903 5.04675 17.202 5.04675 16.7144 5.53438L12.0014 10.2378L7.28797 5.52438C6.80034 5.03675 6.01205 5.03675 5.52441 5.52438C5.03678 6.01201 5.03678 6.8003 5.52441 7.28793L10.2376 12.0012L5.52441 16.7144C5.03678 17.202 5.03678 17.9903 5.52441 18.4779C6.01205 18.9656 6.80034 18.9656 7.28797 18.4779L12.0012 13.7647L16.7144 18.4779C17.202 18.9656 17.9903 18.9656 18.478 18.4779C18.9656 17.9903 18.9656 17.202 18.478 16.7144L13.7647 12.0012L18.478 7.28793C18.9556 6.8103 18.9556 6.01201 18.478 5.53438Z" fill="#7782AA" stroke="#7782AA" stroke-width="0.5"/>
</g>
<defs>
<clipPath id="clip0_1639_32955">
<rect width="24" height="24" fill="white"/>
</clipPath>
</defs>
</svg>
