<svg width="14" height="14" viewBox="0 0 14 14" fill="none" xmlns="http://www.w3.org/2000/svg">
<path fill-rule="evenodd" clip-rule="evenodd" d="M12.0309 2.14426C11.67 1.93803 11.2105 2.05683 10.9948 2.41214L10.0849 3.91065L11.4594 4.76966L12.3244 3.17611C12.5234 2.80956 12.393 2.35119 12.0309 2.14426ZM11.2363 5.18056L10.7583 6.06107L9.28905 5.2215L9.84272 4.30958L11.2363 5.18056ZM9.04677 5.62054L10.5356 6.47129L8.32044 10.5518C7.79587 11.5181 6.78452 12.1199 5.68501 12.1199H3.83922C2.84664 12.1199 2.042 11.3152 2.042 10.3227V9.98096C2.042 9.56165 2.262 9.1731 2.62155 8.95737C2.93004 8.77227 3.30556 8.73618 3.64365 8.85912L5.37739 9.48957C6.00617 9.71821 6.70893 9.47106 7.05616 8.89915L9.04677 5.62054ZM10.2468 1.95804C10.7086 1.19737 11.6924 0.943044 12.465 1.38455C13.2403 1.82755 13.5194 2.80885 13.0934 3.59357L9.08944 10.9693C8.4118 12.2175 7.10535 12.9949 5.68501 12.9949H3.83922C2.36339 12.9949 1.16699 11.7985 1.16699 10.3227V9.98096C1.16699 9.2543 1.54825 8.58093 2.17136 8.20707C2.70598 7.8863 3.35675 7.82375 3.94268 8.03681L5.67641 8.66725C5.91306 8.7533 6.17754 8.66029 6.30822 8.44505L10.2468 1.95804ZM2.53794 3.2241C2.53794 3.04246 2.69835 2.81012 3.11496 2.60934C3.51505 2.41653 4.08416 2.29077 4.72545 2.29077C5.36674 2.29077 5.93586 2.41653 6.33595 2.60934C6.75256 2.81012 6.91296 3.04246 6.91296 3.2241C6.91296 3.40574 6.75256 3.63808 6.33595 3.83886C5.93586 4.03167 5.36674 4.15743 4.72545 4.15743C4.08416 4.15743 3.51505 4.03167 3.11496 3.83886C2.69835 3.63808 2.53794 3.40574 2.53794 3.2241ZM4.72545 1.82411C4.02975 1.82411 3.38844 1.95952 2.91236 2.18895C2.45279 2.41043 2.07128 2.76141 2.07128 3.2241C2.07128 3.29954 2.08142 3.37201 2.10039 3.44143V5.26575C2.10039 5.75791 2.49179 6.12495 2.94506 6.35158C3.41577 6.58692 4.04564 6.72407 4.72545 6.72407C5.40526 6.72407 6.03514 6.58692 6.50585 6.35158C6.95911 6.12495 7.35052 5.75791 7.35052 5.26575V3.44144C7.36949 3.37201 7.37963 3.29954 7.37963 3.2241C7.37963 2.76141 6.99811 2.41043 6.53855 2.18895C6.06247 1.95952 5.42116 1.82411 4.72545 1.82411ZM6.76718 4.13358C6.69431 4.17924 6.61758 4.22116 6.53855 4.25925C6.06247 4.48868 5.42116 4.62409 4.72545 4.62409C4.02975 4.62409 3.38844 4.48868 2.91236 4.25925C2.83332 4.22116 2.7566 4.17924 2.68372 4.13358V5.26575C2.68372 5.41792 2.81467 5.63421 3.20593 5.82983C3.57974 6.01673 4.11656 6.14074 4.72545 6.14074C5.33434 6.14074 5.87117 6.01673 6.24498 5.82983C6.63624 5.63421 6.76718 5.41792 6.76718 5.26575V4.13358ZM2.10039 2.93244H2.12442C2.11529 2.95681 2.10726 2.98158 2.10039 3.00675V2.93244ZM7.3266 2.93244C7.33568 2.95667 7.34367 2.9813 7.35052 3.00633V2.93244H7.3266Z" fill="#7782AA"/>
</svg>
