<svg width="20" height="20" viewBox="0 0 20 20" fill="none" xmlns="http://www.w3.org/2000/svg">
<g clip-path="url(#clip0_17196_33711)">
<path d="M9.96872 6.59741C8.05445 6.59741 6.49707 8.13731 6.49707 10.0301C6.49707 11.9229 8.05445 13.463 9.96872 13.463C10.155 13.463 10.3519 13.4439 10.5898 13.4026C10.9452 13.3385 11.1814 13.0015 11.1164 12.6512C11.0593 12.344 10.7903 12.1209 10.4768 12.1209C10.4363 12.1209 10.3955 12.1248 10.3572 12.1319C10.2021 12.1593 10.0792 12.1721 9.97032 12.1721C8.77579 12.1721 7.804 11.2111 7.804 10.0301C7.804 8.84909 8.77431 7.88826 9.96704 7.88826C11.1607 7.88826 12.1317 8.84909 12.1317 10.0301C12.1317 10.1452 12.1189 10.2661 12.0909 10.4116C12.0259 10.7617 12.2622 11.0989 12.6175 11.1628C12.6567 11.1699 12.6965 11.1735 12.736 11.1735C13.0525 11.1735 13.3224 10.9502 13.3773 10.6439C13.4191 10.4202 13.4386 10.2252 13.4386 10.0302C13.4394 9.11472 13.0785 8.25307 12.4223 7.60399C11.7662 6.95489 10.8947 6.59741 9.96872 6.59741Z" fill="#009B3A"/>
<path d="M17.9985 12.845C18.0731 12.6304 18.012 12.3905 17.8426 12.2336C17.2266 11.6635 16.885 10.893 16.8806 10.0645C16.8768 9.23776 17.21 8.4708 17.8181 7.90599C17.9864 7.7523 18.0451 7.51305 17.9678 7.29692C17.6086 6.28391 17.068 5.35797 16.361 4.54504C16.3183 4.49583 16.2681 4.45444 16.2117 4.42184C16.072 4.34121 15.9044 4.32184 15.7526 4.36828C14.9549 4.60786 14.1181 4.51028 13.3964 4.09358C12.6746 3.67685 12.1714 3.00016 11.9796 2.18786C11.9277 1.96997 11.7451 1.79285 11.5209 1.74877C10.4557 1.5436 9.38366 1.53912 8.33416 1.73544C8.1109 1.77776 7.93412 1.94698 7.8835 2.167C7.69947 2.97742 7.20244 3.64974 6.48376 4.06025C5.76599 4.4712 4.92848 4.56072 4.12435 4.31196C3.90268 4.24509 3.664 4.31257 3.51652 4.4835C3.16276 4.89201 2.85255 5.32583 2.5945 5.77277C2.33643 6.21977 2.11584 6.70533 1.93897 7.21574C1.86431 7.43 1.92534 7.66994 2.09465 7.82706C2.71071 8.39727 3.05241 9.16761 3.05683 9.99616C3.06058 10.8236 2.72687 11.5902 2.11671 12.1551C1.95269 12.3078 1.89403 12.5455 1.96811 12.763C2.32727 13.7756 2.86741 14.7012 3.5742 15.5148C3.73021 15.6925 3.97037 15.756 4.18125 15.6921C4.98044 15.4523 5.81796 15.5496 6.53967 15.9663C7.26137 16.383 7.76454 17.0597 7.95613 17.8708C7.99196 18.0258 8.09277 18.1612 8.23296 18.2422C8.2884 18.2742 8.34863 18.2972 8.41484 18.3111C9.47201 18.5162 10.5437 18.5212 11.601 18.3258C11.8237 18.2835 12.0009 18.114 12.0526 17.8929C12.2368 17.0818 12.7342 16.4099 13.4535 16.0005C14.1719 15.5892 15.0098 15.5 15.8131 15.7492C16.0311 15.8166 16.269 15.75 16.4202 15.5786C16.774 15.1698 17.0842 14.736 17.3421 14.2892C17.6006 13.8415 17.8215 13.3555 17.9985 12.845ZM10.961 16.835C10.3239 16.9218 9.67815 16.9188 9.03825 16.8259C8.73169 15.924 8.11028 15.1675 7.27825 14.6871C6.45069 14.2093 5.48496 14.0495 4.54634 14.2327C4.14607 13.7251 3.82049 13.1674 3.57699 12.5722C4.20764 11.8664 4.55083 10.9592 4.54573 10.0051C4.54202 9.05646 4.18909 8.14515 3.54956 7.42633C3.66888 7.12664 3.80883 6.83723 3.96616 6.56473C4.12284 6.29336 4.30342 6.02758 4.50386 5.77343C5.44258 5.96832 6.40811 5.8183 7.2353 5.3466C8.0605 4.87527 8.67446 4.12445 8.9738 3.22406C9.61076 3.13737 10.2565 3.14048 10.8966 3.23327C11.205 4.13753 11.8261 4.89441 12.6556 5.37332C13.4877 5.85373 14.4534 6.01359 15.3878 5.82811C15.7882 6.33595 16.1136 6.89357 16.357 7.48853C15.7259 8.19844 15.3823 9.10514 15.3867 10.0546C15.3904 11.0032 15.7431 11.9145 16.3827 12.6335C16.263 12.9339 16.123 13.2233 15.9654 13.4963C15.817 13.7589 15.6374 14.024 15.4306 14.2859C14.4882 14.0914 13.5226 14.2414 12.6993 14.7124C11.876 15.1827 11.2622 15.9334 10.961 16.835Z" fill="#009B3A"/>
</g>
<defs>
<clipPath id="clip0_17196_33711">
<rect width="20" height="20" fill="white"/>
</clipPath>
</defs>
</svg>
