<svg width="24" height="24" viewBox="0 0 24 24" fill="none" xmlns="http://www.w3.org/2000/svg">
<path d="M22.2204 8.7841C21.8478 8.41149 21.2448 8.41137 20.8721 8.78374L19.0004 10.6516L17.1283 8.77955C16.7556 8.40682 16.1523 8.40682 15.7796 8.77955C15.4068 9.15229 15.4068 9.75556 15.7796 10.1283L17.6513 12L15.7796 13.8717C15.4068 14.2444 15.4068 14.8477 15.7796 15.2204C16.1523 15.5932 16.7556 15.5932 17.1283 15.2204L19 13.3487L20.8717 15.2204C21.2444 15.5932 21.8477 15.5932 22.2204 15.2204C22.5932 14.8477 22.5932 14.2444 22.2204 13.8717L20.3487 12L22.2204 10.1283C22.5886 9.76011 22.5886 9.15229 22.2204 8.7841Z" fill="#7782AA"/>
<path fill-rule="evenodd" clip-rule="evenodd" d="M2.76078 7.72961H6.68099L11.4196 4.15684C11.6486 3.98442 11.9607 3.95129 12.224 4.07173C12.4873 4.19201 12.6548 4.44429 12.6548 4.72121V19.262C12.6548 19.5367 12.4904 19.7874 12.2301 19.9086C11.9699 20.0297 11.6593 20.0008 11.4295 19.8336L6.68824 16.3789H2.76107C2.34095 16.3789 2 16.056 2 15.6581V8.45055C2 8.05269 2.34095 7.72976 2.76107 7.72976L2.76078 7.72961Z" fill="#7782AA"/>
</svg>
