<svg width="28" height="28" viewBox="0 0 28 28" fill="none" xmlns="http://www.w3.org/2000/svg">
<g id="icon_public_94">
<path id="Vector" d="M8.8407 12.1295L7.40111 12.1295C7.12332 12.1295 6.88006 11.9814 6.76419 11.7428C6.65829 11.5217 6.68745 11.2731 6.84323 11.079L13.4188 2.87195C13.5524 2.70619 13.7549 2.61104 13.9759 2.61104C14.1969 2.61104 14.3995 2.70619 14.5331 2.87195L21.1086 11.079C21.2644 11.2731 21.2936 11.5217 21.1877 11.7428C21.0734 11.9814 20.8293 12.1303 20.5515 12.1303H19.112C18.7851 12.1303 18.4781 12.2515 18.2471 12.4733C18.0108 12.6974 17.8834 12.9951 17.8834 13.3128L17.8834 21.5375C17.8834 21.8797 17.5872 22.159 17.2219 22.159L10.73 22.159C10.5519 22.159 10.3846 22.093 10.2588 21.9733C10.136 21.8567 10.0685 21.7017 10.0685 21.5375L10.07 13.3128C10.0693 12.6613 9.51828 12.1303 8.8407 12.1295Z" fill="white"/>
</g>
</svg>
