<svg width="24" height="24" viewBox="0 0 24 24" fill="none" xmlns="http://www.w3.org/2000/svg">
<path d="M4.20299 7.0627C5.68882 4.03604 8.8254 2 12.2926 2C16.475 2 20.107 4.91662 21.0423 8.98889L19.6665 9.31902C18.8961 5.85213 15.8145 3.37573 12.2925 3.37573C9.4859 3.37573 6.95451 4.91659 5.68876 7.28291L7.39468 7.55802C7.66978 7.61304 7.83497 7.94329 7.61476 8.16337L4.69814 11.3551C4.53307 11.5752 4.25785 11.5202 4.14781 11.3001L2.05662 7.33778C1.89156 7.06267 2.11164 6.73243 2.44189 6.78745L4.20283 7.06255L4.20299 7.0627Z" fill="#F9BC01" stroke="#F9BC01" stroke-width="0.5"/>
<path d="M20.147 16.5975C18.6611 19.6242 15.5246 21.6602 12.0574 21.6602C7.87491 21.6602 4.1882 18.7436 3.30762 14.6713L4.62839 14.3412C5.39881 17.8081 8.48045 20.2845 12.0576 20.2845C14.8642 20.2845 17.3404 18.7436 18.6613 16.3773L16.9554 16.1022C16.6253 16.0472 16.5151 15.7169 16.7353 15.4969L19.5969 12.3051C19.762 12.0851 20.0922 12.1401 20.2022 12.3602L22.2934 16.3773C22.4035 16.5973 22.1834 16.9276 21.9082 16.8726L20.1472 16.5975L20.147 16.5975Z" fill="#F9BC01" stroke="#F9BC01" stroke-width="0.5"/>
</svg>
