<svg width="14" height="14" viewBox="0 0 14 14" fill="none" xmlns="http://www.w3.org/2000/svg">
<path d="M2.96654 4.74068C2.90634 5.41305 2.97279 5.8516 3.13826 6.04766L3.48588 6.45951L8.55641 2.22988C8.37234 2.15341 8.15285 2.17895 7.98901 2.31457C7.53759 2.68819 7.19035 2.97497 6.94713 3.17496C6.53904 3.51054 5.8137 3.52368 4.75976 3.25418C4.6371 3.54824 4.36929 3.87565 4.01717 4.16938C3.65936 4.46781 3.28226 4.67504 2.96654 4.74068ZM2.70997 4.31576C2.7319 4.32765 2.83069 4.32776 2.99122 4.27309C3.21284 4.19763 3.47899 4.04032 3.73087 3.83022C3.98277 3.62012 4.18481 3.38688 4.29802 3.18301C4.38572 3.02517 4.39917 2.92552 4.3871 2.91126L4.38782 2.91066L3.30134 1.62346C3.28861 1.60838 3.266 1.60641 3.25083 1.61906L1.62518 2.97511C1.61001 2.98776 1.60803 3.01024 1.62076 3.02532L2.70997 4.31576ZM2.36609 4.5971L1.27959 3.30991C1.10875 3.10751 1.13531 2.80577 1.3389 2.63595L2.96456 1.2799C3.16815 1.11007 3.47168 1.13647 3.64251 1.33886L4.9045 2.83395C5.81155 3.06187 6.40149 3.04907 6.66325 2.83381C6.90605 2.63418 7.25299 2.34767 7.70399 1.97433C8.12656 1.62457 8.75409 1.68034 9.10754 2.09907L9.5759 2.65399C9.74673 2.85638 9.72018 3.15812 9.5166 3.32795L6.50182 5.84272C7.02815 5.59017 7.61845 5.44863 8.24203 5.44863C10.4558 5.44863 12.2503 7.23264 12.2503 9.4333C12.2503 11.634 10.4558 13.418 8.24203 13.418C6.02832 13.418 4.23374 11.634 4.23374 9.4333C4.23374 8.56391 4.51382 7.75949 4.98922 7.10447L4.45395 7.55093C4.25037 7.7208 3.94682 7.69436 3.776 7.49198L2.79709 6.33221C2.54361 6.03193 2.4585 5.5157 2.51669 4.77554L2.3848 4.61931C2.37814 4.61236 2.37166 4.60517 2.36537 4.59771L2.36609 4.5971ZM3.77215 6.79863L4.11719 7.20742C4.12992 7.22248 4.15251 7.22447 4.16771 7.21181L9.2303 2.98878C9.2455 2.97613 9.24745 2.95365 9.23472 2.93857L8.88974 2.52981L3.77215 6.79863ZM6.0657 9.92442L6.54064 11.1083C7.01418 11.3556 7.54272 11.4876 8.09113 11.4888L8.85975 10.6137C8.84882 10.0267 8.68328 9.45147 8.37727 8.9483L6.90384 8.60724C6.52462 8.97403 6.23642 9.42518 6.0657 9.92442ZM5.69263 9.64813C5.89842 9.11378 6.22441 8.63286 6.6442 8.24158V7.42777C6.41654 7.37178 6.1839 7.33998 5.94997 7.33253C5.4375 7.8848 5.12451 8.62271 5.12451 9.4333C5.12451 9.50552 5.12697 9.57714 5.13185 9.64813H5.69263ZM6.17912 11.757C6.72876 12.2396 7.45102 12.5325 8.24203 12.5325C8.33712 12.5325 8.43113 12.5283 8.52401 12.52L8.0804 11.9316C7.50005 11.9288 6.93881 11.7964 6.43014 11.549L6.17912 11.757ZM9.299 10.4513L10.446 10.5373C10.7833 10.2093 11.0477 9.81463 11.221 9.37909L10.8317 8.05839C10.4249 7.8408 9.97665 7.70891 9.50952 7.67262L8.82715 8.83708C9.10477 9.33341 9.26537 9.88568 9.299 10.4513ZM10.7168 11.3184C10.9534 11.0119 11.1337 10.6601 11.2423 10.2784C11.09 10.5005 10.914 10.7065 10.7168 10.8928V11.3184ZM9.39491 7.22253C9.84002 7.23978 10.2723 7.3335 10.6765 7.49703C10.2013 6.90745 9.51388 6.49417 8.72944 6.37177C8.68832 6.43011 8.64919 6.48973 8.61202 6.55057L9.39491 7.22253ZM8.14561 6.46849C8.17056 6.42317 8.19639 6.37841 8.22319 6.33415C7.54318 6.33818 6.91478 6.55858 6.40421 6.92966C6.52626 6.94783 6.64753 6.97197 6.76758 7.00203L8.14561 6.46849Z" fill="#7782AA"/>
</svg>
