<svg width="14" height="14" viewBox="0 0 14 14" fill="none" xmlns="http://www.w3.org/2000/svg">
<mask id="mask0_18442_31304" style="mask-type:luminance" maskUnits="userSpaceOnUse" x="1" y="1" width="12" height="12">
<path d="M12.8337 1.16797H1.16699V12.8346H12.8337V1.16797Z" fill="white"/>
</mask>
<g mask="url(#mask0_18442_31304)">
<path d="M2.80591 3.68826C2.79443 3.7011 2.78809 3.71771 2.78809 3.73493C2.78809 3.75214 2.79443 3.76876 2.80591 3.7816L4.85341 4.94826C4.8635 4.95583 4.87579 4.95993 4.88841 4.95993C4.90103 4.95993 4.91331 4.95583 4.92341 4.94826C5.12428 4.59546 5.40228 4.29259 5.73661 4.06229C6.07096 3.83199 6.45301 3.6802 6.85424 3.61826C6.87032 3.61411 6.88416 3.6039 6.89287 3.58976C6.90157 3.57562 6.90445 3.55865 6.90091 3.54243L6.48091 1.22659C6.48095 1.21842 6.47927 1.21032 6.47598 1.20284C6.47269 1.19535 6.46786 1.18864 6.46181 1.18314C6.45576 1.17764 6.44862 1.17347 6.44086 1.17091C6.4331 1.16835 6.42488 1.16744 6.41674 1.16826C5.66831 1.30181 4.95781 1.59632 4.33437 2.03141C3.71092 2.46651 3.18942 3.03183 2.80591 3.68826Z" fill="#7782AA"/>
<path d="M1.63914 8.16642C1.64269 8.17774 1.64962 8.18777 1.659 8.19506C1.66838 8.20236 1.67977 8.20661 1.69164 8.20725H1.74998L3.96081 7.36142C3.97152 7.35594 3.98049 7.3476 3.98668 7.33727C3.99286 7.32695 3.99603 7.31511 3.99581 7.30309C3.84911 6.9372 3.78558 6.54329 3.80979 6.14983C3.834 5.75637 3.94536 5.37322 4.13581 5.02808C4.1465 5.01718 4.15248 5.00252 4.15248 4.98725C4.15248 4.97198 4.1465 4.95732 4.13581 4.94642H4.08331L2.00081 3.76808H1.96581C1.95666 3.76389 1.94671 3.76172 1.93664 3.76172C1.92658 3.76172 1.91662 3.76389 1.90748 3.76808C1.53823 4.43503 1.32253 5.176 1.27611 5.93692C1.22968 6.69784 1.35371 7.45954 1.63914 8.16642Z" fill="#7782AA"/>
<path d="M4.44533 11.825C4.45375 11.8276 4.46263 11.8285 4.47141 11.8276C4.48019 11.8267 4.48867 11.8239 4.49634 11.8195C4.504 11.8151 4.51068 11.8092 4.51596 11.8021C4.52123 11.795 4.52499 11.7869 4.52699 11.7784L5.25033 9.53252C5.2571 9.52208 5.26071 9.50994 5.26071 9.49752C5.26071 9.48509 5.2571 9.4729 5.25033 9.46252C4.86235 9.35419 4.50366 9.16006 4.20077 8.89453C3.89787 8.62899 3.6585 8.29883 3.50033 7.92835C3.48991 7.92159 3.47775 7.91797 3.46533 7.91797C3.4529 7.91797 3.44074 7.92159 3.43033 7.92835L1.20783 8.82085C1.20073 8.83001 1.19688 8.84133 1.19688 8.85294C1.19688 8.86454 1.20073 8.8758 1.20783 8.88502H1.16699C1.47008 9.57825 1.91942 10.1978 2.48426 10.7012C3.04909 11.2046 3.71607 11.58 4.43949 11.8017" fill="#7782AA"/>
<path d="M9.07116 11.9379C9.07752 11.9319 9.08259 11.9246 9.08603 11.9167C9.08948 11.9086 9.09128 11.9 9.09128 11.8912C9.09128 11.8825 9.08948 11.8738 9.08603 11.8658C9.08259 11.8578 9.07752 11.8506 9.07116 11.8446L7.76449 9.91955C7.75259 9.90847 7.73696 9.90234 7.72074 9.90234C7.70453 9.90234 7.68889 9.90847 7.67699 9.91955C7.34788 10.1414 6.97457 10.2892 6.58278 10.3526C6.191 10.416 5.79012 10.3937 5.40783 10.2871C5.39549 10.2889 5.38395 10.2943 5.37462 10.3026C5.3653 10.3109 5.35859 10.3217 5.35533 10.3337L4.66699 12.5562C4.67369 12.5782 4.68823 12.5968 4.70783 12.6087C5.44011 12.8127 6.20797 12.8552 6.95831 12.7334C7.70867 12.6115 8.42354 12.3281 9.05366 11.9029" fill="#7782AA"/>
<path d="M12.0755 8.4368C12.0763 8.42787 12.0753 8.41889 12.0724 8.41043C12.0696 8.40197 12.065 8.39421 12.0589 8.38762C12.0529 8.38103 12.0455 8.37578 12.0374 8.37216C12.0291 8.36861 12.0203 8.36674 12.0113 8.3668L9.64885 8.16846C9.63736 8.16695 9.62563 8.16893 9.61525 8.17412C9.60487 8.17931 9.59623 8.18754 9.59052 8.19763C9.58801 8.20918 9.58801 8.22108 9.59052 8.23263C9.56427 8.62615 9.45063 9.00887 9.2579 9.35292C9.06517 9.69703 8.79817 9.99383 8.47635 10.2218C8.47075 10.2326 8.46777 10.2446 8.46777 10.2568C8.46777 10.269 8.47075 10.281 8.47635 10.2918L9.84718 12.2518C9.85681 12.2604 9.86929 12.2652 9.88218 12.2652C9.89507 12.2652 9.90756 12.2604 9.91718 12.2518C10.532 11.8123 11.042 11.2424 11.4111 10.5829C11.7802 9.92348 11.9991 9.19064 12.0522 8.4368" fill="#7782AA"/>
<path d="M11.1825 3.90938C11.1733 3.90229 11.162 3.89844 11.1504 3.89844C11.1388 3.89844 11.1275 3.90229 11.1183 3.90938L9.48499 5.61855C9.47823 5.62897 9.47461 5.64112 9.47461 5.65355C9.47461 5.66598 9.47823 5.67813 9.48499 5.68855C9.77742 5.95345 10.0064 6.28087 10.1549 6.64646C10.3034 7.01207 10.3675 7.40641 10.3425 7.80021C10.3425 7.80021 10.3425 7.80021 10.3425 7.82938C10.3566 7.84939 10.3772 7.8638 10.4008 7.87021L12.7342 7.98105H12.7692C12.7801 7.97685 12.7897 7.96973 12.7969 7.96051C12.8041 7.95124 12.8087 7.94021 12.81 7.92855C12.8476 7.18054 12.7214 6.43334 12.4403 5.73914C12.1592 5.04494 11.73 4.42048 11.1825 3.90938Z" fill="#7782AA"/>
<path d="M7.04079 1.80469C7.02872 1.80715 7.01746 1.81276 7.00824 1.82096C6.99904 1.82915 6.99214 1.83963 6.98828 1.85135V1.88635L7.33246 4.21969C7.33234 4.23265 7.33707 4.2452 7.3457 4.25489C7.35433 4.26458 7.36623 4.27075 7.37913 4.27219H7.41413C7.80537 4.2102 8.20542 4.23446 8.58628 4.34328C8.96719 4.45211 9.3197 4.64285 9.61913 4.90219C9.62992 4.90781 9.64193 4.91074 9.65413 4.91074C9.66632 4.91074 9.67833 4.90781 9.68913 4.90219L11.2408 3.15219C11.2464 3.14243 11.2494 3.13137 11.2494 3.1201C11.2494 3.10884 11.2464 3.09777 11.2408 3.08802C10.6667 2.59164 9.99193 2.22561 9.26288 2.01514C8.53378 1.80466 7.76768 1.75476 7.01746 1.86885" fill="#7782AA"/>
<path d="M6.89565 5.12891C6.51081 5.13121 6.13528 5.24743 5.81641 5.46292C5.49755 5.6784 5.24964 5.98349 5.10397 6.3397C4.95829 6.6959 4.92136 7.08728 4.99786 7.46446C5.07434 7.84159 5.26082 8.18768 5.53376 8.45899C5.8067 8.73029 6.15387 8.91469 6.53149 8.98894C6.9091 9.0632 7.30025 9.02395 7.65556 8.87613C8.01093 8.72831 8.31449 8.47859 8.52811 8.15845C8.74167 7.83832 8.85565 7.46207 8.85565 7.07725C8.85256 6.55944 8.64472 6.0639 8.27745 5.69885C7.91024 5.3338 7.41348 5.1289 6.89565 5.12891ZM8.31898 8.16808C8.34483 8.0884 8.36238 8.00632 8.37148 7.92308L8.24315 8.03391C8.11604 8.12182 7.97359 8.18517 7.82315 8.22058L7.44398 7.81225L7.71815 8.29641C7.63742 8.43116 7.53026 8.54824 7.40315 8.64058L7.26315 8.72808C7.34458 8.73735 7.42678 8.73735 7.50815 8.72808C7.11586 8.86831 6.68711 8.86831 6.29482 8.72808C6.37622 8.73735 6.45841 8.73735 6.53982 8.72808C6.49687 8.70416 6.45591 8.67686 6.41732 8.64641C6.29021 8.55407 6.18307 8.43699 6.10232 8.30224L6.37648 7.81808L5.99732 8.22641C5.84688 8.191 5.70443 8.12765 5.57732 8.03974C5.53378 8.00591 5.49284 7.96887 5.45482 7.92891C5.45906 8.01233 5.47476 8.09475 5.50148 8.17391C5.25405 7.86212 5.12031 7.47525 5.12232 7.07725V7.00141C5.14907 7.08261 5.18427 7.16084 5.22732 7.23475C5.23297 7.18773 5.24076 7.141 5.25065 7.09475C5.2999 6.9442 5.37929 6.80527 5.48398 6.68641L6.02648 6.79724L5.51898 6.56974C5.50096 6.41605 5.51893 6.26028 5.57148 6.11474C5.57148 6.06224 5.60648 6.00974 5.62982 5.95724C5.54915 5.99321 5.47283 6.03822 5.40232 6.09141C5.6426 5.73362 6.00242 5.47307 6.41732 5.35641C6.34193 5.40559 6.27329 5.46442 6.21315 5.53141H6.38232C6.53856 5.53307 6.69304 5.56476 6.83732 5.62474L6.90148 6.17307L6.95982 5.62474C7.10594 5.56468 7.26268 5.53491 7.42065 5.53724H7.58398C7.52472 5.47158 7.45816 5.41287 7.38565 5.36224C7.79818 5.47725 8.15606 5.73584 8.39482 6.09141C8.32458 6.03618 8.24828 5.98921 8.16732 5.95141C8.19182 6.00189 8.21136 6.05464 8.22565 6.10891C8.27821 6.25445 8.29618 6.41022 8.27815 6.56391L7.77648 6.79141L8.31898 6.68057C8.4241 6.79693 8.50355 6.93405 8.55232 7.08308C8.56865 7.1368 8.5823 7.19129 8.59315 7.24641C8.63731 7.17309 8.67254 7.09475 8.69815 7.01308V7.07141C8.69745 7.46901 8.56398 7.85494 8.31898 8.16808Z" fill="#7782AA"/>
<path d="M6.13672 6.83248L6.42714 7.72049H7.36543L7.65584 6.83248L6.89627 6.28516L6.13672 6.83248Z" fill="#7782AA"/>
</g>
</svg>
