<svg width="20" height="12" viewBox="0 0 20 12" fill="none" xmlns="http://www.w3.org/2000/svg">
<path d="M19.4547 5.6224C14.1954 -1.88919 5.77862 -1.85911 0.543901 5.62255C0.470801 5.73411 0.431428 5.86429 0.430205 5.99752C0.428984 6.13075 0.466068 6.26168 0.537032 6.37446C5.78308 13.8861 14.2714 13.8634 19.4615 6.36744C19.5325 6.25588 19.5696 6.12616 19.5684 5.99385C19.5672 5.86169 19.5276 5.73274 19.4547 5.6224H19.4547ZM9.99952 9.71751C9.01336 9.71644 8.06796 9.3244 7.37067 8.62712C6.67339 7.92983 6.28134 6.98443 6.28029 5.99828C6.45457 1.07571 13.5454 1.07688 13.7188 5.99828C13.7178 6.98443 13.3256 7.92983 12.6283 8.62712C11.931 9.3244 10.9857 9.71645 9.9996 9.71751H9.99952Z" fill="#7782AA"/>
<path d="M9.99899 3.6499C9.1636 3.65707 8.39478 4.10696 7.97921 4.83171C7.56349 5.55646 7.56365 6.44725 7.97921 7.1718C8.39478 7.89655 9.1636 8.34642 9.99899 8.35361C10.8344 8.34643 11.6032 7.89655 12.0189 7.1718C12.4345 6.44705 12.4345 5.55626 12.0188 4.83171C11.6032 4.10696 10.8344 3.65709 9.99899 3.6499Z" fill="#7782AA"/>
</svg>
