<svg width="36" height="36" viewBox="0 0 36 36" fill="none" xmlns="http://www.w3.org/2000/svg">
<g clip-path="url(#clip0_23527_4475)">
<circle cx="18" cy="18" r="18" fill="#15161C"/>
<path d="M12.38 18C12.38 17.3993 12.4825 16.8231 12.6638 16.2831L9.48062 13.9024C8.84106 15.1735 8.50894 16.5771 8.511 18C8.511 19.4726 8.85943 20.8616 9.47904 22.0945L12.6607 19.7099C12.4751 19.1589 12.3804 18.5814 12.38 18Z" fill="white"/>
<path d="M17.9706 12.5347C19.3028 12.5347 20.5066 12.9966 21.4525 13.7534L24.2045 11.0629C22.5278 9.63367 20.3781 8.75076 17.9706 8.75076C14.2324 8.75076 11.0193 10.8437 9.48047 13.9024L12.6652 16.2831C13.3984 14.1026 15.489 12.5347 17.9706 12.5347Z" fill="white"/>
<path d="M17.9706 23.4654C15.4882 23.4654 13.3976 21.8974 12.6637 19.7169L9.48047 22.0976C11.0185 25.1563 14.2316 27.2493 17.9706 27.2493C20.2772 27.2493 22.4797 26.4475 24.1336 24.9442L21.1112 22.6566C20.259 23.1824 19.1854 23.4654 17.9698 23.4654" fill="white"/>
<path d="M27.0001 18C27.0001 17.4537 26.9134 16.8648 26.7849 16.3185H17.97V19.892H23.0435C22.7905 21.1107 22.0999 22.0472 21.1122 22.6566L24.1338 24.9442C25.8704 23.366 27.0001 21.0153 27.0001 18Z" fill="white"/>
</g>
<defs>
<clipPath id="clip0_23527_4475">
<rect width="36" height="36" fill="white"/>
</clipPath>
</defs>
</svg>
