<svg width="48" height="48" viewBox="0 0 48 48" fill="none" xmlns="http://www.w3.org/2000/svg">
<circle cx="24" cy="24" r="24" fill="#131828"/>
<path fill-rule="evenodd" clip-rule="evenodd" d="M36.9995 15.9347C36.0437 16.3621 35.014 16.6462 33.9387 16.7728C35.0403 16.1131 35.8828 15.0676 36.285 13.8229C35.2554 14.4318 34.111 14.8785 32.8985 15.1174C31.9236 14.0815 30.5389 13.4375 29.0048 13.4375C26.0594 13.4375 23.6746 15.8236 23.6746 18.7672C23.6746 19.1827 23.7207 19.5891 23.811 19.9811C19.379 19.7564 15.4498 17.6348 12.8196 14.4067C12.3478 15.2206 12.0981 16.1461 12.0981 17.0873V17.0879C12.0981 18.9362 13.0365 20.5709 14.4684 21.5242C13.5947 21.4983 12.7728 21.2546 12.0511 20.8598V20.9264C12.0511 23.5111 13.8883 25.6679 16.3296 26.1554C15.8823 26.2769 15.4102 26.3439 14.9238 26.3439C14.5793 26.3439 14.2473 26.3084 13.9172 26.2485C14.5991 28.3653 16.5673 29.9085 18.8981 29.9535C17.0705 31.3852 14.7751 32.2378 12.2728 32.2378C11.8409 32.2378 11.4202 32.2113 11 32.161C13.3654 33.6788 16.1676 34.5577 19.1778 34.5577C28.9852 34.5577 34.3528 26.4303 34.3528 19.3834C34.3528 19.1492 34.3476 18.9223 34.3379 18.6929C35.3796 17.9478 36.2826 17.0074 36.9975 15.9369L36.9999 15.9345L36.9995 15.9348L36.9995 15.9347Z" fill="white"/>
</svg>
