<svg width="24" height="24" viewBox="0 0 24 24" fill="none" xmlns="http://www.w3.org/2000/svg">
<circle cx="12" cy="12" r="12" fill="#17AF81"/>
<path d="M4 16.8V7.2H7.58502C8.36423 7.2 9.01085 7.32813 9.52486 7.58438C10.0422 7.84063 10.4285 8.19531 10.6839 8.64844C10.9392 9.09844 11.0669 9.61875 11.0669 10.2094C11.0669 10.7969 10.9376 11.3141 10.6789 11.7609C10.4236 12.2047 10.0372 12.55 9.51995 12.7969C9.00593 13.0438 8.35932 13.1672 7.58011 13.1672H4.86433V11.9203H7.4426C7.9337 11.9203 8.33313 11.8531 8.64088 11.7188C8.95191 11.5844 9.17946 11.3891 9.32351 11.1328C9.46757 10.8766 9.53959 10.5687 9.53959 10.2094C9.53959 9.84687 9.46593 9.53281 9.3186 9.26719C9.17454 9.00156 8.947 8.79844 8.63597 8.65781C8.32822 8.51406 7.92388 8.44219 7.42296 8.44219H5.5175V16.8H4ZM8.96501 12.4688L11.45 16.8H9.7213L7.28545 12.4688H8.96501Z" fill="#FEDF00"/>
<path d="M15.8797 18V6H16.6851V18H15.8797ZM18.399 9.72187C18.3466 9.27813 18.1305 8.93438 17.7508 8.69062C17.371 8.44375 16.893 8.32031 16.3168 8.32031C15.9042 8.32031 15.5474 8.38281 15.2462 8.50781C14.945 8.62969 14.7109 8.79844 14.5439 9.01406C14.3802 9.22656 14.2983 9.46875 14.2983 9.74063C14.2983 9.96875 14.354 10.1656 14.4653 10.3313C14.5799 10.4969 14.7289 10.6359 14.9122 10.7484C15.0988 10.8578 15.2985 10.95 15.5114 11.025C15.7242 11.0969 15.9288 11.1562 16.1252 11.2031L17.1074 11.4469C17.4283 11.5219 17.7573 11.6234 18.0945 11.7516C18.4318 11.8797 18.7444 12.0484 19.0325 12.2578C19.3206 12.4672 19.5531 12.7266 19.7299 13.0359C19.91 13.3453 20 13.7156 20 14.1469C20 14.6906 19.8527 15.1734 19.558 15.5953C19.2666 16.0172 18.8426 16.35 18.2861 16.5937C17.7328 16.8375 17.0632 16.9594 16.2775 16.9594C15.5245 16.9594 14.8729 16.8453 14.3229 16.6172C13.7729 16.3891 13.3423 16.0656 13.0313 15.6469C12.7203 15.225 12.5484 14.725 12.5157 14.1469H14.0381C14.0675 14.4937 14.1854 14.7828 14.3917 15.0141C14.6012 15.2422 14.868 15.4125 15.1921 15.525C15.5195 15.6344 15.878 15.6891 16.2676 15.6891C16.6965 15.6891 17.078 15.625 17.4119 15.4969C17.7491 15.3656 18.0143 15.1844 18.2075 14.9531C18.4007 14.7188 18.4972 14.4453 18.4972 14.1328C18.4972 13.8484 18.4121 13.6156 18.2419 13.4344C18.0749 13.2531 17.8473 13.1031 17.5592 12.9844C17.2744 12.8656 16.9519 12.7609 16.5918 12.6703L15.4033 12.3609C14.5979 12.1516 13.9595 11.8438 13.488 11.4375C13.0198 11.0312 12.7858 10.4938 12.7858 9.825C12.7858 9.27187 12.9429 8.78906 13.2572 8.37656C13.5715 7.96406 13.9971 7.64375 14.5341 7.41563C15.071 7.18438 15.6767 7.06875 16.3511 7.06875C17.0321 7.06875 17.6329 7.18281 18.1535 7.41094C18.6773 7.63906 19.0898 7.95313 19.391 8.35313C19.6922 8.75 19.8494 9.20625 19.8625 9.72187H18.399Z" fill="#FEDF00"/>
</svg>
