<svg width="14" height="14" viewBox="0 0 14 14" fill="none" xmlns="http://www.w3.org/2000/svg">
<path d="M1.78077 1.16797L3.19442 3.48079V11.0962L1.68771 13.418H10.5201L12.8337 10.3555H6.74245V1.16797H1.78077ZM3.59437 2.1888H5.72872V11.3763H10.7884L10.0182 12.3971H3.5617L4.20816 11.4012V3.19269L4.1329 3.07007L3.59437 2.1888ZM7.75617 2.2865V3.32827C9.78457 3.79428 11.3042 5.62135 11.3042 7.80339C11.3042 8.34034 11.2111 8.85535 11.0418 9.33464H12.105C12.2424 8.8477 12.3178 8.33422 12.3178 7.80339C12.3178 5.05632 10.3472 2.76833 7.75617 2.2865ZM2.18071 4.58536C1.6703 5.31679 1.32713 6.17362 1.21055 7.10156C1.18166 7.33125 1.16699 7.56553 1.16699 7.80339C1.16699 8.08973 1.18831 8.37117 1.22936 8.64578C1.36165 9.51961 1.69615 10.3272 2.18071 11.0214V4.58536Z" fill="#7782AA"/>
</svg>
