<svg width="38" height="38" viewBox="0 0 38 38" fill="none" xmlns="http://www.w3.org/2000/svg">
<path d="M31.0852 6.33337H6.91388C5.71886 6.33337 4.7498 7.27181 4.7498 8.43V24.3289C4.7498 25.487 5.71886 26.4255 6.91388 26.4255H11.1116L11.4973 31.6667L17.6638 26.4255H31.0849C32.2806 26.4255 33.2496 25.4871 33.2496 24.3289L33.2498 8.43C33.2498 7.27186 32.2807 6.33337 31.0851 6.33337H31.0852ZM11.6746 18.3883C10.8659 18.3883 10.2097 17.7428 10.2097 16.9469C10.2097 16.1513 10.8658 15.5056 11.6746 15.5056C12.4833 15.5056 13.1396 16.1511 13.1396 16.9469C13.1393 17.7426 12.4833 18.3883 11.6746 18.3883ZM18.7827 18.3883C17.974 18.3883 17.3178 17.7428 17.3178 16.9469C17.3178 16.1513 17.9738 15.5056 18.7827 15.5056C19.5914 15.5056 20.2476 16.1511 20.2476 16.9469C20.2478 17.7426 19.5914 18.3883 18.7827 18.3883ZM25.8913 18.3883C25.0826 18.3883 24.4264 17.7428 24.4264 16.9469C24.4264 16.1513 25.0824 15.5056 25.8913 15.5056C26.7 15.5056 27.3562 16.1511 27.3562 16.9469C27.3562 17.7426 26.7 18.3883 25.8913 18.3883Z" fill="#7782AA"/>
</svg>
