<svg width="16" height="16" viewBox="0 0 16 16" fill="none" xmlns="http://www.w3.org/2000/svg">
<path fill-rule="evenodd" clip-rule="evenodd" d="M3.44801 1.33203L5.62457 8.42318H5.70811L7.88907 1.33203H9.99967L8.96333 4.44785C8.35103 4.73912 7.84879 5.15083 7.47736 5.68728L7.47561 5.68984C7.08974 6.25273 6.90757 6.90217 6.91066 7.61105C6.90852 8.23436 7.05104 8.80066 7.35559 9.28158L6.89533 10.6654H4.44175L1.33301 1.33203H3.44801ZM8.02548 6.06679C8.19509 5.82182 8.39974 5.60676 8.63944 5.42162L8.6394 5.42174C8.8305 5.27412 9.04387 5.14551 9.27951 5.03591C9.81065 4.78888 10.4142 4.66536 11.0902 4.66536C11.7783 4.66536 12.3788 4.78888 12.8919 5.03591C13.4079 5.28294 13.8093 5.62657 14.096 6.06679C14.3827 6.50701 14.5305 7.01691 14.5396 7.59648H12.661C12.6248 7.21327 12.4694 6.91556 12.1947 6.70337C11.9201 6.49118 11.5474 6.38508 11.0766 6.38508C10.7567 6.38508 10.4866 6.43259 10.2663 6.5276C10.046 6.61944 9.87704 6.74771 9.75935 6.9124C9.64467 7.07708 9.58733 7.26394 9.58733 7.47297C9.58129 7.64715 9.616 7.79917 9.69144 7.92902C9.76991 8.05887 9.87704 8.1713 10.0128 8.26631C10.1486 8.35816 10.3056 8.43892 10.4836 8.50859C10.6617 8.5751 10.8518 8.63211 11.054 8.67962L11.8869 8.88864C12.2913 8.98365 12.6625 9.11034 13.0005 9.26869C13.3385 9.42704 13.6312 9.62182 13.8787 9.85301C14.1262 10.0842 14.3178 10.3566 14.4536 10.6701C14.5924 10.9837 14.6633 11.3431 14.6663 11.7485C14.6633 12.3439 14.5185 12.8601 14.2318 13.2972C13.9481 13.7311 13.5377 14.0684 13.0005 14.3091C12.4663 14.5466 11.822 14.6654 11.0676 14.6654C10.3192 14.6654 9.6673 14.545 9.11202 14.3043C8.55976 14.0636 8.12821 13.7073 7.81737 13.2354C7.50955 12.7604 7.3481 12.1729 7.33301 11.473H9.22972C9.25084 11.7992 9.33987 12.0715 9.49679 12.2901C9.65674 12.5054 9.8695 12.6685 10.1351 12.7794C10.4037 12.8871 10.7069 12.9409 11.0449 12.9409C11.3769 12.9409 11.6651 12.8902 11.9096 12.7889C12.157 12.6875 12.3486 12.5466 12.4844 12.3661C12.6203 12.1856 12.6882 11.9781 12.6882 11.7437C12.6882 11.5252 12.6263 11.3415 12.5026 11.1927C12.3818 11.0438 12.2038 10.9171 11.9684 10.8126C11.736 10.7081 11.4508 10.6131 11.1128 10.5276L10.1034 10.2616C9.32176 10.062 8.70461 9.75008 8.25194 9.3257C7.96607 9.0577 7.77107 8.73096 7.66693 8.3455L7.66687 8.34571C7.60606 8.12072 7.57622 7.87573 7.57733 7.61073C7.57431 7.02166 7.7237 6.50701 8.02548 6.06679Z" fill="#7782AA"/>
</svg>
