<svg width="24" height="24" viewBox="0 0 24 24" fill="none" xmlns="http://www.w3.org/2000/svg">
<path d="M3.47087 4.00021C2.91927 4.00021 2.49049 4.4065 2.49049 4.92908C2.49049 5.45171 2.91931 5.85796 3.47087 5.85796H18.6681V4L3.47087 4.00021ZM2.00009 6.15577V18.1667C2.00009 18.81 2.5467 19.3279 3.22567 19.3279H20.3838C21.0628 19.3279 21.6094 18.81 21.6094 18.1667V16.0767H14.0108C13.3404 16.0767 12.7852 15.5506 12.7852 14.9155V11.1995C12.7852 10.5643 13.3404 10.0383 14.0108 10.0383H21.6094V7.94825C21.6094 7.30494 21.0628 6.78705 20.3838 6.78705L3.24099 6.77263C2.74975 6.71723 2.31204 6.49173 2 6.15574L2.00009 6.15577ZM14.0108 10.9673C13.8665 10.9673 13.7656 11.0629 13.7656 11.1996V14.9155C13.7656 15.0522 13.8665 15.1478 14.0108 15.1478H21.6094V10.9675L14.0108 10.9673ZM16.4619 12.3608C16.868 12.3608 17.1973 12.6727 17.1973 13.0576C17.1973 13.4423 16.868 13.7543 16.4619 13.7543C16.0559 13.7543 15.7265 13.4425 15.7265 13.0576C15.7265 12.6728 16.0559 12.3608 16.4619 12.3608Z" fill="#7782AA"/>
</svg>
