<svg width="14" height="14" viewBox="0 0 14 14" fill="none" xmlns="http://www.w3.org/2000/svg">
<path d="M5.07306 7.27699L4.67029 6.85748C4.57938 6.76275 4.58244 6.61233 4.67713 6.52142C4.77186 6.43052 4.92228 6.43358 5.01318 6.52826L5.37946 6.90975C5.56852 6.68899 5.76094 6.47487 5.95674 6.26744L5.61563 5.91209C5.52472 5.81741 5.52784 5.66693 5.62252 5.57603C5.7172 5.48512 5.86767 5.48819 5.95858 5.58292L6.28795 5.92602C6.29285 5.92117 6.2977 5.91627 6.30255 5.91142C6.50069 5.71328 6.70368 5.52014 6.91158 5.33195L6.56102 4.96675C6.47012 4.87206 6.47318 4.72159 6.56786 4.63069C6.66254 4.53978 6.81302 4.54284 6.90392 4.63753L7.26877 5.01758C7.98498 4.40483 8.75637 3.84788 9.58274 3.34671C9.03169 2.94321 8.47825 2.66933 7.99386 2.54287C6.79653 2.95254 5.56367 3.64328 4.61067 4.59628C3.70345 5.5035 3.03196 6.65153 2.61323 7.78174C2.68303 8.31355 2.96475 8.96458 3.42892 9.61649C3.94396 8.77144 4.492 7.99158 5.07306 7.27699ZM5.40483 7.6226C4.8157 8.35178 4.26088 9.15099 3.74031 10.0203C3.87887 10.1869 4.0291 10.3519 4.19051 10.5133C4.99828 11.3211 5.89569 11.8489 6.62998 12.034C7.81542 11.621 9.03511 10.9279 9.98867 9.97429C10.8968 9.06626 11.5667 7.90409 11.9823 6.76071C11.8705 5.98533 11.3163 4.9647 10.4088 4.05727C10.2685 3.91697 10.1256 3.78512 9.98117 3.66203C9.12709 4.16857 8.33293 4.73491 7.59855 5.36109L8.11396 5.898C8.20487 5.99273 8.20181 6.14315 8.10713 6.23406C8.01244 6.32496 7.86197 6.3219 7.77107 6.22722L7.24095 5.675C7.03525 5.86089 6.8345 6.05174 6.63871 6.24753C6.63156 6.25468 6.62437 6.26188 6.61722 6.26902L7.16862 6.84339C7.25953 6.93808 7.25646 7.08855 7.16178 7.17945C7.06705 7.27036 6.91663 7.26729 6.82572 7.17256L6.28637 6.61075C6.09098 6.81838 5.89891 7.03291 5.71026 7.25438L6.22328 7.78874C6.31419 7.88342 6.31112 8.03389 6.21639 8.12479C6.12171 8.2157 5.97124 8.21264 5.88033 8.11796L5.40483 7.6226ZM2.33418 11.6108C2.60029 11.0728 2.87714 10.5561 3.16476 10.0607C2.80115 9.58122 2.52355 9.0903 2.34651 8.62332C2.02877 9.82959 2.01727 10.9375 2.33418 11.6108ZM2.65121 12.0444C3.23182 12.5489 4.47219 12.6113 5.85644 12.2654C5.19254 11.9731 4.49266 11.4877 3.85438 10.8494C3.72525 10.7203 3.60237 10.5886 3.48609 10.4553C3.19671 10.9624 2.91842 11.4921 2.65121 12.0444ZM11.5675 2.29827C10.9185 2.02823 9.89093 2.03963 8.76674 2.31568C9.18109 2.50079 9.60903 2.76073 10.0268 3.08577C10.5215 2.80417 11.0351 2.54167 11.5675 2.29827ZM12.0345 2.6098C11.4744 2.85603 10.9353 3.12325 10.4173 3.41147C10.5279 3.51022 10.6374 3.61351 10.745 3.72114C11.4473 4.42351 11.9645 5.20036 12.2431 5.92189C12.6166 4.47807 12.5588 3.17787 12.0345 2.6098ZM1.92165 12.6633C0.383462 11.1251 1.26599 6.59645 3.93841 3.92401C6.59359 1.26885 11.1655 0.395102 12.6777 1.90725C14.1899 3.4194 13.3161 7.99137 10.6609 10.6466C7.9885 13.3189 3.45984 14.2015 1.92165 12.6633Z" fill="#7782AA"/>
</svg>
