<svg width="16" height="14" viewBox="0 0 16 14" fill="none" xmlns="http://www.w3.org/2000/svg">
<path fill-rule="evenodd" clip-rule="evenodd" d="M2.28809 1.61719C1.32159 1.61719 0.538086 2.40069 0.538086 3.36719V7.40565H1.88424V5.11719H3.63424V3.77103H1.88424V3.36719C1.88424 3.14415 2.06505 2.96334 2.28809 2.96334H4.1727V1.61719H2.28809ZM12.5188 1.61719C11.5523 1.61719 10.7688 2.40069 10.7688 3.36719V5.97852H12.115V3.36719C12.115 3.14415 12.2958 2.96334 12.5188 2.96334H13.0573C13.2803 2.96334 13.4611 3.14415 13.4611 3.36719V4.30949H12.274V5.97852H13.9925C14.318 5.97852 14.6098 6.12295 14.8073 6.35122V5.97799V3.36719C14.8073 2.40069 14.0238 1.61719 13.0573 1.61719H12.5188ZM10.2233 6.51698C9.62853 6.51698 9.14637 6.99913 9.14637 7.5939V10.8247C9.14637 11.4194 9.62853 11.9016 10.2233 11.9016H13.7233C14.3181 11.9016 14.8002 11.4194 14.8002 10.8247V7.5939C14.8002 6.99913 14.3181 6.51698 13.7233 6.51698H10.2233ZM10.661 8.05075C10.661 7.87232 10.8056 7.72767 10.9841 7.72767C11.1625 7.72767 11.3071 7.87232 11.3071 8.05075V8.20978C11.3071 8.71612 11.163 9.212 10.8915 9.63941L10.3634 10.4708C10.2764 10.6077 10.2302 10.7666 10.2302 10.9288V10.9323V11.1476H10.4456H11.6911H11.9065V10.7169H11.6911H10.7178C10.7208 10.7118 10.7238 10.7067 10.727 10.7017L11.2551 9.87037C11.5704 9.37391 11.7379 8.79793 11.7379 8.20978V8.05075C11.7379 7.63441 11.4004 7.29691 10.9841 7.29691C10.5677 7.29691 10.2302 7.63441 10.2302 8.05075V8.40149V8.61687H10.661V8.40149V8.05075ZM13.1226 7.65306L13.1817 7.44596L12.7676 7.32763L12.7084 7.53473L12.0623 9.7963L12.054 9.82531V9.85547V10.3939V10.6093H12.2694H12.9693V10.9324V11.1477H13.4001V10.9324V10.6093H13.7231H13.9385V10.1785H13.7231H13.4001V9.0478V8.83242H12.9693V9.0478V10.1785H12.4847V9.88564L13.1226 7.65306ZM6.73039 3.36719C6.73039 2.40069 7.5139 1.61719 8.48039 1.61719H10.365V2.96334H8.48039C8.25736 2.96334 8.07655 3.14415 8.07655 3.36719V3.77103H9.82655V5.11719H8.07655V7.40565H6.73039V3.36719ZM4.84578 1.64401L4.84578 7.40502H6.19193V1.64401H4.84578Z" fill="#7782AA"/>
</svg>
