<svg width="20" height="20" viewBox="0 0 20 20" fill="none" xmlns="http://www.w3.org/2000/svg">
<circle cx="10" cy="10" r="10" fill="#18B68F"/>
<path d="M9.72519 16V4H10.3511V16H9.72519ZM11.5305 7.83906C11.4949 7.42969 11.3448 7.11094 11.0802 6.88281C10.8181 6.65469 10.4771 6.54063 10.0573 6.54063C9.76209 6.54063 9.50891 6.59531 9.29771 6.70469C9.08651 6.81406 8.92494 6.9625 8.81298 7.15C8.70102 7.3375 8.64377 7.55156 8.64122 7.79219C8.64122 7.99219 8.67812 8.16563 8.75191 8.3125C8.82824 8.45938 8.9313 8.58438 9.06107 8.6875C9.19084 8.7875 9.33461 8.87188 9.49237 8.94063C9.65013 9.00938 9.80916 9.06719 9.96947 9.11406L10.7023 9.33906C10.9975 9.42344 11.2812 9.5375 11.5534 9.68125C11.8282 9.825 12.0738 10.0062 12.2901 10.225C12.5089 10.4437 12.6819 10.7078 12.8092 11.0172C12.9364 11.3266 13 11.6891 13 12.1047C13 12.6672 12.883 13.1625 12.6489 13.5906C12.4148 14.0156 12.0763 14.3484 11.6336 14.5891C11.1934 14.8266 10.6603 14.9453 10.0344 14.9453C9.42621 14.9453 8.89822 14.8297 8.45038 14.5984C8.00509 14.3672 7.65649 14.0297 7.40458 13.5859C7.15522 13.1422 7.02036 12.6016 7 11.9641H8.39313C8.41349 12.2984 8.49746 12.5766 8.64504 12.7984C8.79262 13.0203 8.98473 13.1859 9.22137 13.2953C9.46056 13.4047 9.72774 13.4594 10.0229 13.4594C10.3308 13.4594 10.6005 13.4031 10.8321 13.2906C11.0662 13.175 11.2494 13.0156 11.3817 12.8125C11.514 12.6063 11.5814 12.3656 11.584 12.0906C11.5814 11.8406 11.5216 11.6344 11.4046 11.4719C11.2875 11.3063 11.1234 11.1688 10.9122 11.0594C10.7036 10.9469 10.4593 10.8469 10.1794 10.7594L9.29008 10.4781C8.64631 10.275 8.1374 9.96719 7.76336 9.55469C7.39186 9.13906 7.20611 8.5875 7.20611 7.9C7.20611 7.33437 7.33079 6.83906 7.58015 6.41406C7.83206 5.98906 8.1743 5.65938 8.60687 5.425C9.03944 5.1875 9.52926 5.06875 10.0763 5.06875C10.631 5.06875 11.117 5.1875 11.5344 5.425C11.9542 5.65938 12.2837 5.98594 12.5229 6.40469C12.7621 6.82031 12.8855 7.29844 12.8931 7.83906H11.5305Z" fill="white"/>
</svg>
