<svg width="38" height="38" viewBox="0 0 38 38" fill="none" xmlns="http://www.w3.org/2000/svg">
<path d="M6.50249 35.9503C6.33492 35.9508 6.17962 35.8621 6.09471 35.7176L1.51544 27.7856C1.38844 27.5642 1.46159 27.2821 1.68001 27.1501L4.05153 25.7822C4.12191 25.7417 4.20182 25.7204 4.28297 25.7204C4.3243 25.7204 4.36563 25.7259 4.40571 25.7364C4.52569 25.768 4.62788 25.8461 4.68975 25.9536L9.26928 33.883C9.39703 34.1067 9.32063 34.3915 9.0982 34.521L6.73316 35.8866C6.66328 35.9274 6.58365 35.9498 6.50249 35.9503ZM21.8368 33.8796C21.3389 33.8776 20.8434 33.8104 20.3628 33.6799L14.1261 32.01C13.5823 31.8619 13.0217 31.7855 12.4584 31.7833C11.4291 31.788 10.4182 32.0538 9.51973 32.5555L9.39624 32.6229L5.88404 26.5382L11.1905 23.5064C12.015 22.9962 12.9581 22.7091 13.9272 22.6739C14.4172 22.6718 14.9023 22.77 15.3529 22.9622L22.3795 25.9644C22.8311 26.1412 23.1868 26.5002 23.3596 26.953C23.5325 27.4059 23.5059 27.9109 23.2868 28.3432C23.1535 28.6601 22.9321 28.9321 22.649 29.1272L22.64 29.1325L22.5381 29.1881C22.5323 29.1911 22.5143 29.2024 22.5143 29.2024L22.5068 29.2059C22.2573 29.3259 21.9677 29.3326 21.7127 29.2239L14.4893 26.2359C14.4447 26.2172 14.3966 26.2076 14.348 26.2076C14.1712 26.2079 14.0191 26.3326 13.9848 26.5062C13.9503 26.6795 14.0429 26.8531 14.2062 26.9207L21.429 29.9069C21.6377 29.9944 21.8616 30.0394 22.0878 30.0399C22.4227 30.0372 22.75 29.9405 23.0328 29.7609L23.0401 29.7567L34.0827 23.7466C34.3437 23.6038 34.6362 23.5287 34.9338 23.5277C35.428 23.5284 35.8964 23.7479 36.2135 24.1266C36.5308 24.5053 36.6646 25.005 36.5787 25.4917C36.493 25.9784 36.1967 26.4022 35.7691 26.6497L24.554 33.1261C23.7312 33.6135 22.7932 33.873 21.8368 33.8778L21.8368 33.8796ZM24.1513 28.0431C24.2865 27.3986 24.154 26.7268 23.7843 26.1818L23.6939 26.0521L30.187 22.3527C30.573 22.1323 31.0306 22.073 31.4601 22.1879C31.8897 22.3027 32.2567 22.5822 32.4814 22.9659C32.5868 23.1488 32.6565 23.3502 32.6865 23.5591L32.7008 23.6585L24.0949 28.3405L24.1513 28.0431ZM23.0399 25.4842C22.9274 25.4143 22.8112 25.351 22.6912 25.2951L22.6795 25.2898L21.3667 24.729L25.9472 22.1238C26.2906 21.9281 26.6919 21.8593 27.0812 21.9286C27.4704 21.998 27.8231 22.2014 28.0778 22.5037L28.1883 22.6365L23.1123 25.5278L23.0399 25.4842Z" fill="#7782AA"/>
<path d="M28.0232 5.00009H12.8207C11.9776 5.00009 11.2916 5.68612 11.2916 6.52925V6.64572H11.1759C10.3319 6.64572 9.64514 7.33127 9.64514 8.17424V8.29087L9.52851 8.29071C8.6855 8.29071 8 8.97735 8 9.82145V17.7549C8 18.5978 8.68554 19.2834 9.52851 19.2834H24.7314C25.5741 19.2834 26.2597 18.5979 26.2597 17.7549V17.6383H26.3764C27.2204 17.6383 27.9072 16.9527 27.9072 16.1098V15.9922H28.0232C28.8663 15.9922 29.5523 15.3062 29.5523 14.463V6.52916C29.5523 5.68603 28.8663 5 28.0232 5L28.0232 5.00009ZM25.102 17.7549C25.102 17.9592 24.9358 18.1255 24.7315 18.1255H9.52859C9.32429 18.1255 9.15797 17.959 9.15797 17.7549L9.15781 9.82141C9.15781 9.61585 9.32429 9.44858 9.52843 9.44858H9.64506V16.11C9.64506 16.9528 10.3317 17.6385 11.1758 17.6385H25.1018L25.102 17.7549ZM26.7495 16.1099C26.7495 16.3142 26.5822 16.4805 26.3767 16.4805H11.1758C10.9702 16.4805 10.8029 16.314 10.8029 16.1099V8.1744C10.8029 7.9701 10.9702 7.80378 11.1758 7.80378H11.2915V14.4635C11.2915 15.3067 11.9775 15.9927 12.8206 15.9927H26.7494L26.7495 16.1099ZM28.3946 14.4631C28.3946 14.6679 28.228 14.8344 28.0234 14.8344L12.8209 14.8346C12.6161 14.8346 12.4496 14.6679 12.4496 14.4633L12.4495 6.52945C12.4495 6.32468 12.6161 6.1582 12.8207 6.1582H28.0232C28.228 6.1582 28.3945 6.32483 28.3945 6.52945L28.3946 14.4631Z" fill="#7782AA"/>
<path d="M27.0747 8.35606C26.5903 8.35606 26.196 7.9617 26.196 7.47731C26.196 7.15749 25.9369 6.89844 25.6171 6.89844H15.2299C14.91 6.89844 14.651 7.15749 14.651 7.47731C14.651 7.96171 14.2566 8.35606 13.7722 8.35606C13.4524 8.35606 13.1934 8.61527 13.1934 8.93493V12.0552C13.1934 12.375 13.4526 12.634 13.7722 12.634C14.2566 12.634 14.651 13.0284 14.651 13.5128C14.651 13.8326 14.9102 14.0917 15.2299 14.0917H25.6171C25.9369 14.0917 26.196 13.8324 26.196 13.5128C26.196 13.0284 26.5903 12.634 27.0747 12.634C27.3945 12.634 27.6536 12.3748 27.6536 12.0552V8.93493C27.6536 8.61511 27.3945 8.35606 27.0747 8.35606ZM26.4959 11.56C25.8375 11.7556 25.3175 12.2756 25.1218 12.9341L15.725 12.9339C15.5294 12.2756 15.0094 11.7556 14.3509 11.5598V9.43011C15.0093 9.23452 15.5293 8.71451 15.725 8.05603H25.1218C25.3174 8.71435 25.8374 9.23436 26.4959 9.43011V11.56Z" fill="#7782AA"/>
<path d="M20.4247 8.74609C19.4592 8.74609 18.6738 9.5315 18.6738 10.497C18.6738 11.4623 19.4592 12.2477 20.4247 12.2477C21.3902 12.2477 22.1756 11.4623 22.1756 10.497C22.1756 9.5315 21.3902 8.74609 20.4247 8.74609ZM20.4247 11.0899C20.0976 11.0899 19.8316 10.8239 19.8316 10.4971C19.8316 10.17 20.0976 9.90396 20.4247 9.90396C20.7518 9.90396 21.0178 10.17 21.0178 10.4971C21.0178 10.8239 20.7518 11.0899 20.4247 11.0899Z" fill="#7782AA"/>
</svg>
