<svg width="24" height="24" viewBox="0 0 24 24" fill="none" xmlns="http://www.w3.org/2000/svg">
<path d="M12 2C6.44439 2 2 6.52128 2 12.0046C2 17.4878 6.44413 22 12 22C17.5559 22 22 17.4877 22 12.0046C22 6.52143 17.5559 2 12 2ZM11.306 3.11071C11.3963 3.68607 11.4124 4.23056 11.1458 4.55265C10.8658 4.89106 10.7129 5.05708 10.007 5.41245C10.007 6.55883 10.007 7.99199 9.15303 7.99199C8.89155 8.67617 9.15303 10.2849 8.01426 11.1447C7.01956 11.6453 4.73318 12.1011 3.20997 11.8612C3.28152 7.20398 6.84895 3.46526 11.3059 3.11066L11.306 3.11071ZM14.9626 3.60338C16.7778 4.26307 18.3241 5.51486 19.3664 7.13236C19.1398 7.81797 18.5172 8.19363 17.4091 8.56552C16.8397 9.13868 16.8397 9.7119 17.4091 10.2853C17.9785 10.4764 18.8325 10.2853 19.1173 10.8584C19.4019 11.4316 19.1173 11.7182 18.8327 12.0048L17.1245 12.2914C15.9858 12.2914 14.2775 11.7182 14.2775 10.2851C14.2775 9.71191 14.6126 9.28099 15.4163 9.13869C15.4163 7.99232 14.5621 7.41895 15.4163 6.84579L14.9625 3.60359L14.9626 3.60338ZM10.0871 11.6819C10.7348 11.6455 11.3474 11.7774 11.9999 11.7178C12.5693 12.5776 12 13.151 10.2918 13.151C9.3427 14.1064 8.86842 18.0234 8.29898 17.7369C7.25408 16.8621 5.73679 15.7305 5.73679 14.5841C5.73679 13.4378 8.26449 12.6996 8.86837 12.0046C9.29546 11.7898 9.69862 11.7041 10.0873 11.6821L10.0871 11.6819ZM17.6851 15.5155C17.8584 15.5155 18.0498 15.587 18.2634 15.7303C18.2062 16.3637 18.4643 17.1686 18.548 17.9605C17.4724 19.1736 16.0693 20.0762 14.4911 20.5489C15.1007 19.4914 16.2142 18.0798 16.8398 17.4501C16.8398 16.1602 17.1645 15.5155 17.6851 15.5155Z" fill="#7782AA"/>
</svg>
