<svg width="16" height="16" viewBox="0 0 16 16" fill="none" xmlns="http://www.w3.org/2000/svg">
<g id="icon_public_96">
<g id="Vector">
<path d="M9.59409 3.68847C10.7544 2.3252 12.6357 2.3252 13.7961 3.68846Lnan nanL13.7961 3.68846C14.9564 5.05173 14.9564 7.26202 13.7961 8.62529L12.8749 9.70755C12.2233 10.4731 11.1669 10.4731 10.5153 9.70756Lnan nanL10.5153 9.70756C9.97389 9.0715 9.13352 8.94995 8.477 9.41275L7.80567 9.886C7.31328 10.2331 6.683 10.1419 6.27697 9.66489L-nan -nanL6.27697 9.66489C5.78827 9.09073 5.78827 8.15984 6.27697 7.58568L9.59409 3.68847Z" fill="#7782AA"/>
<path fill-rule="evenodd" clip-rule="evenodd" d="M7.46085 4.96054L6.40526 3.72036C5.24491 2.35709 3.36362 2.35709 2.20327 3.72036C1.04292 5.08362 1.04292 7.29391 2.20327 8.65718L5.88001 12.9769C7.04036 14.3402 8.92165 14.3402 10.082 12.9769C10.5543 12.422 10.8343 11.7269 10.9222 11.0056C10.5815 10.8706 10.2614 10.6436 9.99 10.3247C9.68964 9.97177 9.2234 9.90434 8.85916 10.1611L8.18783 10.6343C7.40315 11.1875 6.39876 11.0422 5.7517 10.282C4.97292 9.36702 4.97292 7.88355 5.7517 6.96858L7.46085 4.96054ZM7.98609 5.57765L-nan -nanC-nan -nan 5.78827 9.09073 6.27697 9.66489C6.683 10.1419 7.31328 10.2331 7.80567 9.886L8.477 9.41275C9.13352 8.94995 9.97389 9.0715 10.5153 9.70756C10.64 9.85404 10.7794 9.9725 10.9281 10.0629C10.8475 9.32328 10.5655 8.60814 10.082 8.04008L7.98609 5.57765Z" fill="#7782AA"/>
</g>
</g>
</svg>
