<svg width="24" height="24" viewBox="0 0 24 24" fill="none" xmlns="http://www.w3.org/2000/svg">
<g id="icon_public_89">
<g id="Group 772544324">
<circle id="Ellipse 33" cx="12" cy="12" r="12" fill="#2942C7"/>
<path id="$" d="M11.6336 18V5H12.4682V18H11.6336ZM14.0407 9.15899C13.9932 8.7155 13.793 8.37018 13.4402 8.12305C13.0908 7.87591 12.6361 7.75234 12.0763 7.75234C11.6828 7.75234 11.3452 7.81159 11.0636 7.93008C10.782 8.04857 10.5666 8.20938 10.4173 8.4125C10.268 8.61563 10.1917 8.84753 10.1883 9.1082C10.1883 9.32487 10.2375 9.51276 10.3359 9.67188C10.4377 9.83099 10.5751 9.96641 10.7481 10.0781C10.9211 10.1865 11.1128 10.2779 11.3232 10.3523C11.5335 10.4268 11.7455 10.4895 11.9593 10.5402L12.9364 10.784C13.3299 10.8754 13.7082 10.999 14.0712 11.1547C14.4377 11.3104 14.7651 11.5068 15.0534 11.7438C15.3452 11.9807 15.5759 12.2668 15.7455 12.602C15.9152 12.9371 16 13.3298 16 13.7801C16 14.3895 15.8439 14.926 15.5318 15.3898C15.2197 15.8503 14.7684 16.2108 14.1781 16.4715C13.5912 16.7288 12.8804 16.8574 12.0458 16.8574C11.2349 16.8574 10.531 16.7322 9.93384 16.4816C9.34012 16.2311 8.87532 15.8655 8.53944 15.3848C8.20696 14.904 8.02714 14.3184 8 13.6277H9.85751C9.88465 13.99 9.99661 14.2913 10.1934 14.5316C10.3902 14.772 10.6463 14.9514 10.9618 15.0699C11.2807 15.1884 11.637 15.2477 12.0305 15.2477C12.4411 15.2477 12.8007 15.1867 13.1094 15.0648C13.4215 14.9396 13.6658 14.7669 13.8422 14.5469C14.0187 14.3234 14.1086 14.0628 14.112 13.7648C14.1086 13.494 14.0288 13.2706 13.8728 13.0945C13.7167 12.9151 13.4979 12.7661 13.2163 12.6477C12.9381 12.5258 12.6124 12.4174 12.2392 12.3227L11.0534 12.018C10.1951 11.7979 9.51654 11.4645 9.01781 11.0176C8.52248 10.5673 8.27481 9.96979 8.27481 9.225C8.27481 8.61224 8.44105 8.07565 8.77354 7.61523C9.10941 7.15482 9.56573 6.79766 10.1425 6.54375C10.7193 6.28646 11.3723 6.15781 12.1018 6.15781C12.8414 6.15781 13.4894 6.28646 14.0458 6.54375C14.6056 6.79766 15.045 7.15143 15.3639 7.60508C15.6828 8.05534 15.8473 8.57331 15.8575 9.15899H14.0407Z" fill="white"/>
</g>
</g>
</svg>
