<svg width="14" height="14" viewBox="0 0 14 14" fill="none" xmlns="http://www.w3.org/2000/svg">
<path d="M2.39042 10.5114H12.1936L7.29199 2.70733L2.39042 10.5114ZM7.66393 1.66125L13.3508 10.7156C13.5312 11.0028 13.3216 11.3737 12.9788 11.3737H1.60514C1.26239 11.3737 1.05278 11.0028 1.23319 10.7156L6.92005 1.66125C7.09104 1.38896 7.49294 1.38896 7.66393 1.66125ZM4.66727 10.0802C4.17278 10.0802 3.79239 9.66777 3.79239 9.21787C3.79239 8.76797 4.21082 8.35555 4.66727 8.35555C5.12374 8.35555 5.54218 8.76797 5.54218 9.21787C5.54218 9.66777 5.16182 10.0802 4.66727 10.0802ZM7.29199 10.0802C6.7975 10.0802 6.41708 9.66777 6.41708 9.21787C6.41708 8.76797 6.83552 8.35555 7.29199 8.35555C7.74845 8.35555 8.16689 8.76797 8.16689 9.21787C8.16689 9.66777 7.78648 10.0802 7.29199 10.0802ZM5.97966 7.92441C5.48511 7.92441 5.10475 7.51199 5.10475 7.06209C5.10475 6.61219 5.52319 6.19977 5.97966 6.19977C6.43612 6.19977 6.85456 6.61219 6.85456 7.06209C6.85456 7.51199 6.47415 7.92441 5.97966 7.92441ZM8.60432 7.92441C8.10983 7.92441 7.72942 7.51199 7.72942 7.06209C7.72942 6.61219 8.14786 6.19977 8.60432 6.19977C9.06079 6.19977 9.47923 6.61219 9.47923 7.06209C9.47923 7.51199 9.09886 7.92441 8.60432 7.92441ZM9.9167 10.0802C9.42216 10.0802 9.0418 9.66777 9.0418 9.21787C9.0418 8.76797 9.46024 8.35555 9.9167 8.35555C10.3732 8.35555 10.7916 8.76797 10.7916 9.21787C10.7916 9.66777 10.4112 10.0802 9.9167 10.0802ZM7.29199 5.76864C6.7975 5.76864 6.41708 5.35621 6.41708 4.90631C6.41708 4.45641 6.83552 4.04399 7.29199 4.04399C7.74845 4.04399 8.16689 4.45641 8.16689 4.90631C8.16689 5.35621 7.78648 5.76864 7.29199 5.76864Z" fill="#7782AA"/>
</svg>
