<svg width="18" height="18" viewBox="0 0 18 18" fill="none" xmlns="http://www.w3.org/2000/svg">
<g id="icon_pblic_10" clip-path="url(#clip0_1563_50899)">
<path id="Vector" d="M14.0069 4.00067C13.5582 3.55196 12.8324 3.55196 12.3837 4.00067L8.99935 7.37812L5.61441 3.99317C5.1657 3.54446 4.43993 3.54446 3.99122 3.99317C3.54251 4.44188 3.54251 5.16765 3.99122 5.61636L7.37588 9.00102L3.99122 12.3857C3.54251 12.8344 3.54251 13.5601 3.99122 14.0089C4.43993 14.4576 5.1657 14.4576 5.61441 14.0089L8.99906 10.6242L12.3837 14.0089C12.8324 14.4576 13.5582 14.4576 14.0069 14.0089C14.4556 13.5601 14.4556 12.8344 14.0069 12.3857L10.6222 9.00102L14.0069 5.61636C14.4481 5.17515 14.4481 4.44188 14.0069 4.00067Z" fill="white" stroke="white" stroke-width="0.8"/>
</g>
<defs>
<clipPath id="clip0_1563_50899">
<rect width="18" height="18" fill="white"/>
</clipPath>
</defs>
</svg>
