<svg width="24" height="24" viewBox="0 0 24 24" fill="none" xmlns="http://www.w3.org/2000/svg">
<path fill-rule="evenodd" clip-rule="evenodd" d="M13.017 5.20016H21.8978C23.0588 5.20016 24 6.12569 24 7.2673V19.9329C24 21.0745 23.0588 22 21.8978 22H2.1022C0.941225 22 1.90735e-06 21.0745 1.90735e-06 19.9329V7.2673C1.90735e-06 6.12569 0.941225 5.20016 2.1022 5.20016H11.3898L9.43728 2.64017C9.30217 2.46338 9.33885 2.21303 9.51864 2.08017C9.69842 1.94732 9.95302 1.98339 10.0881 2.16017L12.2034 4.93374L14.3187 2.16017C14.4538 1.98339 14.7084 1.94732 14.8881 2.08017C15.0679 2.21303 15.1046 2.46338 14.9695 2.64017L13.017 5.20016ZM2.44065 19.1914V8.00929C2.44065 7.79483 2.52763 7.58929 2.68145 7.43732C2.83599 7.28535 3.04519 7.20053 3.26312 7.20053H17.4823C17.7004 7.20053 17.9094 7.28535 18.064 7.43732C18.2178 7.58928 18.3048 7.79499 18.3048 8.00929V19.1914C18.3048 19.4059 18.2178 19.6114 18.064 19.7634C17.9095 19.9154 17.7003 20.0002 17.4823 20.0002H3.26312C3.04502 20.0002 2.836 19.9154 2.68145 19.7634C2.52763 19.6114 2.44065 19.4057 2.44065 19.1914ZM20.7458 12.4002C21.4193 12.4002 21.9661 12.9379 21.9661 13.6002C21.9661 14.2625 21.4193 14.8002 20.7458 14.8002C20.0723 14.8002 19.5255 14.2625 19.5255 13.6002C19.5255 12.9379 20.0723 12.4002 20.7458 12.4002ZM20.7458 13.2002C20.5213 13.2002 20.339 13.3795 20.339 13.6002C20.339 13.8209 20.5213 14.0002 20.7458 14.0002C20.9703 14.0002 21.1526 13.8209 21.1526 13.6002C21.1526 13.3795 20.9703 13.2002 20.7458 13.2002ZM20.7458 9.20019C21.4193 9.20019 21.9661 9.73788 21.9661 10.4002C21.9661 11.0625 21.4193 11.6002 20.7458 11.6002C20.0723 11.6002 19.5255 11.0625 19.5255 10.4002C19.5255 9.73788 20.0723 9.20019 20.7458 9.20019ZM20.7458 10.0002C20.5213 10.0002 20.339 10.1795 20.339 10.4002C20.339 10.6209 20.5213 10.8002 20.7458 10.8002C20.9703 10.8002 21.1526 10.6209 21.1526 10.4002C21.1526 10.1795 20.9703 10.0002 20.7458 10.0002Z" fill="#7782AA"/>
<path d="M10.1298 9.58541C10.1897 9.40115 10.4503 9.40115 10.5102 9.58541L11.245 11.8468C11.2718 11.9293 11.3486 11.985 11.4352 11.985L13.813 11.985C14.0068 11.985 14.0873 12.233 13.9306 12.3469L12.0069 13.7445C11.9368 13.7954 11.9075 13.8857 11.9342 13.9681L12.669 16.2295C12.7289 16.4138 12.518 16.567 12.3613 16.4532L10.4376 15.0555C10.3675 15.0046 10.2725 15.0046 10.2024 15.0555L8.27875 16.4532C8.122 16.567 7.91111 16.4138 7.97098 16.2295L8.70577 13.9681C8.73254 13.8857 8.70321 13.7954 8.63311 13.7445L6.70942 12.3469C6.55267 12.233 6.63323 11.985 6.82697 11.985L9.20479 11.985C9.29144 11.985 9.36823 11.9293 9.395 11.8469L10.1298 9.58541Z" fill="#7782AA"/>
</svg>
