<svg width="20" height="20" viewBox="0 0 20 20" fill="none" xmlns="http://www.w3.org/2000/svg">
<g id="icon_public_96" clip-path="url(#clip0_12376_5042)">
<path id="Subtract" d="M14.3557 14.7979C14.5126 14.6591 14.6629 14.5086 14.8015 14.3516L15.775 15.32H16.277L18.9714 18.0254C19.2319 18.2858 19.2319 18.7113 18.9714 18.9717C18.7108 19.2321 18.2851 19.2321 18.0245 18.9717L15.3238 16.2726V15.7709L14.3557 14.7979Z" fill="#7782AA"/>
<path id="Ellipse 105 (Stroke)" fill-rule="evenodd" clip-rule="evenodd" d="M9.16658 14.9997C12.3882 14.9997 14.9999 12.388 14.9999 9.16634C14.9999 5.94468 12.3882 3.33301 9.16658 3.33301C5.94492 3.33301 3.33325 5.94468 3.33325 9.16634C3.33325 12.388 5.94492 14.9997 9.16658 14.9997ZM9.16658 17.4997C13.769 17.4997 17.4999 13.7687 17.4999 9.16634C17.4999 4.56397 13.769 0.833008 9.16658 0.833008C4.56421 0.833008 0.833252 4.56397 0.833252 9.16634C0.833252 13.7687 4.56421 17.4997 9.16658 17.4997Z" fill="#7782AA"/>
<path id="Ellipse 106 (Stroke)" fill-rule="evenodd" clip-rule="evenodd" d="M7.47009 6.55535C6.27436 7.24571 5.86467 8.77469 6.55503 9.97042C6.78515 10.369 6.64859 10.8787 6.25001 11.1088C5.85143 11.3389 5.34177 11.2023 5.11165 10.8038C3.96106 8.81087 4.64387 6.26257 6.63676 5.11198C7.03534 4.88186 7.545 5.01842 7.77511 5.417C8.00523 5.81558 7.86867 6.32524 7.47009 6.55535Z" fill="#7782AA"/>
</g>
<defs>
<clipPath id="clip0_12376_5042">
<rect width="20" height="20" fill="white"/>
</clipPath>
</defs>
</svg>
