<svg width="22" height="22" viewBox="0 0 22 22" fill="none" xmlns="http://www.w3.org/2000/svg">
<path d="M2.84726 5.145H18.8054C19.2733 5.145 19.6526 5.52556 19.6526 5.995V7.69499C19.6526 8.16443 19.2733 8.545 18.8054 8.545H2.84726C2.37934 8.545 2 8.16443 2 7.69499V5.995C2 5.52556 2.37934 5.145 2.84726 5.145ZM17.9242 9.39499L17.9246 12.3048C17.639 12.2363 17.341 12.2 17.0346 12.2C14.9289 12.2 13.2219 13.9125 13.2219 16.025C13.2219 16.8862 13.5056 17.6809 13.9843 18.3202L4.32572 18.32C3.8578 18.32 3.47846 17.9606 3.47846 17.5174V9.39499H17.9242ZM9.90492 4.29627H5.94823L5.73641 4.11777C5.45874 3.8809 5.42284 3.46391 5.65592 3.18277L6.44387 2.23501C6.67998 1.95644 7.0956 1.92045 7.37585 2.15427L9.90492 4.29627ZM15.6197 4.10346L15.4079 4.28196H11.4554L13.9972 2.15696C14.2703 1.92505 14.6778 1.9533 14.9164 2.22071L15.7002 3.1557C15.7581 3.22267 15.8021 3.30063 15.8295 3.38496C15.8569 3.46929 15.8671 3.55828 15.8596 3.64665C15.8521 3.73502 15.827 3.82099 15.7858 3.89945C15.7446 3.97792 15.6881 4.04729 15.6197 4.10346Z" fill="white"/>
<path fill-rule="evenodd" clip-rule="evenodd" d="M14.0693 16.0258C14.0693 14.3827 15.397 13.0508 17.0347 13.0508C18.6725 13.0508 20.0001 14.3827 20.0001 16.0258C20.0001 17.6688 18.6725 19.0008 17.0347 19.0008C15.397 19.0008 14.0693 17.6688 14.0693 16.0258ZM16.9085 17.8536L16.9012 18.2444H17.1552L17.1625 17.8539C17.3787 17.8432 17.5678 17.8035 17.7301 17.735C17.9236 17.6537 18.0735 17.5352 18.1797 17.3793C18.2858 17.2234 18.3415 17.033 18.3468 16.8081C18.3482 16.6778 18.3308 16.5576 18.2946 16.4473C18.2595 16.3371 18.203 16.238 18.1252 16.15C18.0473 16.061 17.9465 15.9836 17.8228 15.9179C17.6991 15.8522 17.5499 15.7993 17.3751 15.7592L17.2024 15.7191L17.2135 15.122C17.2891 15.1361 17.349 15.1636 17.3932 15.2047C17.4612 15.2671 17.4983 15.3539 17.5045 15.4653H18.3285C18.3316 15.2415 18.2836 15.046 18.1845 14.879C18.0865 14.7109 17.9448 14.5806 17.7597 14.4882C17.6066 14.4118 17.4293 14.367 17.2278 14.3538L17.235 13.9688H16.981L16.9738 14.3534C16.7727 14.3662 16.5907 14.4106 16.4277 14.4865C16.2329 14.5778 16.0793 14.7053 15.9668 14.869C15.8553 15.0316 15.7981 15.2214 15.7951 15.4385C15.789 15.7058 15.8651 15.9168 16.0233 16.0715C16.1826 16.2252 16.402 16.3349 16.6816 16.4006L16.9345 16.4596L16.9228 17.0875C16.862 17.0788 16.807 17.0631 16.758 17.0402C16.6802 17.0035 16.6203 16.9495 16.5782 16.8782C16.5362 16.807 16.5136 16.719 16.5104 16.6143H15.6926C15.6883 16.9005 15.7407 17.1354 15.8498 17.3192C15.96 17.5018 16.1165 17.637 16.3193 17.725C16.4904 17.7988 16.6868 17.8417 16.9085 17.8536ZM17.1769 17.0845C17.2116 17.0785 17.2433 17.0698 17.2718 17.0586C17.3343 17.0341 17.3819 17.0002 17.4147 16.9567C17.4475 16.9133 17.465 16.8638 17.467 16.8081C17.467 16.7558 17.4518 16.7101 17.4216 16.6711C17.3924 16.631 17.3435 16.5954 17.2749 16.5642C17.2491 16.5521 17.2199 16.5403 17.1873 16.5288L17.1769 17.0845ZM16.9496 15.6526L16.9595 15.1204C16.9241 15.1262 16.8925 15.1349 16.8646 15.1463C16.8084 15.1685 16.7665 15.1991 16.7389 15.2381C16.7114 15.2771 16.6966 15.3216 16.6946 15.3717C16.6918 15.4129 16.6978 15.4502 16.7127 15.4836C16.7286 15.5159 16.7539 15.5454 16.7885 15.5722C16.8231 15.5978 16.8676 15.6211 16.9219 15.6423C16.9309 15.6458 16.9401 15.6492 16.9496 15.6526Z" fill="white"/>
</svg>
