<svg width="18" height="18" viewBox="0 0 18 18" fill="none" xmlns="http://www.w3.org/2000/svg">
<path d="M1.58836 4.10296H16.0957C16.5211 4.10296 16.866 4.45096 16.866 4.88023V6.43477C16.866 6.86405 16.5211 7.21205 16.0957 7.21205H1.58836C1.16297 7.21205 0.818115 6.86405 0.818115 6.43477V4.88023C0.818115 4.45096 1.16297 4.10296 1.58836 4.10296ZM15.2947 7.98931L15.295 10.6501C15.0354 10.5875 14.7645 10.5543 14.4859 10.5543C12.5717 10.5543 11.0199 12.1203 11.0199 14.052C11.0199 14.8395 11.2778 15.5663 11.713 16.1509L2.93241 16.1507C2.50702 16.1507 2.16217 15.8221 2.16217 15.4167V7.98931H15.2947ZM8.0044 3.32684H4.40741L4.21485 3.16362C3.96242 2.94701 3.92978 2.56571 4.14168 2.30862L4.858 1.44195C5.07264 1.18722 5.45048 1.1543 5.70525 1.36812L8.0044 3.32684ZM13.1996 3.15054L13.0071 3.31376H9.41393L11.7246 1.37058C11.9729 1.15851 12.3433 1.18434 12.5603 1.42887L13.2728 2.28387C13.3255 2.34511 13.3655 2.4164 13.3904 2.49351C13.4153 2.57063 13.4246 2.652 13.4178 2.73281C13.4109 2.81362 13.3881 2.89223 13.3507 2.96398C13.3132 3.03574 13.2618 3.09917 13.1996 3.15054Z" fill="#7782AA"/>
<path fill-rule="evenodd" clip-rule="evenodd" d="M11.79 14.052C11.79 12.5495 12.997 11.3315 14.4859 11.3315C15.9747 11.3315 17.1817 12.5495 17.1817 14.052C17.1817 15.5544 15.9747 16.7725 14.4859 16.7725C12.997 16.7725 11.79 15.5545 11.79 14.052ZM14.3711 15.7234L14.3645 16.0808H14.5954L14.6021 15.7237C14.7985 15.7139 14.9705 15.6776 15.118 15.615C15.294 15.5407 15.4302 15.4322 15.5267 15.2897C15.6232 15.1471 15.6739 14.973 15.6786 14.7674C15.6799 14.6482 15.6641 14.5383 15.6312 14.4375C15.5993 14.3367 15.548 14.2461 15.4772 14.1656C15.4064 14.0842 15.3148 14.0134 15.2023 13.9533C15.0899 13.8933 14.9542 13.8449 14.7953 13.8082L14.6383 13.7716L14.6484 13.2256C14.7171 13.2384 14.7716 13.2636 14.8117 13.3012C14.8736 13.3582 14.9073 13.4376 14.9129 13.5394H15.662C15.6648 13.3348 15.6212 13.1561 15.5311 13.0034C15.442 12.8496 15.3132 12.7305 15.1449 12.646C15.0058 12.5761 14.8446 12.5351 14.6614 12.523L14.668 12.171H14.437L14.4305 12.5227C14.2477 12.5344 14.0822 12.575 13.934 12.6445C13.7569 12.7279 13.6173 12.8445 13.515 12.9942C13.4137 13.1429 13.3616 13.3165 13.3589 13.515C13.3534 13.7594 13.4226 13.9523 13.5664 14.0938C13.7112 14.2343 13.9107 14.3346 14.1649 14.3947L14.3948 14.4487L14.3841 15.0229C14.3288 15.015 14.2788 15.0006 14.2343 14.9797C14.1636 14.9461 14.1091 14.8967 14.0709 14.8315C14.0327 14.7663 14.0121 14.6859 14.0092 14.5902H13.2657C13.2618 14.8519 13.3095 15.0667 13.4087 15.2347C13.5088 15.4017 13.6511 15.5254 13.8355 15.6058C13.991 15.6734 14.1696 15.7125 14.3711 15.7234ZM14.6151 15.0202C14.6467 15.0146 14.6755 15.0067 14.7014 14.9965C14.7582 14.9741 14.8015 14.943 14.8313 14.9033C14.8611 14.8636 14.877 14.8183 14.8789 14.7674C14.8788 14.7195 14.865 14.6778 14.8375 14.6421C14.811 14.6055 14.7665 14.5729 14.7042 14.5444C14.6808 14.5333 14.6542 14.5225 14.6245 14.512L14.6151 15.0202ZM14.4085 13.7107L14.4175 13.2241C14.3853 13.2294 14.3565 13.2373 14.3312 13.2477C14.2801 13.2681 14.242 13.2961 14.217 13.3317C14.1919 13.3674 14.1785 13.4081 14.1767 13.4539C14.1741 13.4916 14.1796 13.5257 14.1931 13.5562C14.2076 13.5858 14.2305 13.6127 14.262 13.6372C14.2935 13.6606 14.3339 13.682 14.3833 13.7013C14.3914 13.7045 14.3998 13.7076 14.4085 13.7107Z" fill="#7782AA"/>
</svg>
