<svg width="14" height="14" viewBox="0 0 14 14" fill="none" xmlns="http://www.w3.org/2000/svg">
<path d="M4.31751 2.56478L4.43301 2.50703L4.31751 2.44928C3.55654 2.07431 2.94073 1.4585 2.56576 0.697531L2.50801 0.582031L2.45026 0.697531C2.07529 1.4585 1.45947 2.07431 0.698508 2.44928L0.583008 2.50703L0.698508 2.56478C1.45947 2.93975 2.07529 3.55557 2.45026 4.31653L2.50801 4.43203L2.56576 4.31653C2.94073 3.55557 3.55654 2.93975 4.31751 2.56478Z" fill="#7782AA"/>
<path fill-rule="evenodd" clip-rule="evenodd" d="M8.42558 1.12273C8.95316 0.770197 9.57345 0.582031 10.208 0.582031C11.0589 0.582031 11.875 0.920051 12.4766 1.52173C13.0783 2.12341 13.4163 2.93946 13.4163 3.79036C13.4163 4.42492 13.2282 5.04521 12.8757 5.57282C12.5231 6.10043 12.0221 6.51165 11.4358 6.75448C10.8495 6.99731 10.2045 7.06088 9.58212 6.93705C8.9597 6.81326 8.38804 6.5077 7.93939 6.059C7.49067 5.6103 7.18511 5.03864 7.06133 4.41628C6.93752 3.79393 7.00108 3.14883 7.24388 2.56259C7.48669 1.97634 7.89794 1.47527 8.42558 1.12273ZM11.1512 2.04503C11.5298 2.32736 11.9533 2.40436 12.0881 2.21828C12.2292 2.02578 12.0367 1.6472 11.6582 1.36486C11.2796 1.08253 10.8625 0.979865 10.7213 1.19161C10.5802 1.40336 10.7727 1.7627 11.1512 2.04503Z" fill="#7782AA"/>
<path fill-rule="evenodd" clip-rule="evenodd" d="M0.942449 10.669L6.07579 5.0737C6.32644 5.71345 6.70663 6.29448 7.19248 6.78033C7.67835 7.26621 8.25938 7.6464 8.89913 7.89703L3.30378 13.0304C3.0375 13.2694 2.69008 13.3978 2.33238 13.3894C1.97468 13.3811 1.63363 13.2366 1.37879 12.9854L0.987366 12.594C0.736217 12.3392 0.591737 11.9981 0.583391 11.6405C0.575044 11.2827 0.70346 10.9353 0.942449 10.669ZM3.71445 8.8852C3.90054 9.06487 4.3497 8.91728 4.71545 8.55153C5.07479 8.18578 5.2352 7.7302 5.04912 7.55053C4.86304 7.37086 4.38179 7.52486 4.04812 7.8842C3.71445 8.24353 3.52837 8.70553 3.71445 8.8852Z" fill="#7782AA"/>
<path d="M13.4163 11.4904L13.3008 11.5481C12.5399 11.9231 11.9241 12.5389 11.5491 13.2999L11.4913 13.4154L11.4336 13.2999C11.0586 12.5389 10.4428 11.9231 9.68184 11.5481L9.56634 11.4904L9.68184 11.4326C10.4428 11.0576 11.0586 10.4418 11.4336 9.68087L11.4913 9.56536L11.5491 9.68087C11.9241 10.4418 12.5399 11.0576 13.3008 11.4326L13.4163 11.4904Z" fill="#7782AA"/>
</svg>
