<svg width="14" height="14" viewBox="0 0 14 14" fill="none" xmlns="http://www.w3.org/2000/svg">
<path d="M4.09035 6.18472L8.91802 11.0872C9.60618 10.937 10.258 10.5788 10.81 10.0183C12.3418 8.46267 12.3192 5.91288 10.7538 4.32318C9.18839 2.73351 6.67749 2.71053 5.14562 4.26612C4.59283 4.82748 4.23913 5.48806 4.09035 6.18472ZM8.36297 11.1626L4.01521 6.74751C3.97561 7.46495 4.14602 8.20194 4.53246 8.89366C4.6834 9.16388 4.60122 9.38861 4.41676 9.62687C4.33739 9.72937 4.26446 9.80608 4.05794 10.0134C3.84733 10.2248 3.74646 10.3309 3.63658 10.4625C3.20703 10.9769 3.15301 11.3045 3.51598 11.6731C3.87893 12.0417 4.20062 11.9867 4.70708 11.55C4.83575 11.439 4.93939 11.3373 5.14648 11.1246C5.3515 10.914 5.4276 10.8395 5.52918 10.7585C5.76401 10.5713 5.98602 10.488 6.25206 10.6404C6.93223 11.0298 7.65732 11.2019 8.36297 11.1626ZM2.72462 3.74554C1.86437 3.74554 1.16699 3.03737 1.16699 2.16379C1.16699 1.29021 1.86437 0.582031 2.72462 0.582031C3.58488 0.582031 4.28225 1.29021 4.28225 2.16379C4.28225 3.03737 3.58488 3.74554 2.72462 3.74554ZM2.72462 3.29361C3.33909 3.29361 3.83721 2.78777 3.83721 2.16379C3.83721 1.5398 3.33909 1.03396 2.72462 1.03396C2.11015 1.03396 1.61203 1.5398 1.61203 2.16379C1.61203 2.78777 2.11015 3.29361 2.72462 3.29361ZM5.77939 11.7601C5.55451 11.991 5.43775 12.1056 5.28324 12.2389C4.46606 12.9436 3.64631 13.0837 2.88659 12.3123C2.12723 11.5411 2.26464 10.708 2.95768 9.87795C3.08975 9.71977 3.20344 9.60028 3.4322 9.37065C3.54242 9.25999 3.60832 9.19261 3.65366 9.14285C2.71112 7.27615 3.0267 5.1396 4.51623 3.62699C6.39823 1.71583 9.47268 1.74395 11.3832 3.68404C13.2937 5.62419 13.3214 8.7462 11.4394 10.6574C9.9539 12.1658 7.84616 12.485 6.00683 11.5323C5.95737 11.5786 5.89032 11.6461 5.77939 11.7601Z" fill="#7782AA"/>
</svg>
