<svg width="16" height="16" viewBox="0 0 16 16" fill="none" xmlns="http://www.w3.org/2000/svg">
<g id="icon_public_100" clip-path="url(#clip0_12652_30306)">
<g id="Group 772545069">
<path id="Rectangle 2406" d="M8.25029 2.33967L7.18591 1.70104C6.47569 1.27491 5.56659 1.38683 4.98093 1.97249C4.27603 2.67738 4.27603 3.82024 4.98093 4.52513L8.25029 7.7945L11.5197 4.52513C12.2245 3.82024 12.2245 2.67738 11.5197 1.97249C10.934 1.38683 10.0249 1.27491 9.31467 1.70104L8.25029 2.33967Z" fill="white"/>
<path id="Rectangle 2408" d="M8.24985 14.1603L9.31423 14.799C10.0245 15.2251 10.9335 15.1132 11.5192 14.5275C12.2241 13.8226 12.2241 12.6798 11.5192 11.9749L8.24985 8.7055L4.98048 11.9749C4.27559 12.6798 4.27559 13.8226 4.98048 14.5275C5.56615 15.1132 6.47524 15.2251 7.18547 14.799L8.24985 14.1603Z" fill="white"/>
<path id="Rectangle 2407" d="M2.34068 8.25L1.70205 7.18562C1.27592 6.4754 1.38783 5.5663 1.97349 4.98063C2.67839 4.27574 3.82124 4.27574 4.52614 4.98064L7.7955 8.25L4.52614 11.5194C3.82124 12.2243 2.67839 12.2243 1.97349 11.5194C1.38783 10.9337 1.27592 10.0246 1.70205 9.31438L2.34068 8.25Z" fill="white"/>
<path id="Rectangle 2409" d="M14.1595 8.25L14.7981 9.31438C15.2242 10.0246 15.1123 10.9337 14.5266 11.5194C13.8218 12.2243 12.6789 12.2243 11.974 11.5194L8.70464 8.25L11.974 4.98063C12.6789 4.27574 13.8218 4.27574 14.5266 4.98064C15.1123 5.5663 15.2242 6.4754 14.7981 7.18562L14.1595 8.25Z" fill="white"/>
</g>
</g>
<defs>
<clipPath id="clip0_12652_30306">
<rect width="16" height="16" fill="white"/>
</clipPath>
</defs>
</svg>
