<svg width="14" height="14" viewBox="0 0 14 14" fill="none" xmlns="http://www.w3.org/2000/svg">
<path d="M5.11782 10.1803C5.35797 10.6872 5.26982 11.3128 4.85348 11.7327L3.57841 13.0185C3.05027 13.5511 2.19398 13.5511 1.66584 13.0185C1.1377 12.4859 1.1377 11.6224 1.66584 11.0898L2.94089 9.80391C3.35726 9.38404 3.97758 9.29515 4.48026 9.53733L7.10528 6.89016C6.08093 5.54398 6.36972 3.77445 7.72232 2.4104C9.19294 0.927352 11.1388 0.712507 12.5038 2.08895C13.8686 3.46538 13.6556 5.42775 12.185 6.9108C10.8324 8.27484 9.07768 8.56608 7.74279 7.53306L5.11782 10.1803ZM10.9099 5.94644L10.2724 6.58935L10.6344 6.9544C10.8894 6.82232 11.1411 6.6453 11.384 6.42453L10.9099 5.94644ZM10.5912 5.62499L9.95366 4.98204L9.3161 5.62499L9.95366 6.2679L10.5912 5.62499ZM9.62796 7.23925C9.81095 7.23055 9.99623 7.19756 10.1817 7.14073L9.95366 6.9108L9.62796 7.23925ZM9.04711 7.18211L9.63491 6.58935L8.99734 5.94644L8.20747 6.743C8.46702 6.96176 8.7504 7.10737 9.04711 7.18211ZM11.2287 5.62499L11.7028 6.10308C11.9217 5.85817 12.0972 5.60425 12.2282 5.34709L11.8662 4.98204L11.2287 5.62499ZM10.9099 5.30354L11.5474 4.66059L10.9099 4.01769L10.2724 4.66059L10.9099 5.30354ZM12.5106 4.33219L12.185 4.66059L12.413 4.89052C12.4693 4.70357 12.502 4.51672 12.5106 4.33219ZM12.454 3.74639C12.3799 3.44719 12.2355 3.16141 12.0186 2.89966L11.2287 3.69623L11.8662 4.33914L12.454 3.74639ZM8.67859 3.69623L8.20451 3.21816C7.9856 3.46305 7.81006 3.71698 7.67909 3.97412L8.04108 4.33914L8.67859 3.69623ZM8.99734 4.01769L8.35983 4.66059L8.99734 5.30354L9.63491 4.66059L8.99734 4.01769ZM7.39663 4.98904L7.72232 4.66059L7.49432 4.43066C7.43797 4.61766 7.40525 4.80451 7.39663 4.98904ZM7.45328 5.57481C7.5274 5.87402 7.67179 6.1598 7.88872 6.42154L8.67859 5.62499L8.04108 4.98204L7.45328 5.57481ZM8.99734 3.37478L9.63491 2.73186L9.27292 2.36683C9.01791 2.4989 8.76613 2.67594 8.52327 2.8967L8.99734 3.37478ZM9.3161 3.69623L9.95366 4.33914L10.5912 3.69623L9.95366 3.05332L9.3161 3.69623ZM10.2793 2.08198C10.0963 2.09068 9.91104 2.12366 9.72566 2.18048L9.95366 2.4104L10.2793 2.08198ZM10.8602 2.13911L10.2724 2.73186L10.9099 3.37478L11.6998 2.5782C11.4403 2.35947 11.1569 2.21385 10.8602 2.13911ZM4.21593 10.4469C4.03989 10.2693 3.75446 10.2693 3.57841 10.4469L2.30337 11.7327C2.12732 11.9102 2.12732 12.198 2.30337 12.3756C2.47941 12.5531 2.76485 12.5531 2.94089 12.3756L4.21593 11.0898C4.39201 10.9122 4.39201 10.6244 4.21593 10.4469ZM2.61537 3.3354C2.69066 3.38163 2.76173 3.43756 2.82682 3.5032C3.00622 3.68411 3.11249 3.91085 3.14564 4.14605L4.27716 3.00493C4.2196 2.91729 4.17535 2.82336 4.14441 2.72607L2.61537 3.3354ZM1.62656 3.2453C1.63877 3.23737 1.65193 3.23053 1.66594 3.22494L4.097 2.25614C4.1235 2.00715 4.23138 1.76531 4.42064 1.57445C4.86072 1.13061 5.57434 1.13061 6.01442 1.57445C6.45455 2.01829 6.45455 2.7379 6.01442 3.18174C5.84001 3.35766 5.62262 3.46384 5.3963 3.50031L4.39966 5.89621C4.3943 5.90908 4.38792 5.92117 4.38063 5.9325C4.3281 6.10215 4.23516 6.26187 4.10186 6.39632C4.01384 6.48506 3.87113 6.48506 3.7831 6.39632C3.69508 6.30753 3.69508 6.16361 3.7831 6.07487C4.04717 5.80855 4.04717 5.37679 3.7831 5.11047C3.51903 4.8442 3.09089 4.8442 2.82682 5.11047C2.73879 5.19926 2.59608 5.19926 2.50805 5.11047C2.42003 5.02173 2.42003 4.87781 2.50805 4.78902C2.77212 4.52274 2.77212 4.09096 2.50805 3.82465C2.24399 3.55835 1.81584 3.55835 1.55177 3.82465C1.46375 3.91342 1.32103 3.91342 1.23301 3.82465C1.14499 3.73589 1.14499 3.59197 1.23301 3.5032C1.34863 3.3866 1.48312 3.30063 1.62656 3.2453ZM3.4644 4.46751C3.69763 4.50092 3.92247 4.60809 4.10186 4.78902C4.17102 4.85876 4.22931 4.9353 4.27676 5.01653L4.91835 3.47405C4.80555 3.44284 4.69657 3.39362 4.59597 3.32639L3.4644 4.46751ZM4.7394 2.86028C5.00344 3.12659 5.43162 3.12659 5.69566 2.86028C5.95975 2.59398 5.95975 2.16221 5.69566 1.89591C5.43162 1.62961 5.00344 1.62961 4.7394 1.89591C4.47531 2.16221 4.47531 2.59398 4.7394 2.86028Z" fill="white"/>
</svg>
