<svg width="24" height="24" viewBox="0 0 24 24" fill="none" xmlns="http://www.w3.org/2000/svg">
<path fill-rule="evenodd" clip-rule="evenodd" d="M11 22C16.5228 22 21 17.5228 21 12C21 6.47715 16.5228 2 11 2C5.47715 2 1 6.47715 1 12C1 17.5228 5.47715 22 11 22ZM7 7C6.44772 7 6 7.44772 6 8V16C6 16.5523 6.44772 17 7 17H15C15.5523 17 16 16.5523 16 16V8C16 7.44772 15.5523 7 15 7H7ZM8 8H7V9H8V8ZM9 8H15V9H9V8ZM8 10H7V11H8V10ZM9 10H15V11H9V10ZM8 12H7V13H8V12ZM9 12H15V13H9V12ZM8 14H7V15H8V14ZM9 14H15V15H9V14Z" fill="#7782AA"/>
</svg>
