<svg width="14" height="14" viewBox="0 0 14 14" fill="none" xmlns="http://www.w3.org/2000/svg">
<mask id="mask0_18442_31322" style="mask-type:luminance" maskUnits="userSpaceOnUse" x="1" y="0" width="12" height="14">
<path d="M12.1329 0.582031H1.86621V13.4154H12.1329V0.582031Z" fill="white"/>
</mask>
<g mask="url(#mask0_18442_31322)">
<path d="M9.3673 13.2997C9.2903 13.0431 9.22613 12.8377 9.18121 12.6581C8.69765 12.8823 8.20295 13.0814 7.69896 13.2548C6.81908 13.5214 5.87215 13.4574 5.03604 13.0751C4.99781 13.0649 4.96208 13.047 4.93107 13.0224C4.90006 12.9978 4.87443 12.9671 4.85577 12.9322C4.83713 12.8973 4.82584 12.859 4.82264 12.8196C4.81943 12.7801 4.82436 12.7404 4.83713 12.703C5.04032 11.8595 5.04032 10.9798 4.83713 10.1363C4.83713 10.0914 4.83713 10.0336 4.78579 9.98873C4.73446 9.94381 4.78579 9.98873 4.72804 9.89889C4.29652 10.5673 3.76404 11.1646 3.14954 11.6699C2.70885 10.5979 2.58848 9.42098 2.80304 8.28189L1.86621 8.53214C1.9867 7.53204 2.37957 6.58427 3.00196 5.79223C2.80304 5.74731 2.63621 5.71523 2.44371 5.71523C2.83153 4.92195 3.40896 4.23652 4.12488 3.71964C4.03617 3.95862 4.02765 4.21996 4.10057 4.46421C4.1735 4.70846 4.32392 4.92234 4.52913 5.07356C4.48763 4.91517 4.45549 4.75448 4.43288 4.59231C4.41352 4.46471 4.41352 4.33491 4.43288 4.20731C4.44117 4.10469 4.47405 4.00558 4.52871 3.91834C4.58337 3.8311 4.65823 3.75829 4.74695 3.70606C4.83567 3.65384 4.93566 3.62373 5.03846 3.61827C5.14127 3.61282 5.24388 3.63218 5.33763 3.67473C5.42746 3.67473 5.51729 3.73248 5.64563 3.79023C5.58391 3.65516 5.49511 3.53421 5.38474 3.43487C5.27436 3.33553 5.14476 3.25993 5.00396 3.21273C5.00994 3.18958 5.00994 3.16529 5.00396 3.14214C5.44029 3.00739 5.8638 2.84698 6.31938 2.74431C6.72722 2.67654 7.13852 2.63156 7.55138 2.60956C7.72936 2.58749 7.91003 2.61128 8.07624 2.67866C8.24245 2.74604 8.38869 2.85478 8.50105 2.99456C8.59088 3.08439 8.68713 3.16781 8.7898 3.25764H8.85396C8.82188 3.11006 8.7898 2.97531 8.75771 2.80848C8.80423 2.7986 8.85236 2.7986 8.89888 2.80848C9.3664 2.93137 9.80337 3.14986 10.1822 3.45014C10.24 3.49506 10.3298 3.55281 10.349 3.62339C10.4389 3.91856 10.5159 4.26506 10.6057 4.51531L9.2133 3.55281C9.1363 3.77739 9.09138 3.93781 9.03363 4.11748C8.68071 3.91214 8.39196 3.71964 8.06471 3.55281C7.93212 3.49294 7.78499 3.47287 7.64121 3.49506C7.09918 3.57448 6.58781 3.79585 6.15896 4.13673C6.23596 4.19448 6.31296 4.23939 6.42846 4.32923C6.09152 4.45941 5.798 4.68177 5.58146 4.97089C5.97929 4.91314 6.02421 5.16339 6.14613 5.38798C6.23653 5.56968 6.37696 5.72178 6.55089 5.82636C6.72482 5.93094 6.925 5.98366 7.12788 5.97831C7.66046 5.97831 8.18663 5.97831 8.73205 5.97831C8.58446 5.81148 8.39838 5.65106 8.23155 5.47139C8.14889 5.37518 8.04302 5.30169 7.92397 5.2579C7.80494 5.2141 7.67668 5.20145 7.55138 5.22114C7.17772 5.26137 6.80296 5.15562 6.50546 4.92598C6.92254 4.43189 7.32038 4.43189 8.16738 4.87464C8.30213 4.79764 8.43688 4.73989 8.57805 4.66931C8.57426 4.68837 8.57426 4.70799 8.57805 4.72706C8.39838 5.09281 8.39838 5.09281 8.69996 5.36873C8.88604 5.54198 9.05288 5.73448 9.21971 5.91414C9.4425 5.85757 9.67035 5.82318 9.89988 5.81148C10.1381 5.80824 10.3762 5.82326 10.6121 5.85639C10.2785 5.49706 9.97046 5.17623 9.61113 4.83614C9.61113 4.83614 9.65605 4.77198 9.66888 4.74631L10.0475 4.95164C10.2015 4.95164 10.2913 4.62439 10.503 4.83614C10.7148 5.04789 10.6442 5.13131 10.503 5.32381C10.625 5.45214 10.7597 5.57406 10.8945 5.73448C10.9126 5.66342 10.9384 5.59456 10.9715 5.52914H11.0164C11.5618 6.21905 11.9209 7.03751 12.059 7.90607C12.1972 8.77463 12.11 9.66411 11.8056 10.4892C11.6516 10.3224 11.5169 10.1941 11.35 10.0272C11.2706 10.684 11.0519 11.3163 10.7084 11.8816C10.3683 12.4444 9.9027 12.921 9.34805 13.2741L9.3673 13.2997ZM7.68613 7.21031C7.8658 7.55039 8.04546 7.85198 8.19946 8.17281C8.20902 8.2063 8.22582 8.23723 8.24868 8.26354C8.27153 8.28978 8.29988 8.3107 8.33171 8.32476C8.36354 8.33887 8.39812 8.34574 8.4329 8.34503C8.46774 8.34426 8.50194 8.33586 8.53313 8.32039C9.03716 8.15927 9.50095 7.8924 9.89346 7.53756C9.90623 7.5289 9.91695 7.51754 9.92471 7.50419C9.93248 7.49085 9.93716 7.47596 9.93838 7.46056C9.96052 7.24727 9.96052 7.03218 9.93838 6.81889C9.93838 6.72906 9.72663 6.68414 9.61755 6.61356C9.5537 6.56217 9.48228 6.52104 9.4058 6.49164C9.29954 6.45116 9.18532 6.43579 9.07213 6.44673C8.5731 6.62152 8.10838 6.8821 7.69896 7.21673L7.68613 7.21031ZM8.6358 8.98773C8.69996 9.12248 8.80905 9.28289 8.87963 9.46256C8.95021 9.64223 9.01438 9.62939 9.1363 9.56523L9.84855 9.22514L9.93838 9.93739C9.97046 9.93739 10.0025 9.93739 10.0154 9.93739C10.1918 9.82157 10.3407 9.66847 10.4516 9.48887C10.5625 9.30926 10.6326 9.10752 10.657 8.89789C10.6563 8.78599 10.6299 8.67568 10.5799 8.57558C10.5298 8.47542 10.4574 8.38815 10.3683 8.32039C10.2694 8.28388 10.1638 8.26899 10.0586 8.27676C9.95346 8.28452 9.85124 8.31468 9.75871 8.36531C9.3784 8.5494 9.01355 8.76398 8.66788 9.00698L8.6358 8.98773ZM10.8945 6.42106L10.471 6.69698C10.4476 6.71218 10.4277 6.73196 10.4122 6.75512C10.3968 6.77829 10.3862 6.80435 10.3811 6.83173C10.2464 7.40922 10.5929 7.78139 10.9586 8.17923C11.1651 7.61565 11.142 6.99352 10.8945 6.44673V6.42106Z" fill="#7782AA"/>
<path d="M11.8186 9.87427C11.6646 9.70744 11.5299 9.5791 11.3631 9.41227C11.2836 10.069 11.0649 10.7013 10.7214 11.2667C10.3812 11.8294 9.91572 12.306 9.36106 12.6591C9.28406 12.4024 9.21989 12.1971 9.17498 12.0174C8.69142 12.2416 8.19669 12.4408 7.69271 12.6142C6.81282 12.8807 5.8659 12.8168 5.02979 12.4345C4.97892 12.4146 4.93295 12.384 4.89504 12.3447C4.89504 12.4666 4.85654 12.5885 4.83088 12.704C4.81811 12.7415 4.81317 12.7811 4.81638 12.8206C4.81959 12.86 4.83087 12.8984 4.84952 12.9333C4.86818 12.9682 4.8938 12.9989 4.92482 13.0234C4.95583 13.048 4.99156 13.066 5.02979 13.0762C5.8659 13.4585 6.81282 13.5224 7.69271 13.2559C8.19669 13.0825 8.69142 12.8833 9.17498 12.6591C9.21989 12.8388 9.28406 13.0441 9.36106 13.3008C9.91572 12.9477 10.3812 12.4711 10.7214 11.9084C11.0649 11.3429 11.2836 10.7107 11.3631 10.0539C11.5299 10.2208 11.6646 10.3491 11.8186 10.5159C12.0571 9.8368 12.1574 9.11691 12.1138 8.39844C12.0813 8.90131 11.9821 9.39758 11.8186 9.87427Z" fill="#7782AA"/>
<path d="M4.99064 10.9663C5.02651 10.4752 4.98538 9.9816 4.86873 9.5033C4.86873 9.45839 4.86873 9.40064 4.81739 9.35572C4.76606 9.3108 4.81739 9.35572 4.75964 9.26589C4.31786 9.93431 3.77446 10.5296 3.14906 11.0305C2.87273 10.4254 2.72211 9.77049 2.70631 9.10547C2.63811 9.98455 2.79029 10.8667 3.14906 11.6721C3.76761 11.1698 4.30445 10.5746 4.74039 9.90755C4.74039 9.97172 4.79814 9.98455 4.79814 9.99739C4.79814 10.0102 4.83023 10.1001 4.84948 10.145C4.92163 10.4138 4.96889 10.6888 4.99064 10.9663Z" fill="#7782AA"/>
<path d="M8.44298 0.582031C8.44298 1.02478 8.50073 1.40978 8.54565 1.86536L9.24506 1.10178L9.28998 1.1467C9.20015 1.57661 9.09106 2.01936 8.9884 2.46211C7.52009 2.08438 5.96357 2.26979 4.62507 2.98186C4.42615 2.55195 4.2144 2.15411 3.9834 1.66645L4.89457 2.2247C4.8304 1.81403 4.77265 1.42903 4.69565 0.999115C5.1769 1.31995 5.60682 1.60228 6.05598 1.9167C6.2164 1.46753 6.35757 1.05686 6.53082 0.582031C6.80673 0.999115 7.05057 1.36486 7.30723 1.78195C7.69865 1.38411 8.04515 1.01195 8.44298 0.582031Z" fill="#7782AA"/>
</g>
</svg>
