<svg width="14" height="14" viewBox="0 0 14 14" fill="none" xmlns="http://www.w3.org/2000/svg">
<path fill-rule="evenodd" clip-rule="evenodd" d="M5.39276 0.582031C5.31068 0.582036 5.22881 0.594123 5.14923 0.621885C4.36791 0.763515 3.95658 1.76917 4.30089 2.45754C4.28016 2.47668 4.25948 2.49609 4.23875 2.51551C4.21808 2.53493 4.19735 2.55434 4.17662 2.57347C4.02585 2.36503 3.75753 2.42277 3.54421 2.47411C3.09266 2.6271 2.80327 3.04683 2.65179 3.48205C2.46356 3.9932 2.48001 4.5494 2.54514 5.08217C2.43142 5.13668 2.30971 5.14291 2.18786 5.14909C2.08479 5.15434 1.9816 5.15965 1.88307 5.19411C1.86776 5.62015 1.84052 6.04614 1.76677 6.46647C1.76504 6.47918 1.76323 6.49194 1.76141 6.50475C1.74538 6.61735 1.72892 6.73296 1.77017 6.84224C1.80357 6.85005 1.83693 6.85806 1.87028 6.86608C2.02685 6.90354 2.18333 6.94101 2.34328 6.96219C2.22415 6.98444 2.11068 7.02839 2.00403 7.08551L2.02218 7.27339C2.00927 7.25808 1.99646 7.24271 1.98368 7.22735C1.96269 7.20219 1.94178 7.17713 1.92063 7.15232C1.88526 7.45857 1.9276 7.75926 1.96999 8.0604C2.00445 8.30515 2.03895 8.5502 2.03183 8.79882C1.81874 8.75339 1.79023 8.9547 1.76683 9.11992C1.76219 9.15269 1.75776 9.18398 1.75213 9.2117C1.77055 9.22869 1.78879 9.24584 1.80703 9.26299C1.82367 9.27866 1.8403 9.29433 1.85709 9.30985C1.82362 9.36814 1.79582 9.42806 1.77369 9.4909C1.78827 9.54275 1.79331 9.59762 1.79832 9.65208C1.8087 9.76509 1.81894 9.87657 1.91382 9.95629C1.89636 10.067 1.87827 10.1777 1.86017 10.2883C1.80126 10.6486 1.74233 11.0089 1.70505 11.372C1.69637 11.44 1.7102 11.5078 1.72397 11.5752C1.74189 11.663 1.75972 11.7503 1.72763 11.8369C1.70321 11.9163 1.66227 11.9879 1.62133 12.0595C1.57304 12.144 1.52474 12.2285 1.50359 12.3258C1.35826 12.4705 1.25952 12.6499 1.16699 12.832H2.56188C2.59946 12.7363 2.64443 12.6436 2.73224 12.5857C2.85421 12.5062 2.91549 12.3708 2.96768 12.2402C2.98932 12.1741 3.04395 12.1378 3.09893 12.1013C3.14488 12.0707 3.19106 12.04 3.21843 11.9917C3.27667 11.8896 3.28953 11.775 3.3024 11.6601C3.31438 11.5531 3.32641 11.446 3.375 11.3487C3.40979 11.2663 3.44005 11.1808 3.47036 11.095C3.55488 10.8561 3.64009 10.6151 3.8255 10.4361C3.88971 10.3802 3.91711 10.3039 3.94455 10.2275C3.96799 10.1623 3.99137 10.0972 4.03767 10.0449C4.05262 10.0743 4.06699 10.1044 4.08142 10.1345C4.13475 10.2459 4.1887 10.3586 4.27526 10.448C4.34641 10.4787 4.42453 10.4804 4.50202 10.4822C4.52832 10.4828 4.55457 10.4834 4.58046 10.4851C4.81628 10.8324 5.04928 11.1815 5.2824 11.5307C5.3062 11.5663 5.32995 11.6019 5.35375 11.6376C5.46207 11.817 5.70774 11.8536 5.88986 11.7764C5.90762 11.8062 5.92861 11.8347 5.94965 11.8634C5.99309 11.9224 6.03678 11.9819 6.05324 12.0539C6.04803 12.1079 6.0422 12.1618 6.03631 12.2157C6.02428 12.3261 6.01225 12.4366 6.00616 12.5479C5.92616 12.6238 5.86309 12.7226 5.85424 12.832H7.38275C7.43285 12.4357 7.46384 12.0372 7.45134 11.6376C7.42187 11.5953 7.39291 11.5536 7.36452 11.5119C7.35562 11.421 7.34614 11.3313 7.33666 11.2415L7.33619 11.2368C7.33239 11.2351 7.32859 11.2335 7.32479 11.2318C7.25505 11.2012 7.17979 11.1683 7.1648 11.0843C7.00246 10.6283 6.81669 10.1811 6.60821 9.74462C6.40567 9.35916 6.14183 9.00957 5.85195 8.68694C5.8195 8.59139 5.80117 8.49206 5.78284 8.39289C5.77206 8.33429 5.76123 8.2758 5.74758 8.21812C5.77591 8.15993 5.80482 8.1022 5.83435 8.04453C5.87231 8.04984 5.91377 8.06443 5.95616 8.07939C6.05876 8.11553 6.16672 8.1535 6.24339 8.06622C6.36708 7.87604 6.46634 7.66253 6.4539 7.42953C6.45317 7.2692 6.47114 7.10944 6.48905 6.94994C6.51546 6.71464 6.54181 6.47979 6.50832 6.24393C6.47712 6.06232 6.33192 5.93212 6.15605 5.89843C6.19125 5.76996 6.22526 5.64082 6.24682 5.50954C6.34338 5.55956 6.43931 5.61285 6.53556 5.66629C6.90064 5.86898 7.26963 6.07386 7.69123 6.11138C7.67133 6.21188 7.862 6.25128 7.71221 6.12567C7.91199 6.15542 8.04277 6.03706 8.17443 5.91793C8.23682 5.86142 8.29947 5.80472 8.36973 5.76358C8.55337 5.63204 8.58722 5.4194 8.62112 5.20651C8.63977 5.08927 8.65847 4.97197 8.70216 4.8681C8.78783 4.83957 8.87522 4.81374 8.96199 4.78868C8.94657 4.69083 8.92288 4.59431 8.89913 4.49785C8.85387 4.31384 8.80867 4.12999 8.82132 3.93782C8.83044 3.93098 8.8396 3.92409 8.84887 3.9172C8.9973 3.80613 9.16214 3.68281 9.22198 3.50329C9.28197 3.47365 9.3427 3.44339 9.4028 3.41141C9.63008 3.40787 9.85736 3.40875 10.0847 3.40963C10.2972 3.41045 10.5097 3.41128 10.7224 3.40849C10.7997 3.41248 10.804 3.34241 10.8081 3.27665C10.81 3.24715 10.8118 3.21852 10.8201 3.19782C10.9313 3.26984 11.0696 3.27835 11.1957 3.24294C11.3419 3.19455 11.4947 3.19798 11.6473 3.20141C11.716 3.20296 11.7847 3.2045 11.8526 3.20131C11.8828 3.20213 11.9137 3.20133 11.9447 3.20051C12.0603 3.19749 12.1783 3.19441 12.2713 3.27492C12.4489 3.24388 12.6298 3.24675 12.8102 3.24961L12.8256 3.24985C12.8269 3.21596 12.828 3.18209 12.8292 3.14824C12.8306 3.1073 12.832 3.06637 12.8337 3.02542L12.8182 3.02548C12.6792 3.02603 12.5403 3.02657 12.4019 3.02999C12.3618 3.01372 12.3212 2.99789 12.281 2.98219L12.2703 2.97802C12.2594 2.98609 12.2435 2.99775 12.2272 3.00973C12.2079 3.02394 12.1879 3.0386 12.175 3.04821C11.9662 3.06543 11.7555 3.06203 11.5451 3.05863C11.4347 3.05684 11.3244 3.05506 11.2145 3.05626C11.2155 3.0312 11.2193 3.00543 11.2231 2.97959C11.2345 2.90188 11.246 2.82354 11.1809 2.76221C11.171 2.77409 11.1558 2.79206 11.1409 2.80965C11.1278 2.82511 11.1149 2.84028 11.1061 2.85073C11.0811 2.81989 11.0312 2.75827 11.0063 2.72744C11.0047 2.58354 11.0042 2.43968 11.0036 2.29584C11.0035 2.27521 11.0034 2.25459 11.0033 2.23397C10.975 2.23454 10.9182 2.23626 10.8893 2.23745C10.8895 2.32697 10.8895 2.41662 10.8894 2.50628C10.8893 2.62591 10.8892 2.74557 10.8899 2.865C10.8749 2.865 10.8522 2.86486 10.8297 2.86472C10.8073 2.86457 10.785 2.86444 10.7703 2.86444C10.7726 2.82497 10.7781 2.74611 10.781 2.70682C10.148 2.70045 9.51524 2.70132 8.88246 2.70219C8.37405 2.70289 7.8657 2.70359 7.35718 2.70054C7.35718 2.67427 7.35666 2.62173 7.35598 2.5954C7.2863 2.57833 7.21708 2.56062 7.14901 2.5412C7.14839 2.43384 7.1462 2.32414 7.0923 2.22877C7.05886 2.33188 7.03512 2.43772 7.01137 2.54345C7.00199 2.58523 6.99262 2.62699 6.98267 2.66855C6.85976 2.65993 6.74523 2.69647 6.63087 2.73296C6.5029 2.77378 6.3752 2.81452 6.2362 2.79191C6.23214 2.74433 6.22693 2.69681 6.22177 2.64927C6.21037 2.54444 6.19891 2.43954 6.19933 2.33385C6.22797 2.32418 6.25818 2.31585 6.2888 2.30742C6.38968 2.27963 6.49478 2.25067 6.56186 2.16829C6.69003 1.85026 6.6055 1.49163 6.47332 1.18896C6.47702 1.18011 6.48244 1.16655 6.4878 1.15298C6.49322 1.13942 6.49858 1.12586 6.50228 1.11701C6.49665 1.10663 6.48869 1.09208 6.4802 1.0766C6.46718 1.05289 6.45301 1.02703 6.44442 1.01079C6.26292 0.942079 6.10048 0.836765 5.93846 0.731716L5.92757 0.724682C5.76346 0.64321 5.57743 0.582041 5.39276 0.582031C5.39281 0.582031 5.3927 0.582031 5.39276 0.582031ZM7.82023 3.8291C7.72482 3.72742 7.81388 3.66342 7.90465 3.60745C7.97272 3.60689 8.04136 3.6058 8.10943 3.6046C8.14745 3.69476 8.16901 3.7902 8.17807 3.88785C8.15771 3.90847 8.11626 3.95073 8.09584 3.97186C7.99824 4.18476 7.85413 4.38591 7.67321 4.53546C7.61409 4.38933 7.54269 4.24856 7.45983 4.11462C7.44608 4.03229 7.52639 3.99213 7.60035 3.95517C7.63008 3.94027 7.65883 3.92592 7.67998 3.90954C7.72706 3.88392 7.77372 3.85702 7.82023 3.8291Z" fill="#7782AA"/>
</svg>
