<svg width="20" height="20" viewBox="0 0 20 20" fill="none" xmlns="http://www.w3.org/2000/svg">
<g id="icon_public_22" clip-path="url(#clip0_1704_42036)">
<g id="Group 772544451">
<path id="Vector" d="M9.99997 20C4.48603 20 0 15.5144 0 9.99997C0 4.48557 4.48603 0 9.99997 0C15.5139 0 19.9999 4.48603 19.9999 9.99997C19.9999 15.5139 15.5144 20 9.99997 20ZM9.99997 1.61179C5.37464 1.61179 1.61179 5.37464 1.61179 9.99997C1.61179 14.6253 5.37464 18.3881 9.99997 18.3881C14.6253 18.3881 18.3881 14.6253 18.3881 9.99997C18.3881 5.37464 14.6257 1.61179 9.99997 1.61179Z" fill="white"/>
<path id="Vector_2" d="M6.93724 6.60328C7.10847 6.16381 7.34714 5.78405 7.65373 5.4623C7.96137 5.13901 8.33235 4.88842 8.76667 4.70889C9.20041 4.52726 9.68558 4.4375 10.2225 4.4375C10.9152 4.4375 11.4932 4.53242 11.9571 4.72339C12.4204 4.91379 12.7934 5.15094 13.0768 5.4332C13.3595 5.71652 13.5624 6.02158 13.6843 6.34744C13.8057 6.67482 13.867 6.98046 13.867 7.26273C13.867 7.73024 13.8057 8.1162 13.6843 8.41869C13.5624 8.72117 13.4109 8.97959 13.2303 9.19432C13.0493 9.40914 12.85 9.59229 12.63 9.7433C12.4111 9.89478 12.2035 10.0458 12.0085 10.1973C11.8134 10.3483 11.6401 10.521 11.4891 10.7161C11.3376 10.9107 11.2421 11.155 11.2037 11.4472V12.0034H9.22798V11.3445C9.25708 10.9252 9.33797 10.5745 9.46923 10.2917C9.60106 10.009 9.75455 9.76715 9.92997 9.56692C10.1059 9.36765 10.2911 9.19384 10.4867 9.04751C10.6813 8.9007 10.8613 8.75437 11.0278 8.60956C11.1929 8.46218 11.3278 8.30193 11.4305 8.12602C11.5327 7.95117 11.5789 7.73015 11.569 7.46706C11.569 7.01824 11.4595 6.68675 11.2395 6.4724C11.0206 6.2571 10.7155 6.15017 10.3248 6.15017C10.0617 6.15017 9.83506 6.20101 9.64456 6.30327C9.45406 6.40553 9.29848 6.54299 9.17609 6.71365C9.05418 6.88488 8.96384 7.08511 8.90575 7.31347C8.84708 7.54385 8.81808 7.78872 8.81808 8.05333H6.66699C6.67625 7.52524 6.76601 7.04323 6.93724 6.60328ZM11.3205 12.8818V15.1346H9.02251V12.8818H11.3205Z" fill="white"/>
</g>
</g>
<defs>
<clipPath id="clip0_1704_42036">
<rect width="20" height="20" fill="white"/>
</clipPath>
</defs>
</svg>
