<svg width="24" height="24" viewBox="0 0 24 24" fill="none" xmlns="http://www.w3.org/2000/svg">
<path d="M3.26652 22.1542H7.04407C7.31407 22.1542 7.56347 22.0102 7.69839 21.7764C7.8333 21.5427 7.8333 21.2547 7.69839 21.0209C7.56347 20.7872 7.31406 20.6432 7.04407 20.6432H3.26652C3.06618 20.643 2.8741 20.5634 2.73244 20.4217C2.59079 20.2801 2.51119 20.088 2.51102 19.8877V16.1101C2.51102 15.8401 2.367 15.5907 2.13326 15.4558C1.89953 15.3209 1.61149 15.3209 1.37775 15.4558C1.14402 15.5907 1 15.8401 1 16.1101V19.8877C1.00067 20.4885 1.23964 21.0648 1.66463 21.4896C2.08944 21.9145 2.6657 22.1535 3.26652 22.1542Z" fill="#7782AA"/>
<path d="M19.888 1H16.1105C15.8405 1 15.5911 1.14402 15.4562 1.37776C15.3213 1.6115 15.3213 1.89954 15.4562 2.13327C15.5911 2.367 15.8405 2.51102 16.1105 2.51102H19.888C20.0884 2.51119 20.2805 2.59079 20.4221 2.73245C20.5638 2.8741 20.6434 3.06619 20.6435 3.26653V7.04408C20.6435 7.31407 20.7875 7.56348 21.0213 7.69839C21.255 7.8333 21.5431 7.8333 21.7768 7.69839C22.0105 7.56348 22.1546 7.31406 22.1546 7.04408V3.26653C22.1539 2.66566 21.9149 2.0894 21.4899 1.66463C21.0651 1.23966 20.4889 1.0007 19.888 1Z" fill="#7782AA"/>
<path d="M21.399 15.3546C21.1987 15.3546 21.0064 15.4342 20.8648 15.5759C20.7231 15.7175 20.6435 15.9098 20.6435 16.1101V19.8877C20.6434 20.088 20.5638 20.2801 20.4221 20.4218C20.2805 20.5634 20.0884 20.643 19.888 20.6432H16.1105C15.8405 20.6432 15.5911 20.7872 15.4562 21.0209C15.3213 21.2547 15.3213 21.5427 15.4562 21.7764C15.5911 22.0102 15.8405 22.1542 16.1105 22.1542H19.888C20.4889 22.1535 21.0652 21.9146 21.4899 21.4896C21.9149 21.0648 22.1539 20.4885 22.1546 19.8877V16.1101C22.1546 15.9098 22.075 15.7175 21.9333 15.5759C21.7916 15.4342 21.5994 15.3546 21.399 15.3546Z" fill="#7782AA"/>
<path d="M1.75551 7.79958C1.95586 7.79958 2.14811 7.71998 2.28977 7.57833C2.43142 7.43667 2.51102 7.24442 2.51102 7.04407V3.26652C2.51119 3.06618 2.59079 2.8741 2.73245 2.73244C2.8741 2.59079 3.06619 2.51119 3.26653 2.51102H7.04408C7.31407 2.51102 7.56348 2.367 7.69839 2.13326C7.8333 1.89953 7.8333 1.61149 7.69839 1.37775C7.56348 1.14402 7.31406 1 7.04408 1H3.26653C2.66566 1.00067 2.0894 1.23964 1.66463 1.66463C1.23966 2.08944 1.00069 2.6657 1 3.26653V7.04408C1 7.24442 1.0796 7.43667 1.22126 7.57833C1.36291 7.71999 1.55517 7.79958 1.75551 7.79958Z" fill="#7782AA"/>
<path d="M11.5771 7.79956C11.3767 7.79956 11.1845 7.87916 11.0428 8.02082C10.9012 8.16247 10.8216 8.35473 10.8216 8.55507V10.8216H10.066C9.79605 10.8216 9.54664 10.9656 9.41173 11.1994C9.27682 11.4331 9.27682 11.7211 9.41173 11.9549C9.54664 12.1886 9.79606 12.3326 10.066 12.3326H11.5771C11.7774 12.3326 11.9697 12.253 12.1113 12.1114C12.253 11.9697 12.3326 11.7775 12.3326 11.5771V8.55507C12.3326 8.35473 12.253 8.16247 12.1113 8.02082C11.9697 7.87916 11.7774 7.79956 11.5771 7.79956Z" fill="#7782AA"/>
<path d="M7.79938 7.79953C7.79938 8.63396 7.12279 9.31055 6.28836 9.31055C5.45393 9.31055 4.77734 8.63396 4.77734 7.79953C4.77734 6.9651 5.45393 6.28851 6.28836 6.28851C7.12279 6.28851 7.79938 6.9651 7.79938 7.79953Z" fill="#7782AA"/>
<path d="M18.377 7.79953C18.377 8.63396 17.7004 9.31055 16.866 9.31055C16.0316 9.31055 15.355 8.63396 15.355 7.79953C15.355 6.9651 16.0316 6.28851 16.866 6.28851C17.7004 6.28851 18.377 6.9651 18.377 7.79953Z" fill="#7782AA"/>
<path d="M11.5773 16.8657C10.7139 16.8637 9.86882 16.6161 9.14077 16.1519C8.41276 15.6878 7.8318 15.026 7.46548 14.2441C7.38453 14.0569 7.23124 13.9103 7.04068 13.8378C6.84994 13.7653 6.63813 13.773 6.45332 13.8591C6.26832 13.9452 6.12599 14.1024 6.05887 14.295C5.99159 14.4874 6.00508 14.6991 6.09614 14.8815C6.75788 16.3035 7.94645 17.4127 9.41076 17.9747C10.8749 18.5369 12.5004 18.508 13.9438 17.8943C15.3872 17.2804 16.5355 16.1298 17.1465 14.685C17.2271 14.5002 17.2303 14.2906 17.1556 14.1032C17.0807 13.9157 16.934 13.7661 16.7482 13.6874C16.5623 13.6088 16.3529 13.6078 16.1662 13.6847C15.9797 13.7614 15.8316 13.9096 15.7549 14.0963C15.4087 14.9181 14.8276 15.6191 14.0843 16.1119C13.3413 16.6045 12.4691 16.8667 11.5775 16.8657L11.5773 16.8657Z" fill="#7782AA"/>
</svg>
