<svg width="20" height="20" viewBox="0 0 20 20" fill="none" xmlns="http://www.w3.org/2000/svg">
<g clip-path="url(#clip0_1265_2146)">
<path fill-rule="evenodd" clip-rule="evenodd" d="M7.40957 0.340096C9.31933 -0.171585 11.3379 -0.105481 13.2101 0.53005C15.0823 1.16558 16.724 2.342 17.9276 3.91054C19.1312 5.47908 19.8427 7.3693 19.9721 9.34218C20.1014 11.3151 19.6429 13.282 18.6544 14.9943C17.6659 16.7066 16.1919 18.0873 14.4187 18.9618C12.6455 19.8364 10.6528 20.1655 8.6926 19.9076C6.73238 19.6496 4.89265 18.8162 3.40607 17.5128C1.91948 16.2093 0.852793 14.4943 0.340888 12.5846C0.000961125 11.3164 -0.0858428 9.99378 0.0854329 8.69211C0.256708 7.39044 0.682709 6.13526 1.33911 4.99824C1.99551 3.86121 2.86945 2.86462 3.91102 2.06537C4.9526 1.26613 6.14141 0.679874 7.40957 0.340096Z" fill="#7782AA"/>
<path fill-rule="evenodd" clip-rule="evenodd" d="M7.45378 5.24951C8.15365 5.24951 8.72168 6.06331 8.72168 7.08382C8.72168 8.10433 8.15365 8.91813 7.45378 8.91813C6.75391 8.91813 6.1875 8.09782 6.1875 7.08382C6.1875 6.06982 6.75391 5.24951 7.45378 5.24951Z" fill="#181522"/>
<path fill-rule="evenodd" clip-rule="evenodd" d="M12.5492 5.24951C13.249 5.24951 13.8154 6.06331 13.8154 7.08382C13.8154 8.10433 13.249 8.91813 12.5492 8.91813C11.8493 8.91813 11.2812 8.10433 11.2812 7.08382C11.2812 6.06331 11.8493 5.24951 12.5492 5.24951Z" fill="#181522"/>
<path d="M4.69068 11.5259C5.09629 12.0535 5.58108 12.5152 6.12785 12.8947C7.32305 13.7178 8.74586 14.1464 10.1969 14.1203C11.6136 14.1137 12.9904 13.6502 14.1226 12.7986C14.5919 12.4363 15.003 12.0043 15.3417 11.5177C15.3484 11.5111 15.3575 11.5073 15.3669 11.5073C15.3764 11.5073 15.3855 11.5111 15.3922 11.5177L15.7909 11.9035C15.797 11.9098 15.8004 11.9183 15.8004 11.9271C15.8004 11.9359 15.797 11.9443 15.7909 11.9507C15.2233 12.9369 14.4378 13.7803 13.4944 14.4165C12.5276 15.0682 11.395 15.4306 10.2294 15.4614C9.04515 15.4802 7.87924 15.1673 6.86353 14.5581C5.7971 13.9085 4.89261 13.0246 4.21867 11.9734C4.21366 11.9669 4.21094 11.9589 4.21094 11.9507C4.21094 11.9424 4.21366 11.9344 4.21867 11.9279L4.62883 11.521C4.63217 11.5174 4.63621 11.5146 4.64069 11.5127C4.64517 11.5107 4.64999 11.5097 4.65487 11.5097C4.65975 11.5097 4.66457 11.5107 4.66905 11.5127C4.67353 11.5146 4.67756 11.5174 4.68091 11.521L4.69068 11.5259Z" fill="#181522"/>
</g>
<defs>
<clipPath id="clip0_1265_2146">
<rect width="20" height="20" fill="white" transform="translate(0 -0.000488281)"/>
</clipPath>
</defs>
</svg>
