<svg width="32" height="32" viewBox="0 0 32 32" fill="none" xmlns="http://www.w3.org/2000/svg">
<path fill-rule="evenodd" clip-rule="evenodd" d="M5 20.5L11.2115 16L11.2119 19.3751L23.1314 19.3751L23.1311 21.6252L11.2119 21.6252L11.2119 25L5 20.5ZM25.0304 20.5003C25.0304 19.9037 25.2924 19.331 25.7582 18.9093C26.2243 18.4872 26.8563 18.2502 27.5152 18.2502C28.1741 18.2502 28.8061 18.4872 29.2722 18.9093C29.7379 19.331 30 19.9034 30 20.5C30 21.097 29.738 21.669 29.2722 22.0911C28.8061 22.5132 28.1741 22.7502 27.5152 22.7502C26.8563 22.7502 26.2243 22.5132 25.7582 22.0911C25.2924 21.669 25.0304 21.0973 25.0304 20.5003Z" fill="#01983A"/>
<path fill-rule="evenodd" clip-rule="evenodd" d="M26 12L19.7885 17L19.7881 13.2499L7.86861 13.2499L7.86892 10.7498L19.7881 10.7498L19.7881 7L26 12ZM5.96964 11.9996C5.96964 12.6626 5.70759 13.2988 5.24181 13.7675C4.77574 14.2364 4.14369 14.4998 3.48482 14.4998C2.82594 14.4998 2.19391 14.2364 1.72782 13.7675C1.26206 13.2988 1 12.6629 1 12C1 11.3367 1.26205 10.7011 1.72782 10.2321C2.1939 9.76316 2.82594 9.49979 3.48482 9.49979C4.14369 9.49979 4.77573 9.76315 5.24181 10.2321C5.70758 10.7011 5.96964 11.3364 5.96964 11.9996Z" fill="#01983A"/>
</svg>
