<svg width="76" height="22" viewBox="0 0 76 22" fill="none" xmlns="http://www.w3.org/2000/svg">
<g clip-path="url(#clip0_24258_29255)">
<path fill-rule="evenodd" clip-rule="evenodd" d="M12.6726 6.65431C14.6554 6.5533 16.5391 6.40176 18.4923 6.31482C17.9308 2.18722 15.9382 0 9.91237 0C3.99533 0 1.42606 3.04288 1.08671 5.8386C0.704853 8.98472 3.07212 11 6.8569 12.1009C10.126 13.0591 12.8656 13.725 12.9509 15.3311C13.0428 17.0584 11.0703 18.0291 10.0933 18.0291C8.3471 18.0291 6.44743 16.094 6.22012 14.3204C4.31963 14.4713 2.34678 14.4794 0.446289 14.6302C0.446289 19.4482 4.36048 22 9.55028 22C14.39 22 19.1431 19.964 19.1431 14.7572C19.1431 8.43561 12.3059 8.43752 7.83079 6.88063C6.26593 6.01636 7.08197 4.12537 8.55481 3.95926C11.5283 3.59819 12.0389 5.29049 12.6725 6.65431H12.6726ZM31.3031 0.511959C35.1812 0.511959 37.9273 2.64971 37.9273 6.98329C37.9273 10.9549 35.1951 13.4902 31.2292 13.4902H26.2759V21.0954C26.2759 21.6178 26.2759 21.6178 25.8147 21.6178H20.6469C19.9999 21.6178 19.9999 21.6178 19.9999 21.1317V1.41486C19.9999 0.511959 19.9999 0.511959 20.908 0.511959H31.3031ZM26.774 9.47144C26.4077 9.47144 26.2759 9.32098 26.2759 9.09349V5.008C26.2759 4.70838 26.5204 4.54005 26.7437 4.54005H28.9149C30.7837 4.81592 31.4678 5.82892 31.4678 7.14972C31.4678 9.03956 29.7839 9.47144 28.3212 9.47144H26.774H26.774Z" fill="#343084"/>
<path fill-rule="evenodd" clip-rule="evenodd" d="M39.3369 1.09549C39.3369 0.830783 39.5268 0.628199 39.7362 0.628199H56.2092C56.5727 0.611738 56.6123 0.761297 56.6123 0.902832V4.66878C56.6292 4.84357 56.4854 4.92347 56.3577 4.92347H45.9269C45.7089 4.92347 45.6368 5.14699 45.6368 5.39118V7.93393C45.6368 8.20815 45.8323 8.45888 46.1615 8.45888H55.3908L55.6014 8.66957V12.2007C55.4959 12.3521 55.3904 12.5035 55.2849 12.6551H45.9846C45.7694 12.6551 45.6367 12.7879 45.6367 13.0031V16.3904C45.6367 16.5772 45.8592 16.7851 46.1194 16.7851H56.4017C56.5376 16.7851 56.6122 16.9146 56.6122 16.9957V21.1098C56.6122 21.2066 56.5028 21.3123 56.4098 21.3123H39.5051C39.4155 21.3123 39.3369 21.2238 39.3369 21.144V1.09557V1.09549Z" fill="#FF9400"/>
<path fill-rule="evenodd" clip-rule="evenodd" d="M65.5545 12.2954V21.3123H59.6887C59.5991 21.3123 59.5205 21.2238 59.5205 21.144V13.0887C59.5205 12.873 59.6695 12.7488 59.7808 12.7488H61.4648C61.6336 12.7488 61.6763 12.8932 61.6763 13.0207V16.7852C61.6763 17.2607 62.0748 17.0558 62.288 16.7852C63.3769 15.2886 64.4657 13.792 65.5546 12.2954H65.5545Z" fill="#343084"/>
<path fill-rule="evenodd" clip-rule="evenodd" d="M59.2639 1.09571C59.2639 0.831001 59.4539 0.628418 59.6632 0.628418H65.0476C65.4206 0.628418 65.5543 0.856893 65.5543 1.03722V8.73671L62.2575 4.12138C62.1864 4.02154 62.0235 4.02799 62.0235 4.23471V7.55885C62.0235 7.74398 61.932 8.09521 61.6685 8.09521H59.5201C59.403 8.09521 59.2637 7.83091 59.2637 7.6797V1.09571H59.2639Z" fill="#FF9400"/>
<path d="M72 2.5V1H76V10.5H74V2.5H72Z" fill="#FF9400"/>
</g>
<defs>
<clipPath id="clip0_24258_29255">
<rect width="76" height="22" fill="white"/>
</clipPath>
</defs>
</svg>
