<svg width="14" height="14" viewBox="0 0 14 14" fill="none" xmlns="http://www.w3.org/2000/svg">
<path d="M4.42891 2.04108C3.91679 3.02417 3.60297 4.12594 3.51443 5.27988C4.07785 5.25558 4.62263 5.14736 5.13506 4.96634C5.21559 3.72341 5.6199 2.5337 6.29501 1.50588C5.62925 1.57302 4.99976 1.75878 4.42891 2.04108ZM3.74356 2.44539C2.82013 3.08638 2.1132 4.00507 1.75007 5.07629C2.17551 5.19606 2.6161 5.2653 3.06516 5.28145C3.13749 4.28799 3.36871 3.32984 3.74356 2.44539ZM6.85912 1.47787C6.15464 2.44312 5.71652 3.58076 5.59968 4.77837C6.90495 4.18086 7.95265 3.09357 8.48708 1.72452C7.97371 1.56483 7.42679 1.4784 6.85912 1.47787ZM1.61099 7.95298C1.67901 8.25471 1.77309 8.54317 1.89272 8.81438C1.99255 9.04071 1.88999 9.30513 1.66365 9.40499C1.43731 9.5048 1.1729 9.40222 1.07307 9.1759C0.747147 8.43693 0.583008 7.6028 0.583008 6.72698C0.583008 3.33099 3.39272 0.582031 6.85384 0.582031C10.315 0.582031 13.1247 3.33099 13.1247 6.72698C13.1247 7.5806 12.9467 8.41054 12.6063 9.17694C12.506 9.403 12.2413 9.5049 12.0152 9.40452C11.7891 9.30408 11.6872 9.03945 11.7876 8.81334C12.0774 8.1608 12.2288 7.45466 12.2288 6.72698C12.2288 4.54018 10.8587 2.66371 8.90911 1.8752C8.78761 2.18843 8.64129 2.48806 8.47271 2.77195C10.1444 4.36136 11.1091 6.54998 11.1091 8.89089C11.1091 8.95751 11.1083 9.02404 11.1067 9.09051C11.1038 9.21415 11.0013 9.31208 10.8776 9.30915C10.7539 9.30628 10.6561 9.2037 10.6589 9.08006C10.6604 9.01709 10.6611 8.95401 10.6611 8.89089C10.6611 6.70299 9.77145 4.65604 8.22512 3.15518C7.84186 3.70179 7.37176 4.17935 6.83675 4.57002C8.11846 5.70802 8.86944 7.33917 8.86944 9.09244C8.86944 9.21613 8.76922 9.31641 8.64552 9.31641C8.52183 9.31641 8.42155 9.21613 8.42155 9.09244C8.42155 8.30995 8.26013 7.55389 7.95996 6.86259C6.20585 7.59204 4.31677 7.97268 2.37467 7.97268C2.11927 7.97268 1.86465 7.96609 1.61099 7.95298ZM1.52976 7.49986C1.81022 7.51642 2.09194 7.52473 2.37467 7.52473C4.24894 7.52473 6.07156 7.15925 7.76489 6.45859C7.43651 5.8431 6.99285 5.28976 6.45199 4.82901C5.52134 5.40498 4.42802 5.73305 3.27051 5.73305C2.7079 5.73305 2.15557 5.65618 1.62496 5.50641C1.52942 5.89813 1.47884 6.30683 1.47884 6.72698C1.47884 6.99061 1.4959 7.24892 1.52976 7.49986ZM0.70358 12.1968C0.534728 12.016 0.544406 11.7326 0.725194 11.5637C0.905982 11.3949 1.18942 11.4046 1.35827 11.5853C1.41187 11.6427 1.57537 11.8249 1.5825 11.8327C1.86159 12.1383 2.01748 12.2279 2.34702 12.2279C2.57165 12.2279 2.66735 12.1704 2.92546 11.9116C3.3371 11.4988 3.61459 11.332 4.13512 11.332C4.65659 11.332 4.93371 11.4992 5.34325 11.9117L5.34382 11.9123C5.60067 12.171 5.69504 12.2279 5.91802 12.2279C6.14158 12.2279 6.23763 12.1704 6.49771 11.9112L6.49839 11.9106C6.9119 11.4986 7.19027 11.332 7.71242 11.332C8.23499 11.332 8.513 11.4989 8.92494 11.9113C9.18398 12.1707 9.27919 12.2279 9.5028 12.2279C9.72656 12.2279 9.82188 12.1706 10.0809 11.9114C10.4931 11.4988 10.7708 11.332 11.2931 11.332C11.974 11.332 12.3798 11.586 12.8589 12.1322C12.8793 12.1555 12.9628 12.2516 12.9839 12.2757C12.9946 12.2877 12.9946 12.2877 13.0051 12.2996C13.1692 12.4846 13.1524 12.7677 12.9673 12.9319C12.7823 13.0961 12.4992 13.0792 12.335 12.8942C12.3229 12.8805 12.3229 12.8805 12.311 12.867C12.2877 12.8405 12.2039 12.7439 12.1854 12.7229C11.8597 12.3516 11.6621 12.2279 11.2931 12.2279C11.0691 12.2279 10.9738 12.2851 10.7147 12.5444C10.3026 12.957 10.0249 13.1237 9.5028 13.1237C8.98086 13.1237 8.70316 12.9569 8.29148 12.5448C8.03218 12.2851 7.93676 12.2279 7.71242 12.2279C7.48772 12.2279 7.3912 12.2856 7.1307 12.5452C6.71698 12.9574 6.43913 13.1237 5.91802 13.1237C5.39566 13.1237 5.11802 12.9563 4.70812 12.5434C4.45112 12.2846 4.35711 12.2279 4.13512 12.2279C3.91319 12.2279 3.81839 12.2848 3.56135 12.5426L3.5598 12.5441C3.1487 12.9564 2.86997 13.1237 2.34702 13.1237C1.72437 13.1237 1.3539 12.9108 0.920985 12.4367C0.908548 12.4231 0.749937 12.2464 0.70358 12.1968ZM0.70358 10.4051C0.534728 10.2243 0.544406 9.94089 0.725194 9.77204C0.905982 9.6032 1.18942 9.61287 1.35827 9.79368C1.41187 9.85106 1.57537 10.0332 1.5825 10.041C1.86159 10.3466 2.01748 10.4362 2.34702 10.4362C2.57165 10.4362 2.66735 10.3787 2.92546 10.1199C3.3371 9.70714 3.61459 9.54039 4.13512 9.54039C4.65659 9.54039 4.93371 9.70751 5.34325 10.12L5.34382 10.1206C5.60067 10.3793 5.69504 10.4362 5.91802 10.4362C6.14158 10.4362 6.23763 10.3787 6.49771 10.1196L6.49839 10.1189C6.9119 9.70693 7.19027 9.54039 7.71242 9.54039C8.23499 9.54039 8.513 9.70724 8.92494 10.1197C9.18398 10.3791 9.27919 10.4362 9.5028 10.4362C9.72656 10.4362 9.82188 10.379 10.0809 10.1198C10.4931 9.70714 10.7708 9.54039 11.2931 9.54039C11.974 9.54039 12.3798 9.79436 12.8589 10.3405C12.8793 10.3638 12.9628 10.46 12.9839 10.484C12.9946 10.4961 12.9946 10.4961 13.0051 10.5079C13.1692 10.693 13.1524 10.976 12.9673 11.1402C12.7823 11.3044 12.4992 11.2875 12.335 11.1025C12.3229 11.0889 12.3229 11.0889 12.311 11.0753C12.2877 11.0488 12.2039 10.9523 12.1854 10.9313C11.8597 10.5599 11.6621 10.4362 11.2931 10.4362C11.0691 10.4362 10.9738 10.4935 10.7147 10.7527C10.3026 11.1653 10.0249 11.332 9.5028 11.332C8.98086 11.332 8.70316 11.1653 8.29148 10.7531C8.03218 10.4935 7.93676 10.4362 7.71242 10.4362C7.48772 10.4362 7.3912 10.4939 7.1307 10.7535C6.71698 11.1657 6.43913 11.332 5.91802 11.332C5.39566 11.332 5.11802 11.1647 4.70812 10.7518C4.45112 10.4929 4.35711 10.4362 4.13512 10.4362C3.91319 10.4362 3.81839 10.4931 3.56135 10.7509L3.5598 10.7525C3.1487 11.1647 2.86997 11.332 2.34702 11.332C1.72437 11.332 1.3539 11.1192 0.920985 10.6451C0.908548 10.6315 0.749937 10.4548 0.70358 10.4051Z" fill="#7782AA"/>
</svg>
