<svg width="20" height="20" viewBox="0 0 20 20" fill="none" xmlns="http://www.w3.org/2000/svg">
<g clip-path="url(#clip0_6588_31170)">
<path d="M15.0032 7.33021C14.9803 7.2853 14.9664 7.23608 14.9623 7.18547C14.9581 7.13487 14.9639 7.08392 14.9792 7.03567C14.9945 6.98742 15.019 6.94286 15.0513 6.90464C15.0836 6.86642 15.123 6.83534 15.1672 6.81323L16.9629 5.8873C17.0518 5.84228 17.1543 5.83569 17.248 5.86897C17.2943 5.88545 17.3371 5.91122 17.3738 5.94482C17.4106 5.97842 17.4405 6.01918 17.4621 6.06477C17.4836 6.11037 17.4962 6.15991 17.4993 6.21057C17.5023 6.26123 17.4957 6.31201 17.4798 6.36002C17.4639 6.40802 17.439 6.45231 17.4065 6.49036C17.3741 6.5284 17.3347 6.55946 17.2907 6.58175L15.5024 7.50768C15.4481 7.5314 15.39 7.54448 15.3311 7.54626C15.2621 7.5468 15.1945 7.52669 15.1363 7.48836C15.0782 7.45003 15.032 7.39511 15.0032 7.33021ZM17.2907 13.3179L15.495 12.3842C15.407 12.3385 15.3051 12.3306 15.2116 12.3624C15.118 12.3942 15.0404 12.4631 14.9958 12.554C14.9532 12.6466 14.9464 12.7525 14.9769 12.8501C15.0074 12.9477 15.0728 13.0295 15.1597 13.0787L16.9554 14.0046C17.0092 14.019 17.0656 14.019 17.1193 14.0046C17.2018 14.0033 17.2815 13.9738 17.346 13.9206C17.4105 13.8673 17.4561 13.7935 17.4757 13.7105C17.4953 13.6276 17.4878 13.5402 17.4543 13.4622C17.4208 13.3842 17.3633 13.3198 17.2907 13.2793V13.3179ZM15.5397 9.56014C15.4409 9.56014 15.3461 9.60079 15.2763 9.67314C15.2064 9.7455 15.1672 9.84363 15.1672 9.94595C15.1672 10.0483 15.2064 10.1464 15.2763 10.2188C15.3461 10.2911 15.4409 10.3317 15.5397 10.3317H17.0299C17.1287 10.3317 17.2235 10.2911 17.2933 10.2188C17.3632 10.1464 17.4025 10.0483 17.4025 9.94595C17.4025 9.84363 17.3632 9.7455 17.2933 9.67314C17.2235 9.60079 17.1287 9.56014 17.0299 9.56014H15.5397ZM6.22588 7.24533H5.48078V11.875H6.22588V7.24533ZM4.73567 7.09872L2.99212 6.47372C2.93688 6.45219 2.87736 6.44515 2.81885 6.45323C2.76035 6.46131 2.70468 6.48425 2.65682 6.52002C2.60594 6.55906 2.56506 6.61042 2.53778 6.66961C2.51051 6.72879 2.49765 6.794 2.50035 6.85953V12.2608C2.50121 12.3224 2.51578 12.383 2.54291 12.4379C2.57005 12.4927 2.60903 12.5404 2.65682 12.5771C2.72016 12.6229 2.79567 12.6472 2.8729 12.6466C2.91232 12.6539 2.9527 12.6539 2.99212 12.6466L4.73567 12.0216V7.09872ZM12.9318 7.28391V4.54471C12.9308 4.47841 12.914 4.41341 12.8827 4.35551C12.8515 4.29761 12.807 4.24862 12.753 4.21292C12.698 4.18253 12.6366 4.16663 12.5742 4.16663C12.5118 4.16663 12.4504 4.18253 12.3954 4.21292L6.97099 7.00613V12.1142L12.3954 14.9614C12.4468 14.986 12.5026 14.9992 12.5593 15C12.627 14.9977 12.6933 14.9792 12.753 14.9459C12.8125 14.9069 12.8606 14.8518 12.8921 14.7865C12.9236 14.7212 12.9374 14.6483 12.9318 14.5756V11.875C13.3526 11.786 13.7307 11.5493 14.0023 11.2048C14.2738 10.8603 14.4221 10.4292 14.422 9.98453V9.21292C14.4308 8.76164 14.2865 8.32145 14.0142 7.96898C13.7419 7.61652 13.3589 7.37409 12.9318 7.28391Z" fill="#7782AA"/>
</g>
<defs>
<clipPath id="clip0_6588_31170">
<rect width="20" height="20" fill="white"/>
</clipPath>
</defs>
</svg>
