<svg width="32" height="32" viewBox="0 0 32 32" fill="none" xmlns="http://www.w3.org/2000/svg">
<g id="icon_public_85">
<path id="Vector" d="M16.8535 10.0441C17.1468 9.86289 17.373 9.59092 17.4978 9.26948C17.6226 8.94804 17.6391 8.59468 17.5449 8.26299C17.4507 7.9313 17.2509 7.63938 16.9758 7.43152C16.7007 7.22366 16.3653 7.11121 16.0205 7.11121C15.6757 7.11121 15.3403 7.22366 15.0651 7.43152C14.79 7.63938 14.5902 7.9313 14.496 8.26299C14.4018 8.59468 14.4183 8.94804 14.5431 9.26948C14.6679 9.59092 14.8941 9.86289 15.1875 10.0441L12.9119 14.6156C12.8281 14.7852 12.7073 14.9339 12.5584 15.0507C12.4095 15.1674 12.2363 15.2493 12.0516 15.2902C11.8669 15.3312 11.6753 15.3301 11.491 15.2872C11.3068 15.2443 11.1344 15.1606 10.9868 15.0422L7.43127 12.213C7.64645 11.9266 7.75858 11.5759 7.74948 11.2177C7.74039 10.8596 7.6106 10.515 7.38117 10.2399C7.15173 9.96477 6.83608 9.77518 6.48541 9.70189C6.13474 9.6286 5.76959 9.67589 5.44916 9.83611C5.12873 9.99632 4.8718 10.2601 4.72003 10.5846C4.56826 10.9091 4.53054 11.2754 4.61299 11.624C4.69544 11.9726 4.89322 12.2832 5.17427 12.5054C5.45533 12.7275 5.80317 12.8482 6.16142 12.8479L8.02047 22.7984C8.12641 23.3841 8.43465 23.9139 8.8914 24.2954C9.34814 24.677 9.92438 24.886 10.5195 24.886H21.5214C22.1166 24.886 22.6928 24.677 23.1495 24.2954C23.6063 23.9139 23.9145 23.3841 24.0205 22.7984L25.8338 12.8225H25.8643C26.1789 12.8225 26.4865 12.7292 26.7481 12.5543C27.0096 12.3793 27.2134 12.1307 27.3336 11.8399C27.4538 11.5491 27.4849 11.2292 27.4232 10.9207C27.3614 10.6121 27.2095 10.3289 26.9867 10.1067C26.7638 9.88458 26.4801 9.73357 26.1713 9.6728C25.8626 9.61203 25.5428 9.64424 25.2523 9.76535C24.9619 9.88646 24.714 10.091 24.5399 10.3531C24.3658 10.6153 24.2734 10.9231 24.2744 11.2378C24.2729 11.5811 24.3855 11.9152 24.5944 12.1876L21.0389 15.0168C20.8913 15.1352 20.719 15.2189 20.5347 15.2618C20.3504 15.3048 20.1588 15.3058 19.9741 15.2648C19.7894 15.2239 19.6162 15.142 19.4673 15.0253C19.3184 14.9085 19.1976 14.7598 19.1138 14.5902L16.8535 10.0441Z" fill="white"/>
</g>
</svg>
