<svg width="24" height="24" viewBox="0 0 24 24" fill="none" xmlns="http://www.w3.org/2000/svg">
<g id="icon_public_85">
<g id="Group 772544298">
<circle id="Ellipse 33" cx="12" cy="12" r="12" fill="#E72469"/>
<path id="&#226;&#130;&#177;" d="M18 8.66602V10.0625H7V8.66602H18ZM18 10.6338V12.0303H7V10.6338H18ZM12.5953 14.5947H9.76962V12.665H12.5953C13.1036 12.665 13.511 12.5571 13.8175 12.3413C14.124 12.1255 14.3464 11.8398 14.4847 11.4844C14.623 11.1289 14.6922 10.7438 14.6922 10.3291C14.6922 9.89746 14.623 9.50391 14.4847 9.14844C14.3464 8.78874 14.124 8.50098 13.8175 8.28516C13.511 8.0651 13.1018 7.95508 12.5897 7.95508H10.4032V19H8.33996V6H12.5897C13.498 6 14.2623 6.19255 14.8828 6.57764C15.507 6.9585 15.9779 7.47477 16.2956 8.12646C16.6171 8.77816 16.7778 9.50814 16.7778 10.3164C16.7778 11.1204 16.6171 11.8462 16.2956 12.4937C15.9779 13.1369 15.5088 13.6489 14.8884 14.0298C14.2679 14.4064 13.5036 14.5947 12.5953 14.5947Z" fill="white"/>
</g>
</g>
</svg>
