<svg width="16" height="16" viewBox="0 0 16 16" fill="none" xmlns="http://www.w3.org/2000/svg">
<circle cx="8" cy="12" r="4" fill="#F9BC01"/>
<path fill-rule="evenodd" clip-rule="evenodd" d="M7.9999 16C4.88879 16 2.3999 13.3334 2.3999 10C2.3999 7.33334 3.89323 4.53334 4.51546 3.46666L4.54752 3.41503C4.97967 2.71867 6.66681 0 7.9999 0C8.3732 0 8.62217 0.266663 8.62217 0.666663C8.62217 2.19183 9.06883 3.66914 9.84869 4.89581C10.0928 4.51493 10.2825 4.1052 10.3643 3.66662C10.3983 3.48511 10.5244 3.34313 10.6824 3.26222C10.9921 3.06768 11.3612 3.13583 11.5466 3.46666C12.4176 4.93334 13.0399 6.53334 13.4132 7.93334C13.5376 8.66663 13.5999 9.4 13.5999 10C13.5999 13.3334 11.111 16 7.9999 16ZM7.9999 14.6666C9.05763 14.6666 9.86661 13.8 9.86661 12.6666C9.86661 12.5085 9.82763 12.3085 9.78048 12.0666C9.76805 12.0029 9.75517 11.9362 9.74217 11.8666C9.68371 11.5851 9.58425 11.289 9.45657 10.985C9.4092 11.0368 9.35936 11.0861 9.30705 11.1328C9.24478 11.2661 9.05763 11.3334 8.9332 11.3334C8.74661 11.3334 8.5599 11.2666 8.43547 11.1334C8.00696 10.549 7.70038 9.91234 7.53103 9.23989C6.93153 10.0419 6.13323 11.4968 6.13323 12.6666C6.13323 13.8 6.94213 14.6666 7.9999 14.6666Z" fill="#F72C00"/>
</svg>
