<svg width="24" height="24" viewBox="0 0 24 24" fill="none" xmlns="http://www.w3.org/2000/svg">
<path fill-rule="evenodd" clip-rule="evenodd" d="M0.75 3.25C0.75 2.00736 1.75736 1 3 1H3.75H4.5H5.25H16.5C17.7426 1 18.75 2.00736 18.75 3.25V12.25V13H18C15.1005 13 12.75 15.3505 12.75 18.25C12.75 18.7043 12.8075 19.1442 12.9154 19.5631L13.1565 20.5H12.189H4.5H3.75V19.75V8.5H1.5H0.75V7.75V3.25ZM3 2.5H3.75V7H2.25V3.25C2.25 2.83579 2.58579 2.5 3 2.5ZM5.25 7.75V2.5H16.5C16.9142 2.5 17.25 2.83579 17.25 3.25V11.5412C13.875 11.9143 11.25 14.7756 11.25 18.25C11.25 18.5033 11.264 18.7536 11.2913 19H5.25V8.5V7.75ZM18 13.75C15.5147 13.75 13.5 15.7647 13.5 18.25C13.5 20.7353 15.5147 22.75 18 22.75C20.4853 22.75 22.5 20.7353 22.5 18.25C22.5 15.7647 20.4853 13.75 18 13.75ZM17.7979 21.606L17.809 21.0148C17.4725 20.9969 17.1745 20.932 16.9148 20.8204C16.6071 20.6873 16.3696 20.4827 16.2024 20.2065C16.0368 19.9286 15.9573 19.5732 15.9638 19.1404H17.2048C17.2097 19.2987 17.244 19.4317 17.3078 19.5395C17.3716 19.6473 17.4625 19.729 17.5806 19.7846C17.6549 19.8191 17.7383 19.843 17.8307 19.856L17.8485 18.9064L17.4647 18.817C17.0404 18.7176 16.7074 18.5517 16.4657 18.3193C16.2256 18.0852 16.1102 17.766 16.1193 17.3618C16.1239 17.0334 16.2108 16.7463 16.3799 16.5004C16.5506 16.2528 16.7838 16.0599 17.0794 15.9218C17.3267 15.8069 17.6029 15.7398 17.9081 15.7205L17.919 15.1387H18.3045L18.2936 15.721C18.5993 15.741 18.8684 15.8088 19.1006 15.9244C19.3816 16.0641 19.5965 16.2612 19.7453 16.5155C19.8957 16.7681 19.9685 17.0637 19.9638 17.4023H18.7134C18.704 17.2338 18.6477 17.1025 18.5445 17.0081C18.4775 16.946 18.3866 16.9043 18.2718 16.8831L18.2549 17.7863L18.517 17.8469C18.7823 17.9075 19.0087 17.9875 19.1965 18.0869C19.3842 18.1863 19.5371 18.3033 19.6553 18.438C19.7734 18.5711 19.8592 18.721 19.9124 18.8877C19.9673 19.0545 19.9937 19.2364 19.9916 19.4334C19.9836 19.7736 19.8991 20.0616 19.738 20.2974C19.5769 20.5332 19.3495 20.7126 19.0557 20.8355C18.8095 20.9391 18.5224 20.9991 18.1945 21.0154L18.1834 21.606H17.7979ZM18.3604 19.8124C18.317 19.8293 18.269 19.8424 18.2162 19.8516L18.232 19.0109C18.2815 19.0283 18.3258 19.0462 18.3649 19.0646C18.4691 19.1117 18.5433 19.1656 18.5876 19.2263C18.6335 19.2852 18.6565 19.3543 18.6565 19.4334C18.6534 19.5176 18.6269 19.5926 18.5771 19.6583C18.5273 19.7239 18.4551 19.7753 18.3604 19.8124ZM17.8864 16.8806L17.8713 17.6856C17.8569 17.6805 17.8429 17.6753 17.8293 17.67C17.7469 17.638 17.6794 17.6027 17.6268 17.5639C17.5743 17.5235 17.536 17.4789 17.5118 17.43C17.4893 17.3795 17.4801 17.3231 17.4844 17.2608C17.4874 17.185 17.5098 17.1176 17.5517 17.0587C17.5935 16.9997 17.6571 16.9534 17.7423 16.9197C17.7846 16.9025 17.8327 16.8894 17.8864 16.8806ZM15 4.75H7.5V6.25H15V4.75ZM7.5 7.75H15V9.25H7.5V7.75ZM12 10.75H7.5V12.25H12V10.75Z" fill="#7782AA"/>
</svg>
