<svg width="14" height="14" viewBox="0 0 14 14" fill="none" xmlns="http://www.w3.org/2000/svg">
<path fill-rule="evenodd" clip-rule="evenodd" d="M3.90531 2.85285C3.38302 3.7322 3.0726 4.72226 3.00385 5.75799C3.07171 5.76049 3.13977 5.76172 3.20801 5.76172C3.75637 5.76172 4.28884 5.68031 4.79262 5.52785C4.96805 4.2564 5.55533 2.99994 6.40952 2.05131C5.49204 2.10274 4.63745 2.38975 3.90531 2.85285ZM3.09982 3.47937C2.49627 4.0506 2.02824 4.76355 1.74901 5.565C2.0164 5.63886 2.28984 5.69225 2.5676 5.72466C2.61991 4.94383 2.80108 4.18713 3.09982 3.47937ZM7.01793 2.05196C6.12486 2.90575 5.48469 4.11845 5.26174 5.36216C6.63752 4.80438 7.7487 3.7003 8.30127 2.28908C7.89289 2.15917 7.46286 2.07787 7.01793 2.05196ZM1.54878 8.27016C1.65638 8.84173 1.85661 9.38062 2.1333 9.87062C4.28828 10.2925 6.22112 10.0658 8.15703 8.53165C8.06837 8.02526 7.90948 7.53863 7.68775 7.08395C5.61419 8.21687 4.17609 8.54507 1.54878 8.27016ZM1.48446 7.82329C4.09064 8.10969 5.45325 7.80686 7.48032 6.69874C7.17392 6.18077 6.78151 5.71303 6.31555 5.31612C5.40655 5.87876 4.3386 6.1992 3.20801 6.1992C2.66617 6.1992 2.13411 6.12616 1.62251 5.98395C1.51512 6.40239 1.45801 6.84099 1.45801 7.29297C1.45801 7.47197 1.46697 7.64888 1.48446 7.82329ZM2.45564 10.3726C2.87548 10.9513 3.41055 11.4409 4.0272 11.8079C4.33227 11.8602 4.64332 11.8867 4.95799 11.8867C6.0757 11.8867 7.14253 11.5509 8.04423 10.9333C8.17255 10.4661 8.23926 9.97842 8.23926 9.48046C8.23926 9.33065 8.23318 9.18187 8.22124 9.03436C6.35705 10.4281 4.48923 10.6988 2.45564 10.3726ZM5.18875 12.3198C5.66967 12.4649 6.17973 12.543 6.70801 12.543C6.91718 12.543 7.12349 12.5307 7.32628 12.5069C7.52018 12.2157 7.6852 11.9075 7.81934 11.5861C7.01941 12.03 6.12282 12.2838 5.18875 12.3198ZM8.04739 3.68128C7.67305 4.21517 7.21388 4.68163 6.69132 5.06316C7.94179 6.17317 8.67674 7.76653 8.67674 9.48046C8.67674 10.5241 8.40514 11.5266 7.90223 12.4065C8.76187 12.2065 9.54046 11.7954 10.1804 11.2307C10.3433 10.6 10.4268 9.94739 10.4268 9.28359C10.4268 7.14658 9.55777 5.14723 8.04739 3.68128ZM8.28923 3.30696C9.92205 4.8594 10.8643 6.99713 10.8643 9.28359C10.8643 9.74195 10.8266 10.1954 10.7523 10.6407C11.5054 9.732 11.958 8.56534 11.958 7.29297C11.958 5.10328 10.6175 3.22672 8.71231 2.43915C8.5943 2.74216 8.45246 3.03211 8.28923 3.30696ZM6.70801 13.418C3.32526 13.418 0.583008 10.6757 0.583008 7.29297C0.583008 3.91022 3.32526 1.16797 6.70801 1.16797C10.0907 1.16797 12.833 3.91022 12.833 7.29297C12.833 10.6757 10.0907 13.418 6.70801 13.418Z" fill="#7782AA"/>
</svg>
