<svg width="14" height="14" viewBox="0 0 14 14" fill="none" xmlns="http://www.w3.org/2000/svg">
<path d="M11.6152 6.6377L11.9946 5.86887C12.0883 5.67911 12.137 5.47059 12.137 5.25929C12.137 5.09683 12.0774 4.93991 11.9693 4.81784L10.8864 3.59493L11.1053 4.35436C11.2106 4.71985 10.8628 5.05421 10.4982 4.93802L8.04906 4.15771C7.6744 4.0383 7.26681 4.07665 6.92133 4.26369L5.74106 4.90268C5.64138 4.95667 5.52567 4.97376 5.41448 4.9509L3.00555 4.45584C2.96098 4.44669 2.91559 4.44208 2.87008 4.44208C2.62896 4.44208 2.41767 4.56882 2.30018 4.75886L4.77512 5.37609C6.61611 5.83525 7.93815 7.43516 8.03151 9.31688L8.06153 9.92119L8.06169 9.92479C8.07472 10.1871 7.87101 10.4103 7.6067 10.4232C7.59759 10.4237 7.58853 10.4238 7.57953 10.4238H4.60467C4.16756 11.0014 3.47165 11.375 2.68782 11.375C1.36464 11.375 0.291992 10.3103 0.291992 8.997C0.291992 7.68363 1.36464 6.619 2.68782 6.619C4.01098 6.619 5.08364 7.68363 5.08364 8.997C5.08364 9.15985 5.06715 9.31893 5.03573 9.47258H7.07976L7.07434 9.36371C7.00172 7.90008 5.97345 6.65573 4.54161 6.29862L1.60598 5.56652C1.39294 5.51337 1.24358 5.32327 1.24358 5.10526C1.24358 4.21364 1.97179 3.49087 2.87008 3.49087C2.98087 3.49087 3.09136 3.5021 3.19985 3.5244L5.43656 3.98409L6.46243 3.42863C7.03817 3.11689 7.7175 3.05306 8.34199 3.25203L9.94031 3.76126C9.83985 3.2813 10.1283 2.79849 10.6109 2.66148C10.9646 2.56104 11.3449 2.67188 11.5878 2.94617L12.6891 4.1899C12.9509 4.48553 13.0953 4.86567 13.0953 5.25929C13.0953 5.61569 13.0132 5.96731 12.8552 6.28735L12.5292 6.94787C13.2352 7.36158 13.7087 8.12436 13.7087 8.997C13.7087 10.3103 12.636 11.375 11.3128 11.375C9.98967 11.375 8.91701 10.3103 8.91701 8.997C8.91701 7.68363 9.98967 6.619 11.3128 6.619C11.4152 6.619 11.5162 6.62532 11.6152 6.6377ZM2.68782 10.4238C3.48174 10.4238 4.1253 9.78497 4.1253 8.997C4.1253 8.20898 3.48174 7.57015 2.68782 7.57015C1.89391 7.57015 1.25033 8.20898 1.25033 8.997C1.25033 9.78497 1.89391 10.4238 2.68782 10.4238ZM11.3128 10.4238C12.1067 10.4238 12.7503 9.78497 12.7503 8.997C12.7503 8.20898 12.1067 7.57015 11.3128 7.57015C10.5189 7.57015 9.87535 8.20898 9.87535 8.997C9.87535 9.78497 10.5189 10.4238 11.3128 10.4238Z" fill="#7782AA"/>
</svg>
