<svg width="32" height="32" viewBox="0 0 32 32" fill="none" xmlns="http://www.w3.org/2000/svg">
<path d="M4.68365 6.69434C3.57739 6.69434 2.68652 7.58491 2.68652 8.69146V23.3362C2.68652 24.4425 3.5771 25.3333 4.68365 25.3333H27.3164C28.4227 25.3333 29.3136 24.4428 29.3136 23.3362V8.69146C29.3136 7.5852 28.423 6.69434 27.3164 6.69434H4.68365ZM6.26474 9.67957L6.26451 9.67934C6.46905 9.65658 6.67243 9.72948 6.8159 9.87691L15.0536 17.9589C15.569 18.4645 16.409 18.4647 16.9258 17.9589L25.1842 9.87691H25.184C25.3087 9.74876 25.4798 9.67608 25.6586 9.67539C25.8373 9.67469 26.0089 9.74574 26.1347 9.87296C26.2606 10.0002 26.3298 10.1725 26.327 10.3512C26.3244 10.53 26.2499 10.7002 26.1201 10.8235L20.722 16.1176L26.1096 21.183H26.1099C26.375 21.4361 26.3857 21.856 26.1338 22.1224C25.8817 22.3887 25.4619 22.4012 25.1944 22.1502L19.7754 17.0432L17.8617 18.9154C16.8299 19.9253 15.1486 19.9274 14.1173 18.9154L12.2241 17.0537L6.8051 22.1502H6.80534C6.53788 22.4012 6.11815 22.3887 5.86597 22.1224C5.61407 21.8561 5.62475 21.4361 5.88988 21.183L11.2674 16.1176L5.87972 10.8235C5.69189 10.6452 5.6248 10.3742 5.70722 10.1288C5.78987 9.88338 6.00718 9.7081 6.26442 9.67931L6.26474 9.67957Z" fill="#7782AA"/>
</svg>
