<svg width="24" height="24" viewBox="0 0 24 24" fill="none" xmlns="http://www.w3.org/2000/svg">
<g clip-path="url(#clip0_1455_59799)">
<path d="M12 4C7.59 4 4 7.59 4 12C4 16.41 7.59 20 12 20C16.41 20 20 16.41 20 12C20 7.59 16.41 4 12 4Z" fill="#7782AA"/>
<path d="M11.1662 5.99329C11.4311 5.73227 11.7512 5.60156 12.1272 5.60156C12.4963 5.60156 12.8116 5.7307 13.0736 5.98818C13.3351 6.24606 13.4661 6.5625 13.4661 6.93752C13.4661 7.31254 13.3351 7.63215 13.0736 7.89652C12.8116 8.16108 12.4961 8.29336 12.1272 8.29336C11.7514 8.29336 11.4311 8.1595 11.1662 7.8916C10.9011 7.6239 10.7686 7.30586 10.7686 6.93754C10.7686 6.569 10.9011 6.25474 11.1662 5.99329Z" fill="#262237"/>
<path d="M9.59961 18.4016H14.3996L14.3996 18.0942C13.8349 17.9824 13.2703 17.4933 13.2703 16.6269V9.60156H12.9297L9.59962 9.83833V10.2305C10.1643 10.35 10.5523 10.5142 10.7333 10.7236C10.9145 10.9327 11.0114 11.3023 11.0114 11.8324V16.4476C11.0114 17.0005 10.8692 17.3852 10.698 17.6014C10.5269 17.8182 10.1643 17.9826 9.59961 18.0942V18.4016Z" fill="#262237"/>
<path d="M12 2C6.48 2 2 6.48 2 12C2 17.52 6.48 22 12 22C17.52 22 22 17.52 22 12C22 6.48 17.52 2 12 2ZM12 20C7.59 20 4 16.41 4 12C4 7.59 7.59 4 12 4C16.41 4 20 7.59 20 12C20 16.41 16.41 20 12 20Z" fill="#7782AA"/>
</g>
<defs>
<clipPath id="clip0_1455_59799">
<rect width="24" height="24" fill="white"/>
</clipPath>
</defs>
</svg>
