<svg width="20" height="20" viewBox="0 0 20 20" fill="none" xmlns="http://www.w3.org/2000/svg">
<path d="M17.0568 4.80028C17.0568 4.48031 16.8008 4.20831 16.4649 4.17628C15.4249 4.04827 14.4489 3.82428 13.5369 3.50428C12.4968 3.12025 11.4409 2.65617 10.3689 2.09625C10.1449 1.96824 9.92086 1.96824 9.69686 2.09625C8.6568 2.6562 7.60077 3.12025 6.54486 3.47225C5.5848 3.79223 4.59286 4.03231 3.61686 4.14425C3.29688 4.17629 3.04086 4.4322 3.00883 4.76825C2.91284 8.62426 3.84086 11.8243 5.74488 14.3043C6.78483 15.6482 8.11286 16.7523 9.68089 17.5843C9.77687 17.6643 9.92084 17.6802 10.0329 17.6802C10.1449 17.6802 10.2569 17.6482 10.4009 17.6002C11.9369 16.7682 13.2649 15.6642 14.3209 14.3202C16.2248 11.8562 17.1528 8.65628 17.0568 4.80028Z" fill="#F9BC01"/>
<path d="M13.5368 7.16106C13.2977 6.93102 12.9198 6.93036 12.6799 7.15955L9.48126 10.2156C9.1757 10.5075 8.69472 10.508 8.3886 10.2167L7.7216 9.58186C7.48284 9.35462 7.1077 9.35499 6.86938 9.58268C6.61483 9.82589 6.61483 10.2324 6.86938 10.4756L8.38855 11.927C8.69453 12.2194 9.17633 12.2194 9.48232 11.927L13.5352 8.05479C13.7898 7.81154 13.7906 7.40521 13.5368 7.16106Z" fill="#1D2027"/>
</svg>
