<svg width="24" height="24" viewBox="0 0 24 24" fill="none" xmlns="http://www.w3.org/2000/svg">
<path fill-rule="evenodd" clip-rule="evenodd" d="M2.76078 7.72961H6.68099L11.4196 4.15684C11.6486 3.98442 11.9607 3.95129 12.224 4.07173C12.4873 4.19201 12.6548 4.44429 12.6548 4.72121V19.262C12.6548 19.5367 12.4904 19.7874 12.2301 19.9086C11.9699 20.0297 11.6593 20.0008 11.4295 19.8336L6.68824 16.3789H2.76107C2.34095 16.3789 2 16.056 2 15.6581V8.45055C2 8.05269 2.34095 7.72976 2.76107 7.72976L2.76078 7.72961Z" fill="#7782AA"/>
<path d="M16.1309 14.8691L15.9563 15.0437C15.6812 14.7686 15.6812 14.3236 15.9563 14.0485L16.1307 14.2229L15.9563 14.0485L18.0048 12L15.9563 9.95152C15.6812 9.67642 15.6812 9.23143 15.9563 8.95633C16.2314 8.68122 16.6764 8.68122 16.9515 8.95633L19.0002 11.005L21.0485 8.96088L21.0487 8.9607L21.2253 9.13766L16.1309 14.8691ZM16.1309 14.8691L15.9563 15.0437C16.2314 15.3188 16.6764 15.3188 16.9515 15.0437L19 12.9952M16.1309 14.8691L19 12.9952M19 12.9952L21.0485 15.0437C21.3236 15.3188 21.7686 15.3188 22.0437 15.0437C22.3188 14.7686 22.3188 14.3236 22.0437 14.0485L19.9952 12L19 12.9952Z" fill="#7782AA" stroke="#7782AA" stroke-width="0.5"/>
</svg>
