<svg width="20" height="20" viewBox="0 0 20 20" fill="none" xmlns="http://www.w3.org/2000/svg">
<g clip-path="url(#clip0_18807_64256)">
<circle cx="10" cy="10" r="7" fill="white"/>
<path d="M10 0C4.47768 0 0 4.47768 0 10C0 15.5223 4.47768 20 10 20C15.5223 20 20 15.5223 20 10C20 4.47768 15.5223 0 10 0ZM11.4174 8.38839C11.5156 8.38839 11.596 8.46875 11.596 8.56696V9.17411C11.596 9.27232 11.5156 9.35268 11.4174 9.35268H8.3817C8.375 9.45089 8.375 9.5558 8.375 9.66071V10.4643H11.4152C11.5134 10.4643 11.5938 10.5446 11.5938 10.6429V11.25C11.5938 11.3482 11.5134 11.4286 11.4152 11.4286H8.50223C8.84375 12.8125 9.87054 13.6295 11.3996 13.6295C11.8438 13.6295 12.2277 13.6027 12.5558 13.5379C12.6652 13.5156 12.7679 13.6004 12.7679 13.7121V14.6674C12.7679 14.7522 12.7076 14.8237 12.625 14.8415C12.2701 14.9174 11.8594 14.9554 11.3906 14.9554C8.93973 14.9554 7.3058 13.6429 6.92188 11.4286H6.25C6.15179 11.4286 6.07143 11.3482 6.07143 11.25V10.6429C6.07143 10.5446 6.15179 10.4643 6.25 10.4643H6.83259V9.64063C6.83259 9.54241 6.83259 9.4442 6.83929 9.35491H6.25C6.15179 9.35491 6.07143 9.27455 6.07143 9.17634V8.5692C6.07143 8.47098 6.15179 8.39063 6.25 8.39063H6.95759C7.39732 6.28795 9.01116 5.04464 11.3906 5.04464C11.8571 5.04464 12.2701 5.08705 12.625 5.16518C12.7076 5.18304 12.7656 5.25446 12.7656 5.33929V6.29464H12.7679C12.7679 6.40848 12.6652 6.49107 12.5536 6.46875C12.2254 6.40402 11.8438 6.37054 11.3996 6.37054C9.93973 6.37054 8.93527 7.1183 8.55134 8.38839H11.4174Z" fill="#1296DB"/>
</g>
<defs>
<clipPath id="clip0_18807_64256">
<rect width="20" height="20" fill="white"/>
</clipPath>
</defs>
</svg>
