<svg width="18" height="18" viewBox="0 0 18 18" fill="none" xmlns="http://www.w3.org/2000/svg">
<g id="icon_public_77">
<g id="Group 772544409">
<path id="Vector" d="M8.99973 2C5.13832 2 2 5.13832 2 8.99973C2 12.8612 5.13832 15.9995 8.99973 15.9995C12.8612 15.9995 15.9995 12.8612 15.9995 8.99973C15.9995 5.13832 12.8612 2 8.99973 2Z" fill="#F14827"/>
<g id="Vector_2">
<path d="M7.97895 12.2309C7.97895 12.7909 8.43974 13.2517 8.99978 13.2517C9.55982 13.2517 10.0206 12.7908 10.0206 12.2309C10.0206 11.665 9.55982 11.2101 8.99978 11.2101C8.43974 11.2101 7.97895 11.6651 7.97895 12.2309Z" fill="white"/>
<path d="M8.99978 10.335C9.43142 10.335 9.79309 9.99673 9.82812 9.56499L10.1606 5.35922C10.2014 4.87511 9.81638 4.46094 9.33227 4.46094H8.66726C8.18303 4.46094 7.79803 4.87511 7.83892 5.35922L8.17144 9.56499C8.20647 9.99663 8.56814 10.335 8.99978 10.335Z" fill="white"/>
</g>
</g>
</g>
</svg>
