<svg width="24" height="24" viewBox="0 0 24 24" fill="none" xmlns="http://www.w3.org/2000/svg">
<path fill-rule="evenodd" clip-rule="evenodd" d="M12 23C18.0751 23 23 18.0751 23 12C23 5.92487 18.0751 1 12 1C5.92487 1 1 5.92487 1 12C1 18.0751 5.92487 23 12 23ZM10.985 18.1368L12 19L13.015 18.1433L13.0426 18.1199C16.6322 15.0725 19 13.0623 19 10.5967C19 8.58256 17.306 7 15.15 7C13.932 7 12.763 7.5297 12 8.36676C11.237 7.5297 10.068 7 8.85 7C6.694 7 5 8.58256 5 10.5967C5 13.0666 7.3761 15.0795 10.9761 18.1293L10.985 18.1368Z" fill="#7782AA"/>
</svg>
