<svg width="32" height="32" viewBox="0 0 32 32" fill="none" xmlns="http://www.w3.org/2000/svg">
<g clip-path="url(#clip0_1455_59773)">
<path d="M24.5787 7.43749C23.9611 6.81986 22.9628 6.81986 22.3451 7.43749L16.0021 13.7676L9.65869 7.42416C9.04106 6.80653 8.04277 6.80653 7.42514 7.42416C6.80751 8.04179 6.80751 9.04008 7.42514 9.65771L13.7684 16.0009L7.42514 22.3442C6.80751 22.9618 6.80751 23.9601 7.42514 24.5777C8.04277 25.1953 9.04106 25.1953 9.65869 24.5777L16.0019 18.2345L22.3451 24.5777C22.9628 25.1953 23.9611 25.1953 24.5787 24.5777C25.1963 23.9601 25.1963 22.9618 24.5787 22.3442L18.2355 16.0009L24.5787 9.65771C25.183 9.05342 25.183 8.04179 24.5787 7.43749Z" fill="#7782AA" stroke="#7782AA" stroke-width="0.5"/>
</g>
<defs>
<clipPath id="clip0_1455_59773">
<rect width="32" height="32" fill="white"/>
</clipPath>
</defs>
</svg>
