<svg width="14" height="16" viewBox="0 0 14 16" fill="none" xmlns="http://www.w3.org/2000/svg">
<g id="icon_public_82" clip-path="url(#clip0_427_39512)">
<path id="Vector" d="M4.97044 6.87067C4.96671 6.78862 4.97945 6.70666 5.00789 6.62974C5.03633 6.55282 5.07987 6.48254 5.13589 6.42315C5.19191 6.36375 5.25924 6.31648 5.33381 6.28418C5.40838 6.25188 5.48864 6.23522 5.56975 6.23522C5.65086 6.23522 5.73112 6.25188 5.80569 6.28418C5.88026 6.31648 5.94759 6.36375 6.00361 6.42315C6.05962 6.48254 6.10317 6.55282 6.13161 6.62974C6.16004 6.70666 6.17279 6.78862 6.16906 6.87067V11.367C6.17279 11.4491 6.16004 11.531 6.13161 11.6079C6.10317 11.6848 6.05962 11.7551 6.00361 11.8145C5.94759 11.8739 5.88026 11.9212 5.80569 11.9535C5.73112 11.9858 5.65086 12.0024 5.56975 12.0024C5.48864 12.0024 5.40838 11.9858 5.33381 11.9535C5.25924 11.9212 5.19191 11.8739 5.13589 11.8145C5.07987 11.7551 5.03633 11.6848 5.00789 11.6079C4.97945 11.531 4.96671 11.4491 4.97044 11.367V6.87067ZM13.0203 4.32513L12.4039 12.5565C12.3583 13.2364 12.0741 13.8773 11.6027 14.3637C11.3733 14.5993 11.0997 14.7862 10.7981 14.9134C10.4964 15.0406 10.1727 15.1056 9.84595 15.1046H4.15026C3.82391 15.1053 3.50068 15.0402 3.19947 14.913C2.89825 14.7858 2.62511 14.5991 2.39599 14.3637C1.92435 13.8774 1.63976 13.2365 1.59353 12.5565L0.979658 4.32513H0V2.5589C0 2.13336 0.20631 1.97186 0.612603 1.97186H4.75653V1.21338H6.00361H7.99639H9.23967V1.97186L13.4608 1.97058C13.5031 1.96968 13.5455 1.97225 13.5874 1.97827C13.6961 1.99588 13.7957 2.05014 13.8701 2.13226C13.9446 2.21438 13.9894 2.31955 13.9975 2.43073C13.9975 2.45636 13.9975 2.47943 13.9975 2.50378V4.32513H13.0203ZM11.8179 4.34692H2.18208L2.78456 12.4667C2.80868 12.8562 2.96885 13.2242 3.23642 13.5049C3.35498 13.6274 3.49662 13.7246 3.65294 13.7906C3.80926 13.8567 3.97708 13.8903 4.14646 13.8895H9.84215C10.0115 13.8899 10.1792 13.8561 10.3354 13.79C10.4917 13.724 10.6334 13.6271 10.7522 13.5049C11.0209 13.2247 11.182 12.8566 11.2066 12.4667L11.8179 4.35333V4.34692ZM7.83094 6.87067C7.82721 6.78862 7.83996 6.70666 7.86839 6.62974C7.89683 6.55282 7.94038 6.48254 7.99639 6.42315C8.05241 6.36375 8.11974 6.31648 8.19431 6.28418C8.26888 6.25188 8.34915 6.23522 8.43025 6.23522C8.51136 6.23522 8.59162 6.25188 8.66619 6.28418C8.74076 6.31648 8.80809 6.36375 8.86411 6.42315C8.92013 6.48254 8.96367 6.55282 8.99211 6.62974C9.02055 6.70666 9.03329 6.78862 9.02956 6.87067V11.367C9.03329 11.4491 9.02055 11.531 8.99211 11.6079C8.96367 11.6848 8.92013 11.7551 8.86411 11.8145C8.80809 11.8739 8.74076 11.9212 8.66619 11.9535C8.59162 11.9858 8.51136 12.0024 8.43025 12.0024C8.34915 12.0024 8.26888 11.9858 8.19431 11.9535C8.11974 11.9212 8.05241 11.8739 7.99639 11.8145C7.94038 11.7551 7.89683 11.6848 7.86839 11.6079C7.83996 11.531 7.82721 11.4491 7.83094 11.367V6.87067Z" fill="#7782AA"/>
</g>
<defs>
<clipPath id="clip0_427_39512">
<rect width="14" height="15.75" fill="white"/>
</clipPath>
</defs>
</svg>
