<svg width="12" height="12" viewBox="0 0 12 12" fill="none" xmlns="http://www.w3.org/2000/svg">
<path fill-rule="evenodd" clip-rule="evenodd" d="M0.616688 1.76671C0.266601 1.80148 0 2.09411 0 2.4436V9.5564C0 9.90589 0.266601 10.1985 0.616688 10.2333C4.19664 10.5889 7.80336 10.5889 11.3833 10.2333C11.7334 10.1985 12 9.90589 12 9.5564V2.4436C12 2.09411 11.7334 1.80148 11.3833 1.76671C7.80336 1.4111 4.19664 1.4111 0.616688 1.76671ZM8.1 6.51615C8.5 6.28675 8.5 5.71325 8.1 5.48384L5.4 3.93538C5 3.70598 4.5 3.99273 4.5 4.45153V7.54847C4.5 8.00727 5 8.29402 5.4 8.06462L8.1 6.51615Z" fill="#1682F1"/>
</svg>
