<svg width="14" height="14" viewBox="0 0 14 14" fill="none" xmlns="http://www.w3.org/2000/svg">
<path d="M10.3545 7.20912V8.07215H12.7562L12.842 8.08051C13.1701 8.1452 13.4086 8.41937 13.4086 8.75274C13.4142 10.6868 13.417 11.7541 13.417 11.9558C13.417 12.517 12.9422 12.97 12.4062 12.7974C12.1168 12.7043 11.4977 12.4957 11.0005 12.3186C10.6439 12.1916 10.3476 12.0803 10.128 11.9896C9.99725 11.9356 9.89338 11.8887 9.81483 11.8473C9.76205 11.8195 9.7179 11.7929 9.67834 11.763C9.55646 11.6711 9.47949 11.5781 9.47949 11.3872V10.2297H9.4433C9.23352 11.5761 8.13719 12.3872 6.41699 12.3872C5.16478 12.3872 4.14857 11.7412 3.39749 10.4997H2.69906C2.56176 10.4997 2.43243 10.4362 2.34976 10.3281C1.60402 9.35273 1.16699 8.02871 1.16699 6.77763C1.16699 3.64904 3.68158 1.16797 6.85451 1.16797C10.0913 1.16797 12.6399 3.45566 12.6399 6.52854C12.6399 6.90394 12.3302 7.20912 11.9496 7.20912H10.3545ZM2.04199 6.77763C2.04199 7.7714 2.36935 8.83052 2.92387 9.63671H3.65199C3.81261 9.63671 3.96031 9.72355 4.03676 9.86285C4.65549 10.9905 5.43734 11.5242 6.41699 11.5242C7.85437 11.5242 8.58299 10.8947 8.60458 9.7899C8.60917 9.55485 8.80364 9.36667 9.04201 9.36667H9.91702C10.1586 9.36667 10.3545 9.55989 10.3545 9.79821V11.1461C10.3877 11.1607 10.425 11.1766 10.4661 11.1936C10.6695 11.2776 10.9538 11.3844 11.2978 11.5069C11.575 11.6056 11.8778 11.7101 12.1829 11.8128C12.3147 11.8572 12.4437 11.9002 12.542 11.9326C12.5418 11.6909 12.5392 10.691 12.5341 8.93518H9.91702C9.67538 8.93518 9.47949 8.74196 9.47949 8.50364V6.77763C9.47949 6.53931 9.67538 6.34609 9.91702 6.34609H11.7613C11.663 3.86128 9.55967 2.03099 6.85451 2.03099C4.16489 2.03099 2.04199 4.1256 2.04199 6.77763ZM6.41699 7.85638C7.0253 7.85638 7.51076 8.33519 7.51076 8.93518C7.51076 9.53517 7.0253 10.0139 6.41699 10.0139C5.80867 10.0139 5.32326 9.53517 5.32326 8.93518C5.32326 8.33519 5.80867 7.85638 6.41699 7.85638ZM6.41699 8.28792C6.0503 8.28792 5.76074 8.57352 5.76074 8.93518C5.76074 9.29684 6.0503 9.58244 6.41699 9.58244C6.78367 9.58244 7.07323 9.29684 7.07323 8.93518C7.07323 8.57352 6.78367 8.28792 6.41699 8.28792Z" fill="#7782AA"/>
</svg>
