<svg width="24" height="24" viewBox="0 0 24 24" fill="none" xmlns="http://www.w3.org/2000/svg">
<g id="icon_public_34">
<path id="Subtract" fill-rule="evenodd" clip-rule="evenodd" d="M12.5 23.0112C15.033 22.8977 17.3431 21.9268 19.1475 20.3813L16.3055 17.5365C15.241 18.3688 13.9298 18.8997 12.5 19.0007V23.0112ZM7.71103 17.5494C8.77256 18.3743 10.0776 18.9002 11.5 19.0007V23.0112C8.97443 22.8981 6.67046 21.9325 4.86837 20.3949L7.71103 17.5494ZM5.07089 13.0122C5.28417 14.5048 5.96738 15.8457 6.96568 16.8798L4.13698 19.7114C2.41478 17.9494 1.27879 15.611 1.04484 13.0122H5.07089ZM6.48031 7.70129C5.55274 8.88995 5 10.3859 5 12.0112H1C1 9.27987 1.99343 6.78085 3.63832 4.85641L6.48031 7.70129ZM11.5 5.02166C9.81623 5.14061 8.29688 5.85567 7.15127 6.95728L4.32248 4.12562C6.19342 2.30004 8.71165 1.13604 11.5 1.01117V5.02166ZM16.8637 6.97173C15.7164 5.86192 14.1911 5.14113 12.5 5.02166V1.01117C15.2957 1.13637 17.8199 2.30623 19.6924 4.14017L16.8637 6.97173ZM19 12.0112C19 10.3935 18.4524 8.90383 17.5326 7.71784L20.3752 4.87229C22.012 6.79459 23 9.28738 23 12.0112H19ZM17.0488 16.8648C18.0392 15.8327 18.7169 14.4976 18.9291 13.0122H22.9552C22.7219 15.6037 21.5916 17.9363 19.8776 19.6965L17.0488 16.8648Z" fill="white"/>
<path id="Union" d="M12 8C10.6667 8.95238 8 11.3143 8 13.1429C8 14.9714 10.2857 14.6667 11.4286 14.2857V14.8571L10.2857 15.4286V16H13.7143V15.4286L12.5714 14.8571V14.2857C13.7143 14.6667 16 14.9714 16 13.1429C16 11.3143 13.3333 8.95238 12 8Z" fill="white"/>
</g>
</svg>
