<svg width="24" height="24" viewBox="0 0 24 24" fill="none" xmlns="http://www.w3.org/2000/svg">
<g id="icon_public_36">
<path id="Subtract" fill-rule="evenodd" clip-rule="evenodd" d="M12 23C18.0751 23 23 18.0751 23 12C23 5.92487 18.0751 1 12 1C5.92487 1 1 5.92487 1 12C1 18.0751 5.92487 23 12 23ZM14.4656 7.96555L12.8492 5.36587C12.458 4.73656 11.542 4.73656 11.1508 5.36588L9.53441 7.96555C9.39674 8.18697 9.17804 8.34586 8.92492 8.40837L5.953 9.14227C5.23357 9.31993 4.95054 10.191 5.42814 10.7576L7.4011 13.0982C7.56914 13.2976 7.65268 13.5547 7.63391 13.8147L7.41351 16.868C7.36016 17.6071 8.10115 18.1454 8.78761 17.8663L11.6233 16.7132C11.8648 16.615 12.1352 16.615 12.3767 16.7132L15.2124 17.8663C15.8988 18.1454 16.6398 17.6071 16.5865 16.868L16.3661 13.8147C16.3473 13.5547 16.4309 13.2976 16.5989 13.0982L18.5719 10.7576C19.0495 10.191 18.7664 9.31993 18.047 9.14227L15.0751 8.40837C14.822 8.34586 14.6033 8.18697 14.4656 7.96555Z" fill="#F9BC01"/>
</g>
</svg>
