<svg width="14" height="14" viewBox="0 0 14 14" fill="none" xmlns="http://www.w3.org/2000/svg">
<mask id="mask0_18442_31288" style="mask-type:luminance" maskUnits="userSpaceOnUse" x="1" y="1" width="12" height="12">
<path d="M12.8337 1.16797H1.16699V12.8346H12.8337V1.16797Z" fill="white"/>
</mask>
<g mask="url(#mask0_18442_31288)">
<path d="M5.28579 3.11047C4.81126 3.21853 4.3468 3.36684 3.89746 3.5538C4.21871 3.15774 4.57822 2.79431 4.97079 2.4688C4.82357 2.1693 4.69878 1.85928 4.59746 1.5413C5.09913 1.57341 5.59589 1.65946 6.07913 1.79797C6.77403 1.42967 7.53992 1.21483 8.32497 1.16797C7.8919 1.42181 7.49879 1.73829 7.1583 2.10714C7.59808 2.26952 8.02508 2.46451 8.4358 2.69047C8.4358 2.69047 7.49663 2.71964 6.63329 2.8363C6.36346 3.27414 6.16645 3.75286 6.04996 4.2538C5.75211 3.90335 5.4957 3.5197 5.28579 3.11047Z" fill="#7782AA"/>
<path d="M9.74797 3.92578C9.33363 3.47619 8.88924 3.05523 8.41797 2.66578C9.01869 2.72302 9.60809 2.86643 10.168 3.09161C10.3063 2.79705 10.4176 2.49051 10.5005 2.17578C10.7538 2.6239 10.9498 3.1021 11.0838 3.59911C11.6382 3.95919 12.1274 4.41091 12.5305 4.93495C12.1601 4.85597 11.7832 4.81106 11.4046 4.80078C11.4899 5.3351 11.5308 5.87555 11.5271 6.41661C11.5271 6.41661 11.0021 5.52995 10.5005 4.80661C9.94875 4.82903 9.40112 4.91118 8.86714 5.05161C8.86714 5.05161 9.3338 4.50911 9.74214 3.92578H9.74797Z" fill="#7782AA"/>
<path d="M10.6576 8.09214C11.0834 7.37464 11.5268 6.41797 11.5268 6.41797C11.6131 6.90337 11.66 7.39499 11.6668 7.88797C12.0686 7.77445 12.4592 7.62413 12.8334 7.4388C12.5941 8.02914 12.2322 8.56195 11.7718 9.00214C11.8199 9.40878 11.8472 9.81769 11.8534 10.2271C11.5279 10.0787 11.2105 9.91324 10.9026 9.7313C10.4432 10.0166 9.93484 10.2144 9.40342 10.3146C9.40342 10.3146 9.77676 9.7313 10.0859 9.14797C9.66505 8.84913 9.29481 8.48484 8.98926 8.0688C9.54337 8.1353 10.1034 8.1353 10.6576 8.0688V8.09214Z" fill="#7782AA"/>
<path d="M7.68899 6.6338C8.33649 7.4388 8.98983 8.0863 8.98983 8.0863C8.33247 7.98754 7.68462 7.83343 7.05316 7.62547C6.62152 8.32547 6.14902 9.14214 6.14902 9.14214C5.9735 8.52596 5.86784 7.89194 5.83402 7.25214C5.83402 7.25214 5.29736 7.06547 4.31152 6.6688C4.78863 6.38464 5.30033 6.1631 5.83402 6.00964C5.83135 5.40878 5.90983 4.81031 6.06736 4.23047C6.06736 4.23047 6.55152 5.01797 6.94236 5.59547C6.94236 5.59547 7.70649 5.33297 8.88483 5.05297C8.88483 5.05297 8.23733 5.8813 7.71816 6.6338H7.68899Z" fill="#7782AA"/>
<path d="M1.8322 9.67948C1.75053 9.55698 1.7097 9.42865 1.65137 9.33532C1.65443 8.86247 1.70722 8.39125 1.80887 7.92948C1.58551 7.76428 1.3713 7.58713 1.1672 7.39865C1.16432 7.35006 1.16432 7.30141 1.1672 7.25282C1.46688 7.13883 1.77262 7.04142 2.08303 6.96115C2.22953 6.50379 2.45455 6.07545 2.74803 5.69531C2.78233 6.06394 2.83882 6.43016 2.9172 6.79198C3.37746 6.69647 3.84735 6.65536 4.3172 6.66948C3.89071 7.01884 3.49992 7.40968 3.15053 7.83615C3.27328 8.29313 3.44134 8.7367 3.6522 9.16032C3.15053 8.87448 2.62553 8.50115 2.62553 8.50115C2.4447 8.72282 2.0422 9.31782 1.8497 9.66782L1.8322 9.67948Z" fill="#7782AA"/>
<path d="M5.968 12.7398C5.88633 12.7398 5.80466 12.7106 5.72883 12.6873C5.35501 12.2939 5.01907 11.8662 4.72549 11.4098C4.04457 11.351 3.37511 11.1979 2.73633 10.9548C3.23369 10.8461 3.71432 10.6715 4.16549 10.4356C3.94991 10.0249 3.77223 9.59533 3.63466 9.15229C3.63466 9.15229 4.34633 9.73563 4.87133 10.074C5.32404 9.80143 5.75156 9.48905 6.14883 9.14062C6.14883 9.14062 5.99716 9.91646 5.90966 10.7506C6.3005 10.9723 6.69133 11.194 7.0763 11.404C6.67617 11.4577 6.27252 11.4811 5.86883 11.474C5.85611 11.8978 5.88541 12.3218 5.95633 12.7398H5.968Z" fill="#7782AA"/>
<path d="M11.0431 11.2148C10.5208 11.3448 9.98777 11.4268 9.45058 11.4598C9.45058 11.4598 9.45058 10.9173 9.40391 10.3281C9.11213 10.7384 8.79246 11.1282 8.44725 11.4948C7.80558 11.4948 7.08808 11.4015 7.08808 11.4015C7.33308 11.6523 7.58391 11.8973 7.84641 12.1365C7.55136 12.3905 7.23957 12.6244 6.91309 12.8365H7.10558C8.57552 12.8114 9.98182 12.2322 11.0431 11.2148Z" fill="#7782AA"/>
<path d="M1.2373 5.94661C1.52218 5.59593 1.83426 5.26826 2.17064 4.96661C2.33164 5.23463 2.52783 5.47987 2.75397 5.69578C2.75397 5.69578 2.75397 5.18245 2.81231 4.38911C3.15689 4.08951 3.51921 3.81096 3.89731 3.55495C3.59227 3.53758 3.2865 3.53758 2.98147 3.55495C3.07857 3.12658 3.21125 2.70707 3.37814 2.30078C2.24058 3.21155 1.47844 4.50947 1.2373 5.94661Z" fill="#7782AA"/>
</g>
</svg>
