<svg width="24" height="24" viewBox="0 0 24 24" fill="none" xmlns="http://www.w3.org/2000/svg">
<g id="icon_public_90">
<g id="Group 772544325">
<circle id="Ellipse 33" cx="12" cy="12" r="12" fill="#F9BC01"/>
<g id="cop">
<path d="M5.03224 15.6951C4.40052 15.6951 3.85807 15.553 3.40488 15.2688C2.95444 14.9845 2.607 14.5919 2.36255 14.091C2.12085 13.5872 2 13.0075 2 12.3518C2 11.6932 2.1236 11.1121 2.37079 10.6083C2.61798 10.1018 2.9668 9.70779 3.41724 9.42636C3.87043 9.14212 4.40601 9 5.024 9C5.53761 9 5.99217 9.09709 6.38768 9.29128C6.78594 9.48265 7.10317 9.75422 7.33938 10.106C7.57558 10.455 7.71017 10.863 7.74312 11.3302H6.31764C6.25996 11.0178 6.12264 10.7575 5.90565 10.5492C5.69142 10.3382 5.4044 10.2326 5.0446 10.2326C4.73973 10.2326 4.47193 10.3171 4.24122 10.4859C4.01051 10.652 3.8306 10.8912 3.70151 11.2036C3.57517 11.5159 3.512 11.8902 3.512 12.3265C3.512 12.7683 3.57517 13.1482 3.70151 13.4662C3.82786 13.7814 4.00501 14.0249 4.23298 14.1965C4.46369 14.3654 4.73423 14.4498 5.0446 14.4498C5.26433 14.4498 5.46071 14.4076 5.63374 14.3232C5.80952 14.2359 5.95647 14.1107 6.07457 13.9475C6.19267 13.7842 6.2737 13.5858 6.31764 13.3523H7.74312C7.70742 13.811 7.57558 14.2176 7.34762 14.5722C7.11965 14.924 6.80928 15.1998 6.41652 15.3996C6.02376 15.5966 5.56233 15.6951 5.03224 15.6951Z" fill="white"/>
<path d="M11.7281 15.6951C11.1101 15.6951 10.5745 15.5558 10.1213 15.2772C9.66814 14.9986 9.31658 14.6088 9.06664 14.1079C8.81945 13.6069 8.69585 13.0216 8.69585 12.3518C8.69585 11.682 8.81945 11.0952 9.06664 10.5915C9.31658 10.0877 9.66814 9.69653 10.1213 9.41792C10.5745 9.13931 11.1101 9 11.7281 9C12.3461 9 12.8817 9.13931 13.3348 9.41792C13.788 9.69653 14.1382 10.0877 14.3854 10.5915C14.6354 11.0952 14.7603 11.682 14.7603 12.3518C14.7603 13.0216 14.6354 13.6069 14.3854 14.1079C14.1382 14.6088 13.788 14.9986 13.3348 15.2772C12.8817 15.5558 12.3461 15.6951 11.7281 15.6951ZM11.7363 14.4709C12.0714 14.4709 12.3516 14.3766 12.5768 14.1881C12.802 13.9967 12.9695 13.7406 13.0794 13.4198C13.192 13.099 13.2483 12.7416 13.2483 12.3476C13.2483 11.9508 13.192 11.5919 13.0794 11.2711C12.9695 10.9475 12.802 10.69 12.5768 10.4986C12.3516 10.3072 12.0714 10.2115 11.7363 10.2115C11.393 10.2115 11.1074 10.3072 10.8794 10.4986C10.6542 10.69 10.4853 10.9475 10.3726 11.2711C10.2628 11.5919 10.2078 11.9508 10.2078 12.3476C10.2078 12.7416 10.2628 13.099 10.3726 13.4198C10.4853 13.7406 10.6542 13.9967 10.8794 14.1881C11.1074 14.3766 11.393 14.4709 11.7363 14.4709Z" fill="white"/>
<path d="M16.0262 18V9.08443H17.4928V10.1567H17.5794C17.6563 9.99906 17.7648 9.83161 17.9048 9.65431C18.0449 9.4742 18.2344 9.32083 18.4734 9.19418C18.7123 9.06473 19.0172 9 19.388 9C19.8769 9 20.3177 9.12805 20.7105 9.38415C21.106 9.63743 21.4191 10.0131 21.6498 10.5113C21.8833 11.0066 22 11.6144 22 12.3349C22 13.0469 21.886 13.652 21.658 14.1501C21.4301 14.6482 21.1197 15.0281 20.727 15.2899C20.3342 15.5516 19.8892 15.6825 19.3921 15.6825C19.0296 15.6825 18.7288 15.6205 18.4899 15.4967C18.2509 15.3729 18.0586 15.2237 17.9131 15.0492C17.7702 14.872 17.659 14.7045 17.5794 14.5469H17.5176V18H16.0262ZM17.4887 12.3265C17.4887 12.7458 17.5464 13.113 17.6618 13.4282C17.7799 13.7434 17.9488 13.9897 18.1685 14.167C18.391 14.3415 18.6601 14.4287 18.976 14.4287C19.3056 14.4287 19.5816 14.3386 19.8041 14.1585C20.0266 13.9756 20.1941 13.7265 20.3067 13.4114C20.4221 13.0933 20.4798 12.7317 20.4798 12.3265C20.4798 11.924 20.4235 11.5666 20.3108 11.2542C20.1982 10.9418 20.0307 10.697 19.8082 10.5197C19.5857 10.3424 19.3083 10.2538 18.976 10.2538C18.6574 10.2538 18.3869 10.3396 18.1644 10.5113C17.9419 10.6829 17.773 10.9235 17.6576 11.2331C17.545 11.5427 17.4887 11.9071 17.4887 12.3265Z" fill="white"/>
</g>
</g>
</g>
</svg>
