<svg width="25" height="25" viewBox="0 0 25 25" fill="none" xmlns="http://www.w3.org/2000/svg">
<path fill-rule="evenodd" clip-rule="evenodd" d="M8.21466 5.15192C6.46582 5.15192 5.02979 6.57498 5.02979 8.31832C5.02979 10.0617 6.46576 11.4847 8.21466 11.4847C9.97359 11.4847 11.412 10.0617 11.412 8.31832C11.412 6.57498 9.97359 5.15192 8.21466 5.15192Z" fill="#7782AA"/>
<path fill-rule="evenodd" clip-rule="evenodd" d="M8.21634 14.6793C9.73577 14.6793 11.2548 14.9018 12.5114 15.3391V15.3389H12.5118C13.4939 15.6798 14.3115 16.1483 14.8598 16.7023C15.408 17.2563 15.6987 17.8706 15.6987 18.6322V19.8482H0.742676V18.6322C0.742676 17.7592 1.12136 17.0714 1.82972 16.467C2.53808 15.8625 3.58351 15.3824 4.79358 15.0773C5.85234 14.8103 7.03428 14.6783 8.21607 14.6793L8.21634 14.6793Z" fill="#7782AA"/>
<path fill-rule="evenodd" clip-rule="evenodd" d="M16.9734 14.6856C18.1363 14.6993 19.2924 14.842 20.3249 15.1138C21.5048 15.4247 22.5189 15.9036 23.2049 16.5009C23.8909 17.0983 24.2571 17.7753 24.2571 18.6319V19.8479H16.8743V18.6319C16.8743 17.5518 16.4169 16.604 15.6954 15.875C15.3151 15.4905 14.8638 15.1607 14.3613 14.8781C15.2017 14.7404 16.0887 14.675 16.9732 14.6854L16.9734 14.6856Z" fill="#7782AA"/>
<path fill-rule="evenodd" clip-rule="evenodd" d="M16.7853 5.15192C15.0364 5.15192 13.6006 6.57498 13.6006 8.31832C13.6006 10.0617 15.0362 11.4847 16.7853 11.4847C18.5341 11.4847 19.9699 10.0617 19.9699 8.31832C19.9699 6.57498 18.5343 5.15192 16.7853 5.15192Z" fill="#7782AA"/>
</svg>
