<svg width="24" height="24" viewBox="0 0 24 24" fill="none" xmlns="http://www.w3.org/2000/svg">
<path d="M20.7979 15.2452C20.7989 15.2418 20.7993 15.2384 20.801 15.2351C22.1198 14.6314 23.0401 13.3023 23.0401 11.7596C23.0401 10.2725 22.1854 8.98454 20.9427 8.3523C20.9465 8.28035 20.9359 8.20686 20.9087 8.13538C19.5035 4.47573 15.9248 2.017 12.0042 2.017C8.08507 2.017 4.50709 4.47521 3.1013 8.13379C3.07364 8.20573 3.06385 8.2797 3.06758 8.35242C1.82497 8.98422 0.969727 10.2725 0.969727 11.7597C0.969727 13.8682 2.68503 15.5836 4.7941 15.5836C5.08856 15.5836 5.3277 15.3442 5.3277 15.0497V8.46988C5.3277 8.17496 5.08856 7.93597 4.7941 7.93597C4.63809 7.93597 4.48613 7.94794 4.33494 7.96627C5.71586 5.02387 8.72493 3.08501 12.0043 3.08501C15.2848 3.08501 18.2937 5.02407 19.6752 7.96627C19.5242 7.94809 19.3719 7.93597 19.2161 7.93597C18.9216 7.93597 18.6825 8.17496 18.6825 8.46988V15.0497C18.6825 15.3442 18.9216 15.5836 19.2161 15.5836C19.2969 15.5836 19.3761 15.5763 19.4555 15.5713C18.3557 17.6083 16.4663 19.1154 14.2266 19.7227C13.9657 19.3563 13.5396 19.1146 13.0567 19.1146H10.9545C10.1615 19.1146 9.51639 19.76 9.51639 20.5526C9.51639 21.346 10.1617 21.9913 10.9545 21.9913H13.0567C13.7779 21.9913 14.371 21.4557 14.4733 20.7612C17.3068 20.0039 19.6518 17.9711 20.7982 15.2455L20.7979 15.2452Z" fill="#7782AA"/>
</svg>
