<svg width="14" height="14" viewBox="0 0 14 14" fill="none" xmlns="http://www.w3.org/2000/svg">
<path d="M3.26634 9.17758V12.9468C3.26634 13.207 3.05741 13.418 2.79968 13.418C2.54194 13.418 2.33301 13.207 2.33301 12.9468V1.63912C2.33301 1.37891 2.54194 1.16797 2.79968 1.16797C3.05741 1.16797 3.26634 1.37891 3.26634 1.63912H11.1997C11.4574 1.63912 11.6663 1.85006 11.6663 2.11027V8.70641C11.6663 8.96663 11.4574 9.17758 11.1997 9.17758H3.26634ZM5.13303 2.58143V4.46603H3.26634V6.35064H5.13303V8.2353H10.733V2.58143H5.13303ZM6.9997 2.58143H8.86637V4.46603H6.9997V2.58143ZM5.13303 4.46603H6.9997V6.35064H5.13303V4.46603ZM8.86637 4.46603H10.733V6.35064H8.86637V4.46603ZM6.9997 6.35064H8.86637V8.2353H6.9997V6.35064Z" fill="#7782AA"/>
</svg>
