<svg width="24" height="24" viewBox="0 0 24 24" fill="none" xmlns="http://www.w3.org/2000/svg">
<path d="M5.11035 3.03329C4.00578 3.03329 3.11035 3.92873 3.11035 5.03329V18.8126C3.11035 19.9172 4.00578 20.8126 5.11035 20.8126H18.8897C19.9943 20.8126 20.8897 19.9172 20.8897 18.8126V5.03329C20.8897 3.92872 19.9942 3.03329 18.8897 3.03329H5.11035ZM12.0011 17.0089C9.19235 17.0089 6.91628 14.7328 6.91628 11.9241C6.91628 9.11529 9.19235 6.83922 12.0011 6.83922C14.8099 6.83922 17.086 9.11529 17.086 11.9241C17.086 14.7328 14.8077 17.0089 12.0011 17.0089Z" fill="#7782AA"/>
<path d="M20.1771 8.61277L12.8971 1.3321C12.4009 0.835916 11.595 0.835916 11.0988 1.3321L8.61207 3.8211L3.82083 8.61277L1.33206 11.1018C0.835927 11.598 0.835927 12.404 1.33206 12.9002L3.82083 15.3892L8.61207 20.1788L11.1008 22.6678C11.597 23.164 12.4029 23.164 12.8991 22.6678L22.6679 12.8981C23.164 12.402 23.164 11.5959 22.6679 11.0997L20.1771 8.61277ZM11.7509 16.6711C9.28236 16.5415 7.32212 14.5001 7.32212 11.9989C7.32212 9.41476 9.41601 7.32068 12 7.32068C14.5009 7.32068 16.5421 9.28312 16.6717 11.7498C16.8135 14.5163 14.513 16.8149 11.7509 16.6711Z" fill="#7782AA"/>
<path d="M12.0001 14.4C13.3256 14.4 14.4001 13.3255 14.4001 12C14.4001 10.6745 13.3256 9.59998 12.0001 9.59998C10.6746 9.59998 9.6001 10.6745 9.6001 12C9.6001 13.3255 10.6746 14.4 12.0001 14.4Z" fill="#7782AA"/>
</svg>
