<svg width="24" height="24" viewBox="0 0 24 24" fill="none" xmlns="http://www.w3.org/2000/svg">
<g id="icon_public_76">
<g id="Group">
<path id="Vector" d="M12.0735 3.00002C11.21 3.00002 10.5083 3.70186 10.5083 4.56534V4.89228H10.42C9.55654 4.89228 8.8584 5.59412 8.8584 6.46851C8.8584 6.64121 8.99803 6.78453 9.17441 6.78453H14.8477C15.024 6.78453 15.1637 6.63029 15.1637 6.45744C15.1637 5.61242 14.4949 4.92534 13.6645 4.89211L13.6646 4.56533C13.6646 3.70184 12.9592 3 12.0736 3L12.0735 3.00002ZM12.011 4.83722C11.8053 4.83722 11.6437 4.6719 11.6437 4.46984C11.6437 4.26777 11.8053 4.10246 12.011 4.10246C12.2131 4.10246 12.3784 4.26777 12.3784 4.46984C12.3784 4.6719 12.2131 4.83722 12.011 4.83722Z" fill="white"/>
<path id="Vector_2" d="M7.23461 5.89062C6.62473 5.89062 6.13232 6.38673 6.13232 6.99291V19.8531C6.13232 20.4593 6.62473 20.9554 7.23461 20.9554H16.7879C17.3941 20.9554 17.8902 20.4593 17.8902 19.8531V6.99291C17.8902 6.38673 17.3941 5.89062 16.7879 5.89062H15.8399C15.8803 6.05594 15.8986 6.22863 15.8986 6.4087C15.8986 6.99291 15.4284 7.47056 14.8479 7.47056H9.17461C8.5941 7.47056 8.1237 7.00031 8.1237 6.4198C8.1237 6.23973 8.14569 6.05965 8.18244 5.89066L7.23461 5.89062Z" fill="white"/>
<g id="Group 772543853">
<rect id="Rectangle 2280" x="8.55322" y="12.8359" width="6.88931" height="1.04693" rx="0.523465" fill="black"/>
<rect id="Rectangle 2279" x="8.51123" y="15.4766" width="6.97953" height="1.04693" rx="0.523465" fill="black"/>
<rect id="Rectangle 2278" x="8.55322" y="10.25" width="6.88931" height="1.04693" rx="0.523465" fill="black"/>
</g>
</g>
</g>
</svg>
