<svg width="24" height="24" viewBox="0 0 24 24" fill="none" xmlns="http://www.w3.org/2000/svg">
<path d="M15.2457 17.3846L15.3532 17.495L15.4606 17.3846L16.4275 16.392L16.5293 16.2874L16.4276 16.1828L13.0414 12.6994V6.71997V6.56997H12.8914H11.52H11.37V6.71997V13.3446V13.4056L11.4126 13.4493L15.2457 17.3846Z" fill="#7782AA" stroke="#7782AA" stroke-width="0.3"/>
<path d="M12 1.35H12C10.5811 1.3502 9.17674 1.63512 7.86999 2.18787C6.67492 2.69339 5.58374 3.41351 4.65 4.31159V1.5V1.35H4.5H3H2.85V1.5V7.5V7.65H3H9H9.15V7.5V6V5.85H9H5.65571C7.0135 4.45387 8.79674 3.54214 10.7304 3.26185C12.7774 2.96514 14.8636 3.39476 16.6268 4.4761C18.3899 5.55744 19.7187 7.22218 20.3822 9.18122C21.0458 11.1402 21.0022 13.2698 20.259 15.2C19.5159 17.1303 18.1201 18.7393 16.3142 19.7475C14.5082 20.7558 12.4062 21.0997 10.3731 20.7195C8.33996 20.3393 6.50426 19.2589 5.18476 17.6661C3.86526 16.0733 3.14533 14.0687 3.15 12.0003L3.15034 11.85H3H1.5H1.35V12C1.35 14.1064 1.97461 16.1654 3.14485 17.9168C4.31509 19.6682 5.97839 21.0332 7.92442 21.8393C9.87045 22.6454 12.0118 22.8563 14.0777 22.4454C16.1436 22.0344 18.0413 21.0201 19.5307 19.5307C21.0201 18.0413 22.0344 16.1436 22.4454 14.0777C22.8563 12.0118 22.6454 9.87045 21.8393 7.92442C21.0332 5.97839 19.6682 4.31509 17.9168 3.14485C16.1654 1.97461 14.1064 1.35 12 1.35Z" fill="#7782AA" stroke="#7782AA" stroke-width="0.3"/>
</svg>
