<svg width="24" height="24" viewBox="0 0 24 24" fill="none" xmlns="http://www.w3.org/2000/svg">
<g id="icon_public_59">
<path id="Vector" d="M11.7034 1.00021C9.58663 1.00005 7.51718 1.62759 5.75707 2.8036C3.99683 3.97957 2.62492 5.65109 1.81489 7.60668C1.0047 9.56235 0.792699 11.7144 1.20557 13.7904C1.61847 15.8667 2.63787 17.7737 4.13468 19.2704C5.63149 20.7674 7.53871 21.7866 9.6147 22.1997C11.691 22.6126 13.8429 22.4006 15.7984 21.5904C17.7542 20.7802 19.4257 19.4082 20.6015 17.6482C21.7774 15.8879 22.405 13.8186 22.4049 11.7019C22.4017 8.86452 21.2732 6.14456 19.2669 4.13797C17.2606 2.13172 14.5403 1.00319 11.703 1L11.7034 1.00021ZM11.7034 4.32958C12.6496 4.32958 13.5569 4.70549 14.2259 5.3745C14.8949 6.04353 15.2707 6.95077 15.2707 7.89686C15.2707 8.84308 14.8949 9.75035 14.2259 10.4193C13.5568 11.0884 12.6496 11.4641 11.7034 11.4641C10.7573 11.4641 9.85005 11.0884 9.18102 10.4193C8.51198 9.75031 8.1361 8.84308 8.1361 7.89686C8.1361 6.95081 8.51201 6.04353 9.18102 5.3745C9.85005 4.70546 10.7573 4.32958 11.7034 4.32958ZM19.6227 16.9743V16.9745C18.4598 18.7203 16.7525 20.033 14.7661 20.7083C12.7801 21.3836 10.6264 21.3836 8.64019 20.7083C6.65399 20.033 4.94666 18.7203 3.7836 16.9745C3.77415 16.9602 3.76453 16.9436 3.75507 16.9293C3.8692 14.4251 7.38422 12.4155 11.7029 12.4155C16.0215 12.4155 19.5364 14.425 19.6507 16.9293C19.6411 16.9436 19.6316 16.9602 19.622 16.9745L19.6227 16.9743Z" fill="#7782AA"/>
</g>
</svg>
