<svg width="14" height="14" viewBox="0 0 14 14" fill="none" xmlns="http://www.w3.org/2000/svg">
<path d="M9.83648 4.89989C9.92055 5.30762 9.94752 5.7243 9.91668 6.13889C9.49335 5.31639 8.81614 4.63928 7.97724 4.19989C8.38246 4.17695 8.78909 4.20283 9.18756 4.27689C9.35132 4.29948 9.50305 4.37238 9.62007 4.48469C9.73703 4.597 9.813 4.74267 9.83648 4.89989Z" fill="#7782AA"/>
<path d="M4.36085 6.76211C4.08251 7.51132 4.01461 8.31772 4.16399 9.10011C4.18614 9.2504 4.25856 9.3897 4.37035 9.49701C4.48213 9.60432 4.62722 9.67383 4.78374 9.69511C5.60036 9.84302 6.44324 9.78023 7.22631 9.51311C7.04968 8.84993 6.69045 8.24464 6.18629 7.76059C5.68213 7.27654 5.05162 6.93168 4.36085 6.76211Z" fill="#7782AA"/>
<path d="M5.30148 5.37605C5.73968 4.9509 6.27341 4.62764 6.8618 4.43105C7.54031 4.61299 8.15666 4.96392 8.64837 5.44827C9.14009 5.93263 9.48963 6.53318 9.66163 7.18906C9.3223 8.08366 8.65654 8.82979 7.78779 9.28906C7.57996 8.56001 7.18045 7.89452 6.6276 7.35636C6.07475 6.81826 5.38711 6.42559 4.63068 6.21605C4.81589 5.90963 5.04134 5.62732 5.30148 5.37605Z" fill="#7782AA"/>
<path fill-rule="evenodd" clip-rule="evenodd" d="M1.16737 1.085C3.52973 2.66 6.32227 1.484 7.00035 0C7.67844 1.484 10.471 2.66 12.8333 1.085V10.843C12.8383 11.0915 12.7877 11.3382 12.6849 11.5663C12.5821 11.7944 12.4294 11.9987 12.2373 12.1653C12.0451 12.3319 11.8179 12.4569 11.571 12.5319C11.3242 12.6069 11.0634 12.6301 10.8064 12.6C8.3836 12.6 7.45995 13.5348 7.02606 13.974L7.00035 14C6.9826 13.9827 6.96411 13.9644 6.94482 13.9454C6.48866 13.4956 5.58033 12.6 3.20891 12.6C2.95078 12.6323 2.68843 12.6107 2.43978 12.5367C2.19114 12.4627 1.96207 12.3381 1.76824 12.1712C1.5744 12.0044 1.42037 11.7993 1.31667 11.5702C1.21296 11.3409 1.16204 11.0929 1.16737 10.843V1.085ZM11.5416 10.6506C11.6256 10.4688 11.6683 10.2719 11.6667 10.073V2.268C9.77829 3.5 7.53991 2.59 7.00035 1.4C6.4608 2.59 4.2224 3.5 2.34855 2.268V10.08C2.34705 10.2789 2.38971 10.4758 2.47368 10.6576C2.55765 10.8394 2.68102 11.002 2.83555 11.1344C2.99008 11.2669 3.17223 11.3663 3.36988 11.4258C3.56752 11.4854 3.77612 11.5039 3.98179 11.48C5.90924 11.48 6.62949 12.2193 6.97499 12.574L7.00035 12.6C7.38056 12.1995 7.85243 11.8894 8.37877 11.6938C8.90509 11.4982 9.47155 11.4226 10.0335 11.473C10.2392 11.4969 10.4478 11.4784 10.6454 11.4188C10.8431 11.3593 11.0252 11.2599 11.1797 11.1274C11.3343 10.995 11.4576 10.8324 11.5416 10.6506Z" fill="#7782AA"/>
</svg>
