<svg width="32" height="32" viewBox="0 0 32 32" fill="none" xmlns="http://www.w3.org/2000/svg">
<g clip-path="url(#clip0_6588_31125)">
<path d="M24.0052 11.7284C23.9685 11.6565 23.9462 11.5777 23.9396 11.4968C23.933 11.4158 23.9422 11.3343 23.9667 11.2571C23.9912 11.1799 24.0304 11.1086 24.0821 11.0475C24.1338 10.9863 24.1968 10.9366 24.2674 10.9012L27.1406 9.41971C27.2828 9.34768 27.4469 9.33713 27.5967 9.39038C27.6709 9.41674 27.7393 9.45798 27.7981 9.51174C27.8569 9.56549 27.9049 9.63071 27.9393 9.70366C27.9738 9.77662 27.994 9.85589 27.9988 9.93694C28.0037 10.018 27.9931 10.0992 27.9676 10.1761C27.9422 10.2529 27.9024 10.3237 27.8505 10.3846C27.7985 10.4455 27.7356 10.4952 27.6651 10.5308L24.8039 12.0123C24.717 12.0503 24.624 12.0712 24.5297 12.074C24.4194 12.0749 24.3112 12.0427 24.2181 11.9814C24.1251 11.9201 24.0511 11.8322 24.0052 11.7284ZM27.6651 21.3086L24.792 19.8148C24.6512 19.7416 24.4882 19.729 24.3385 19.7799C24.1888 19.8308 24.0647 19.941 23.9932 20.0864C23.9251 20.2345 23.9143 20.4041 23.963 20.5602C24.0118 20.7163 24.1165 20.8472 24.2555 20.9259L27.1286 22.4074C27.2147 22.4304 27.3049 22.4304 27.3909 22.4074C27.5228 22.4054 27.6504 22.3581 27.7536 22.2729C27.8568 22.1878 27.9298 22.0696 27.9611 21.9369C27.9925 21.8041 27.9804 21.6644 27.9269 21.5395C27.8733 21.4147 27.7812 21.3117 27.6651 21.2469V21.3086ZM24.8635 15.2963C24.7054 15.2963 24.5538 15.3613 24.442 15.4771C24.3302 15.5928 24.2674 15.7498 24.2674 15.9135C24.2674 16.0773 24.3302 16.2343 24.442 16.35C24.5538 16.4658 24.7054 16.5308 24.8635 16.5308H27.2479C27.406 16.5308 27.5576 16.4658 27.6694 16.35C27.7811 16.2343 27.8439 16.0773 27.8439 15.9135C27.8439 15.7498 27.7811 15.5928 27.6694 15.4771C27.5576 15.3613 27.406 15.2963 27.2479 15.2963H24.8635ZM9.96141 11.5926H8.76924V19H9.96141V11.5926ZM7.57707 11.358L4.78739 10.358C4.69901 10.3235 4.60377 10.3123 4.51017 10.3252C4.41656 10.3381 4.3275 10.3748 4.25092 10.4321C4.1695 10.4945 4.1041 10.5767 4.06045 10.6714C4.01681 10.7661 3.99625 10.8704 4.00056 10.9753V19.6172C4.00194 19.7159 4.02525 19.8128 4.06866 19.9006C4.11208 19.9884 4.17445 20.0646 4.25092 20.1234C4.35225 20.1967 4.47307 20.2355 4.59665 20.2345C4.65972 20.2463 4.72432 20.2463 4.78739 20.2345L7.57707 19.2345V11.358ZM20.6909 11.6543V7.27156C20.6893 7.16548 20.6623 7.06147 20.6124 6.96883C20.5625 6.87619 20.4911 6.79781 20.4048 6.7407C20.3168 6.69207 20.2185 6.66663 20.1187 6.66663C20.0189 6.66663 19.9206 6.69207 19.8326 6.7407L11.1536 11.2098V19.3827L19.8326 23.9382C19.9148 23.9777 20.0042 23.9987 20.0948 24C20.2032 23.9963 20.3093 23.9667 20.4048 23.9135C20.5 23.851 20.577 23.7628 20.6274 23.6584C20.6778 23.554 20.6998 23.4373 20.6909 23.3209V19C21.3641 18.8577 21.9692 18.4789 22.4037 17.9277C22.8382 17.3765 23.0754 16.6868 23.0753 15.9753V14.7407C23.0893 14.0186 22.8584 13.3143 22.4228 12.7504C21.9871 12.1865 21.3743 11.7986 20.6909 11.6543Z" fill="white"/>
</g>
<defs>
<clipPath id="clip0_6588_31125">
<rect width="32" height="32" fill="white"/>
</clipPath>
</defs>
</svg>
