<svg width="22" height="22" viewBox="0 0 22 22" fill="none" xmlns="http://www.w3.org/2000/svg">
<path d="M20.7009 10.5639L20.7034 10.5588L12.1772 2.39586L12.1734 2.39414C11.9276 2.06528 11.5117 1.84757 11.0364 1.83669L11.0293 1.83325L11.0235 1.83554C11.0158 1.83497 11.0087 1.83325 11.0003 1.83325C10.5998 1.83325 10.2406 1.98336 9.98392 2.22226L9.97747 2.22455L1.36935 10.4958L1.37193 10.5009C1.09397 10.7295 0.916626 11.0532 0.916626 11.4164C0.916626 12.1068 1.54669 12.6665 2.3238 12.6665C2.33347 12.6665 2.3425 12.6642 2.35217 12.6642L2.35346 12.6665H3.26148V16.8328C3.26148 18.6667 3.54266 20.1666 5.60634 20.1666H8.88952V14.3331H13.1104V20.1666H16.3936C18.4573 20.1666 18.7384 18.6667 18.7384 16.8334V12.6671H19.6793C20.4552 12.666 21.0833 12.1068 21.0833 11.4176C21.0839 11.0859 20.9369 10.7874 20.7009 10.5639Z" fill="#7782AA"/>
</svg>
