<svg width="14" height="14" viewBox="0 0 14 14" fill="none" xmlns="http://www.w3.org/2000/svg">
<path fill-rule="evenodd" clip-rule="evenodd" d="M0.700032 2.91797H8.39996L10.8919 7.83197L10.7379 8.23797L10.2409 7.99997H8.74996C8.72525 7.99287 8.70243 7.9804 8.68304 7.96347C8.66372 7.94653 8.64832 7.92553 8.63796 7.90197C8.6129 7.75839 8.6129 7.61155 8.63796 7.46797H8.70796C8.76669 7.17788 8.75542 6.87796 8.67506 6.59309C8.59477 6.30823 8.44763 6.04663 8.24596 5.82997C7.98374 5.61588 7.67035 5.47363 7.33659 5.41719C7.00277 5.36073 6.66005 5.39202 6.342 5.50797C6.15656 5.57179 5.9927 5.68627 5.86897 5.83845C5.74526 5.99062 5.66663 6.1744 5.64201 6.36897V6.70497C5.5273 6.79783 5.41153 6.88855 5.29636 6.97881C5.11633 7.11989 4.93777 7.25983 4.76701 7.40497H5.75401L5.85901 7.54497L5.55801 8.17497C5.55112 8.20492 5.55112 8.23602 5.55801 8.26597C5.61401 8.31497 5.69801 8.31497 5.78201 8.31497H5.95001L6.00601 8.73497C5.61784 8.98375 5.308 9.33728 5.11229 9.75473C4.91658 10.1722 4.84298 10.6365 4.90001 11.094H5.53001L5.83801 11.668H0.700032C0.570559 11.6546 0.446454 11.6092 0.338912 11.5359C0.23137 11.4626 0.143776 11.3636 0.0840332 11.248C0.027689 11.1375 -0.00112823 11.015 3.37988e-05 10.891V3.61797C0.0109741 3.4786 0.0606989 3.34508 0.143583 3.23251C0.226466 3.11993 0.339201 3.0328 0.469031 2.98097C0.542113 2.9476 0.620128 2.92632 0.700032 2.91797ZM1.97904 10.4697C2.05791 10.4007 2.11664 10.3116 2.14902 10.212C2.1725 10.1368 2.18026 10.0576 2.17183 9.97937C2.1634 9.9011 2.13896 9.82539 2.10002 9.75697C2.01562 9.62927 1.88526 9.53902 1.73603 9.50497C1.63369 9.48431 1.52767 9.49161 1.42912 9.52609C1.33057 9.56059 1.24314 9.62099 1.17603 9.70097C1.1055 9.78594 1.06238 9.8903 1.05239 10.0003C1.04239 10.1103 1.06598 10.2207 1.12003 10.317C1.17595 10.4184 1.26161 10.5003 1.36548 10.5517C1.46936 10.603 1.58646 10.6212 1.70103 10.604C1.80411 10.5851 1.90018 10.5387 1.97904 10.4697Z" fill="#7782AA"/>
<path d="M13.6686 3.06813C13.5607 2.9872 13.4338 2.93548 13.3 2.91797H9.87002L11.669 7.73397C11.694 7.72997 11.7196 7.73167 11.7438 7.73895C11.7681 7.74622 11.7903 7.75888 11.809 7.77597C11.8314 7.81469 11.861 7.85105 11.8905 7.88744C11.9626 7.97605 12.0348 8.06492 12.005 8.18897C12.1015 8.17519 12.1467 8.2428 12.1921 8.3107C12.2159 8.34626 12.2397 8.38191 12.271 8.40597V8.53197C12.3846 8.50806 12.442 8.60154 12.4912 8.68166C12.4996 8.69538 12.5078 8.7087 12.516 8.72097C12.5535 8.77725 12.5408 8.83038 12.5283 8.88248C12.5221 8.90814 12.516 8.93356 12.516 8.95897L13.062 9.26697C13.2257 9.35727 13.3029 9.52492 13.3633 9.6562C13.3779 9.68775 13.3914 9.7172 13.405 9.74297C13.4292 9.7889 13.4717 9.82898 13.5142 9.86898C13.5946 9.94483 13.6748 10.0204 13.629 10.135L13.3 10.744C13.2504 10.8095 13.1872 10.8635 13.1146 10.9022C13.0421 10.9409 12.962 10.9633 12.88 10.968H11.634V11.64H13.195C13.3284 11.6455 13.461 11.6166 13.58 11.556C13.6939 11.5013 13.7922 11.4188 13.8656 11.316C13.939 11.2132 13.9852 11.0934 14 10.968V3.56897L13.916 3.37997C13.8618 3.25647 13.7766 3.14907 13.6686 3.06813Z" fill="#7782AA"/>
</svg>
