<svg width="24" height="24" viewBox="0 0 24 24" fill="none" xmlns="http://www.w3.org/2000/svg">
<path d="M15.6875 21.94C16.9168 21.94 17.9167 20.9401 17.9167 19.7113V4.2864C17.9167 3.05717 16.9166 2.05728 15.6875 2.05728L8.34923 2.05713C7.12001 2.05713 6.12012 3.05718 6.12012 4.28625V19.7112C6.12012 20.9402 7.12017 21.9398 8.34923 21.9398L15.6875 21.94ZM12.018 21.1982C11.7914 21.1982 11.6067 21.0134 11.6067 20.7864C11.6067 20.5593 11.7912 20.3745 12.018 20.3745C12.245 20.3745 12.4302 20.5593 12.4302 20.7864C12.4302 21.0134 12.245 21.1982 12.018 21.1982ZM11.2574 3.03865V2.86626H12.7793V3.21105H11.2574V3.03865ZM7.39935 18.6827V4.96948C7.39935 4.44615 7.82555 4.02022 8.34935 4.02022H15.6873C16.2111 4.02022 16.6373 4.44615 16.6373 4.96948L16.6374 18.6827C16.6374 19.2063 16.2112 19.6322 15.6874 19.6322H8.34911C7.82531 19.6322 7.39911 19.2063 7.39911 18.6827H7.39935Z" fill="#7782AA"/>
</svg>
