<svg width="32" height="24" viewBox="0 0 32 24" fill="none" xmlns="http://www.w3.org/2000/svg">
<g clip-path="url(#clip0_4841_13991)">
<path d="M21.1027 6.79075C20.9005 6.79075 20.7596 6.92966 20.7596 7.12897V12.5405C20.7596 12.7398 20.9005 12.8787 21.1027 12.8787H31.7418V6.79075H21.1027ZM24.5347 10.8494C23.9648 10.8494 23.5051 10.3964 23.5051 9.83471C23.5051 9.27303 23.9648 8.82006 24.5347 8.82006C25.1047 8.82006 25.5643 9.27303 25.5643 9.83471C25.5643 10.3904 25.0985 10.8494 24.5347 10.8494ZM11.7813 18.9666H30.0258C30.9757 18.9666 31.7418 18.2117 31.7418 17.2755V14.2316H21.1027C20.1651 14.2316 19.3868 13.4645 19.3868 12.5405V7.12897C19.3868 6.20491 20.1651 5.43788 21.1027 5.43788H31.7418V2.39391C31.7418 1.45777 30.9757 0.702822 30.0258 0.702822L6.02053 0.678664C6.0144 0.678664 6.00827 0.678664 6.00214 0.678664C5.089 0.569951 4.28616 1.27659 4.28616 2.18253V13.4102C4.69677 13.3679 5.11351 13.3498 5.54863 13.3498C7.16655 13.3498 8.69868 13.6457 9.85696 14.1893C11.0827 14.763 11.7874 15.5663 11.7874 16.3998V18.6344V18.9666H11.7813Z" fill="white"/>
<path d="M11.0459 20.1746V20.9537C11.0459 22.0831 8.77835 23.3333 5.53025 23.3333C2.28215 23.3333 0.00847626 22.0831 0.00847626 20.9537V20.1746C1.27707 21.0926 3.33012 21.6361 5.52412 21.6361C7.72425 21.6361 9.78342 21.0926 11.0459 20.1746Z" fill="white"/>
<path d="M11.0459 17.9037V18.6828C10.9785 19.166 10.6966 19.5887 10.2737 19.8364C9.23798 20.6034 7.46685 21.0443 5.53025 21.0443C3.59364 21.0443 1.85315 20.5853 0.780666 19.8364C0.3578 19.5887 0.0758897 19.1599 0.00847626 18.6828V17.9158C1.65704 18.9425 3.58139 19.4498 5.52412 19.3653C7.47298 19.4317 9.39733 18.9244 11.0459 17.9037Z" fill="white"/>
<path d="M11.0459 16.2307C11.0214 16.5689 10.856 16.889 10.5986 17.1125C9.67929 18.0184 7.68753 18.6103 5.5303 18.6103C2.2822 18.6103 0.0146561 17.354 0.0146561 16.2307C0.0146561 15.1073 2.2822 13.8511 5.5303 13.8511C8.7784 13.8511 11.0459 15.1013 11.0459 16.2307Z" fill="white"/>
</g>
<defs>
<clipPath id="clip0_4841_13991">
<rect width="31.7333" height="22.6667" fill="white" transform="translate(0.00847626 0.666626)"/>
</clipPath>
</defs>
</svg>
