<svg width="41" height="40" viewBox="0 0 41 40" fill="none" xmlns="http://www.w3.org/2000/svg">
<circle cx="20.5" cy="20" r="20" fill="#131828"/>
<g clip-path="url(#clip0_1390_104)">
<path fill-rule="evenodd" clip-rule="evenodd" d="M30.2966 16.0355C30.2966 16.0355 30.1012 14.6569 29.499 14.0514C28.7389 13.2555 27.8861 13.2507 27.4954 13.2035C24.6992 13 20.4984 13 20.4984 13C20.4984 13 16.2992 13 13.4997 13.2035C13.1091 13.2507 12.2578 13.2539 11.4961 14.0514C10.8906 14.6569 10.6986 16.0355 10.6986 16.0355C10.5749 17.1108 10.5086 18.192 10.5 19.2744L10.5 20.7897C10.5087 21.8721 10.575 22.9533 10.6986 24.0286C10.6986 24.0286 10.8939 25.4072 11.4912 26.0208C12.2529 26.8184 13.2523 26.7923 13.6999 26.877C15.2998 27.0299 20.5 27.0755 20.5 27.0755C20.5 27.0755 24.7041 27.0755 27.4987 26.8688C27.891 26.8216 28.7422 26.8167 29.5039 26.0208C30.1045 25.4154 30.2998 24.0352 30.2998 24.0352C30.4235 22.9598 30.4898 21.8786 30.4984 20.7962V19.2728C30.4875 18.1903 30.4196 17.1092 30.2949 16.0339L30.2966 16.0355Z" fill="white"/>
<path fill-rule="evenodd" clip-rule="evenodd" d="M18.4297 22.6279V17.0078L23.8317 19.8268L18.4297 22.6279Z" fill="black"/>
</g>
<defs>
<clipPath id="clip0_1390_104">
<rect width="20" height="14.0674" fill="white" transform="translate(10.5 13)"/>
</clipPath>
</defs>
</svg>
