<svg width="24" height="24" viewBox="0 0 24 24" fill="none" xmlns="http://www.w3.org/2000/svg">
<path d="M17.6219 5.15374C17.958 5.15374 18.2312 4.8807 18.2312 4.5445V2.30614C18.2312 1.97009 17.9581 1.6969 17.6219 1.6969C17.2859 1.6969 17.0127 1.96994 17.0127 2.30614V4.5445C17.0127 4.88055 17.2857 5.15374 17.6219 5.15374Z" fill="#7782AA"/>
<path d="M6.3673 5.15374C6.70335 5.15374 6.97654 4.8807 6.97654 4.5445V2.30614C6.97654 1.97009 6.7035 1.6969 6.3673 1.6969C6.03125 1.6969 5.75806 1.96994 5.75806 2.30614V4.5445C5.75806 4.88055 6.0311 5.15374 6.3673 5.15374Z" fill="#7782AA"/>
<path d="M11.9994 5.15374C12.3354 5.15374 12.6086 4.8807 12.6086 4.5445V2.30614C12.6086 1.97009 12.3356 1.6969 11.9994 1.6969C11.6633 1.6969 11.3901 1.96994 11.3901 2.30614V4.5445C11.3901 4.88055 11.6632 5.15374 11.9994 5.15374Z" fill="#7782AA"/>
<path d="M20.6473 2.98167H19.0297V4.54322C19.0297 5.31823 18.3995 5.95077 17.6222 5.95077C16.8449 5.95077 16.2146 5.32052 16.2146 4.54322V2.98167H13.3998V4.54322C13.3998 5.31823 12.7695 5.95077 11.9922 5.95077C11.2149 5.95077 10.5847 5.32052 10.5847 4.54322V2.98167H7.76978V4.54322C7.76978 5.31823 7.13953 5.95077 6.36223 5.95077C5.58498 5.95077 4.95468 5.32052 4.95468 4.54322V2.98167H3.35812C2.61358 2.98167 2.00659 3.58849 2.00659 4.33319L2.00708 20.9495C2.00708 21.694 2.6139 22.301 3.35861 22.301L20.6472 22.3008C21.3917 22.3008 21.9987 21.694 21.9987 20.9493L21.9986 4.33053C21.9986 3.58599 21.3917 2.979 20.647 2.979L20.6473 2.98167ZM21.2005 20.9517C21.2005 21.2575 20.953 21.505 20.6473 21.505H3.36579C3.06003 21.505 2.81257 21.2575 2.81257 20.9517V7.97664H21.2007L21.2005 20.9517Z" fill="#7782AA" stroke="#7782AA" stroke-width="0.5"/>
<path d="M9.07751 19.0016C8.48718 19.0016 7.96244 18.8961 7.5033 18.685C7.04689 18.474 6.68613 18.1803 6.42103 17.8039C6.15593 17.4274 6.01518 16.9926 5.99878 16.4992H7.54019C7.55386 16.7359 7.62902 16.9427 7.76567 17.1195C7.90232 17.2934 8.08406 17.4289 8.3109 17.5258C8.53774 17.6228 8.79191 17.6713 9.07341 17.6713C9.37404 17.6713 9.64051 17.6171 9.87281 17.5087C10.1051 17.3975 10.2869 17.2435 10.418 17.0467C10.5492 16.85 10.6135 16.6233 10.6107 16.3666C10.6135 16.1014 10.5479 15.8676 10.4139 15.6651C10.28 15.4626 10.086 15.3043 9.83182 15.1903C9.58038 15.0762 9.27702 15.0192 8.92173 15.0192H8.17972V13.7958H8.92173C9.21416 13.7958 9.46969 13.743 9.68834 13.6375C9.90971 13.532 10.0833 13.3837 10.209 13.1927C10.3347 12.9987 10.3962 12.7749 10.3935 12.5211C10.3962 12.273 10.3429 12.0577 10.2336 11.8752C10.127 11.6898 9.9753 11.5458 9.77852 11.4431C9.58448 11.3405 9.35628 11.2891 9.09391 11.2891C8.837 11.2891 8.59923 11.3376 8.38059 11.4346C8.16195 11.5315 7.98567 11.6698 7.85176 11.8495C7.71784 12.0263 7.64678 12.2373 7.63858 12.4826H6.17506C6.18599 11.9921 6.32127 11.5615 6.58091 11.1908C6.84328 10.8172 7.1931 10.5263 7.63038 10.3181C8.06766 10.1071 8.55824 10.0016 9.10211 10.0016C9.66237 10.0016 10.1488 10.1114 10.5615 10.331C10.9769 10.5477 11.2981 10.84 11.5249 11.2079C11.7518 11.5757 11.8652 11.9821 11.8652 12.427C11.8679 12.9203 11.7285 13.3338 11.447 13.6675C11.1683 14.0011 10.802 14.2193 10.3484 14.3219V14.3904C10.9387 14.4759 11.391 14.7041 11.7053 15.0748C12.0223 15.4427 12.1795 15.9004 12.1767 16.4479C12.1767 16.9384 12.0428 17.3775 11.775 17.7654C11.5099 18.1504 11.1437 18.4526 10.6763 18.6722C10.2117 18.8918 9.67877 19.0016 9.07751 19.0016Z" fill="#7782AA"/>
<path d="M16.9988 10.1214V18.8818H15.4779V11.6656H15.4287L13.465 12.9745V11.5201L15.5517 10.1214H16.9988Z" fill="#7782AA"/>
</svg>
