<svg width="14" height="14" viewBox="0 0 14 14" fill="none" xmlns="http://www.w3.org/2000/svg">
<path d="M10.3271 6.62578L11.4389 5.53436L10.3271 4.44294L9.21532 5.53436L10.3271 6.62578ZM10.67 6.96239L11.4384 7.71678C11.807 7.30509 12.0738 6.82427 12.2401 6.32094L11.7817 5.87097L10.67 6.96239ZM12.418 4.57309C12.3442 3.98506 12.1301 3.44065 11.7781 3.01839L10.67 4.10633L11.7817 5.19775L12.418 4.57309ZM12.4432 5.22155L12.1246 5.53436L12.3783 5.78343C12.4132 5.59623 12.4348 5.40817 12.4432 5.22155ZM9.98424 6.96239L8.8725 5.87097L7.7607 6.96239L8.8725 8.05381L9.98424 6.96239ZM10.3271 7.299L9.21532 8.39042L9.68663 8.85312C10.1917 8.68548 10.6755 8.41913 11.0959 8.05371L10.3271 7.299ZM7.87416 9.03396L8.52962 8.39042L7.41789 7.299L6.30903 8.38753C6.74227 8.74045 7.2876 8.95616 7.87416 9.03396ZM8.52924 9.06401C8.73344 9.05631 8.93944 9.033 9.14446 8.99401L8.8725 8.72703L8.52924 9.06401ZM7.7607 4.10633L8.8725 5.19775L9.98424 4.10633L8.8725 3.01488L7.7607 4.10633ZM7.41789 3.76974L8.52962 2.67829L8.07128 2.22832C7.55858 2.39156 7.0688 2.65345 6.64946 3.01535L7.41789 3.76974ZM9.85166 2.05361L9.21532 2.67829L10.3271 3.76974L11.4353 2.68179C11.0052 2.33629 10.4506 2.12614 9.85166 2.05361ZM9.19108 2.02891C9.00104 2.03714 8.80948 2.05836 8.61879 2.09264L8.8725 2.3417L9.19108 2.02891ZM7.41789 4.44294L6.30609 5.53436L7.41789 6.62578L8.52962 5.53436L7.41789 4.44294ZM7.07501 4.10633L6.30625 3.35162C5.93402 3.76423 5.66272 4.23932 5.49196 4.73511L5.96327 5.19775L7.07501 4.10633ZM5.30775 6.51445C5.387 7.0903 5.60673 7.62561 5.96621 8.05093L7.07501 6.96239L5.96327 5.87097L5.30775 6.51445ZM5.27714 5.87134L5.6204 5.53436L5.34844 5.26737C5.30873 5.46864 5.28499 5.67088 5.27714 5.87134ZM4.69074 7.82736C4.03375 9.58563 3.50362 10.7061 3.07705 11.2204L3.04392 11.2564L2.01535 12.2662L3.06197 11.2396C3.33923 10.994 3.83326 10.7269 4.53159 10.4204C4.83176 10.2886 5.16592 10.1516 5.5284 10.0107C5.85178 9.88497 6.18833 9.75963 6.53023 9.6367C6.12825 9.45585 5.75994 9.21052 5.44392 8.90028C5.12616 8.58832 4.87528 8.22444 4.69074 7.82736ZM4.30489 6.03866C4.29988 4.78596 4.79706 3.47668 5.7868 2.50504C7.60885 0.716268 10.7072 0.603714 12.3011 2.16845C13.8949 3.73319 13.7803 6.77492 11.9582 8.56367C10.9685 9.53531 9.63483 10.0234 8.35881 10.0185C8.35179 10.0211 8.3446 10.0236 8.33735 10.0259C8.29994 10.0379 8.22864 10.0611 8.12836 10.0943C7.9606 10.1497 7.77351 10.2126 7.57192 10.2819C6.99647 10.4795 6.42118 10.6875 5.88549 10.8958C5.53526 11.032 5.21374 11.1638 4.92746 11.2895C4.31916 11.5565 3.88969 11.7887 3.72963 11.9296L2.35821 13.276C2.16885 13.4618 1.86185 13.4618 1.67249 13.276L0.986782 12.6027C0.797425 12.4169 0.797425 12.1155 0.986782 11.9296L2.33951 10.6016C2.77382 10.062 3.44191 8.52603 4.29923 6.05411C4.30103 6.04892 4.30288 6.04374 4.30489 6.03866ZM1.92071 3.38494C2.00919 3.01571 2.20026 2.67474 2.48104 2.39909C2.74728 2.13773 3.07339 1.95545 3.42745 1.86321C3.29782 1.49063 2.98519 1.2013 2.59479 1.09855C2.4986 1.43564 2.31573 1.74585 2.05653 2.00032C1.78879 2.26317 1.46047 2.44604 1.10405 2.53777C1.20679 2.941 1.51907 3.26272 1.92071 3.38494ZM2.40905 3.43144C2.98685 3.37144 3.44354 2.91293 3.48859 2.34113C3.24077 2.41643 3.01302 2.55002 2.8239 2.73568C2.62357 2.93235 2.48281 3.17156 2.40905 3.43144ZM1.08514 2.04683C1.31896 1.9698 1.5338 1.84032 1.71367 1.66373C1.88696 1.49361 2.01572 1.29165 2.09508 1.07181C1.58041 1.14918 1.17232 1.54432 1.08514 2.04683ZM2.28006 3.9141C1.3428 3.9141 0.583008 3.1682 0.583008 2.24807C0.583008 1.32794 1.3428 0.582031 2.28006 0.582031C3.21732 0.582031 3.97711 1.32794 3.97711 2.24807C3.97711 3.1682 3.21732 3.9141 2.28006 3.9141Z" fill="#7782AA"/>
</svg>
