<svg width="14" height="14" viewBox="0 0 14 14" fill="none" xmlns="http://www.w3.org/2000/svg">
<path d="M11.6417 7.97762C11.9872 7.62716 12.2742 7.22564 12.4918 6.78827C12.4982 6.69121 12.5015 6.59335 12.5015 6.49467C12.5015 5.79047 12.3351 5.12469 12.0391 4.53381C11.5037 4.2549 10.9172 4.08098 10.3062 4.0243L9.29625 5.73962C9.63674 6.39282 9.82892 7.11187 9.86179 7.84491L11.6417 7.97762ZM11.9147 8.34843V8.68617C12.04 8.46942 12.1473 8.24117 12.2345 8.00342C12.1335 8.12295 12.0268 8.23809 11.9147 8.34843ZM11.457 9.33548V8.41802L9.73796 8.2898L8.5764 9.60615L9.40706 10.7027C10.2155 10.4445 10.9232 9.96464 11.457 9.33548ZM8.929 10.8267L8.17016 9.82501C7.27852 9.80396 6.42311 9.55722 5.67081 9.11379C5.56224 9.04976 5.52667 8.91078 5.59134 8.80337C5.65606 8.69591 5.79652 8.66071 5.90509 8.72475C6.58848 9.12757 7.36493 9.35204 8.17527 9.37214L9.40813 7.97499C9.39307 7.25554 9.20963 6.548 8.87046 5.91121L6.26845 5.31179V3.22188L8.58906 2.32768C8.63051 2.25926 8.67359 2.1918 8.71825 2.12536C8.49489 2.09135 8.26602 2.0737 8.03302 2.0737C7.30399 2.0737 6.60104 2.24625 5.9695 2.5722C5.74538 2.68787 5.46889 2.60188 5.35195 2.38013C5.23506 2.15838 5.32194 1.88484 5.54611 1.76916C6.3076 1.37614 7.15571 1.16797 8.03302 1.16797C11.0065 1.16797 13.417 3.55281 13.417 6.49467C13.417 9.43653 11.0065 11.8213 8.03302 11.8213C7.16383 11.8213 6.32322 11.617 5.56704 11.2309C5.3424 11.1162 5.25426 10.8431 5.37022 10.6208C5.48614 10.3985 5.76222 10.3113 5.98691 10.426C6.61401 10.7463 7.31072 10.9156 8.03302 10.9156C8.33988 10.9156 8.63954 10.885 8.929 10.8267ZM10.2183 3.56294C10.7012 3.59554 11.1715 3.69467 11.6182 3.85535C11.0284 3.0725 10.1829 2.48935 9.20406 2.22707C9.13317 2.32389 9.06625 2.42331 9.00332 2.52512L10.2183 3.56294ZM1.16699 12.8346V7.40037L2.08247 3.32459L2.99793 1.51313C3.08482 1.32792 3.24713 1.10894 3.4721 1.23205C3.62208 1.31412 3.6166 1.55877 3.45567 1.96599L2.99793 3.32459V6.94755L3.45567 8.75899L4.82887 6.0418C4.92907 5.84077 5.25257 5.73255 5.54627 5.87783C5.83996 6.02312 5.7855 6.37045 5.74436 6.49467L4.82887 10.1176L3.45567 11.4762V12.8346H1.16699ZM8.62469 2.79997L6.7262 3.53151V4.95229L8.93099 5.46021L9.87062 3.86429L8.62469 2.79997Z" fill="#7782AA"/>
</svg>
