<svg width="20" height="20" viewBox="0 0 20 20" fill="none" xmlns="http://www.w3.org/2000/svg">
<path d="M2.82313 8.76288L5.0511 9.68677H5.05097C4.79977 10.321 4.59948 10.9741 4.45183 11.6401L4.3673 12.0242L7.56136 15.2201L7.94545 15.1376V15.1375C8.61143 14.9898 9.26455 14.7895 9.89878 14.5383L10.8227 16.7663L10.8225 16.7662C10.8409 16.8111 10.8807 16.8436 10.9282 16.853C10.9758 16.8622 11.0248 16.847 11.0587 16.8123L12.455 15.416H12.4551C12.9159 14.9553 13.1601 14.321 13.1273 13.6702L13.0775 12.7733C15.6626 10.8642 18.2783 7.51654 18.991 1.67402C19.032 1.37714 18.9319 1.07811 18.7205 0.865503C18.5092 0.653022 18.2107 0.551472 17.9136 0.590859C12.0728 1.30908 8.72331 3.92694 6.81433 6.50437L5.91924 6.45828C5.26986 6.42292 4.63577 6.66367 4.17345 7.12091L2.77717 8.51718C2.73779 8.55067 2.7193 8.60265 2.72881 8.65356C2.73832 8.70434 2.77436 8.74614 2.82326 8.76302L2.82313 8.76288ZM11.7809 5.35957C12.1053 5.03616 12.5449 4.85489 13.003 4.85544C13.4611 4.85597 13.9003 5.03831 14.224 5.36238C14.5477 5.68646 14.7296 6.12591 14.7296 6.58395C14.7296 7.04199 14.5477 7.48143 14.224 7.80551C13.9003 8.12959 13.4612 8.31208 13.003 8.31245C12.5449 8.31299 12.1053 8.13173 11.7809 7.80832C11.4553 7.48397 11.2724 7.04346 11.2724 6.58395C11.2724 6.12443 11.4553 5.68392 11.7809 5.35957ZM2.40607 15.4755C2.03632 15.3457 1.63936 15.3139 1.25362 15.3832C1.18396 15.3983 1.11147 15.3766 1.06163 15.3256C0.999337 15.2636 0.982456 15.1693 1.0193 15.0894C1.42846 14.2098 2.51362 12.4409 4.47851 13.8698C4.49927 13.8883 4.5112 13.915 4.5112 13.9427C4.5112 13.9706 4.49927 13.9972 4.47851 14.0157C3.94502 14.4359 3.64344 15.0848 3.66608 15.7635C3.66903 15.845 3.7344 15.9104 3.81586 15.9133C4.49162 15.9405 5.14018 15.6455 5.56368 15.1182C5.5823 15.0954 5.61017 15.0821 5.63951 15.0821C5.66898 15.0821 5.69685 15.0954 5.71547 15.1182C5.98824 15.4428 6.73917 16.5029 5.90759 17.5266H5.90745C5.54438 17.9631 5.02416 18.239 4.45932 18.295C3.65265 18.3814 2.1622 18.6445 1.55343 19.3398C1.50359 19.3988 1.42535 19.4256 1.34979 19.4095C1.27436 19.3934 1.21381 19.3371 1.19223 19.2629C0.977208 18.5293 0.642931 16.889 2.40618 15.4755L2.40607 15.4755Z" fill="#7782AA"/>
</svg>
