<svg width="16" height="16" viewBox="0 0 16 16" fill="none" xmlns="http://www.w3.org/2000/svg">
<path fill-rule="evenodd" clip-rule="evenodd" d="M0.5 2.16797C0.5 1.33954 1.17157 0.667969 2 0.667969H2.5H3H3.5H11C11.8284 0.667969 12.5 1.33954 12.5 2.16797V8.16797V8.66797H12C10.067 8.66797 8.5 10.235 8.5 12.168C8.5 12.4709 8.53836 12.7641 8.61024 13.0433L8.77101 13.668H8.12602H3H2.5V13.168V5.66797H1H0.5V5.16797V2.16797ZM2 1.66797H2.5V4.66797H1.5V2.16797C1.5 1.89183 1.72386 1.66797 2 1.66797ZM3.5 5.16797V1.66797H11C11.2761 1.66797 11.5 1.89183 11.5 2.16797V7.69543C9.25001 7.94415 7.5 9.85169 7.5 12.168C7.5 12.3368 7.50933 12.5037 7.52751 12.668H3.5V5.66797V5.16797ZM12 9.16797C10.3431 9.16797 9 10.5111 9 12.168C9 13.8248 10.3431 15.168 12 15.168C13.6569 15.168 15 13.8248 15 12.168C15 10.5111 13.6569 9.16797 12 9.16797ZM11.8653 14.4053L11.8727 14.0112C11.6484 13.9992 11.4496 13.956 11.2765 13.8815C11.0714 13.7928 10.9131 13.6564 10.8016 13.4723C10.6912 13.287 10.6382 13.0501 10.6425 12.7615H11.4699C11.4731 12.8671 11.496 12.9558 11.5385 13.0276C11.5811 13.0995 11.6417 13.154 11.7204 13.191C11.77 13.2141 11.8256 13.2299 11.8871 13.2386L11.899 12.6055L11.6431 12.546C11.3602 12.4797 11.1382 12.3691 10.9771 12.2142C10.8171 12.0581 10.7401 11.8453 10.7462 11.5759C10.7493 11.3569 10.8072 11.1655 10.9199 11.0015C11.0337 10.8365 11.1892 10.7079 11.3862 10.6159C11.5511 10.5392 11.7353 10.4945 11.9387 10.4816L11.946 10.0938H12.203L12.1957 10.482C12.3996 10.4953 12.5789 10.5405 12.7338 10.6175C12.9211 10.7107 13.0643 10.8421 13.1635 11.0116C13.2638 11.1801 13.3124 11.3771 13.3092 11.6028H12.4756C12.4693 11.4905 12.4318 11.4029 12.363 11.3401C12.3183 11.2986 12.2577 11.2708 12.1812 11.2567L12.1699 11.8588L12.3447 11.8992C12.5215 11.9396 12.6725 11.993 12.7977 12.0592C12.9228 12.1255 13.0248 12.2035 13.1035 12.2933C13.1823 12.382 13.2394 12.482 13.275 12.5931C13.3115 12.7043 13.3291 12.8255 13.3277 12.9569C13.3224 13.1837 13.2661 13.3757 13.1587 13.5329C13.0513 13.6901 12.8996 13.8097 12.7038 13.8916C12.5397 13.9607 12.3483 14.0007 12.1296 14.0115L12.1223 14.4053H11.8653ZM12.2402 13.2095C12.2113 13.2208 12.1793 13.2296 12.1442 13.2357L12.1547 12.6753C12.1877 12.6869 12.2172 12.6988 12.2433 12.711C12.3127 12.7425 12.3622 12.7784 12.3917 12.8188C12.4223 12.8581 12.4376 12.9041 12.4377 12.9569C12.4356 13.013 12.4179 13.063 12.3847 13.1068C12.3515 13.1506 12.3034 13.1848 12.2402 13.2095ZM11.9243 11.255L11.9142 11.7917C11.9046 11.7883 11.8953 11.7848 11.8862 11.7813C11.8312 11.76 11.7862 11.7364 11.7512 11.7106C11.7162 11.6836 11.6906 11.6539 11.6745 11.6213C11.6595 11.5876 11.6534 11.55 11.6563 11.5085C11.6583 11.458 11.6732 11.413 11.7011 11.3737C11.729 11.3345 11.7714 11.3036 11.8282 11.2811C11.8564 11.2696 11.8884 11.2609 11.9243 11.255ZM10 3.16797H5V4.16797H10V3.16797ZM5 5.16797H10V6.16797H5V5.16797ZM8 7.16797H5V8.16797H8V7.16797Z" fill="#7782AA"/>
</svg>
