<svg width="24" height="24" viewBox="0 0 24 24" fill="none" xmlns="http://www.w3.org/2000/svg">
<path fill-rule="evenodd" clip-rule="evenodd" d="M19.0362 10.3631C19.0362 10.3631 20.752 11.6909 20.986 12.7842H22V16.9235C22 16.9235 19.8942 19.1103 18.2562 19.1103L17.3983 22H15.0585L14.5906 20.6723H9.59895L9.36488 22H7.10304L6.40102 19.1885C5.07508 18.1731 4.52926 16.5332 4.45116 14.893V14.6586H1.64349C0.785503 14.6586 0.785503 13.3309 1.64349 13.3309H4.52926C4.84122 10.3632 6.47912 8.41038 9.13081 7.55122C9.52086 8.09797 9.9888 8.48841 10.6127 8.80077C9.9107 8.95697 9.9888 9.97236 10.6908 9.97236H14.2005C14.9804 9.97236 14.9804 8.80077 14.2005 8.80077C14.7465 8.56639 15.2144 8.09779 15.5264 7.62919C16.0724 7.94158 16.5404 8.25397 16.9303 8.72257C16.9303 8.72257 18.6461 7.16059 20.128 7.55098C20.128 7.55098 19.0362 7.94217 19.0362 10.3631ZM17.7886 11.5348C17.1647 11.5348 16.6186 12.0815 16.6186 12.7064C16.6186 13.4094 17.1646 13.9559 17.7886 13.9559C18.4125 13.9559 18.9585 13.4092 18.9585 12.7064C18.9585 12.0816 18.4125 11.5348 17.7886 11.5348Z" fill="#7782AA"/>
<path fill-rule="evenodd" clip-rule="evenodd" d="M12.4631 2C14.3349 2 15.8168 3.48395 15.8168 5.35829C15.8168 7.23262 14.3349 8.71657 12.4631 8.71657C10.6692 8.71657 9.1875 7.23262 9.1875 5.35829C9.1875 3.48395 10.6694 2 12.4631 2ZM10.8252 6.06127L11.6832 5.98308C11.7613 6.52984 11.9952 6.76404 12.5412 6.76404C12.8532 6.76404 13.3211 6.60785 13.3211 6.21729C13.3211 5.82673 12.6191 5.67053 12.3071 5.59251C11.6051 5.43631 10.9812 5.20193 10.9812 4.42093C10.9812 3.71794 11.5272 3.40557 12.1512 3.32755V2.85896H12.8532V3.32755C13.4771 3.40574 14.0232 3.71813 14.0232 4.49913L13.1652 4.57732C13.1652 4.10873 12.9311 3.95254 12.4632 3.95254C12.2291 3.95254 11.7611 4.03073 11.7611 4.34313C11.7611 4.73371 12.3851 4.81172 12.6191 4.88988C13.399 5.04608 14.101 5.28047 14.101 6.21765C14.101 6.99861 13.555 7.38923 12.8532 7.46721V7.85779H12.1512V7.46721C11.4492 7.31101 10.9812 6.9203 10.8252 6.06127Z" fill="#7782AA"/>
</svg>
