<svg width="24" height="24" viewBox="0 0 24 24" fill="none" xmlns="http://www.w3.org/2000/svg">
<path d="M23.9269 15.1357L22.5319 9.20317C21.8254 6.56636 19.436 4.73303 16.706 4.73303H7.29392C4.56397 4.73303 2.17461 6.56631 1.46806 9.20317L0.0730637 15.1357C-0.28403 16.8374 0.698376 18.5352 2.35241 19.0732L2.43397 19.0994C3.96481 19.5978 5.63497 18.9555 6.43845 17.5604L7.65224 15.7656C7.95702 15.2365 8.5212 14.9102 9.13114 14.9102H14.8689C15.4789 14.9102 16.043 15.2365 16.3478 15.7656L17.5616 17.5604C18.3651 18.9555 20.0356 19.5978 21.5665 19.0994L21.6477 19.0732C23.3015 18.5352 24.284 16.8374 23.9269 15.1357ZM8.95527 11.1601H7.00109V13.1146H5.29977V11.1601H3.3456V9.45949H5.29977V7.50573H7.00109V9.45949H8.95527V11.1601ZM17.5654 7.09858C18.1572 7.09858 18.6363 7.57769 18.6363 8.16958C18.6363 8.76067 18.1572 9.23978 17.5654 9.23978C16.9743 9.23978 16.4952 8.76067 16.4952 8.16958C16.4952 7.57764 16.9743 7.09858 17.5654 7.09858ZM15.4242 11.3813C14.8331 11.3813 14.3536 10.9018 14.3536 10.3099C14.3536 9.71922 14.8331 9.23974 15.4242 9.23974C16.0156 9.23974 16.4947 9.71922 16.4947 10.3099C16.4948 10.9018 16.0157 11.3813 15.4242 11.3813ZM17.5654 13.5221C16.9743 13.5221 16.4952 13.043 16.4952 12.4519C16.4952 11.86 16.9743 11.3809 17.5654 11.3809C18.1572 11.3809 18.6363 11.86 18.6363 12.4519C18.6363 13.043 18.1572 13.5221 17.5654 13.5221ZM19.7065 11.3813C19.1154 11.3813 18.6363 10.9018 18.6363 10.3099C18.6363 9.71922 19.1154 9.23974 19.7065 9.23974C20.298 9.23974 20.7775 9.71922 20.7775 10.3099C20.7775 10.9018 20.298 11.3813 19.7065 11.3813Z" fill="#7782AA"/>
</svg>
