<svg width="48" height="48" viewBox="0 0 48 48" fill="none" xmlns="http://www.w3.org/2000/svg">
<circle cx="24" cy="24" r="24" fill="#131828"/>
<g clip-path="url(#clip0_1_5950)">
<path fill-rule="evenodd" clip-rule="evenodd" d="M20.2865 19.3504H25.4239V21.9841L25.4982 21.9843C26.2137 20.7007 27.9631 19.3506 30.5718 19.3506C35.9967 19.3504 37 22.7264 37 27.1182V36.0643L31.6423 36.0645V28.134C31.6423 26.2435 31.6029 23.8099 28.8564 23.8099C26.0667 23.8099 25.6393 25.8678 25.6393 27.9964V36.0645H20.2865V19.3506V19.3504ZM16.5722 14.7077C16.5722 16.2456 15.3242 17.4935 13.7863 17.4935C12.2485 17.4935 11 16.2455 11 14.7077C11 13.1699 12.2485 11.9219 13.7863 11.9219C15.3242 11.9219 16.5722 13.1699 16.5722 14.7077ZM11 19.3504H16.5722V36.0644H11V19.3504Z" fill="white"/>
</g>
<defs>
<clipPath id="clip0_1_5950">
<rect width="26" height="26" fill="white" transform="translate(11 11)"/>
</clipPath>
</defs>
</svg>
