<svg width="24" height="24" viewBox="0 0 24 24" fill="none" xmlns="http://www.w3.org/2000/svg">
<circle cx="12" cy="12" r="10" fill="#7782AA"/>
<path d="M3.85691 16.5V7.25936H7.50263C8.2035 7.25936 8.80059 7.39322 9.29391 7.66093C9.78722 7.92564 10.1632 8.29412 10.4219 8.76638C10.6836 9.23563 10.8145 9.77707 10.8145 10.3907C10.8145 11.0043 10.6821 11.5458 10.4174 12.015C10.1527 12.4843 9.76918 12.8498 9.26684 13.1115C8.76751 13.3732 8.16289 13.504 7.453 13.504H5.1293V11.9383H7.13716C7.51316 11.9383 7.82299 11.8737 8.06664 11.7443C8.31329 11.612 8.49678 11.43 8.6171 11.1984C8.74043 10.9637 8.8021 10.6945 8.8021 10.3907C8.8021 10.0839 8.74043 9.81618 8.6171 9.58757C8.49678 9.35595 8.31329 9.17697 8.06664 9.05064C7.81998 8.92129 7.50714 8.85662 7.12813 8.85662H5.81062V16.5H3.85691ZM18.2108 10.2463C18.1476 10.0267 18.0589 9.83272 17.9446 9.66427C17.8303 9.49281 17.6904 9.34843 17.525 9.23112C17.3625 9.1108 17.1761 9.01905 16.9655 8.95588C16.7579 8.89271 16.5278 8.86113 16.2751 8.86113C15.8029 8.86113 15.3878 8.97844 15.0298 9.21307C14.6749 9.44769 14.3981 9.7891 14.1996 10.2373C14.0011 10.6825 13.9018 11.2269 13.9018 11.8707C13.9018 12.5144 13.9996 13.0618 14.1951 13.513C14.3906 13.9642 14.6674 14.3087 15.0253 14.5463C15.3833 14.7809 15.8059 14.8982 16.2932 14.8982C16.7354 14.8982 17.1129 14.82 17.4257 14.6636C17.7416 14.5042 17.9822 14.2801 18.1476 13.9913C18.3161 13.7025 18.4003 13.3611 18.4003 12.9671L18.7974 13.0257H16.415V11.5548H20.2818V12.7189C20.2818 13.5311 20.1104 14.2289 19.7675 14.8125C19.4245 15.393 18.9523 15.8412 18.3507 16.1571C17.7491 16.4699 17.0602 16.6263 16.2842 16.6263C15.4179 16.6263 14.6568 16.4353 14.0011 16.0533C13.3453 15.6683 12.834 15.1223 12.467 14.4154C12.103 13.7055 11.921 12.8633 11.921 11.8887C11.921 11.1397 12.0293 10.4719 12.2459 9.88536C12.4655 9.29579 12.7723 8.79646 13.1664 8.38737C13.5604 7.97828 14.0191 7.66695 14.5425 7.45338C15.0659 7.23981 15.6329 7.13302 16.2436 7.13302C16.767 7.13302 17.2543 7.20973 17.7055 7.36314C18.1567 7.51354 18.5567 7.72711 18.9057 8.00384C19.2576 8.28058 19.5449 8.60996 19.7675 8.99198C19.9901 9.37099 20.1329 9.7891 20.1961 10.2463H18.2108Z" fill="#1D2027"/>
</svg>
