<svg width="24" height="24" viewBox="0 0 24 24" fill="none" xmlns="http://www.w3.org/2000/svg">
<path d="M4.28809 19.7583C4.28809 20.466 4.86717 21.0451 5.57495 21.0451H9.43554V11.7969H4.28809V19.7583Z" fill="#7782AA"/>
<path d="M19.7133 6.83554H17.7101C18.0575 6.41088 18.2463 5.87898 18.2463 5.32134C18.2463 4.01303 17.1825 2.94922 15.8742 2.94922C14.553 2.94922 13.3905 3.69131 12.5112 5.09399C12.3053 5.42 12.1423 5.74171 12.0093 6.0334C11.8763 5.74171 11.7133 5.42 11.5074 5.09399C10.6281 3.69131 9.46131 2.94922 8.14442 2.94922C6.83611 2.94922 5.7723 4.01303 5.7723 5.32134C5.7723 5.88327 5.96104 6.41088 6.30849 6.83554H4.27954C3.57176 6.83554 2.99268 7.41463 2.99268 8.12241V10.9449H21.0002V8.12241C21.0002 7.41034 20.4211 6.83554 19.7133 6.83554ZM15.8742 3.80284C16.6978 3.80284 17.3884 4.49774 17.3884 5.31705C17.3884 6.16638 16.7321 6.83126 15.8956 6.83126H12.6013C12.983 5.83608 13.9911 3.80284 15.8742 3.80284ZM6.62592 5.31705C6.62592 4.49345 7.32082 3.80284 8.14013 3.80284C10.0232 3.80284 11.027 5.83608 11.4088 6.83554H8.11439C7.28222 6.83554 6.62592 6.16638 6.62592 5.31705Z" fill="#7782AA"/>
<path d="M13.7251 11.7969H10.2935V21.0451H13.7251V11.7969Z" fill="#7782AA"/>
<path d="M14.583 21.0451H18.4436C19.1514 21.0451 19.7305 20.466 19.7305 19.7583V11.7969H14.583V21.0451Z" fill="#7782AA"/>
</svg>
