<svg width="14" height="14" viewBox="0 0 14 14" fill="none" xmlns="http://www.w3.org/2000/svg">
<path d="M8.11323 1.42937C8.01676 1.3329 8.08511 1.16797 8.22149 1.16797H11.1092C11.1498 1.16797 11.1888 1.1841 11.2175 1.21282L12.7881 2.78351C12.8169 2.81222 12.833 2.85117 12.833 2.89179V5.77948C12.833 5.91586 12.6681 5.98421 12.5716 5.88774L8.11323 1.42937Z" fill="white"/>
<path d="M10.0198 13.3641C10.0489 13.3983 10.0916 13.418 10.1364 13.418H12.1468C12.223 13.418 12.2875 13.3619 12.2983 13.2865L12.8202 9.63338C12.8281 9.57805 12.8053 9.52288 12.7606 9.48929L1.7962 1.24785C1.73524 1.20203 1.64984 1.20806 1.59592 1.26198L0.682905 2.17499C0.626474 2.23142 0.622849 2.32173 0.674565 2.3825L7.17274 10.0184C7.18815 10.0366 7.20755 10.0508 7.22944 10.0601L8.26457 10.5003C8.30893 10.5192 8.34185 10.5578 8.35333 10.6047L8.62227 11.6969C8.62799 11.72 8.63896 11.7414 8.65432 11.7595L10.0198 13.3641Z" fill="white"/>
<path d="M0.583008 11.6941C0.583008 11.7348 0.599142 11.7737 0.627858 11.8024L2.19855 13.3731C2.22727 13.4018 2.26622 13.418 2.30683 13.418H5.19452C5.33091 13.418 5.39925 13.2531 5.30278 13.1566L0.844408 8.6982C0.747944 8.60173 0.583008 8.67007 0.583008 8.80646V11.6941Z" fill="white"/>
</svg>
