<svg width="14" height="14" viewBox="0 0 14 14" fill="none" xmlns="http://www.w3.org/2000/svg">
<path fill-rule="evenodd" clip-rule="evenodd" d="M7.7578 1.56555L6.8828 3.02389L6.53265 2.8138L7.40765 1.35547L7.7578 1.56555ZM4.79358 3.97908L2.59907 3.70477L2.64972 3.29959L5.12187 3.60861V4.96029L2.55315 8.2299L2.80085 9.46842L7.27338 10.8661L8.22694 10.3893L6.50356 4.68906L7.08689 3.53235L10.9074 4.48749L12.2015 6.10508L10.0958 10.0156L9.7363 9.82205L11.7139 6.14928L10.6747 4.8502L7.49523 4.05534L6.91189 4.64863L8.68851 10.6151L7.30873 11.3049L2.44793 9.78594L2.1123 8.10779L4.67272 4.84731L4.79358 3.97908Z" fill="#7782AA"/>
<path fill-rule="evenodd" clip-rule="evenodd" d="M7.4125 12.5362C7.18203 12.5669 6.94687 12.5827 6.70801 12.5827C5.36014 12.5827 4.13001 12.0786 3.19589 11.2486L4.08301 9.91797L3.05862 7.44274H1.42031C1.41893 7.39299 1.41824 7.34306 1.41824 7.29297C1.41824 4.37151 3.78655 2.0032 6.70801 2.0032C8.28753 2.0032 9.70537 2.69549 10.6746 3.79321L10.4997 4.66797L11.3747 7.44274L11.992 7.54285C11.9299 8.87822 11.3726 10.0842 10.4997 10.9815V8.7513L7.87467 8.45964L6.41634 10.793L7.4125 12.5362ZM12.833 7.29297C12.833 10.6757 10.0908 13.418 6.70801 13.418C3.32526 13.418 0.583008 10.6757 0.583008 7.29297C0.583008 3.91022 3.32526 1.16797 6.70801 1.16797C10.0908 1.16797 12.833 3.91022 12.833 7.29297ZM7.15618 2.33464L4.08301 3.5013V5.83464L7.29134 6.41797L8.45801 4.08464L7.15618 2.33464Z" fill="#7782AA"/>
</svg>
