<svg width="24" height="24" viewBox="0 0 24 24" fill="none" xmlns="http://www.w3.org/2000/svg">
<path fill-rule="evenodd" clip-rule="evenodd" d="M16.5559 6.65217H19.6699L20.7708 22.4587H3.22949L4.33015 6.65217H7.44409C7.50676 3.82134 9.52699 1.54129 12 1.54129C14.473 1.54129 16.4932 3.82134 16.5559 6.65217ZM11.141 6.67474C11.2671 6.66231 11.3698 6.65217 11.9998 6.65217C12.852 6.65217 13.4917 6.67072 14.1022 6.68843C14.6594 6.70459 15.1922 6.72004 15.8401 6.72004C15.8401 3.7376 13.8458 2.40004 11.9998 2.40004C10.1537 2.40004 8.63719 3.33393 8.16013 6.72004C10.6817 6.72004 10.9408 6.69449 11.141 6.67474ZM13.1856 13.2484L12.0001 9.60004L10.8147 13.2484H6.97855L10.0821 15.5033L8.89662 19.1516L12.0001 16.8968L15.1036 19.1516L13.9182 15.5033L17.0217 13.2484H13.1856Z" fill="#7782AA"/>
</svg>
