<svg width="24" height="24" viewBox="0 0 24 24" fill="none" xmlns="http://www.w3.org/2000/svg">
<g clip-path="url(#clip0_1265_2153)">
<path d="M12.6573 18.9995L12.6573 8.43307L17.1105 12.8863C17.5981 13.3739 18.3964 13.3739 18.884 12.8863C19.3717 12.3987 19.3717 11.6104 18.884 11.1227L12.294 4.53273C11.8064 4.0451 11.0181 4.0451 10.5305 4.53273L3.94048 11.1227C3.45285 11.6104 3.45285 12.3987 3.94048 12.8863C4.42811 13.3739 5.2164 13.3739 5.70403 12.8863L10.1573 8.43307L10.1573 18.9995C10.1573 19.6876 10.7192 20.2495 11.4073 20.2495C12.0953 20.2495 12.6573 19.6876 12.6573 18.9995Z" fill="black" stroke="black" stroke-width="0.5"/>
</g>
<defs>
<clipPath id="clip0_1265_2153">
<rect width="24" height="24" fill="white" transform="translate(23.9998 23.9995) rotate(180)"/>
</clipPath>
</defs>
</svg>
