<svg width="38" height="38" viewBox="0 0 38 38" fill="none" xmlns="http://www.w3.org/2000/svg">
<path d="M25.0993 6.43324L5.19869 17.4848C4.45016 17.9192 4.02601 18.9178 4.5561 19.6901C6.67936 23.3865 8.71335 27.2115 10.7715 30.9453C10.9737 31.3729 11.3259 31.6265 11.7175 31.7319C12.1092 31.8374 12.5404 31.7945 12.9145 31.5774L32.8776 20.4939C33.6261 20.0595 33.8891 19.0728 33.457 18.3204L27.2474 7.06682C26.7821 6.25671 25.9104 5.96668 25.0987 6.43287L25.0993 6.43324ZM27.4542 18.3421C27.4262 18.6523 27.0657 18.8184 26.8282 18.7053C26.0334 18.3322 25.1238 18.7782 24.9139 19.5655C24.7163 20.307 25.1363 21.1049 25.874 21.3035C26.6573 21.5145 27.4827 20.997 27.6096 20.1324C27.675 19.8871 27.9406 19.6897 28.2356 19.7691C29.0305 20.1422 29.9263 19.7476 30.1499 18.9089C30.3476 18.1675 29.9154 17.4151 29.1898 17.1709C28.3557 16.9463 27.5676 17.529 27.4542 18.3421ZM29.4137 16.3324C30.6397 16.6626 31.3503 17.9668 31.0356 19.1475C30.6682 20.3205 29.5391 21.0191 28.3901 20.7646C27.9398 21.86 26.7719 22.4992 25.5912 22.1812C24.4241 21.8119 23.7055 20.5605 24.0341 19.3283C24.3877 18.2068 25.5184 17.5023 26.6795 17.7112C27.0787 16.6023 28.2976 15.9769 29.4137 16.3324ZM26.3976 14.6155C25.901 14.9036 25.4689 14.1513 25.9655 13.8631L27.7719 12.8149C28.3195 12.5404 28.7395 13.3383 28.1904 13.6185L26.3976 14.6155ZM22.1849 16.9782C21.6882 17.2664 21.2682 16.4685 21.7664 16.1746L23.559 15.1779C24.1067 14.9034 24.5267 15.7013 24.0286 15.9953L22.1849 16.9782ZM17.9928 19.2854C17.4961 19.5736 17.064 18.8213 17.5606 18.5331L19.4181 17.4986C19.9147 17.2104 20.3347 18.0083 19.8366 18.3022L17.9928 19.2854ZM13.8311 21.6619C13.2834 21.9364 12.8634 21.1385 13.4126 20.8583L15.2053 19.8616C15.7019 19.5734 16.1219 20.3713 15.6237 20.6652L13.8311 21.6619ZM9.63328 23.9676C9.13666 24.2558 8.65349 23.4897 9.20112 23.2153L11.0075 22.167C11.5041 21.8788 11.9752 22.6905 11.426 22.9707L9.63328 23.9676ZM19.2324 21.5268C18.7358 21.815 18.2647 21.0034 18.8139 20.7232L20.6066 19.7265C21.1032 19.4383 21.5742 20.25 21.0251 20.5301L19.2324 21.5268ZM15.0266 23.8853C14.53 24.1735 14.11 23.3756 14.6081 23.0817L16.4008 22.085C16.9484 21.8105 17.3806 22.5629 16.833 22.8373L15.0266 23.8853ZM10.8275 26.1968C10.3309 26.485 9.91089 25.6871 10.409 25.3932L12.2528 24.4102C12.7494 24.122 13.1694 24.9199 12.6713 25.2139L10.8275 26.1968ZM10.9016 17.4302L7.81267 19.1357C7.73582 19.2188 7.69626 19.3672 7.73361 19.4322L8.22265 20.3586C8.34449 20.4952 8.4271 20.5728 8.60064 20.5154L11.6382 18.7961C11.7604 18.7252 11.8391 18.6362 11.731 18.448L11.242 17.5216C11.1715 17.3988 11.0238 17.359 10.9016 17.4302ZM7.39293 18.3379L10.4818 16.6324C11.0295 16.3579 11.7162 16.5429 11.9892 17.0933L12.5293 18.0335C12.816 18.5326 12.8055 19.1657 12.057 19.5998C11.0638 20.1762 9.99862 20.7943 8.9681 21.3053C8.42046 21.5797 7.74587 21.3492 7.47284 20.7988L6.97014 19.9237C6.65301 19.3552 6.83704 18.665 7.39293 18.3379Z" fill="#7782AA"/>
<path d="M30.084 22.1641C27.4204 22.1641 25.334 23.1543 25.334 24.4183V32.4929C25.334 32.5078 25.3396 32.521 25.3424 32.5347C25.3396 32.5487 25.334 32.5619 25.334 32.5764C25.334 33.8406 27.4205 34.8307 30.084 34.8307C32.7473 34.8307 34.834 33.8405 34.834 32.5764C34.834 32.5615 34.8284 32.5484 34.826 32.5347C34.8288 32.5207 34.834 32.5075 34.834 32.4929V24.4183C34.834 23.1543 32.7472 22.1641 30.084 22.1641ZM30.084 22.5934C32.6758 22.5934 34.4165 23.537 34.4165 24.4183C34.4165 25.2998 32.6757 26.2434 30.084 26.2434C27.4926 26.2434 25.7515 25.2998 25.7515 24.4184C25.7515 23.537 27.4925 22.5934 30.084 22.5934ZM25.7517 29.4328C26.4878 30.217 28.1286 30.7519 30.0842 30.7519C32.0396 30.7519 33.6807 30.2168 34.4167 29.4328V30.5373C34.4164 31.4186 32.6757 32.3622 30.084 32.3622C27.4926 32.3622 25.7515 31.4186 25.7515 30.5373V29.4328H25.7517ZM30.084 30.3225C27.4926 30.3225 25.7515 29.3787 25.7515 28.4971V27.3932C26.4876 28.1773 28.1284 28.7123 30.084 28.7123C32.0394 28.7123 33.6805 28.1772 34.4165 27.3932V28.4971C34.4165 29.3788 32.6757 30.3225 30.084 30.3225ZM30.084 28.2829C27.4926 28.2829 25.7515 27.339 25.7515 26.4577V25.3538C26.4876 26.1379 28.1284 26.6726 30.084 26.6726C32.0394 26.6726 33.6805 26.1378 34.4165 25.3538V26.4577C34.4165 27.3391 32.6757 28.2829 30.084 28.2829ZM30.084 34.4017C27.4926 34.4017 25.7515 33.4582 25.7515 32.5768C25.7515 32.5619 25.7459 32.5488 25.7431 32.535C25.7459 32.5211 25.7515 32.5078 25.7515 32.4933V31.473C26.4878 32.2567 28.1284 32.7914 30.084 32.7914C32.0394 32.7914 33.6805 32.2567 34.4165 31.4726V32.4929C34.4165 32.5078 34.422 32.521 34.4245 32.5347C34.4217 32.5486 34.4165 32.5619 34.4165 32.5764C34.4165 33.4581 32.6757 34.4017 30.084 34.4017Z" fill="#7782AA"/>
</svg>
