<svg width="16" height="16" viewBox="0 0 16 16" fill="none" xmlns="http://www.w3.org/2000/svg">
<g id="icon_public_95">
<path id="Vector 305 (Stroke)" fill-rule="evenodd" clip-rule="evenodd" d="M7.17538 4.11683C7.17481 4.08234 7.17372 4.0478 7.17211 4.01324C7.1701 3.96991 7.16727 3.92653 7.16361 3.88312L6.83662 0L7.10999 0.154588C7.57137 0.415492 7.99058 0.718969 8.36175 1.05711C8.71704 1.38078 9.0283 1.7362 9.2904 2.11645C9.29503 2.12317 9.29964 2.1299 9.30424 2.13663C9.49554 2.41667 9.66025 2.71004 9.79631 3.01399C9.89744 3.23991 9.98275 3.47167 10.0514 3.70816C10.0546 3.71923 10.0578 3.73032 10.0609 3.74142C10.0779 3.8014 10.0938 3.86167 10.1087 3.92223C10.1387 4.04499 10.1643 4.1689 10.1854 4.29381C10.2029 4.39781 10.3397 4.45305 10.4459 4.39899L12.6406 3.28205L12.3711 5.33944C12.3285 5.66459 12.3111 5.99094 12.3188 6.31642C12.3366 7.06913 12.4881 7.81716 12.7702 8.53492C13.3231 9.94188 13.6254 11.4697 12.9283 12.8298L10.2669 11.8484C10.5219 11.3509 10.5101 10.5677 10.0171 9.31333C9.69471 8.49293 9.50068 7.64275 9.43773 6.78447C9.05593 7.52933 8.5099 8.21566 7.81739 8.80306L5.76539 7.06249C5.99891 6.86442 6.20573 6.64831 6.38412 6.41816C6.38411 6.41816 6.38412 6.41816 6.38412 6.41816C6.63971 6.08839 6.83692 5.72977 6.97059 5.35401C6.98603 5.31061 7.00062 5.26697 7.01436 5.22313C7.12652 4.86514 7.18164 4.4931 7.17538 4.11683ZM4.90197 3.69231L4.6402 5.02456C4.56675 5.39835 4.58114 5.77713 4.67813 6.14024C4.69929 6.21947 4.72439 6.29795 4.75336 6.37547C4.75336 6.37547 4.75336 6.37548 4.75336 6.37547C4.84934 6.63227 4.98787 6.87853 5.16699 7.10643C5.27022 7.23777 5.47917 7.26604 5.6245 7.17701C5.63841 7.16849 5.65175 7.15889 5.66435 7.1482L5.76539 7.06249L7.81739 8.80306L7.71635 8.88877C6.95393 9.53548 5.92295 9.78308 4.9541 9.65936C4.9205 9.97668 4.90197 10.3124 4.90197 10.6667C4.90197 12.0079 5.34287 12.688 5.69668 13.0106C6.04208 13.3256 6.56164 13.5385 7.32028 13.5385C8.31299 13.5385 8.88423 13.2966 9.25696 13.0445C9.67593 12.7612 10.0123 12.3451 10.2669 11.8484L12.9283 12.8298C12.1707 14.3078 10.5895 16 7.32028 16C4.41831 16 2 14.2769 2 10.6667C2 9.6376 2.13099 8.70632 2.34816 7.8785C2.67022 6.65085 3.18183 5.65077 3.73685 4.89685C3.91225 4.65861 4.09198 4.44495 4.27143 4.25645C4.34209 4.18223 4.41271 4.11191 4.483 4.04553C4.62475 3.91168 4.76517 3.79384 4.90197 3.69231Z" fill="#7782AA"/>
</g>
</svg>
