<svg width="14" height="14" viewBox="0 0 14 14" fill="none" xmlns="http://www.w3.org/2000/svg">
<path d="M4.80554 8.53009L5.46828 9.19282L5.48769 9.17341C5.91557 8.74553 6.56927 8.63944 7.11052 8.91006L7.22757 8.96861C7.40798 9.05882 7.62588 9.02348 7.76849 8.88081L11.93 4.71928C12.6621 3.98725 12.6621 2.80037 11.93 2.06832C11.198 1.33628 10.0111 1.33628 9.27908 2.06832L5.11755 6.22987C4.97489 6.37248 4.93955 6.59038 5.02975 6.7708L5.0883 6.88785C5.35893 7.42909 5.25284 8.08279 4.82495 8.51068L4.80554 8.53009ZM4.47418 8.86146L3.68486 9.65076C3.3323 10.0034 2.81079 10.1264 2.33776 9.96876C2.20152 9.92336 2.05133 9.95881 1.94978 10.0604L1.65753 10.3526C1.47452 10.5356 1.47452 10.8323 1.65753 11.0154L2.98301 12.3408C3.16602 12.5239 3.46274 12.5239 3.64575 12.3408L3.93801 12.0486C4.03956 11.947 4.07501 11.7969 4.02961 11.6606C3.87192 11.1876 3.99501 10.6661 4.34761 10.3135L5.13691 9.52419L4.47418 8.86146ZM2.43886 4.06141C1.53299 4.06141 0.79865 3.32709 0.79865 2.42123C0.79865 1.51537 1.53299 0.781021 2.43886 0.781021C3.34471 0.781021 4.07907 1.51537 4.07907 2.42123C4.07907 3.32709 3.34471 4.06141 2.43886 4.06141ZM2.43886 3.5928C3.0859 3.5928 3.61043 3.06827 3.61043 2.42123C3.61043 1.77418 3.0859 1.24965 2.43886 1.24965C1.79181 1.24965 1.26728 1.77418 1.26728 2.42123C1.26728 3.06827 1.79181 3.5928 2.43886 3.5928ZM12.5928 1.40558C13.6909 2.50365 13.6909 4.28397 12.5928 5.38202L8.43128 9.54355C8.00334 9.97149 7.34964 10.0775 6.8084 9.8069L6.69135 9.7484C6.51093 9.65819 6.29303 9.69354 6.15042 9.8362L5.01034 10.9762C4.9088 11.0778 4.87335 11.228 4.91875 11.3642C5.07643 11.8372 4.95334 12.3588 4.60075 12.7113L4.30852 13.0036C3.75946 13.5526 2.8693 13.5526 2.32027 13.0036L0.994781 11.6781C0.44575 11.1291 0.44575 10.2389 0.994781 9.68985L1.28704 9.39762C1.63961 9.04503 2.16112 8.92193 2.63415 9.07962C2.77038 9.12502 2.92058 9.08957 3.02212 8.98802L4.16217 7.84794C4.30483 7.70533 4.34018 7.48743 4.24997 7.30702L4.19147 7.18997C3.92085 6.64872 4.02688 5.99502 4.45482 5.56708L8.61635 1.40558C9.7144 0.307514 11.4947 0.307514 12.5928 1.40558Z" fill="#7782AA"/>
</svg>
