<svg width="24" height="24" viewBox="0 0 24 24" fill="none" xmlns="http://www.w3.org/2000/svg">
<path d="M10.0394 6.7641C10.0394 8.29077 8.802 9.5282 7.27533 9.5282C5.74866 9.5282 4.51123 8.29077 4.51123 6.7641C4.51123 5.2376 5.74866 4 7.27533 4C8.802 4 10.0394 5.2376 10.0394 6.7641Z" fill="#7782AA"/>
<path d="M19.4891 6.7641C19.4891 8.29077 18.2517 9.5282 16.725 9.5282C15.1984 9.5282 13.9609 8.29077 13.9609 6.7641C13.9609 5.2376 15.1984 4 16.725 4C18.2517 4 19.4891 5.2376 19.4891 6.7641Z" fill="#7782AA"/>
<path d="M14.7596 10.542C14.7596 12.0685 13.5222 13.3061 11.9955 13.3061C10.4689 13.3061 9.23145 12.0685 9.23145 10.542C9.23145 9.01533 10.4689 7.77789 11.9955 7.77789C13.5222 7.77789 14.7596 9.01533 14.7596 10.542Z" fill="#7782AA"/>
<path d="M14.074 13.0266C13.507 13.499 12.7746 13.7826 11.995 13.7826C11.2154 13.7826 10.483 13.4992 9.91595 13.0266C8.40397 13.8062 7.34089 15.389 7.27002 17.2554V18.8382C7.27002 19.4997 9.39617 20.0195 11.995 20.0195C14.5938 20.0195 16.7199 19.4997 16.7199 18.8382V17.2554C16.6491 15.3891 15.586 13.8063 14.074 13.0266Z" fill="#7782AA"/>
<path d="M9.56669 12.6689C9.07048 12.1019 8.76349 11.346 8.76349 10.5428C8.76349 10.1885 8.81078 9.85776 8.92894 9.52701C8.43274 9.81046 7.86587 9.97593 7.27525 9.97593C6.49563 9.97593 5.76326 9.69248 5.19623 9.21985C3.68424 9.99947 2.62117 11.5823 2.55029 13.4487V15.0315C2.55029 15.6457 4.48761 16.1655 6.9445 16.2128C7.27508 14.7244 8.21999 13.4251 9.56668 12.6691L9.56669 12.6689Z" fill="#7782AA"/>
<path d="M21.4485 13.4775C21.3777 11.6112 20.3146 10.0282 18.8026 9.24866C18.2356 9.72111 17.5032 10.0047 16.7236 10.0047C16.1094 10.0047 15.5423 9.83928 15.0699 9.55582C15.1643 9.86299 15.2353 10.2173 15.2353 10.5716C15.2353 11.3748 14.9282 12.1309 14.4321 12.6977C15.7788 13.4301 16.7237 14.7295 17.0545 16.2415C19.5114 16.1942 21.4251 15.6981 21.4251 15.0602L21.4485 13.4775Z" fill="#7782AA"/>
</svg>
