<svg width="14" height="14" viewBox="0 0 14 14" fill="none" xmlns="http://www.w3.org/2000/svg">
<path d="M5.43378 7.65486C4.72889 8.47679 3.90286 9.44005 3.04897 10.4359C2.93122 10.6207 2.69411 10.6995 2.48875 10.612C2.29349 10.5288 2.20471 10.5393 2.12779 10.616C2.02721 10.7163 2.0514 10.8593 2.26634 11.0736L2.92923 11.7347C3.14536 11.9503 3.28649 11.9742 3.3881 11.8729C3.46977 11.7914 3.48168 11.7063 3.40562 11.5241C3.32375 11.328 3.39394 11.1045 3.56235 10.9838L3.56142 10.9827L6.35399 8.57254L5.43378 7.65486ZM5.72429 7.31615L6.6918 8.28094L7.48472 7.59663C8.5745 6.65603 8.5745 6.65603 8.76843 6.49025L12.4123 2.84316C12.5709 2.68439 12.5657 2.41277 12.3891 2.23672L11.759 1.6083C11.5825 1.43226 11.3106 1.42755 11.152 1.58632L7.52193 5.21962C7.52464 5.21681 6.79718 6.06507 5.72429 7.31615ZM4.3333 11.4921C4.40112 11.8701 4.29901 12.2213 4.01826 12.5013C3.50326 13.0149 2.81433 12.8979 2.28858 12.3736L1.62569 11.7125C1.10093 11.1892 0.98425 10.4996 1.49763 9.98762C1.77976 9.70628 2.13603 9.60935 2.52153 9.68367C6.03042 5.59151 6.86894 4.61401 6.89177 4.59119L10.5218 0.9579C11.0331 0.446188 11.8685 0.460653 12.388 0.978735L13.0182 1.60716C13.5377 2.12524 13.5537 2.95986 13.0424 3.47158C10.8156 5.70038 10.8156 5.70038 9.37454 7.14103L4.3333 11.4921ZM3.77502 5.72131C2.9137 5.72131 2.21546 5.025 2.21546 4.16602C2.21546 3.3071 2.9137 2.61078 3.77502 2.61078C4.63636 2.61078 5.33459 3.3071 5.33459 4.16602C5.33459 5.025 4.63636 5.72131 3.77502 5.72131ZM3.77502 5.27694C4.39027 5.27694 4.88899 4.77959 4.88899 4.16602C4.88899 3.55251 4.39027 3.05514 3.77502 3.05514C3.15979 3.05514 2.66105 3.55251 2.66105 4.16602C2.66105 4.77959 3.15979 5.27694 3.77502 5.27694Z" fill="#7782AA"/>
</svg>
