<svg width="41" height="40" viewBox="0 0 41 40" fill="none" xmlns="http://www.w3.org/2000/svg">
<circle cx="20.5" cy="20" r="20" fill="#131828"/>
<g clip-path="url(#clip0_1390_100)">
<path d="M20.5016 10C17.7852 10 17.4434 10.0114 16.3773 10.0602C15.5479 10.0771 14.7273 10.2345 13.9505 10.5257C13.2829 10.7753 12.6783 11.1687 12.1797 11.6781C11.6708 12.1777 11.2765 12.7819 11.0241 13.4489C10.7327 14.2262 10.5759 15.0474 10.5602 15.8773C10.513 16.9434 10.5 17.2835 10.5 20C10.5 22.7165 10.5114 23.055 10.5602 24.1227C10.5771 24.9521 10.7345 25.7727 11.0257 26.5495C11.2766 27.2165 11.6698 27.8208 12.1781 28.3203C12.6773 28.8297 13.2816 29.2241 13.9489 29.4759C14.7264 29.7665 15.5474 29.9233 16.3773 29.9398C17.4434 29.9886 17.7835 30 20.5 30C23.2165 30 23.555 29.9886 24.6227 29.9398C25.4526 29.9233 26.2736 29.7665 27.0511 29.4759C27.7162 29.2179 28.3202 28.8242 28.8246 28.3198C29.3291 27.8153 29.7228 27.2113 29.9808 26.5462C30.2705 25.769 30.4278 24.9487 30.4463 24.1195C30.4935 23.0534 30.5065 22.7132 30.5065 19.9967C30.5065 17.2803 30.4935 16.9401 30.4463 15.874C30.4278 15.0442 30.2705 14.2234 29.9808 13.4456C29.7296 12.7784 29.3357 12.1741 28.8268 11.6748C28.3285 11.1651 27.7238 10.7716 27.056 10.5225C26.2764 10.2316 25.453 10.0753 24.6211 10.0602C23.5534 10.0114 23.2148 10 20.4984 10H20.5016ZM19.6032 11.8018H20.5016C23.1709 11.8018 23.4866 11.8115 24.5413 11.8604C25.1755 11.8676 25.8037 11.9837 26.3984 12.2038C26.8327 12.3642 27.2254 12.62 27.5475 12.9525C27.8793 13.2752 28.135 13.6677 28.2962 14.1016C28.5163 14.6963 28.6324 15.3245 28.6396 15.9587C28.6885 17.0117 28.6982 17.3291 28.6982 19.9984C28.6982 22.6676 28.6885 22.9834 28.6396 24.0381C28.6326 24.6717 28.5164 25.2994 28.2962 25.8936C28.1296 26.3245 27.8747 26.7158 27.5479 27.0424C27.2211 27.3689 26.8295 27.6235 26.3984 27.7897C25.8041 28.0114 25.1757 28.1282 24.5413 28.1348C23.4883 28.1836 23.1709 28.1934 20.5016 28.1934C17.8324 28.1934 17.515 28.1836 16.4603 28.1348C15.8261 28.127 15.1979 28.0103 14.6032 27.7897C14.1685 27.63 13.7753 27.3747 13.4525 27.0426C13.1206 26.7203 12.8653 26.3276 12.7054 25.8936C12.4848 25.2989 12.3681 24.6707 12.3604 24.0365C12.3132 22.9818 12.3034 22.666 12.3034 19.9951C12.3034 17.3242 12.3132 17.0101 12.3604 15.9554C12.3671 15.3211 12.4839 14.6927 12.7054 14.0983C12.8653 13.6642 13.1206 13.2715 13.4525 12.9492C13.7755 12.6171 14.1687 12.3613 14.6032 12.2005C15.1981 11.9806 15.8261 11.8639 16.4603 11.8555C17.3831 11.8148 17.7396 11.8018 19.6032 11.8001V11.8018ZM25.8385 13.4619C25.6009 13.4619 25.3686 13.5324 25.171 13.6645C24.9735 13.7965 24.8195 13.9842 24.7286 14.2038C24.6378 14.4234 24.6141 14.665 24.6606 14.898C24.707 15.1311 24.8216 15.3451 24.9898 15.513C25.1579 15.6809 25.3721 15.7952 25.6052 15.8414C25.8383 15.8875 26.0799 15.8635 26.2993 15.7724C26.5188 15.6812 26.7063 15.527 26.8381 15.3292C26.9699 15.1315 27.04 14.8991 27.0397 14.6615C27.0397 14.5038 27.0086 14.3477 26.9482 14.202C26.8879 14.0564 26.7994 13.9241 26.6878 13.8127C26.5762 13.7013 26.4438 13.6129 26.2981 13.5528C26.1524 13.4926 25.9962 13.4617 25.8385 13.4619ZM20.5016 14.8649C19.486 14.8649 18.4932 15.1661 17.6487 15.7303C16.8043 16.2946 16.1461 17.0966 15.7574 18.0349C15.3688 18.9732 15.2671 20.0057 15.4652 21.0018C15.6633 21.9979 16.1524 22.9129 16.8706 23.6311C17.5887 24.3492 18.5037 24.8383 19.4998 25.0364C20.4959 25.2346 21.5284 25.1329 22.4667 24.7442C23.4051 24.3555 24.207 23.6974 24.7713 22.8529C25.3355 22.0084 25.6367 21.0156 25.6367 20C25.6363 18.6382 25.0951 17.3323 24.1322 16.3694C23.1693 15.4065 21.8634 14.8653 20.5016 14.8649ZM20.5016 16.6667C21.1611 16.6657 21.806 16.8604 22.3549 17.2261C22.9037 17.5917 23.3317 18.112 23.5847 18.721C23.8377 19.33 23.9045 20.0004 23.7764 20.6473C23.6483 21.2942 23.3312 21.8886 22.8653 22.3553C22.3993 22.822 21.8053 23.1399 21.1586 23.2689C20.5119 23.3979 19.8414 23.3322 19.232 23.0801C18.6227 22.8279 18.1018 22.4007 17.7353 21.8524C17.3688 21.3041 17.1732 20.6595 17.1732 20C17.1749 19.1179 17.5262 18.2725 18.1501 17.6489C18.7739 17.0253 19.6195 16.6745 20.5016 16.6732V16.6667Z" fill="white"/>
</g>
<defs>
<clipPath id="clip0_1390_100">
<rect width="20" height="20" fill="white" transform="translate(10.5 10)"/>
</clipPath>
</defs>
</svg>
