<svg width="24" height="24" viewBox="0 0 24 24" fill="none" xmlns="http://www.w3.org/2000/svg">
<path fill-rule="evenodd" clip-rule="evenodd" d="M6.74219 1.78516H5.65631V3.41681C4.22603 3.24076 2.47763 3.25793 1.58108 4.21728C0.908276 4.93813 0.820313 5.97988 1.31414 7.31945C2.62804 10.884 5.49727 12.3002 7.20562 12.8592C8.08534 13.8554 9.26883 14.5792 10.6282 14.843C10.8382 16.509 11.1078 19.9232 9.83373 20.2554C9.5791 20.3224 9.33604 20.3794 9.1071 20.4331C7.81532 20.7358 6.97283 20.9332 7.03559 22.2447H11.4915H12.1159H16.5687C16.6315 20.9328 15.7905 20.7357 14.4986 20.4328C14.27 20.3792 14.0274 20.3223 13.7732 20.2554C12.496 19.9232 12.7628 16.5094 12.9727 14.843C14.3605 14.5735 15.561 13.8273 16.4464 12.7968C18.1691 12.201 20.8965 10.7621 22.1678 7.31963C22.6618 5.98006 22.5709 4.9383 21.9011 4.21745L21.9011 4.21728C21.0267 3.28635 19.3553 3.24111 17.9503 3.40571V1.78516H7.74219V8.5C7.74219 8.77614 7.51833 9 7.24219 9C6.96604 9 6.74219 8.77614 6.74219 8.5V1.78516ZM2.56871 5.14265C2.27662 5.45765 2.27923 6.0309 2.58016 6.84819C3.34337 8.91434 4.75126 10.1233 6.03098 10.8501C5.8041 10.2085 5.65632 9.53009 5.65632 8.81497V4.79644C4.36533 4.62353 3.05107 4.6261 2.56871 5.14265ZM17.6016 10.7703C18.8358 10.0409 20.164 8.84898 20.902 6.84819C21.2029 6.0309 21.2054 5.45762 20.9133 5.14228C20.4451 4.64292 19.1994 4.62314 17.9505 4.77925L17.9504 8.81479C17.9504 9.5046 17.8116 10.1544 17.6016 10.7703Z" fill="#7782AA"/>
</svg>
