<svg width="32" height="32" viewBox="0 0 32 32" fill="none" xmlns="http://www.w3.org/2000/svg">
<path d="M4.14156 7.48274H27.3533C28.0339 7.48274 28.5857 8.0363 28.5857 8.71912V11.1918C28.5857 11.8747 28.0339 12.4282 27.3533 12.4282H4.14156C3.46095 12.4282 2.90918 11.8747 2.90918 11.1918V8.71912C2.90918 8.0363 3.46095 7.48274 4.14156 7.48274ZM26.0717 13.6645L26.0722 17.897C25.6569 17.7973 25.2234 17.7445 24.7777 17.7445C21.7149 17.7445 19.232 20.2355 19.232 23.3082C19.232 24.5608 19.6446 25.7168 20.341 26.6467L6.29205 26.6464C5.61143 26.6464 5.05966 26.1237 5.05966 25.4789V13.6645H26.0717ZM14.4072 6.24823H8.65206L8.34395 5.98859C7.94007 5.64405 7.88785 5.03753 8.22689 4.6286L9.373 3.25004C9.71643 2.84485 10.321 2.79249 10.7286 3.13259L14.4072 6.24823ZM22.7196 5.96778L22.4115 6.22742H16.6625L20.3596 3.13651C20.7569 2.79918 21.3495 2.84027 21.6967 3.22923L22.8367 4.58922C22.921 4.68664 22.985 4.80003 23.0248 4.92269C23.0646 5.04535 23.0795 5.17479 23.0686 5.30333C23.0577 5.43187 23.0212 5.55691 22.9613 5.67104C22.9013 5.78518 22.8191 5.88608 22.7196 5.96778Z" fill="#D99504"/>
<path fill-rule="evenodd" clip-rule="evenodd" d="M20.4648 23.3077C20.4648 20.9179 22.396 18.9805 24.7781 18.9805C27.1603 18.9805 29.0915 20.9179 29.0915 23.3077C29.0915 25.6976 27.1603 27.635 24.7781 27.635C22.396 27.635 20.4648 25.6976 20.4648 23.3077ZM24.5946 25.9663L24.584 26.5349H24.9534L24.964 25.9669C25.2784 25.9512 25.5536 25.8935 25.7896 25.7939C26.0711 25.6757 26.2891 25.5032 26.4435 25.2765C26.5979 25.0497 26.679 24.7728 26.6866 24.4456C26.6886 24.2561 26.6633 24.0812 26.6107 23.9209C26.5597 23.7606 26.4775 23.6164 26.3642 23.4885C26.251 23.3589 26.1044 23.2463 25.9245 23.1508C25.7445 23.0552 25.5274 22.9783 25.2732 22.92L25.022 22.8617L25.0382 21.9932C25.1482 22.0136 25.2353 22.0537 25.2995 22.1135C25.3985 22.2042 25.4524 22.3305 25.4614 22.4924H26.6599C26.6645 22.1669 26.5947 21.8827 26.4506 21.6397C26.3079 21.3952 26.102 21.2057 25.8326 21.0713C25.61 20.9602 25.3521 20.895 25.059 20.8757L25.0695 20.3157H24.7L24.6896 20.8752C24.397 20.8938 24.1322 20.9583 23.8952 21.0688C23.6119 21.2016 23.3884 21.3871 23.2247 21.6252C23.0626 21.8616 22.9794 22.1378 22.975 22.4536C22.9662 22.8423 23.0769 23.1492 23.307 23.3743C23.5386 23.5978 23.8578 23.7573 24.2645 23.8529L24.6324 23.9388L24.6154 24.852C24.5268 24.8395 24.4469 24.8166 24.3756 24.7833C24.2625 24.7299 24.1753 24.6513 24.1142 24.5477C24.053 24.444 24.0201 24.3161 24.0154 24.1638H22.8259C22.8197 24.5801 22.8959 24.9218 23.0546 25.189C23.2149 25.4546 23.4425 25.6514 23.7375 25.7793C23.9864 25.8867 24.2721 25.9491 24.5946 25.9663ZM24.9849 24.8478C25.0355 24.8389 25.0815 24.8263 25.123 24.81C25.2138 24.7744 25.2831 24.725 25.3308 24.6618C25.3786 24.5987 25.4039 24.5266 25.4069 24.4456C25.4069 24.3695 25.3848 24.3031 25.3408 24.2464C25.2984 24.1881 25.2272 24.1363 25.1275 24.091C25.09 24.0733 25.0475 24.0561 25 24.0394L24.9849 24.8478ZM24.6543 22.7649L24.6688 21.9908C24.6173 21.9993 24.5712 22.0119 24.5306 22.0284C24.4489 22.0608 24.388 22.1054 24.3479 22.1621C24.3078 22.2187 24.2863 22.2835 24.2835 22.3564C24.2793 22.4163 24.2881 22.4706 24.3097 22.5192C24.3329 22.5661 24.3696 22.6091 24.4199 22.6479C24.4703 22.6852 24.535 22.7192 24.614 22.75C24.6271 22.755 24.6405 22.76 24.6543 22.7649Z" fill="#D99504"/>
</svg>
