<svg width="24" height="24" viewBox="0 0 24 24" fill="none" xmlns="http://www.w3.org/2000/svg">
<path d="M18.4329 2H5.56713C3.59519 2 2 3.75717 2 5.92936V12.6711C2 14.8389 3.59519 16.6004 5.56713 16.6004V22L10.4128 16.6004H18.4329C20.4008 16.6004 22 14.8433 22 12.6711V5.92936C22 3.75717 20.4048 2 18.4329 2ZM7.65531 10.8565C6.87375 10.8565 6.24048 10.1589 6.24048 9.29801C6.24048 8.43709 6.87375 7.73951 7.65531 7.73951C8.43687 7.73951 9.07014 8.43709 9.07014 9.29801C9.07014 10.1589 8.43687 10.8565 7.65531 10.8565ZM12 10.8565C11.2184 10.8565 10.5852 10.1589 10.5852 9.29801C10.5852 8.43709 11.2184 7.73951 12 7.73951C12.7816 7.73951 13.4148 8.43709 13.4148 9.29801C13.4148 10.1589 12.7816 10.8565 12 10.8565ZM16.3447 10.8565C15.5631 10.8565 14.9299 10.1589 14.9299 9.29801C14.9299 8.43709 15.5631 7.73951 16.3447 7.73951C17.1263 7.73951 17.7595 8.43709 17.7595 9.29801C17.7595 10.1589 17.1263 10.8565 16.3447 10.8565Z" fill="#7782AA"/>
</svg>
