<svg width="14" height="14" viewBox="0 0 14 14" fill="none" xmlns="http://www.w3.org/2000/svg">
<path fill-rule="evenodd" clip-rule="evenodd" d="M9.59251 5.06118C9.14615 5.51368 8.68108 5.96162 8.1973 6.40497H7.62281L7.61978 6.40194L6.78814 7.23507C6.70077 7.3226 6.559 7.32271 6.47142 7.23533C6.38389 7.14796 6.38379 7.00613 6.47116 6.9186L7.30149 6.08678V5.50913C7.81934 4.94146 8.34189 4.4018 8.86914 3.89016V2.3737C8.86914 2.30321 8.90238 2.23683 8.95876 2.19453L10.7503 0.850783C10.898 0.740051 11.1087 0.845396 11.1087 1.02995V1.90824C11.2448 1.79913 11.3812 1.69179 11.5179 1.58623C11.7096 1.43822 12.014 1.43554 12.1521 1.61723C12.2902 1.79892 12.2285 2.05974 12.0663 2.2658C11.9198 2.45178 11.7704 2.63706 11.6182 2.82161H12.9003C13.0998 2.82161 13.1997 3.06285 13.0586 3.20393L11.267 4.9956C11.225 5.03762 11.1681 5.06118 11.1087 5.06118H9.59251ZM10.0268 4.61329H11.0159L12.3596 3.26953H11.2416C10.8544 3.72179 10.4495 4.16973 10.0268 4.61329ZM9.31707 3.46332C9.76166 3.04738 10.2095 2.65114 10.6608 2.27463V1.47787L9.31707 2.48568V3.46332ZM7.81484 2.70674C7.93534 2.73457 8.01049 2.85484 7.98264 2.97535C7.95484 3.09587 7.83454 3.171 7.71404 3.14317C7.43422 3.07852 7.14614 3.04558 6.85361 3.04558C4.75097 3.04558 3.04646 4.75015 3.04646 6.85287C3.04646 8.95558 4.75097 10.6601 6.85361 10.6601C8.95625 10.6601 10.6608 8.95558 10.6608 6.85287C10.6608 6.58217 10.6325 6.3153 10.5771 6.05516C10.5513 5.93419 10.6285 5.8152 10.7494 5.78944C10.8704 5.76367 10.9894 5.8408 11.0152 5.96178C11.0771 6.25259 11.1087 6.55077 11.1087 6.85287C11.1087 9.20296 9.20363 11.1081 6.85361 11.1081C4.5036 11.1081 2.59856 9.20296 2.59856 6.85287C2.59856 4.50277 4.5036 2.59765 6.85361 2.59765C7.1801 2.59765 7.50199 2.63447 7.81484 2.70674ZM6.85361 4.38932C6.9773 4.38932 7.07758 4.4896 7.07758 4.61329C7.07758 4.73698 6.9773 4.83726 6.85361 4.83726C5.74048 4.83726 4.83808 5.73969 4.83808 6.85287C4.83808 7.96604 5.74048 8.86847 6.85361 8.86847C7.96675 8.86847 8.86914 7.96604 8.86914 6.85287C8.86914 6.72917 8.96942 6.62889 9.09311 6.62889C9.21679 6.62889 9.31707 6.72917 9.31707 6.85287C9.31707 8.21343 8.21412 9.31641 6.85361 9.31641C5.4931 9.31641 4.39015 8.21343 4.39015 6.85287C4.39015 5.4923 5.4931 4.38932 6.85361 4.38932ZM8.32527 0.755796C8.56575 0.81366 8.71384 1.05554 8.65599 1.29606C8.59809 1.53657 8.35626 1.68464 8.11573 1.62678C7.70589 1.52819 7.2832 1.47787 6.85361 1.47787C3.88521 1.47787 1.47881 3.88436 1.47881 6.85287C1.47881 9.82137 3.88521 12.2279 6.85361 12.2279C9.82201 12.2279 12.2284 9.82137 12.2284 6.85287C12.2284 6.38328 12.1683 5.92201 12.0508 5.47694C11.9877 5.23776 12.1304 4.99267 12.3695 4.92955C12.6087 4.86637 12.8538 5.00908 12.9169 5.24826C13.0541 5.76785 13.1242 6.30594 13.1242 6.85287C13.1242 10.3161 10.3168 13.1237 6.85361 13.1237C3.39045 13.1237 0.583008 10.3161 0.583008 6.85287C0.583008 3.38958 3.39045 0.582031 6.85361 0.582031C7.35395 0.582031 7.84693 0.640721 8.32527 0.755796Z" fill="#7782AA"/>
</svg>
