<svg width="24" height="24" viewBox="0 0 24 24" fill="none" xmlns="http://www.w3.org/2000/svg">
<path d="M19.2639 10.7746L19.2259 10.762V8.73031C19.2259 8.05148 18.9201 7.42196 18.3867 7.00238L14.6044 4.0264C14.0231 3.56883 13.2957 3.31683 12.5561 3.31683H1.27246V9.51577L1.7012 9.54517L1.71036 9.54536C2.49758 9.54536 3.23481 9.84926 3.6821 10.358L3.68668 10.3631L5.14853 11.7181L5.15273 11.7219C6.32669 12.7199 7.01143 13.0521 7.9367 13.3457L12.559 14.9232C12.5276 15.1509 12.512 15.3836 12.512 15.6156C12.512 18.4331 14.8044 20.7257 17.6221 20.7257C20.4399 20.7257 22.7323 18.4329 22.7323 15.6156C22.7321 13.4237 21.3387 11.4782 19.2639 10.7746ZM11.9287 11.0781C11.7165 10.8387 11.5592 10.5483 11.4733 10.2395C11.265 9.48834 11.5273 8.69291 12.1412 8.21298L12.7356 7.74816C13.3102 7.29842 14.1127 7.29937 14.6871 7.75083L16.2513 8.98207C16.313 9.03074 16.35 9.10653 16.35 9.18517V10.665L16.3454 10.6661C15.4301 10.9015 14.5982 11.3879 13.9394 12.073L13.8938 12.1211L12.7071 11.6318C12.4106 11.5094 12.1416 11.3182 11.9287 11.0781ZM17.6221 19.6568C15.3938 19.6568 13.5807 17.8437 13.5807 15.6154C13.5807 15.5013 13.5855 15.3869 13.5952 15.2736L15.7292 15.9898C15.7766 16.0083 15.8279 16.018 15.8781 16.018C16.0436 16.018 16.1908 15.9193 16.2534 15.767C16.2754 15.7143 16.295 15.6607 16.3133 15.6067C16.5607 15.8539 16.9065 16.0075 17.2877 16.0075H17.9569C18.1095 16.0075 18.2522 16.0642 18.3586 16.1671C18.4615 16.266 18.5178 16.3967 18.5178 16.5348C18.5178 16.8255 18.266 17.062 17.9568 17.062H17.2875C17.0195 17.062 16.8017 16.8577 16.8017 16.6071H16C16 17.2781 16.5419 17.8284 17.2213 17.862V18.3677H18.023V17.862C18.7438 17.8284 19.3193 17.2459 19.3193 16.5346C19.3193 16.1767 19.1758 15.8412 18.9152 15.5899C18.6585 15.3421 18.3179 15.2056 17.9566 15.2056H17.2873C16.9781 15.2056 16.7263 14.9691 16.7263 14.6784C16.7263 14.5405 16.7826 14.4098 16.8855 14.3107C16.9918 14.208 17.1346 14.1515 17.2872 14.1515H17.9564C18.2242 14.1515 18.4422 14.3554 18.4422 14.606H19.244C19.244 13.9351 18.702 13.3849 18.0226 13.3513V12.8622H17.2209V13.3513C16.8844 13.3667 16.57 13.5011 16.3285 13.734C16.2949 13.7667 16.263 13.8006 16.233 13.8358C15.9887 13.2761 15.5424 12.8194 14.9695 12.5656C15.4414 12.1546 16.0011 11.8585 16.6066 11.7022L16.6273 11.697C16.6439 11.6928 16.6605 11.6888 16.6754 11.685C16.7376 11.6701 16.7983 11.6569 16.8556 11.6462L16.859 11.6455C16.8739 11.6426 16.8895 11.6399 16.9044 11.6373L16.9082 11.6367C16.9205 11.6342 16.9329 11.6321 16.9455 11.6302L16.9596 11.6277C16.9772 11.6245 16.9949 11.6218 17.015 11.6189L17.0337 11.6161C17.0419 11.6149 17.0503 11.6136 17.0589 11.6126C17.1299 11.6027 17.1994 11.5951 17.2652 11.5893L17.2801 11.588C17.2893 11.5869 17.2986 11.5865 17.308 11.5855L17.3114 11.5853C17.3446 11.5829 17.3782 11.5808 17.4114 11.5792L17.4149 11.579C17.4217 11.5789 17.429 11.5783 17.4363 11.5783L17.4515 11.5777C17.4624 11.5769 17.4737 11.5764 17.4847 11.5762L17.4954 11.576C17.5153 11.5752 17.5355 11.5747 17.5544 11.5747L17.5603 11.5745C17.6044 11.5743 17.6487 11.5739 17.6926 11.5747L17.7094 11.5748C17.7142 11.5748 17.719 11.575 17.7241 11.575C17.7657 11.5762 17.8037 11.5777 17.8404 11.5798L17.8491 11.5804C17.8591 11.5806 17.8686 11.5815 17.8784 11.5819L17.9125 11.584C17.9244 11.5846 17.9358 11.5855 17.9475 11.5867L17.9681 11.5882C17.99 11.5901 18.0122 11.5922 18.0337 11.5943L18.0463 11.5956C18.0723 11.5983 18.0983 11.6012 18.1238 11.6044L18.1273 11.605C18.1521 11.6079 18.1765 11.6111 18.2013 11.6149L18.2118 11.6165C18.2273 11.6184 18.2426 11.621 18.258 11.6233L18.2647 11.6245C18.2796 11.6266 18.2949 11.6291 18.3096 11.6319L18.3245 11.6346C18.346 11.638 18.3674 11.642 18.3884 11.646C18.4098 11.6501 18.4312 11.6543 18.4499 11.6583C18.4766 11.6638 18.5033 11.6697 18.5295 11.6756L18.5343 11.677C18.5595 11.6823 18.5843 11.6884 18.6097 11.6949L18.6125 11.6957C18.6373 11.7018 18.6622 11.7085 18.6872 11.7151L18.6952 11.7172C18.7152 11.7228 18.7358 11.7285 18.7561 11.7346L18.7595 11.7358C18.7816 11.7423 18.8042 11.7489 18.8263 11.7556C18.8382 11.7596 18.8496 11.7634 18.8613 11.7669L18.9221 11.7869C20.5617 12.3439 21.663 13.882 21.663 15.6151C21.6635 17.8439 19.8504 19.6568 17.6221 19.6568Z" fill="#7782AA"/>
</svg>
