<svg width="14" height="14" viewBox="0 0 14 14" fill="none" xmlns="http://www.w3.org/2000/svg">
<path d="M4.76608 0.657404L8.69843 3.2443C8.95925 3.41588 8.9616 3.79761 8.70292 3.97232L4.95799 6.50195V7.68239C5.51317 7.61659 6.10071 7.58204 6.70801 7.58204C7.07893 7.58204 7.4425 7.5949 7.79581 7.61996C8.09267 7.07601 8.66974 6.70703 9.33303 6.70703C10.2558 6.70703 11.0118 7.42131 11.0782 8.32715C12.1621 8.78688 12.833 9.43582 12.833 10.207C12.833 11.7709 10.0741 12.832 6.70801 12.832C3.34191 12.832 0.583008 11.7709 0.583008 10.207C0.583008 9.07878 2.01901 8.2122 4.08299 7.81693V1.01953C4.08299 0.777909 4.27888 0.582031 4.52052 0.582031C4.61152 0.582031 4.69605 0.609834 4.76608 0.657404ZM4.95799 1.83102V5.44605L7.66928 3.61462L4.95799 1.83102ZM10.9148 9.2067C10.634 9.79812 10.0312 10.207 9.33303 10.207C8.37559 10.207 7.59777 9.43817 7.58322 8.48425C7.29882 8.46644 7.00645 8.45705 6.70801 8.45705C6.09331 8.45705 5.50455 8.49691 4.95799 8.56786V9.76953C4.95799 10.0112 4.76215 10.207 4.52052 10.207C4.27888 10.207 4.08299 10.0112 4.08299 9.76953V8.71455C2.5096 9.04234 1.45801 9.63488 1.45801 10.207C1.45801 11.0594 3.79184 11.957 6.70801 11.957C9.62417 11.957 11.958 11.0594 11.958 10.207C11.958 9.85987 11.5708 9.50514 10.9148 9.2067Z" fill="#7782AA"/>
</svg>
