<svg width="24" height="24" viewBox="0 0 24 24" fill="none" xmlns="http://www.w3.org/2000/svg">
<path d="M4.59712 1.6261H14.3941C15.4543 1.6261 16.3154 2.49161 16.3154 3.55182V5.19626H15.0172V3.55182C15.0172 3.20562 14.7359 2.92439 14.3941 2.92439H4.59712C4.25093 2.92439 3.97399 3.20564 3.97399 3.55182V19.3897C3.97399 19.7359 4.25092 20.0171 4.59712 20.0171L14.3941 20.0173C14.7359 20.0173 15.0172 19.736 15.0172 19.3898V14.5993H16.3154V20.4715C16.3154 21.536 15.4543 22.3972 14.3941 22.3972H4.59712C3.53691 22.3972 2.67141 21.536 2.67141 20.4715V3.55157C2.67141 2.49136 3.53691 1.62585 4.59712 1.62585V1.6261Z" fill="#7782AA"/>
<path d="M12.1606 16.4296C11.9417 16.6486 11.5674 16.4936 11.5674 16.184V13.9485H10.6498C9.91625 13.9485 9.32158 13.3538 9.32158 12.6203L9.32142 7.17526C9.32142 6.44175 9.91609 5.84708 10.6496 5.84708L20.0112 5.84692C20.7447 5.84692 21.3394 6.44159 21.3394 7.1751V12.6201C21.3394 13.3536 20.7447 13.9483 20.0112 13.9483H14.6391L12.1606 16.4296ZM19.4265 7.67009H11.2342C11.0389 7.67009 10.8786 7.83039 10.8786 8.02557C10.8786 8.22331 11.0389 8.38361 11.2342 8.38361H19.4265C19.6218 8.38361 19.782 8.22347 19.782 8.02557C19.782 7.83039 19.6218 7.67009 19.4265 7.67009ZM19.4265 9.54109H11.2342C11.0389 9.54109 10.8786 9.7014 10.8786 9.89657C10.8786 10.0943 11.0389 10.2546 11.2342 10.2546H19.4265C19.6218 10.2546 19.782 10.0945 19.782 9.89657C19.782 9.70124 19.6218 9.54109 19.4265 9.54109ZM19.782 11.7675C19.782 11.5722 19.6218 11.4121 19.4265 11.4121H11.2342C11.0389 11.4121 10.8786 11.5724 10.8786 11.7675C10.8786 11.9653 11.0389 12.1256 11.2342 12.1256L19.4265 12.1254C19.6218 12.1254 19.782 11.9653 19.782 11.7675Z" fill="#7782AA"/>
</svg>
