<svg width="25" height="24" viewBox="0 0 25 24" fill="none" xmlns="http://www.w3.org/2000/svg">
<path fill-rule="evenodd" clip-rule="evenodd" d="M14.9776 8.32142C14.6724 8.07475 14.658 7.66124 14.9456 7.39896C15.2332 7.13734 15.7159 7.12494 16.0218 7.3716C16.0218 7.3716 17.6603 8.68086 17.9853 10.852C18.197 12.2603 17.8704 14.0471 16.1093 16.0655C15.8573 16.3538 15.3801 16.4126 15.0438 16.1972C14.7074 15.9812 14.6389 15.5722 14.89 15.2839C16.3354 13.6275 16.6497 12.174 16.4761 11.0181C16.2241 9.34092 14.9775 8.32126 14.9775 8.32126L14.9776 8.32142Z" fill="#7782AA"/>
<path fill-rule="evenodd" clip-rule="evenodd" d="M18.0483 6.11561C17.7293 5.86911 17.6928 5.43626 17.9668 5.14914C18.2408 4.86289 18.7211 4.82993 19.0399 5.07592C19.0399 5.07592 22.7882 7.97938 22.4123 12.2822C22.2539 14.1001 21.368 16.1803 19.1031 18.3894C18.8184 18.6675 18.3366 18.6847 18.0278 18.4285C17.7194 18.1723 17.6997 17.7388 17.9851 17.4607C19.951 15.5427 20.7576 13.753 20.8954 12.1749C21.2105 8.55494 18.0483 6.11595 18.0483 6.11595L18.0483 6.11561Z" fill="#7782AA"/>
<path fill-rule="evenodd" clip-rule="evenodd" d="M3.32304 7.74691H7.24325L11.9819 4.17414C12.2109 4.00171 12.5229 3.96858 12.7863 4.08903C13.0496 4.20931 13.2171 4.46158 13.2171 4.73851V19.2793C13.2171 19.554 13.0526 19.8047 12.7924 19.9259C12.5321 20.047 12.2216 20.0181 11.9917 19.8509L7.25049 16.3962H3.32333C2.90321 16.3962 2.56226 16.0733 2.56226 15.6754V8.46785C2.56226 8.06999 2.90321 7.74705 3.32333 7.74705L3.32304 7.74691Z" fill="#7782AA"/>
</svg>
