<svg width="41" height="40" viewBox="0 0 41 40" fill="none" xmlns="http://www.w3.org/2000/svg">
<circle cx="20.5" cy="20" r="20" fill="#D42763"/>
<path d="M11.5057 13.3636V25H9.04545V15.6989H8.97727L6.3125 17.3693V15.1875L9.19318 13.3636H11.5057ZM18.6122 25.1591C17.7372 25.1591 16.9588 25.017 16.277 24.733C15.599 24.4451 15.0668 24.053 14.6804 23.5568C14.294 23.0606 14.1009 22.4981 14.1009 21.8693C14.1009 21.3845 14.2107 20.9394 14.4304 20.5341C14.6539 20.125 14.9569 19.786 15.3395 19.517C15.7221 19.2443 16.1501 19.0701 16.6236 18.9943V18.9148C16.0024 18.7898 15.4986 18.4886 15.1122 18.0114C14.7259 17.5303 14.5327 16.9716 14.5327 16.3352C14.5327 15.733 14.7088 15.197 15.0611 14.7273C15.4134 14.2538 15.8963 13.8826 16.5099 13.6136C17.1274 13.3409 17.8281 13.2045 18.6122 13.2045C19.3963 13.2045 20.0952 13.3409 20.7088 13.6136C21.3262 13.8864 21.8111 14.2595 22.1634 14.733C22.5156 15.2027 22.6937 15.7367 22.6974 16.3352C22.6937 16.9754 22.4967 17.5341 22.1065 18.0114C21.7164 18.4886 21.2164 18.7898 20.6065 18.9148V18.9943C21.0724 19.0701 21.4948 19.2443 21.8736 19.517C22.2562 19.786 22.5592 20.125 22.7827 20.5341C23.0099 20.9394 23.1255 21.3845 23.1293 21.8693C23.1255 22.4981 22.9304 23.0606 22.544 23.5568C22.1577 24.053 21.6236 24.4451 20.9418 24.733C20.2637 25.017 19.4872 25.1591 18.6122 25.1591ZM18.6122 23.3523C19.0024 23.3523 19.3433 23.2822 19.6349 23.142C19.9266 22.9981 20.1539 22.8011 20.3168 22.5511C20.4834 22.2973 20.5668 22.0057 20.5668 21.6761C20.5668 21.339 20.4815 21.0417 20.3111 20.7841C20.1406 20.5227 19.9096 20.3182 19.6179 20.1705C19.3262 20.0189 18.991 19.9432 18.6122 19.9432C18.2372 19.9432 17.902 20.0189 17.6065 20.1705C17.3111 20.3182 17.0781 20.5227 16.9077 20.7841C16.741 21.0417 16.6577 21.339 16.6577 21.6761C16.6577 22.0057 16.7391 22.2973 16.902 22.5511C17.0649 22.8011 17.294 22.9981 17.5895 23.142C17.8849 23.2822 18.2259 23.3523 18.6122 23.3523ZM18.6122 18.1534C18.938 18.1534 19.2277 18.0871 19.4815 17.9545C19.7353 17.822 19.9342 17.6383 20.0781 17.4034C20.2221 17.1686 20.294 16.8977 20.294 16.5909C20.294 16.2879 20.2221 16.0227 20.0781 15.7955C19.9342 15.5644 19.7372 15.3845 19.4872 15.2557C19.2372 15.1231 18.9455 15.0568 18.6122 15.0568C18.2827 15.0568 17.991 15.1231 17.7372 15.2557C17.4834 15.3845 17.2846 15.5644 17.1406 15.7955C17.0005 16.0227 16.9304 16.2879 16.9304 16.5909C16.9304 16.8977 17.0024 17.1686 17.1463 17.4034C17.2902 17.6383 17.4891 17.822 17.7429 17.9545C17.9967 18.0871 18.2865 18.1534 18.6122 18.1534ZM28.3267 23.2273V15.1818H30.3608V23.2273H28.3267ZM25.321 20.2216V18.1875H33.3665V20.2216H25.321Z" fill="white"/>
</svg>
