<svg width="24" height="24" viewBox="0 0 24 24" fill="none" xmlns="http://www.w3.org/2000/svg">
<g id="icon_public_100">
<path id="Union" fill-rule="evenodd" clip-rule="evenodd" d="M1.62079 4.90836C1.62079 3.94174 2.40435 3.1582 3.37095 3.1582H19.9975C20.9641 3.1582 21.7476 3.94174 21.7476 4.90836V7.5336C21.7476 8.50022 20.9641 9.28376 19.9975 9.28376H18.0285V19.7847C18.0285 20.6305 17.3429 21.3161 16.4971 21.3161H6.87126V20.0035H16.4971C16.618 20.0035 16.7159 19.9055 16.7159 19.7847V9.28376H15.6221L15.6221 18.0345C15.6221 18.5178 15.2303 18.9096 14.747 18.9096H5.99618C5.51289 18.9096 5.12111 18.5178 5.12111 18.0345V9.28376H3.37095C2.40435 9.28376 1.62079 8.50022 1.62079 7.5336V4.90836ZM6.43372 17.597V7.09606H14.3094V17.597H6.43372ZM10.1512 15.4202V16.1254H10.6827V15.4207C11.1114 15.3994 11.4852 15.3246 11.8041 15.1964C12.1887 15.0405 12.4826 14.8221 12.6857 14.5411C12.8909 14.258 12.9947 13.9237 12.9968 13.5381C12.9947 13.2756 12.9439 13.0428 12.8445 12.8398C12.7473 12.6367 12.6101 12.4604 12.4329 12.3106C12.2557 12.1609 12.0461 12.0348 11.8041 11.9322C11.5621 11.8297 11.2964 11.7477 11.0068 11.6861L10.6827 11.6126V10.0797C10.9018 10.1066 11.0833 10.1704 11.2272 10.271C11.4238 10.4084 11.5351 10.6012 11.561 10.8493H12.9061C12.8996 10.474 12.7937 10.1438 12.5884 9.85871C12.3832 9.57363 12.0958 9.3511 11.7263 9.19112C11.4216 9.0584 11.0737 8.98073 10.6827 8.95812V8.24973H10.1512V8.96083C9.781 8.9865 9.44393 9.06326 9.13999 9.19112C8.75971 9.3511 8.46045 9.57363 8.24222 9.85871C8.02615 10.1438 7.9192 10.4771 7.92136 10.8586C7.9192 11.3241 8.08017 11.6943 8.40427 11.9692C8.72838 12.244 9.17024 12.446 9.72986 12.5752L10.1512 12.6757V14.2967C10.0082 14.2806 9.8753 14.2503 9.75254 14.2057C9.5624 14.134 9.41007 14.0283 9.29556 13.8889C9.1832 13.7473 9.11946 13.571 9.10434 13.3597H7.74634C7.75715 13.813 7.87274 14.1934 8.09313 14.5011C8.31569 14.8067 8.62466 15.0374 9.02007 15.1933C9.34961 15.3225 9.72665 15.3981 10.1512 15.4202ZM10.6827 14.2935C10.8069 14.2776 10.9204 14.2504 11.023 14.2119C11.2002 14.1463 11.3374 14.055 11.4346 13.9381C11.5319 13.8212 11.5805 13.6868 11.5805 13.5351C11.5805 13.3936 11.5362 13.2746 11.4476 13.1782C11.3612 13.0818 11.2337 12.9998 11.0652 12.9321C10.9544 12.887 10.827 12.8447 10.6827 12.8051V14.2935ZM10.1512 11.4864V10.0819C10.038 10.097 9.93649 10.122 9.84653 10.1571C9.6888 10.2166 9.56781 10.2997 9.48354 10.4063C9.40143 10.513 9.36038 10.634 9.36038 10.7693C9.35606 10.8821 9.38091 10.9806 9.43492 11.0647C9.4911 11.1488 9.56781 11.2216 9.66504 11.2831C9.76227 11.3426 9.87462 11.3949 10.0021 11.44C10.0506 11.4564 10.1002 11.4719 10.1512 11.4864Z" fill="#7782AA"/>
</g>
</svg>
