<svg width="24" height="24" viewBox="0 0 24 24" fill="none" xmlns="http://www.w3.org/2000/svg">
<path d="M20.6723 13.2312C22.5101 11.1705 22.5101 7.82949 20.6723 5.76882C18.8344 3.70815 15.8547 3.70815 14.0168 5.76882L8.89047 11.5167C8.14846 12.3486 8.14846 13.6975 8.89047 14.5295C9.50418 15.2176 10.4558 15.352 11.2025 14.8559L11.7066 14.5211C12.75 13.828 14.0796 14.0157 14.9371 14.9772L15.0296 15.0809C16.1322 16.3172 17.9199 16.3172 19.0225 15.0809L20.6723 13.2312Z" fill="#7782AA"/>
<path d="M11.6288 7.07868L8.35485 10.736C7.20903 12.016 7.20903 14.0913 8.35485 15.3713C9.30255 16.43 10.772 16.6367 11.9251 15.8736L12.4457 15.529C13.1411 15.0687 14.0274 15.1934 14.599 15.8319L14.6945 15.9387C15.3407 16.6604 16.1576 17.075 17 17.1825C16.774 17.9974 16.3722 18.7647 15.7946 19.4099C13.8967 21.53 10.8196 21.53 8.92171 19.4099L3.42342 13.2678C1.52553 11.1476 1.52553 7.71023 3.42342 5.5901C5.32131 3.46997 8.39839 3.46997 10.2963 5.5901L11.6288 7.07868Z" fill="#7782AA"/>
</svg>
