<svg width="14" height="14" viewBox="0 0 14 14" fill="none" xmlns="http://www.w3.org/2000/svg">
<path d="M7.92827 6.96376C8.18205 7.11694 8.31488 7.42236 8.23408 7.72095L7.64097 9.91218C7.54269 10.2752 7.16571 10.4907 6.79894 10.3934C6.43217 10.2961 6.21454 9.92292 6.31282 9.55991L6.78322 7.82195L4.82571 6.66374C4.50835 6.47594 4.40199 6.07074 4.58685 5.75379C4.58851 5.75093 4.59016 5.74812 4.59187 5.74532C4.62861 5.6845 4.67379 5.63172 4.72507 5.58769C4.7286 5.58403 4.73219 5.58043 4.73582 5.57683L7.32853 3.0103C7.4828 2.85758 7.69219 2.79262 7.8933 2.81541C8.09447 2.79262 8.30381 2.85758 8.45808 3.0103L11.0508 5.57683C11.3193 5.84261 11.3193 6.27352 11.0508 6.5393C10.7823 6.80507 10.347 6.80507 10.0786 6.5393L7.8933 4.37612L6.27122 5.98182L7.89229 6.94094C7.90459 6.94825 7.91662 6.95582 7.92827 6.96376ZM3.33301 7.97349C4.84956 7.97349 6.083 9.19474 6.083 10.6957C6.083 12.1973 4.8495 13.418 3.33301 13.418C1.81597 13.418 0.583008 12.1973 0.583008 10.6957C0.583008 9.19474 1.81648 7.97349 3.33301 7.97349ZM3.33301 8.8809C2.32278 8.8809 1.49968 9.69584 1.49968 10.6957C1.49968 11.6961 2.32226 12.5106 3.33301 12.5106C4.34334 12.5106 5.16633 11.6961 5.16633 10.6957C5.16633 9.69584 4.34323 8.8809 3.33301 8.8809ZM7.91635 10.6957C7.91635 9.19421 9.14915 7.97349 10.6661 7.97349C12.1829 7.97349 13.4163 9.19463 13.4163 10.6957C13.4163 12.1975 12.1832 13.418 10.6661 13.418C9.14899 13.418 7.91635 12.1976 7.91635 10.6957ZM8.83302 10.6957C8.83302 11.6965 9.65532 12.5106 10.6661 12.5106C11.677 12.5106 12.4997 11.6964 12.4997 10.6957C12.4997 9.69574 11.6766 8.8809 10.6661 8.8809C9.65548 8.8809 8.83302 9.69531 8.83302 10.6957ZM9.7497 2.98278C9.24342 2.98278 8.83302 2.57652 8.83302 2.07538C8.83302 1.57423 9.24342 1.16797 9.7497 1.16797C10.2559 1.16797 10.6663 1.57423 10.6663 2.07538C10.6663 2.57652 10.2559 2.98278 9.7497 2.98278Z" fill="#7782AA"/>
</svg>
