<svg width="20" height="17" viewBox="0 0 20 17" fill="none" xmlns="http://www.w3.org/2000/svg">
<path d="M0 2.49568C0 1.11735 1.11929 0 2.5 0H14.1667C15.5474 0 16.6667 1.11735 16.6667 2.49568V4.67861C16.1444 4.45084 15.585 4.29225 15 4.21444V2.49568C15 2.03623 14.6269 1.66378 14.1667 1.66378H2.5C2.03976 1.66378 1.66667 2.03623 1.66667 2.49568V10.8146C1.66667 11.274 2.03976 11.6465 2.5 11.6465C5 11.6465 5 11.6465 5 14.1422V14.8617L8.16962 12.2249L8.18484 12.2124C8.35437 12.7703 8.60008 13.2951 8.90989 13.7749L5.38356 16.7084C4.5694 17.3857 3.33333 16.8077 3.33333 15.7498V14.1422C3.33333 13.3103 3.33333 13.3103 2.5 13.3103C1.11929 13.3103 0 12.1929 0 10.8146V2.49568Z" fill="white"/>
<path fill-rule="evenodd" clip-rule="evenodd" d="M20 11.0581C20 8.14862 17.6418 5.78181 14.7427 5.78181C11.8436 5.78181 9.48455 8.14862 9.48455 11.0581C9.48455 13.9676 11.8427 16.3344 14.7427 16.3344C17.6418 16.3344 20 13.9676 20 11.0581ZM13.5627 13.6228C14.4473 13.7208 15.2336 13.7208 15.97 13.6228C15.8082 14.2697 15.6479 14.7175 15.5681 14.9392C15.5506 14.9878 15.537 15.0255 15.5282 15.0521C15.2827 15.102 14.9873 15.151 14.7418 15.151C14.6191 15.151 14.4964 15.1388 14.3736 15.1265C14.2509 15.1143 14.1282 15.102 14.0055 15.102C14.0055 15.0883 13.9869 15.0373 13.9558 14.9522C13.874 14.7278 13.7057 14.2661 13.5627 13.6228ZM12.8264 14.6582C12.1266 14.3013 11.5586 13.7315 11.2046 13.0311C11.6464 13.179 12.0891 13.3269 12.4818 13.4249L12.4873 13.4467C12.5845 13.8342 12.6818 14.2217 12.8264 14.6582ZM17.0518 13.4249C17.5436 13.3269 17.9364 13.179 18.28 13.0311C17.9426 13.7144 17.3911 14.2684 16.7082 14.6083C16.8555 14.2145 16.9536 13.8197 17.0518 13.4249ZM13.3173 10.5653C14.3982 10.7623 15.3809 10.7133 16.2164 10.5653C16.2164 11.2565 16.2163 11.8969 16.1182 12.4884C15.0864 12.6363 14.1527 12.5873 13.3664 12.4884C13.3173 11.8967 13.2682 11.2551 13.3173 10.5653ZM10.6155 11.0581C10.6155 10.6143 10.7136 10.1715 10.8609 9.72679C11.2475 9.94276 11.6723 10.083 12.0684 10.2138C12.125 10.2325 12.1811 10.251 12.2364 10.2695C12.1804 10.9433 12.1972 11.6212 12.2864 12.2914C11.3027 12.0936 10.7136 11.8477 10.7136 11.8477C10.6636 11.6008 10.6155 11.354 10.6155 11.0581ZM17.2973 10.2695C17.7519 10.12 18.1955 9.93864 18.6245 9.72679C18.7718 10.1216 18.87 10.5653 18.87 11.0581C18.8209 11.354 18.7718 11.6008 18.7227 11.8468C18.2459 12.0399 17.7523 12.1888 17.2482 12.2914C17.3464 11.5518 17.3464 10.9102 17.2973 10.2695ZM13.9073 7.06504C14.1527 7.01513 14.4482 6.96521 14.6936 6.96521C14.9829 6.96521 15.2722 7.01336 15.5615 7.06151L15.5773 7.06414L15.5282 7.11314C15.8115 7.89515 16.0093 8.70543 16.1182 9.52986C15.0864 9.67779 14.1527 9.62878 13.4155 9.52986C13.5244 8.70543 13.7222 7.89515 14.0055 7.11314L13.9073 7.06504ZM12.875 7.41014C12.2285 7.75483 11.6858 8.26537 11.3027 8.88915L11.3045 8.89005C11.4056 8.94052 11.7972 9.13598 12.3845 9.28302C12.4707 8.64106 12.6354 8.01207 12.875 7.41014ZM17.15 9.28302C17.0027 8.54339 16.8555 7.9526 16.7082 7.50791C17.2973 7.85277 17.8382 8.34646 18.1818 8.93816C17.8382 9.08608 17.4936 9.185 17.15 9.28302Z" fill="white"/>
</svg>
