<svg width="22" height="22" viewBox="0 0 22 22" fill="none" xmlns="http://www.w3.org/2000/svg">
<g clip-path="url(#clip0_16382_22904)">
<path d="M15.791 16.278C15.9636 16.1254 16.1289 15.9598 16.2814 15.7871L17.3522 16.8524H17.9045L20.8682 19.8284C21.1548 20.1148 21.1548 20.5829 20.8682 20.8693C20.5816 21.1557 20.1133 21.1557 19.8267 20.8693L16.856 17.9003V17.3484L15.791 16.278Z" fill="white"/>
<path fill-rule="evenodd" clip-rule="evenodd" d="M10.0837 16.4993C13.6275 16.4993 16.5003 13.6265 16.5003 10.0827C16.5003 6.53886 13.6275 3.66602 10.0837 3.66602C6.53983 3.66602 3.66699 6.53886 3.66699 10.0827C3.66699 13.6265 6.53983 16.4993 10.0837 16.4993ZM10.0837 19.2493C15.1463 19.2493 19.2503 15.1453 19.2503 10.0827C19.2503 5.02007 15.1463 0.916016 10.0837 0.916016C5.02105 0.916016 0.916992 5.02007 0.916992 10.0827C0.916992 15.1453 5.02105 19.2493 10.0837 19.2493Z" fill="white"/>
<path fill-rule="evenodd" clip-rule="evenodd" d="M8.217 7.21011C6.9017 7.9695 6.45104 9.65137 7.21043 10.9667C7.46357 11.4051 7.31335 11.9657 6.87491 12.2189C6.43648 12.472 5.87585 12.3218 5.62272 11.8833C4.35707 9.69117 5.10816 6.88805 7.30034 5.6224C7.73877 5.36927 8.2994 5.51948 8.55253 5.95792C8.80566 6.39635 8.65544 6.95698 8.217 7.21011Z" fill="white"/>
</g>
<defs>
<clipPath id="clip0_16382_22904">
<rect width="22" height="22" fill="white"/>
</clipPath>
</defs>
</svg>
