<svg width="24" height="24" viewBox="0 0 24 24" fill="none" xmlns="http://www.w3.org/2000/svg">
<path d="M18.9996 10.4457H18.7495V10.2065C18.7495 7.89971 17.4631 5.76847 15.3746 4.61509C13.2862 3.46164 10.7131 3.46164 8.62475 4.61509C6.53635 5.76838 5.2499 7.8998 5.2499 10.2065V10.4457H4.99983C4.46935 10.4457 3.96069 10.6472 3.58574 11.0059C3.21065 11.3647 2.99982 11.8513 2.99982 12.3586V14.9891C2.99982 15.4965 3.21065 15.983 3.58574 16.3419C3.96067 16.7005 4.46935 16.9022 4.99983 16.9022H6.74975C6.88246 16.9022 7.00958 16.8518 7.1034 16.762C7.19722 16.6723 7.24988 16.5507 7.24988 16.4239V10.9239C7.24988 10.797 7.19722 10.6754 7.1034 10.5857C7.00958 10.4961 6.88246 10.4457 6.74975 10.4457H6.24981V10.2065C6.24981 8.24156 7.34582 6.42593 9.12485 5.44358C10.9037 4.46109 13.0957 4.46109 14.8747 5.44358C16.6538 6.42606 17.7498 8.24169 17.7498 10.2065V10.4457H17.2498C16.9736 10.4457 16.7497 10.6597 16.7497 10.9239V16.4239C16.7497 16.5507 16.8024 16.6723 16.8962 16.762C16.99 16.8518 17.1171 16.9021 17.2498 16.9021H18.1849H18.1847C18.074 17.3125 17.8239 17.6761 17.4736 17.9358C17.1234 18.1955 16.6929 18.3367 16.2497 18.3368H13.9123C13.7538 17.908 13.392 17.5763 12.9372 17.4432C12.4823 17.31 11.9885 17.391 11.6061 17.6616C11.2237 17.9321 10.9982 18.3601 10.9982 18.8152C10.9982 19.2701 11.2237 19.6981 11.6061 19.9687C11.9885 20.2392 12.4824 20.3203 12.9372 20.1872C13.392 20.0539 13.7538 19.7223 13.9123 19.2934H16.2497C16.9586 19.2933 17.6444 19.0531 18.1859 18.6154C18.7272 18.1777 19.089 17.5707 19.2073 16.9022C19.701 16.8529 20.1578 16.6298 20.4892 16.2761C20.8203 15.9227 21.0024 15.4638 20.9998 14.9891V12.3586C20.9998 11.8513 20.789 11.3648 20.4139 11.0059C20.0389 10.6471 19.5303 10.4457 18.9998 10.4457L18.9996 10.4457ZM6.24977 15.9456L4.99979 15.9455C4.73456 15.9455 4.48029 15.8447 4.29266 15.6654C4.1052 15.4859 3.99987 15.2427 3.99987 14.989V12.3585C3.99987 12.105 4.1052 11.8616 4.29266 11.6823C4.4803 11.5028 4.73455 11.402 4.99979 11.402H6.24977V15.9456ZM12.4997 19.2934C12.2976 19.2934 12.1151 19.1768 12.0377 18.9981C11.9603 18.8193 12.0032 18.6136 12.1462 18.4769C12.2892 18.3401 12.5042 18.2992 12.6909 18.3733C12.8779 18.4472 12.9996 18.6216 12.9996 18.8152C12.9996 18.9419 12.9469 19.0635 12.8533 19.1533C12.7595 19.243 12.6324 19.2934 12.4997 19.2934ZM19.9995 14.989C19.9995 15.2427 19.8942 15.486 19.7068 15.6654C19.5191 15.8447 19.2649 15.9455 18.9996 15.9455H17.7496V11.402H18.9996C19.2649 11.402 19.5191 11.5028 19.7068 11.6823C19.8942 11.8616 19.9995 12.1049 19.9995 12.3585V14.989Z" fill="white" stroke="white" stroke-width="0.2"/>
<circle cx="10.2498" cy="10.75" r="0.75" fill="white"/>
<circle cx="13.7498" cy="10.75" r="0.75" fill="white"/>
</svg>
