<svg width="18" height="18" viewBox="0 0 18 18" fill="none" xmlns="http://www.w3.org/2000/svg">
<path fill-rule="evenodd" clip-rule="evenodd" d="M0 8.99997C0 4.02945 4.0294 0 9.00001 0C13.9706 0 18 4.02945 18 8.99997C18 13.9705 13.9706 18 9.00001 18C4.0294 18 0 13.9706 0 8.99997ZM8.61716 14.5296L8.59503 15.7121H9.36595L9.38806 14.5307C10.044 14.4981 10.6182 14.3782 11.1106 14.171C11.6981 13.9251 12.1529 13.5664 12.4751 13.0948C12.7973 12.6232 12.9664 12.0472 12.9822 11.3668C12.9865 10.9727 12.9337 10.6089 12.824 10.2754C12.7175 9.94198 12.546 9.64219 12.3097 9.37608C12.0734 9.10661 11.7676 8.8725 11.3921 8.67377C11.0166 8.47503 10.5636 8.31503 10.0332 8.19377L9.50895 8.0725L9.54276 6.26621C9.77228 6.30858 9.95405 6.39194 10.0881 6.51629C10.2945 6.70492 10.4071 6.96766 10.4259 7.3045H12.9267C12.9362 6.62745 12.7906 6.03629 12.4898 5.53103C12.1922 5.0224 11.7624 4.62829 11.2004 4.34871C10.7359 4.11762 10.1978 3.98203 9.58627 3.94196L9.60807 2.77734H8.83715L8.81536 3.94101C8.20497 3.97958 7.65247 4.1138 7.15787 4.34366C6.56668 4.61987 6.10035 5.00556 5.7589 5.50071C5.42064 5.9925 5.24693 6.56682 5.23777 7.22366C5.21951 8.03208 5.45043 8.6704 5.93054 9.13861C6.41385 9.60345 7.07984 9.93524 7.92852 10.134L8.6961 10.3127L8.66054 12.212C8.47579 12.1859 8.30903 12.1383 8.16024 12.0691C7.92415 11.958 7.74231 11.7946 7.61473 11.579C7.48714 11.3635 7.41848 11.0973 7.40874 10.7807H4.92675C4.91368 11.6464 5.07274 12.3571 5.40392 12.9129C5.7383 13.4653 6.21325 13.8746 6.82876 14.1407C7.34806 14.3641 7.9442 14.4937 8.61716 14.5296ZM9.43163 12.2032C9.53707 12.1848 9.63314 12.1586 9.71984 12.1247C9.90926 12.0506 10.0538 11.9479 10.1534 11.8165C10.253 11.6851 10.3059 11.5352 10.3122 11.3668C10.312 11.2085 10.2661 11.0704 10.1743 10.9525C10.0856 10.8312 9.93723 10.7234 9.72903 10.6291C9.65081 10.5924 9.56217 10.5567 9.4631 10.5218L9.43163 12.2032ZM8.7418 7.87115L8.77193 6.26121C8.66447 6.27888 8.5684 6.30496 8.48372 6.33945C8.31324 6.40682 8.18615 6.49945 8.10246 6.61734C8.01878 6.73524 7.97395 6.86998 7.96798 7.02155C7.95938 7.14619 7.97764 7.25903 8.02275 7.36008C8.07106 7.45777 8.14774 7.54703 8.25277 7.62787C8.35787 7.70534 8.49287 7.77608 8.65777 7.84008C8.68492 7.85062 8.71293 7.86098 8.7418 7.87115Z" fill="white"/>
</svg>
