<svg width="9" height="11" viewBox="0 0 9 11" fill="none" xmlns="http://www.w3.org/2000/svg">
<path fill-rule="evenodd" clip-rule="evenodd" d="M4.50002 11C2.36113 11 0.650024 9.16669 0.650024 6.875C0.650024 5.04167 1.67669 3.11667 2.10447 2.38333L2.12651 2.34783C2.42361 1.86909 3.58352 0 4.50002 0C4.75666 0 4.92784 0.183331 4.92784 0.458331C4.92784 1.50688 5.23491 2.52254 5.77106 3.36587C5.93892 3.10401 6.06928 2.82232 6.12557 2.5208C6.1489 2.39601 6.2356 2.2984 6.34425 2.24277C6.55716 2.10903 6.81095 2.15588 6.93838 2.38333C7.53721 3.39167 7.96502 4.49167 8.22166 5.45417C8.30721 5.95831 8.35002 6.4625 8.35002 6.875C8.35002 9.16669 6.63893 11 4.50002 11ZM4.50002 10.0833C5.22721 10.0833 5.78338 9.4875 5.78338 8.70831C5.78338 8.59956 5.75659 8.46206 5.72417 8.29581C5.71562 8.25196 5.70677 8.20616 5.69784 8.15831C5.65764 7.96479 5.58927 7.76121 5.50149 7.55221C5.46891 7.5878 5.43465 7.62166 5.39869 7.6538C5.35588 7.74541 5.22721 7.79169 5.14166 7.79169C5.01338 7.79169 4.88502 7.74581 4.79948 7.65419C4.50487 7.25246 4.2941 6.81474 4.17767 6.35242C3.76552 6.90384 3.21669 7.90405 3.21669 8.70831C3.21669 9.4875 3.77281 10.0833 4.50002 10.0833Z" fill="#F9C201"/>
</svg>
