<svg width="36" height="36" viewBox="0 0 36 36" fill="none" xmlns="http://www.w3.org/2000/svg">
<path d="M31.8157 26.6859L19.7611 6.61209C18.7897 4.99826 17.2113 4.99471 16.2399 6.61209L4.18534 26.6859C2.88189 28.8531 3.82878 30.6004 6.29572 30.6004H29.7074C32.1699 30.6004 33.1168 28.8494 31.8168 26.6859H31.8157ZM18.0007 27.1494C17.3826 27.1494 16.8829 26.635 16.8829 25.999C16.8829 25.363 17.3826 24.8487 18.0007 24.8487C18.6187 24.8487 19.1185 25.363 19.1185 25.999C19.1185 26.635 18.6187 27.1494 18.0007 27.1494ZM19.1185 21.401C19.1185 22.0268 18.6187 22.548 18.0007 22.548C17.3791 22.548 16.8829 22.0337 16.8829 21.401V14.4917C16.8829 13.866 17.3826 13.3447 18.0007 13.3447C18.6222 13.3447 19.1185 13.859 19.1185 14.4917V21.401Z" fill="#D99504"/>
</svg>
